<?xml version="1.0" encoding="UTF-8"?>
<svg id="Layer_2" data-name="Layer 2" xmlns="http://www.w3.org/2000/svg" viewBox="0 0 36.1 64">
  <defs>
    <style>
      .cls-1 {
        fill: #8f5d18;
      }

      .cls-2 {
        fill: #ffc078;
      }

      .cls-3 {
        fill: #56542f;
      }

      .cls-4 {
        fill: #cf8853;
      }

      .cls-5 {
        fill: #682a21;
      }

      .cls-6 {
        fill: #bf803b;
      }

      .cls-7 {
        fill: #3d3d22;
      }

      .cls-8 {
        fill: #72713d;
      }

      .cls-9 {
        fill: #623e09;
      }

      .cls-10 {
        fill: #cad0dd;
      }

      .cls-11 {
        fill: #402d1e;
      }

      .cls-12 {
        fill: #4d4f32;
      }

      .cls-13 {
        fill: #6a707d;
      }
    </style>
  </defs>
  <g id="Layer_1-2" data-name="Layer 1">
    <g>
      <rect class="cls-2" x="34.46" y="50.87" width="1.64" height="1.64"/>
      <rect class="cls-2" x="34.46" y="49.23" width="1.64" height="1.64"/>
      <rect class="cls-12" x="34.46" y="47.59" width="1.64" height="1.64"/>
      <rect class="cls-12" x="34.46" y="45.95" width="1.64" height="1.64"/>
      <rect class="cls-12" x="34.46" y="44.31" width="1.64" height="1.64"/>
      <rect class="cls-12" x="34.46" y="42.67" width="1.64" height="1.64"/>
      <rect class="cls-9" x="34.46" y="22.97" width="1.64" height="1.64"/>
      <rect class="cls-9" x="34.46" y="21.33" width="1.64" height="1.64"/>
      <rect class="cls-9" x="34.46" y="19.69" width="1.64" height="1.64"/>
      <rect class="cls-9" x="34.46" y="18.05" width="1.64" height="1.64"/>
      <rect class="cls-9" x="34.46" y="16.41" width="1.64" height="1.64"/>
      <rect class="cls-9" x="34.46" y="14.77" width="1.64" height="1.64"/>
      <rect class="cls-9" x="34.46" y="13.13" width="1.64" height="1.64"/>
      <rect class="cls-2" x="32.82" y="52.51" width="1.64" height="1.64"/>
      <rect class="cls-2" x="32.82" y="50.87" width="1.64" height="1.64"/>
      <rect class="cls-7" x="32.82" y="49.23" width="1.64" height="1.64"/>
      <rect class="cls-12" x="32.82" y="47.59" width="1.64" height="1.64"/>
      <rect class="cls-12" x="32.82" y="45.95" width="1.64" height="1.64"/>
      <rect class="cls-12" x="32.82" y="44.31" width="1.64" height="1.64"/>
      <rect class="cls-12" x="32.82" y="42.67" width="1.64" height="1.64"/>
      <rect class="cls-12" x="32.82" y="41.03" width="1.64" height="1.64"/>
      <rect class="cls-9" x="32.82" y="39.38" width="1.64" height="1.64"/>
      <rect class="cls-9" x="32.82" y="37.74" width="1.64" height="1.64"/>
      <rect class="cls-9" x="32.82" y="36.1" width="1.64" height="1.64"/>
      <rect class="cls-9" x="32.82" y="34.46" width="1.64" height="1.64"/>
      <rect class="cls-9" x="32.82" y="27.9" width="1.64" height="1.64"/>
      <rect class="cls-9" x="32.82" y="26.26" width="1.64" height="1.64"/>
      <rect class="cls-9" x="32.82" y="24.62" width="1.64" height="1.64"/>
      <rect class="cls-9" x="32.82" y="22.97" width="1.64" height="1.64"/>
      <rect class="cls-9" x="32.82" y="21.33" width="1.64" height="1.64"/>
      <rect class="cls-9" x="32.82" y="19.69" width="1.64" height="1.64"/>
      <rect class="cls-9" x="32.82" y="18.05" width="1.64" height="1.64"/>
      <rect class="cls-9" x="32.82" y="16.41" width="1.64" height="1.64"/>
      <rect class="cls-9" x="32.82" y="14.77" width="1.64" height="1.64"/>
      <rect class="cls-9" x="32.82" y="13.13" width="1.64" height="1.64"/>
      <rect class="cls-9" x="32.82" y="11.49" width="1.64" height="1.64"/>
      <rect class="cls-4" x="31.18" y="52.51" width="1.64" height="1.64"/>
      <rect class="cls-4" x="31.18" y="50.87" width="1.64" height="1.64"/>
      <rect class="cls-7" x="31.18" y="49.23" width="1.64" height="1.64"/>
      <rect class="cls-7" x="31.18" y="47.59" width="1.64" height="1.64"/>
      <rect class="cls-12" x="31.18" y="45.95" width="1.64" height="1.64"/>
      <rect class="cls-12" x="31.18" y="44.31" width="1.64" height="1.64"/>
      <rect class="cls-12" x="31.18" y="42.67" width="1.64" height="1.64"/>
      <rect class="cls-9" x="31.18" y="41.03" width="1.64" height="1.64"/>
      <rect class="cls-9" x="31.18" y="39.38" width="1.64" height="1.64"/>
      <rect class="cls-9" x="31.18" y="37.74" width="1.64" height="1.64"/>
      <rect class="cls-9" x="31.18" y="36.1" width="1.64" height="1.64"/>
      <rect class="cls-9" x="31.18" y="34.46" width="1.64" height="1.64"/>
      <rect class="cls-9" x="31.18" y="32.82" width="1.64" height="1.64"/>
      <rect class="cls-9" x="31.18" y="31.18" width="1.64" height="1.64"/>
      <rect class="cls-9" x="31.18" y="29.54" width="1.64" height="1.64"/>
      <rect class="cls-9" x="31.18" y="27.9" width="1.64" height="1.64"/>
      <rect class="cls-9" x="31.18" y="26.26" width="1.64" height="1.64"/>
      <rect class="cls-9" x="31.18" y="24.62" width="1.64" height="1.64"/>
      <rect class="cls-9" x="31.18" y="22.97" width="1.64" height="1.64"/>
      <rect class="cls-9" x="31.18" y="21.33" width="1.64" height="1.64"/>
      <rect class="cls-9" x="31.18" y="19.69" width="1.64" height="1.64"/>
      <rect class="cls-9" x="31.18" y="18.05" width="1.64" height="1.64"/>
      <rect class="cls-9" x="31.18" y="16.41" width="1.64" height="1.64"/>
      <rect class="cls-1" x="31.18" y="14.77" width="1.64" height="1.64"/>
      <rect class="cls-1" x="31.18" y="13.13" width="1.64" height="1.64"/>
      <rect class="cls-9" x="31.18" y="11.49" width="1.64" height="1.64"/>
      <rect class="cls-9" x="31.18" y="9.85" width="1.64" height="1.64"/>
      <rect class="cls-9" x="32.82" y="9.85" width="1.64" height="1.64"/>
      <rect class="cls-9" x="31.18" y="8.2" width="1.64" height="1.64"/>
      <rect class="cls-4" x="29.54" y="50.87" width="1.64" height="1.64"/>
      <rect class="cls-7" x="29.54" y="49.23" width="1.64" height="1.64"/>
      <rect class="cls-7" x="29.54" y="47.59" width="1.64" height="1.64"/>
      <rect class="cls-7" x="29.54" y="45.95" width="1.64" height="1.64"/>
      <rect class="cls-12" x="29.54" y="44.31" width="1.64" height="1.64"/>
      <rect class="cls-12" x="27.9" y="44.31" width="1.64" height="1.64"/>
      <rect class="cls-12" x="29.54" y="42.67" width="1.64" height="1.64"/>
      <rect class="cls-9" x="29.54" y="41.03" width="1.64" height="1.64"/>
      <rect class="cls-9" x="29.54" y="39.38" width="1.64" height="1.64"/>
      <rect class="cls-9" x="29.54" y="37.74" width="1.64" height="1.64"/>
      <rect class="cls-9" x="29.54" y="36.1" width="1.64" height="1.64"/>
      <rect class="cls-9" x="29.54" y="34.46" width="1.64" height="1.64"/>
      <rect class="cls-9" x="29.54" y="32.82" width="1.64" height="1.64"/>
      <rect class="cls-9" x="29.54" y="31.18" width="1.64" height="1.64"/>
      <rect class="cls-9" x="29.54" y="29.54" width="1.64" height="1.64"/>
      <rect class="cls-9" x="29.54" y="27.9" width="1.64" height="1.64"/>
      <rect class="cls-9" x="29.54" y="26.26" width="1.64" height="1.64"/>
      <rect class="cls-9" x="29.54" y="24.62" width="1.64" height="1.64"/>
      <rect class="cls-9" x="29.54" y="22.97" width="1.64" height="1.64"/>
      <rect class="cls-9" x="29.54" y="21.33" width="1.64" height="1.64"/>
      <rect class="cls-9" x="29.54" y="19.69" width="1.64" height="1.64"/>
      <rect class="cls-9" x="29.54" y="18.05" width="1.64" height="1.64"/>
      <rect class="cls-1" x="29.54" y="16.41" width="1.64" height="1.64"/>
      <rect class="cls-1" x="29.54" y="14.77" width="1.64" height="1.64"/>
      <rect class="cls-9" x="29.54" y="13.13" width="1.64" height="1.64"/>
      <rect class="cls-9" x="29.54" y="11.49" width="1.64" height="1.64"/>
      <rect class="cls-9" x="29.54" y="9.85" width="1.64" height="1.64"/>
      <rect class="cls-9" x="29.54" y="8.2" width="1.64" height="1.64"/>
      <rect class="cls-9" x="29.54" y="6.56" width="1.64" height="1.64"/>
      <rect class="cls-7" x="27.9" y="45.95" width="1.64" height="1.64"/>
      <rect class="cls-12" x="27.9" y="42.67" width="1.64" height="1.64"/>
      <rect class="cls-9" x="27.9" y="41.03" width="1.64" height="1.64"/>
      <rect class="cls-9" x="27.9" y="39.38" width="1.64" height="1.64"/>
      <rect class="cls-9" x="27.9" y="37.74" width="1.64" height="1.64"/>
      <rect class="cls-9" x="27.9" y="36.1" width="1.64" height="1.64"/>
      <rect class="cls-9" x="27.9" y="34.46" width="1.64" height="1.64"/>
      <rect class="cls-9" x="27.9" y="32.82" width="1.64" height="1.64"/>
      <rect class="cls-9" x="27.9" y="31.18" width="1.64" height="1.64"/>
      <rect class="cls-9" x="27.9" y="29.54" width="1.64" height="1.64"/>
      <rect class="cls-9" x="27.9" y="27.9" width="1.64" height="1.64"/>
      <rect class="cls-9" x="27.9" y="26.26" width="1.64" height="1.64"/>
      <rect class="cls-9" x="27.9" y="24.62" width="1.64" height="1.64"/>
      <rect class="cls-9" x="27.9" y="22.97" width="1.64" height="1.64"/>
      <rect class="cls-9" x="27.9" y="21.33" width="1.64" height="1.64"/>
      <rect class="cls-9" x="27.9" y="19.69" width="1.64" height="1.64"/>
      <rect class="cls-9" x="27.9" y="18.05" width="1.64" height="1.64"/>
      <rect class="cls-1" x="27.9" y="16.41" width="1.64" height="1.64"/>
      <rect class="cls-9" x="27.9" y="14.77" width="1.64" height="1.64"/>
      <rect class="cls-9" x="27.9" y="13.13" width="1.64" height="1.64"/>
      <rect class="cls-9" x="27.9" y="11.49" width="1.64" height="1.64"/>
      <rect class="cls-9" x="27.9" y="9.85" width="1.64" height="1.64"/>
      <rect class="cls-9" x="27.9" y="8.2" width="1.64" height="1.64"/>
      <rect class="cls-9" x="27.9" y="6.56" width="1.64" height="1.64"/>
      <rect class="cls-11" x="27.9" y="4.92" width="1.64" height="1.64"/>
      <rect class="cls-10" x="26.26" y="62.36" width="1.64" height="1.64"/>
      <rect class="cls-5" x="26.26" y="60.72" width="1.64" height="1.64"/>
      <rect class="cls-5" x="26.26" y="59.08" width="1.64" height="1.64"/>
      <rect class="cls-5" x="26.26" y="57.44" width="1.64" height="1.64"/>
      <rect class="cls-5" x="26.26" y="54.15" width="1.64" height="1.64"/>
      <rect class="cls-5" x="26.26" y="52.51" width="1.64" height="1.64"/>
      <rect class="cls-8" x="26.26" y="50.87" width="1.64" height="1.64"/>
      <rect class="cls-8" x="26.26" y="49.23" width="1.64" height="1.64"/>
      <rect class="cls-8" x="26.26" y="47.59" width="1.64" height="1.64"/>
      <rect class="cls-8" x="26.26" y="45.95" width="1.64" height="1.64"/>
      <rect class="cls-8" x="26.26" y="44.31" width="1.64" height="1.64"/>
      <rect class="cls-8" x="26.26" y="42.67" width="1.64" height="1.64"/>
      <rect class="cls-11" x="26.26" y="41.03" width="1.64" height="1.64"/>
      <rect class="cls-9" x="26.26" y="39.38" width="1.64" height="1.64"/>
      <rect class="cls-9" x="26.26" y="37.74" width="1.64" height="1.64"/>
      <rect class="cls-9" x="26.26" y="36.1" width="1.64" height="1.64"/>
      <rect class="cls-9" x="26.26" y="34.46" width="1.64" height="1.64"/>
      <rect class="cls-9" x="26.26" y="32.82" width="1.64" height="1.64"/>
      <rect class="cls-9" x="26.26" y="31.18" width="1.64" height="1.64"/>
      <rect class="cls-9" x="26.26" y="29.54" width="1.64" height="1.64"/>
      <rect class="cls-9" x="26.26" y="27.9" width="1.64" height="1.64"/>
      <rect class="cls-9" x="26.26" y="26.26" width="1.64" height="1.64"/>
      <rect class="cls-9" x="26.26" y="24.62" width="1.64" height="1.64"/>
      <rect class="cls-9" x="26.26" y="22.97" width="1.64" height="1.64"/>
      <rect class="cls-9" x="26.26" y="21.33" width="1.64" height="1.64"/>
      <rect class="cls-9" x="26.26" y="19.69" width="1.64" height="1.64"/>
      <rect class="cls-9" x="26.26" y="18.05" width="1.64" height="1.64"/>
      <rect class="cls-9" x="26.26" y="16.41" width="1.64" height="1.64"/>
      <rect class="cls-9" x="26.26" y="14.77" width="1.64" height="1.64"/>
      <rect class="cls-9" x="26.26" y="13.13" width="1.64" height="1.64"/>
      <rect class="cls-9" x="26.26" y="11.49" width="1.64" height="1.64"/>
      <rect class="cls-9" x="26.26" y="9.85" width="1.64" height="1.64"/>
      <rect class="cls-9" x="26.26" y="8.2" width="1.64" height="1.64"/>
      <rect class="cls-9" x="26.26" y="6.56" width="1.64" height="1.64"/>
      <rect class="cls-11" x="26.26" y="4.92" width="1.64" height="1.64"/>
      <rect class="cls-13" x="24.61" y="62.36" width="1.64" height="1.64"/>
      <rect class="cls-5" x="24.61" y="60.72" width="1.64" height="1.64"/>
      <rect class="cls-5" x="24.61" y="59.08" width="1.64" height="1.64"/>
      <rect class="cls-5" x="24.61" y="57.44" width="1.64" height="1.64"/>
      <rect class="cls-5" x="24.61" y="55.79" width="1.64" height="1.64"/>
      <rect class="cls-5" x="24.61" y="54.15" width="1.64" height="1.64"/>
      <rect class="cls-8" x="24.61" y="52.51" width="1.64" height="1.64"/>
      <rect class="cls-8" x="24.61" y="50.87" width="1.64" height="1.64"/>
      <rect class="cls-8" x="24.61" y="49.23" width="1.64" height="1.64"/>
      <rect class="cls-8" x="24.61" y="47.59" width="1.64" height="1.64"/>
      <rect class="cls-8" x="24.61" y="45.95" width="1.64" height="1.64"/>
      <rect class="cls-8" x="24.61" y="44.31" width="1.64" height="1.64"/>
      <rect class="cls-3" x="24.61" y="42.67" width="1.64" height="1.64"/>
      <rect class="cls-11" x="24.61" y="41.03" width="1.64" height="1.64"/>
      <rect class="cls-9" x="24.61" y="39.38" width="1.64" height="1.64"/>
      <rect class="cls-11" x="24.61" y="37.74" width="1.64" height="1.64"/>
      <rect class="cls-9" x="24.61" y="36.1" width="1.64" height="1.64"/>
      <rect class="cls-9" x="24.61" y="34.46" width="1.64" height="1.64"/>
      <rect class="cls-9" x="24.61" y="32.82" width="1.64" height="1.64"/>
      <rect class="cls-9" x="24.61" y="31.18" width="1.64" height="1.64"/>
      <rect class="cls-9" x="24.61" y="29.54" width="1.64" height="1.64"/>
      <rect class="cls-9" x="24.61" y="27.9" width="1.64" height="1.64"/>
      <rect class="cls-9" x="24.61" y="26.26" width="1.64" height="1.64"/>
      <rect class="cls-9" x="24.61" y="24.62" width="1.64" height="1.64"/>
      <rect class="cls-9" x="24.61" y="22.97" width="1.64" height="1.64"/>
      <rect class="cls-9" x="24.61" y="21.33" width="1.64" height="1.64"/>
      <rect class="cls-9" x="24.61" y="19.69" width="1.64" height="1.64"/>
      <rect class="cls-9" x="24.61" y="18.05" width="1.64" height="1.64"/>
      <rect class="cls-9" x="24.61" y="16.41" width="1.64" height="1.64"/>
      <rect class="cls-9" x="24.61" y="14.77" width="1.64" height="1.64"/>
      <rect class="cls-9" x="24.61" y="13.13" width="1.64" height="1.64"/>
      <rect class="cls-9" x="24.61" y="11.49" width="1.64" height="1.64"/>
      <rect class="cls-9" x="24.61" y="9.85" width="1.64" height="1.64"/>
      <rect class="cls-9" x="24.61" y="8.2" width="1.64" height="1.64"/>
      <rect class="cls-9" x="24.61" y="6.56" width="1.64" height="1.64"/>
      <rect class="cls-9" x="24.61" y="4.92" width="1.64" height="1.64"/>
      <rect class="cls-11" x="24.61" y="3.28" width="1.64" height="1.64"/>
      <rect class="cls-13" x="22.97" y="62.36" width="1.64" height="1.64"/>
      <rect class="cls-5" x="22.97" y="60.72" width="1.64" height="1.64"/>
      <rect class="cls-5" x="22.97" y="59.08" width="1.64" height="1.64"/>
      <rect class="cls-5" x="22.97" y="57.44" width="1.64" height="1.64"/>
      <rect class="cls-5" x="22.97" y="55.79" width="1.64" height="1.64"/>
      <rect class="cls-5" x="22.97" y="54.15" width="1.64" height="1.64"/>
      <rect class="cls-8" x="22.97" y="52.51" width="1.64" height="1.64"/>
      <rect class="cls-8" x="22.97" y="50.87" width="1.64" height="1.64"/>
      <rect class="cls-8" x="22.97" y="49.23" width="1.64" height="1.64"/>
      <rect class="cls-8" x="22.97" y="47.59" width="1.64" height="1.64"/>
      <rect class="cls-8" x="22.97" y="45.95" width="1.64" height="1.64"/>
      <rect class="cls-8" x="22.97" y="44.31" width="1.64" height="1.64"/>
      <rect class="cls-9" x="22.97" y="42.67" width="1.64" height="1.64"/>
      <rect class="cls-9" x="22.97" y="41.03" width="1.64" height="1.64"/>
      <rect class="cls-11" x="22.97" y="39.38" width="1.64" height="1.64"/>
      <rect class="cls-9" x="22.97" y="37.74" width="1.64" height="1.64"/>
      <rect class="cls-9" x="22.97" y="36.1" width="1.64" height="1.64"/>
      <rect class="cls-9" x="22.97" y="34.46" width="1.64" height="1.64"/>
      <rect class="cls-9" x="22.97" y="32.82" width="1.64" height="1.64"/>
      <rect class="cls-9" x="22.97" y="31.18" width="1.64" height="1.64"/>
      <rect class="cls-9" x="22.97" y="29.54" width="1.64" height="1.64"/>
      <rect class="cls-9" x="22.97" y="27.9" width="1.64" height="1.64"/>
      <rect class="cls-9" x="22.97" y="26.26" width="1.64" height="1.64"/>
      <rect class="cls-9" x="22.97" y="24.62" width="1.64" height="1.64"/>
      <rect class="cls-9" x="22.97" y="22.97" width="1.64" height="1.64"/>
      <rect class="cls-9" x="22.97" y="21.33" width="1.64" height="1.64"/>
      <rect class="cls-9" x="22.97" y="19.69" width="1.64" height="1.64"/>
      <rect class="cls-9" x="22.97" y="18.05" width="1.64" height="1.64"/>
      <rect class="cls-9" x="22.97" y="16.41" width="1.64" height="1.64"/>
      <rect class="cls-9" x="22.97" y="14.77" width="1.64" height="1.64"/>
      <rect class="cls-9" x="22.97" y="13.13" width="1.64" height="1.64"/>
      <rect class="cls-9" x="22.97" y="11.49" width="1.64" height="1.64"/>
      <rect class="cls-9" x="22.97" y="9.85" width="1.64" height="1.64"/>
      <rect class="cls-9" x="22.97" y="8.2" width="1.64" height="1.64"/>
      <rect class="cls-9" x="22.97" y="6.56" width="1.64" height="1.64"/>
      <rect class="cls-9" x="22.97" y="4.92" width="1.64" height="1.64"/>
      <rect class="cls-11" x="22.97" y="3.28" width="1.64" height="1.64"/>
      <rect class="cls-13" x="21.33" y="62.36" width="1.64" height="1.64"/>
      <rect class="cls-5" x="21.33" y="60.72" width="1.64" height="1.64"/>
      <rect class="cls-5" x="21.33" y="59.08" width="1.64" height="1.64"/>
      <rect class="cls-5" x="21.33" y="57.44" width="1.64" height="1.64"/>
      <rect class="cls-5" x="21.33" y="55.79" width="1.64" height="1.64"/>
      <rect class="cls-5" x="21.33" y="54.15" width="1.64" height="1.64"/>
      <rect class="cls-8" x="21.33" y="52.51" width="1.64" height="1.64"/>
      <rect class="cls-8" x="21.33" y="50.87" width="1.64" height="1.64"/>
      <rect class="cls-8" x="21.33" y="49.23" width="1.64" height="1.64"/>
      <rect class="cls-8" x="21.33" y="47.59" width="1.64" height="1.64"/>
      <rect class="cls-8" x="21.33" y="45.95" width="1.64" height="1.64"/>
      <rect class="cls-9" x="21.33" y="44.31" width="1.64" height="1.64"/>
      <rect class="cls-9" x="21.33" y="42.67" width="1.64" height="1.64"/>
      <rect class="cls-9" x="21.33" y="41.03" width="1.64" height="1.64"/>
      <rect class="cls-9" x="21.33" y="39.38" width="1.64" height="1.64"/>
      <rect class="cls-9" x="21.33" y="37.74" width="1.64" height="1.64"/>
      <rect class="cls-9" x="21.33" y="36.1" width="1.64" height="1.64"/>
      <rect class="cls-9" x="21.33" y="34.46" width="1.64" height="1.64"/>
      <rect class="cls-9" x="21.33" y="32.82" width="1.64" height="1.64"/>
      <rect class="cls-9" x="21.33" y="31.18" width="1.64" height="1.64"/>
      <rect class="cls-9" x="21.33" y="29.54" width="1.64" height="1.64"/>
      <rect class="cls-9" x="21.33" y="27.9" width="1.64" height="1.64"/>
      <rect class="cls-9" x="21.33" y="26.26" width="1.64" height="1.64"/>
      <rect class="cls-9" x="21.33" y="24.62" width="1.64" height="1.64"/>
      <rect class="cls-9" x="21.33" y="22.97" width="1.64" height="1.64"/>
      <rect class="cls-9" x="21.33" y="21.33" width="1.64" height="1.64"/>
      <rect class="cls-9" x="21.33" y="19.69" width="1.64" height="1.64"/>
      <rect class="cls-9" x="21.33" y="18.05" width="1.64" height="1.64"/>
      <rect class="cls-9" x="21.33" y="16.41" width="1.64" height="1.64"/>
      <rect class="cls-9" x="21.33" y="14.77" width="1.64" height="1.64"/>
      <rect class="cls-9" x="21.33" y="13.13" width="1.64" height="1.64"/>
      <rect class="cls-9" x="21.33" y="11.49" width="1.64" height="1.64"/>
      <rect class="cls-9" x="21.33" y="9.85" width="1.64" height="1.64"/>
      <rect class="cls-9" x="21.33" y="8.2" width="1.64" height="1.64"/>
      <rect class="cls-1" x="21.33" y="6.56" width="1.64" height="1.64"/>
      <rect class="cls-9" x="21.33" y="4.92" width="1.64" height="1.64"/>
      <rect class="cls-9" x="21.33" y="3.28" width="1.64" height="1.64"/>
      <rect class="cls-11" x="21.33" y="1.64" width="1.64" height="1.64"/>
      <rect class="cls-1" x="21.33" width="1.64" height="1.64"/>
      <rect class="cls-10" x="27.9" y="62.36" width="1.64" height="1.64"/>
      <rect class="cls-5" x="19.69" y="54.15" width="1.64" height="1.64"/>
      <rect class="cls-8" x="19.69" y="52.51" width="1.64" height="1.64"/>
      <rect class="cls-8" x="19.69" y="50.87" width="1.64" height="1.64"/>
      <rect class="cls-8" x="19.69" y="49.23" width="1.64" height="1.64"/>
      <rect class="cls-8" x="19.69" y="47.59" width="1.64" height="1.64"/>
      <rect class="cls-8" x="19.69" y="45.95" width="1.64" height="1.64"/>
      <rect class="cls-11" x="19.69" y="44.31" width="1.64" height="1.64"/>
      <rect class="cls-11" x="19.69" y="42.67" width="1.64" height="1.64"/>
      <rect class="cls-9" x="19.69" y="41.03" width="1.64" height="1.64"/>
      <rect class="cls-9" x="19.69" y="39.38" width="1.64" height="1.64"/>
      <rect class="cls-9" x="19.69" y="37.74" width="1.64" height="1.64"/>
      <rect class="cls-9" x="19.69" y="36.1" width="1.64" height="1.64"/>
      <rect class="cls-9" x="19.69" y="34.46" width="1.64" height="1.64"/>
      <rect class="cls-9" x="19.69" y="32.82" width="1.64" height="1.64"/>
      <rect class="cls-9" x="19.69" y="31.18" width="1.64" height="1.64"/>
      <rect class="cls-9" x="19.69" y="29.54" width="1.64" height="1.64"/>
      <rect class="cls-9" x="19.69" y="27.9" width="1.64" height="1.64"/>
      <rect class="cls-9" x="19.69" y="26.26" width="1.64" height="1.64"/>
      <rect class="cls-9" x="19.69" y="24.62" width="1.64" height="1.64"/>
      <rect class="cls-9" x="19.69" y="22.97" width="1.64" height="1.64"/>
      <rect class="cls-9" x="19.69" y="21.33" width="1.64" height="1.64"/>
      <rect class="cls-9" x="19.69" y="19.69" width="1.64" height="1.64"/>
      <rect class="cls-9" x="19.69" y="18.05" width="1.64" height="1.64"/>
      <rect class="cls-9" x="19.69" y="16.41" width="1.64" height="1.64"/>
      <rect class="cls-9" x="19.69" y="14.77" width="1.64" height="1.64"/>
      <rect class="cls-1" x="19.69" y="13.13" width="1.64" height="1.64"/>
      <rect class="cls-9" x="19.69" y="11.49" width="1.64" height="1.64"/>
      <rect class="cls-9" x="19.69" y="9.85" width="1.64" height="1.64"/>
      <rect class="cls-1" x="19.69" y="8.2" width="1.64" height="1.64"/>
      <rect class="cls-1" x="19.69" y="6.56" width="1.64" height="1.64"/>
      <rect class="cls-1" x="19.69" y="4.92" width="1.64" height="1.64"/>
      <rect class="cls-9" x="19.69" y="3.28" width="1.64" height="1.64"/>
      <rect class="cls-9" x="19.69" y="1.64" width="1.64" height="1.64"/>
      <rect class="cls-8" x="18.05" y="52.51" width="1.64" height="1.64"/>
      <rect class="cls-8" x="18.05" y="50.87" width="1.64" height="1.64"/>
      <rect class="cls-8" x="18.05" y="49.23" width="1.64" height="1.64"/>
      <rect class="cls-8" x="18.05" y="47.59" width="1.64" height="1.64"/>
      <rect class="cls-11" x="18.05" y="45.95" width="1.64" height="1.64"/>
      <rect class="cls-9" x="18.05" y="44.31" width="1.64" height="1.64"/>
      <rect class="cls-9" x="18.05" y="42.67" width="1.64" height="1.64"/>
      <rect class="cls-11" x="18.05" y="41.03" width="1.64" height="1.64"/>
      <rect class="cls-9" x="18.05" y="39.38" width="1.64" height="1.64"/>
      <rect class="cls-9" x="18.05" y="37.74" width="1.64" height="1.64"/>
      <rect class="cls-9" x="18.05" y="36.1" width="1.64" height="1.64"/>
      <rect class="cls-9" x="18.05" y="34.46" width="1.64" height="1.64"/>
      <rect class="cls-9" x="18.05" y="32.82" width="1.64" height="1.64"/>
      <rect class="cls-9" x="18.05" y="31.18" width="1.64" height="1.64"/>
      <rect class="cls-9" x="18.05" y="29.54" width="1.64" height="1.64"/>
      <rect class="cls-9" x="18.05" y="27.9" width="1.64" height="1.64"/>
      <rect class="cls-9" x="18.05" y="26.26" width="1.64" height="1.64"/>
      <rect class="cls-9" x="18.05" y="24.62" width="1.64" height="1.64"/>
      <rect class="cls-9" x="18.05" y="22.97" width="1.64" height="1.64"/>
      <rect class="cls-9" x="18.05" y="21.33" width="1.64" height="1.64"/>
      <rect class="cls-9" x="18.05" y="19.69" width="1.64" height="1.64"/>
      <rect class="cls-9" x="18.05" y="18.05" width="1.64" height="1.64"/>
      <rect class="cls-9" x="18.05" y="16.41" width="1.64" height="1.64"/>
      <rect class="cls-9" x="18.05" y="14.77" width="1.64" height="1.64"/>
      <rect class="cls-1" x="18.05" y="13.13" width="1.64" height="1.64"/>
      <rect class="cls-1" x="18.05" y="11.49" width="1.64" height="1.64"/>
      <rect class="cls-1" x="18.05" y="9.85" width="1.64" height="1.64"/>
      <rect class="cls-1" x="18.05" y="8.2" width="1.64" height="1.64"/>
      <rect class="cls-1" x="18.05" y="6.56" width="1.64" height="1.64"/>
      <rect class="cls-1" x="18.05" y="4.92" width="1.64" height="1.64"/>
      <rect class="cls-9" x="18.05" y="3.28" width="1.64" height="1.64"/>
      <rect class="cls-1" x="18.05" width="1.64" height="1.64"/>
      <rect class="cls-8" x="16.41" y="52.51" width="1.64" height="1.64"/>
      <rect class="cls-8" x="16.41" y="50.87" width="1.64" height="1.64"/>
      <rect class="cls-8" x="16.41" y="49.23" width="1.64" height="1.64"/>
      <rect class="cls-8" x="16.41" y="47.59" width="1.64" height="1.64"/>
      <rect class="cls-9" x="16.41" y="45.95" width="1.64" height="1.64"/>
      <rect class="cls-9" x="16.41" y="44.31" width="1.64" height="1.64"/>
      <rect class="cls-9" x="16.41" y="42.67" width="1.64" height="1.64"/>
      <rect class="cls-9" x="16.41" y="41.03" width="1.64" height="1.64"/>
      <rect class="cls-9" x="16.41" y="39.38" width="1.64" height="1.64"/>
      <rect class="cls-9" x="16.41" y="37.74" width="1.64" height="1.64"/>
      <rect class="cls-9" x="16.41" y="36.1" width="1.64" height="1.64"/>
      <rect class="cls-9" x="16.41" y="34.46" width="1.64" height="1.64"/>
      <rect class="cls-9" x="16.41" y="32.82" width="1.64" height="1.64"/>
      <rect class="cls-9" x="16.41" y="31.18" width="1.64" height="1.64"/>
      <rect class="cls-9" x="16.41" y="29.54" width="1.64" height="1.64"/>
      <rect class="cls-9" x="16.41" y="27.9" width="1.64" height="1.64"/>
      <rect class="cls-9" x="16.41" y="26.26" width="1.64" height="1.64"/>
      <rect class="cls-9" x="16.41" y="24.62" width="1.64" height="1.64"/>
      <rect class="cls-9" x="16.41" y="22.97" width="1.64" height="1.64"/>
      <rect class="cls-9" x="16.41" y="21.33" width="1.64" height="1.64"/>
      <rect class="cls-9" x="16.41" y="19.69" width="1.64" height="1.64"/>
      <rect class="cls-9" x="16.41" y="18.05" width="1.64" height="1.64"/>
      <rect class="cls-9" x="16.41" y="16.41" width="1.64" height="1.64"/>
      <rect class="cls-1" x="16.41" y="14.77" width="1.64" height="1.64"/>
      <rect class="cls-1" x="16.41" y="13.13" width="1.64" height="1.64"/>
      <rect class="cls-1" x="16.41" y="11.49" width="1.64" height="1.64"/>
      <rect class="cls-1" x="16.41" y="9.85" width="1.64" height="1.64"/>
      <rect class="cls-1" x="16.41" y="8.2" width="1.64" height="1.64"/>
      <rect class="cls-1" x="16.41" y="6.56" width="1.64" height="1.64"/>
      <rect class="cls-1" x="16.41" y="4.92" width="1.64" height="1.64"/>
      <rect class="cls-9" x="16.41" y="3.28" width="1.64" height="1.64"/>
      <rect class="cls-10" x="6.56" y="62.36" width="1.64" height="1.64"/>
      <rect class="cls-5" x="14.77" y="54.15" width="1.64" height="1.64"/>
      <rect class="cls-8" x="14.77" y="52.51" width="1.64" height="1.64"/>
      <rect class="cls-8" x="14.77" y="50.87" width="1.64" height="1.64"/>
      <rect class="cls-8" x="14.77" y="49.23" width="1.64" height="1.64"/>
      <rect class="cls-8" x="14.77" y="47.59" width="1.64" height="1.64"/>
      <rect class="cls-8" x="14.77" y="45.95" width="1.64" height="1.64"/>
      <rect class="cls-8" x="14.77" y="44.31" width="1.64" height="1.64"/>
      <rect class="cls-9" x="14.77" y="42.67" width="1.64" height="1.64"/>
      <rect class="cls-9" x="14.77" y="41.03" width="1.64" height="1.64"/>
      <rect class="cls-9" x="14.77" y="39.38" width="1.64" height="1.64"/>
      <rect class="cls-9" x="14.77" y="37.74" width="1.64" height="1.64"/>
      <rect class="cls-9" x="14.77" y="36.1" width="1.64" height="1.64"/>
      <rect class="cls-9" x="14.77" y="34.46" width="1.64" height="1.64"/>
      <rect class="cls-9" x="14.77" y="32.82" width="1.64" height="1.64"/>
      <rect class="cls-9" x="14.77" y="31.18" width="1.64" height="1.64"/>
      <rect class="cls-9" x="14.77" y="29.54" width="1.64" height="1.64"/>
      <rect class="cls-9" x="14.77" y="27.9" width="1.64" height="1.64"/>
      <rect class="cls-9" x="14.77" y="26.26" width="1.64" height="1.64"/>
      <rect class="cls-9" x="14.77" y="24.62" width="1.64" height="1.64"/>
      <rect class="cls-9" x="14.77" y="22.97" width="1.64" height="1.64"/>
      <rect class="cls-9" x="14.77" y="21.33" width="1.64" height="1.64"/>
      <rect class="cls-9" x="14.77" y="19.69" width="1.64" height="1.64"/>
      <rect class="cls-9" x="14.77" y="18.05" width="1.64" height="1.64"/>
      <rect class="cls-9" x="14.77" y="16.41" width="1.64" height="1.64"/>
      <rect class="cls-1" x="14.77" y="14.77" width="1.64" height="1.64"/>
      <rect class="cls-1" x="14.77" y="13.13" width="1.64" height="1.64"/>
      <rect class="cls-1" x="14.77" y="11.49" width="1.64" height="1.64"/>
      <rect class="cls-1" x="14.77" y="9.85" width="1.64" height="1.64"/>
      <rect class="cls-1" x="14.77" y="8.2" width="1.64" height="1.64"/>
      <rect class="cls-1" x="14.77" y="6.56" width="1.64" height="1.64"/>
      <rect class="cls-6" x="14.77" y="4.92" width="1.64" height="1.64"/>
      <rect class="cls-9" x="14.77" y="3.28" width="1.64" height="1.64"/>
      <rect class="cls-13" x="13.13" y="62.36" width="1.64" height="1.64"/>
      <rect class="cls-5" x="13.13" y="60.72" width="1.64" height="1.64"/>
      <rect class="cls-5" x="13.13" y="59.08" width="1.64" height="1.64"/>
      <rect class="cls-5" x="13.13" y="57.44" width="1.64" height="1.64"/>
      <rect class="cls-5" x="13.13" y="55.79" width="1.64" height="1.64"/>
      <rect class="cls-5" x="13.13" y="54.15" width="1.64" height="1.64"/>
      <rect class="cls-8" x="13.13" y="52.51" width="1.64" height="1.64"/>
      <rect class="cls-8" x="13.13" y="50.87" width="1.64" height="1.64"/>
      <rect class="cls-8" x="13.13" y="49.23" width="1.64" height="1.64"/>
      <rect class="cls-8" x="13.13" y="47.59" width="1.64" height="1.64"/>
      <rect class="cls-8" x="13.13" y="45.95" width="1.64" height="1.64"/>
      <rect class="cls-8" x="13.13" y="44.31" width="1.64" height="1.64"/>
      <rect class="cls-11" x="13.13" y="42.67" width="1.64" height="1.64"/>
      <rect class="cls-9" x="13.13" y="41.03" width="1.64" height="1.64"/>
      <rect class="cls-9" x="13.13" y="39.38" width="1.64" height="1.64"/>
      <rect class="cls-9" x="13.13" y="37.74" width="1.64" height="1.64"/>
      <rect class="cls-9" x="13.13" y="36.1" width="1.64" height="1.64"/>
      <rect class="cls-9" x="13.13" y="34.46" width="1.64" height="1.64"/>
      <rect class="cls-9" x="13.13" y="32.82" width="1.64" height="1.64"/>
      <rect class="cls-9" x="13.13" y="31.18" width="1.64" height="1.64"/>
      <rect class="cls-9" x="13.13" y="29.54" width="1.64" height="1.64"/>
      <rect class="cls-9" x="13.13" y="27.9" width="1.64" height="1.64"/>
      <rect class="cls-9" x="13.13" y="26.26" width="1.64" height="1.64"/>
      <rect class="cls-9" x="13.13" y="24.62" width="1.64" height="1.64"/>
      <rect class="cls-9" x="13.13" y="22.97" width="1.64" height="1.64"/>
      <rect class="cls-9" x="13.13" y="21.33" width="1.64" height="1.64"/>
      <rect class="cls-9" x="13.13" y="19.69" width="1.64" height="1.64"/>
      <rect class="cls-9" x="13.13" y="18.05" width="1.64" height="1.64"/>
      <rect class="cls-9" x="13.13" y="16.41" width="1.64" height="1.64"/>
      <rect class="cls-1" x="13.13" y="14.77" width="1.64" height="1.64"/>
      <rect class="cls-1" x="13.13" y="13.13" width="1.64" height="1.64"/>
      <rect class="cls-1" x="13.13" y="11.49" width="1.64" height="1.64"/>
      <rect class="cls-1" x="13.13" y="9.85" width="1.64" height="1.64"/>
      <rect class="cls-1" x="13.13" y="8.2" width="1.64" height="1.64"/>
      <rect class="cls-6" x="13.13" y="6.56" width="1.64" height="1.64"/>
      <rect class="cls-6" x="13.13" y="4.92" width="1.64" height="1.64"/>
      <rect class="cls-9" x="13.13" y="3.28" width="1.64" height="1.64"/>
      <rect class="cls-13" x="11.49" y="62.36" width="1.64" height="1.64"/>
      <rect class="cls-5" x="11.49" y="60.72" width="1.64" height="1.64"/>
      <rect class="cls-5" x="11.49" y="59.08" width="1.64" height="1.64"/>
      <rect class="cls-5" x="11.49" y="57.44" width="1.64" height="1.64"/>
      <rect class="cls-5" x="11.49" y="55.79" width="1.64" height="1.64"/>
      <rect class="cls-5" x="11.49" y="54.15" width="1.64" height="1.64"/>
      <rect class="cls-8" x="11.49" y="52.51" width="1.64" height="1.64"/>
      <rect class="cls-8" x="11.49" y="50.87" width="1.64" height="1.64"/>
      <rect class="cls-8" x="11.49" y="49.23" width="1.64" height="1.64"/>
      <rect class="cls-8" x="11.49" y="47.59" width="1.64" height="1.64"/>
      <rect class="cls-8" x="11.49" y="45.95" width="1.64" height="1.64"/>
      <rect class="cls-8" x="11.49" y="44.31" width="1.64" height="1.64"/>
      <rect class="cls-11" x="11.49" y="42.67" width="1.64" height="1.64"/>
      <rect class="cls-9" x="11.49" y="41.03" width="1.64" height="1.64"/>
      <rect class="cls-9" x="11.49" y="39.38" width="1.64" height="1.64"/>
      <rect class="cls-9" x="11.49" y="37.74" width="1.64" height="1.64"/>
      <rect class="cls-9" x="11.49" y="36.1" width="1.64" height="1.64"/>
      <rect class="cls-9" x="11.49" y="34.46" width="1.64" height="1.64"/>
      <rect class="cls-9" x="11.49" y="32.82" width="1.64" height="1.64"/>
      <rect class="cls-9" x="11.49" y="31.18" width="1.64" height="1.64"/>
      <rect class="cls-9" x="11.49" y="29.54" width="1.64" height="1.64"/>
      <rect class="cls-9" x="11.49" y="27.9" width="1.64" height="1.64"/>
      <rect class="cls-9" x="11.49" y="26.26" width="1.64" height="1.64"/>
      <rect class="cls-9" x="11.49" y="24.62" width="1.64" height="1.64"/>
      <rect class="cls-9" x="11.49" y="22.97" width="1.64" height="1.64"/>
      <rect class="cls-9" x="11.49" y="21.33" width="1.64" height="1.64"/>
      <rect class="cls-9" x="11.49" y="19.69" width="1.64" height="1.64"/>
      <rect class="cls-9" x="11.49" y="18.05" width="1.64" height="1.64"/>
      <rect class="cls-9" x="11.49" y="16.41" width="1.64" height="1.64"/>
      <rect class="cls-9" x="11.49" y="14.77" width="1.64" height="1.64"/>
      <rect class="cls-1" x="11.49" y="13.13" width="1.64" height="1.64"/>
      <rect class="cls-1" x="11.49" y="11.49" width="1.64" height="1.64"/>
      <rect class="cls-1" x="11.49" y="9.85" width="1.64" height="1.64"/>
      <rect class="cls-1" x="11.49" y="8.2" width="1.64" height="1.64"/>
      <rect class="cls-6" x="11.49" y="6.56" width="1.64" height="1.64"/>
      <rect class="cls-9" x="11.49" y="4.92" width="1.64" height="1.64"/>
      <rect class="cls-9" x="11.49" y="3.28" width="1.64" height="1.64"/>
      <rect class="cls-13" x="9.85" y="62.36" width="1.64" height="1.64"/>
      <rect class="cls-5" x="9.85" y="60.72" width="1.64" height="1.64"/>
      <rect class="cls-5" x="9.85" y="59.08" width="1.64" height="1.64"/>
      <rect class="cls-5" x="9.85" y="57.44" width="1.64" height="1.64"/>
      <rect class="cls-5" x="9.85" y="55.79" width="1.64" height="1.64"/>
      <rect class="cls-5" x="9.85" y="54.15" width="1.64" height="1.64"/>
      <rect class="cls-8" x="9.85" y="52.51" width="1.64" height="1.64"/>
      <rect class="cls-8" x="9.85" y="50.87" width="1.64" height="1.64"/>
      <rect class="cls-8" x="9.85" y="49.23" width="1.64" height="1.64"/>
      <rect class="cls-8" x="9.85" y="47.59" width="1.64" height="1.64"/>
      <rect class="cls-8" x="9.85" y="45.95" width="1.64" height="1.64"/>
      <rect class="cls-8" x="9.85" y="44.31" width="1.64" height="1.64"/>
      <rect class="cls-3" x="9.85" y="42.67" width="1.64" height="1.64"/>
      <rect class="cls-9" x="9.85" y="41.03" width="1.64" height="1.64"/>
      <rect class="cls-9" x="9.85" y="39.38" width="1.64" height="1.64"/>
      <rect class="cls-11" x="9.85" y="37.74" width="1.64" height="1.64"/>
      <rect class="cls-9" x="9.85" y="36.1" width="1.64" height="1.64"/>
      <rect class="cls-9" x="9.85" y="34.46" width="1.64" height="1.64"/>
      <rect class="cls-9" x="9.85" y="32.82" width="1.64" height="1.64"/>
      <rect class="cls-9" x="9.85" y="31.18" width="1.64" height="1.64"/>
      <rect class="cls-9" x="9.85" y="29.54" width="1.64" height="1.64"/>
      <rect class="cls-9" x="9.85" y="27.9" width="1.64" height="1.64"/>
      <rect class="cls-9" x="9.85" y="26.26" width="1.64" height="1.64"/>
      <rect class="cls-9" x="9.85" y="24.62" width="1.64" height="1.64"/>
      <rect class="cls-9" x="9.85" y="22.97" width="1.64" height="1.64"/>
      <rect class="cls-9" x="9.85" y="21.33" width="1.64" height="1.64"/>
      <rect class="cls-9" x="9.85" y="19.69" width="1.64" height="1.64"/>
      <rect class="cls-9" x="9.85" y="18.05" width="1.64" height="1.64"/>
      <rect class="cls-9" x="9.85" y="16.41" width="1.64" height="1.64"/>
      <rect class="cls-9" x="9.85" y="14.77" width="1.64" height="1.64"/>
      <rect class="cls-9" x="9.85" y="13.13" width="1.64" height="1.64"/>
      <rect class="cls-1" x="9.85" y="11.49" width="1.64" height="1.64"/>
      <rect class="cls-1" x="9.85" y="9.85" width="1.64" height="1.64"/>
      <rect class="cls-6" x="9.85" y="8.2" width="1.64" height="1.64"/>
      <rect class="cls-9" x="9.85" y="6.56" width="1.64" height="1.64"/>
      <rect class="cls-9" x="9.85" y="4.92" width="1.64" height="1.64"/>
      <rect class="cls-10" x="8.2" y="62.36" width="1.64" height="1.64"/>
      <rect class="cls-5" x="8.2" y="60.72" width="1.64" height="1.64"/>
      <rect class="cls-5" x="8.2" y="59.08" width="1.64" height="1.64"/>
      <rect class="cls-5" x="8.2" y="57.44" width="1.64" height="1.64"/>
      <rect class="cls-5" x="8.2" y="54.15" width="1.64" height="1.64"/>
      <rect class="cls-5" x="8.2" y="52.51" width="1.64" height="1.64"/>
      <rect class="cls-8" x="8.2" y="50.87" width="1.64" height="1.64"/>
      <rect class="cls-8" x="8.2" y="49.23" width="1.64" height="1.64"/>
      <rect class="cls-8" x="8.2" y="47.59" width="1.64" height="1.64"/>
      <rect class="cls-8" x="8.2" y="45.95" width="1.64" height="1.64"/>
      <rect class="cls-8" x="8.2" y="44.31" width="1.64" height="1.64"/>
      <rect class="cls-8" x="8.2" y="42.67" width="1.64" height="1.64"/>
      <rect class="cls-9" x="8.2" y="41.03" width="1.64" height="1.64"/>
      <rect class="cls-11" x="8.2" y="39.38" width="1.64" height="1.64"/>
      <rect class="cls-9" x="8.2" y="37.74" width="1.64" height="1.64"/>
      <rect class="cls-11" x="8.2" y="36.1" width="1.64" height="1.64"/>
      <rect class="cls-9" x="8.2" y="34.46" width="1.64" height="1.64"/>
      <rect class="cls-9" x="8.2" y="32.82" width="1.64" height="1.64"/>
      <rect class="cls-9" x="8.2" y="31.18" width="1.64" height="1.64"/>
      <rect class="cls-9" x="8.2" y="29.54" width="1.64" height="1.64"/>
      <rect class="cls-9" x="8.2" y="27.9" width="1.64" height="1.64"/>
      <rect class="cls-9" x="8.2" y="26.26" width="1.64" height="1.64"/>
      <rect class="cls-9" x="8.2" y="24.62" width="1.64" height="1.64"/>
      <rect class="cls-9" x="8.2" y="22.97" width="1.64" height="1.64"/>
      <rect class="cls-9" x="8.2" y="21.33" width="1.64" height="1.64"/>
      <rect class="cls-9" x="8.2" y="19.69" width="1.64" height="1.64"/>
      <rect class="cls-9" x="8.2" y="18.05" width="1.64" height="1.64"/>
      <rect class="cls-9" x="8.2" y="16.41" width="1.64" height="1.64"/>
      <rect class="cls-9" x="8.2" y="14.77" width="1.64" height="1.64"/>
      <rect class="cls-9" x="8.2" y="13.13" width="1.64" height="1.64"/>
      <rect class="cls-9" x="8.2" y="11.49" width="1.64" height="1.64"/>
      <rect class="cls-9" x="8.2" y="9.85" width="1.64" height="1.64"/>
      <rect class="cls-9" x="8.2" y="8.2" width="1.64" height="1.64"/>
      <rect class="cls-9" x="8.2" y="6.56" width="1.64" height="1.64"/>
      <rect class="cls-9" x="8.2" y="4.92" width="1.64" height="1.64"/>
      <rect class="cls-7" x="6.56" y="45.95" width="1.64" height="1.64"/>
      <rect class="cls-12" x="6.56" y="44.31" width="1.64" height="1.64"/>
      <rect class="cls-12" x="6.56" y="42.67" width="1.64" height="1.64"/>
      <rect class="cls-11" x="6.56" y="41.03" width="1.64" height="1.64"/>
      <rect class="cls-9" x="6.56" y="39.38" width="1.64" height="1.64"/>
      <rect class="cls-9" x="6.56" y="37.74" width="1.64" height="1.64"/>
      <rect class="cls-9" x="6.56" y="36.1" width="1.64" height="1.64"/>
      <rect class="cls-9" x="6.56" y="34.46" width="1.64" height="1.64"/>
      <rect class="cls-9" x="6.56" y="32.82" width="1.64" height="1.64"/>
      <rect class="cls-9" x="6.56" y="31.18" width="1.64" height="1.64"/>
      <rect class="cls-9" x="6.56" y="29.54" width="1.64" height="1.64"/>
      <rect class="cls-9" x="6.56" y="27.9" width="1.64" height="1.64"/>
      <rect class="cls-9" x="6.56" y="26.26" width="1.64" height="1.64"/>
      <rect class="cls-9" x="6.56" y="24.62" width="1.64" height="1.64"/>
      <rect class="cls-9" x="6.56" y="22.97" width="1.64" height="1.64"/>
      <rect class="cls-9" x="6.56" y="21.33" width="1.64" height="1.64"/>
      <rect class="cls-9" x="6.56" y="19.69" width="1.64" height="1.64"/>
      <rect class="cls-9" x="6.56" y="18.05" width="1.64" height="1.64"/>
      <rect class="cls-9" x="6.56" y="16.41" width="1.64" height="1.64"/>
      <rect class="cls-9" x="6.56" y="14.77" width="1.64" height="1.64"/>
      <rect class="cls-9" x="6.56" y="13.13" width="1.64" height="1.64"/>
      <rect class="cls-9" x="6.56" y="11.49" width="1.64" height="1.64"/>
      <rect class="cls-9" x="6.56" y="9.85" width="1.64" height="1.64"/>
      <rect class="cls-9" x="6.56" y="8.2" width="1.64" height="1.64"/>
      <rect class="cls-9" x="6.56" y="6.56" width="1.64" height="1.64"/>
      <rect class="cls-4" x="4.92" y="50.87" width="1.64" height="1.64"/>
      <rect class="cls-7" x="4.92" y="49.23" width="1.64" height="1.64"/>
      <rect class="cls-7" x="4.92" y="47.59" width="1.64" height="1.64"/>
      <rect class="cls-7" x="4.92" y="45.95" width="1.64" height="1.64"/>
      <rect class="cls-12" x="4.92" y="44.31" width="1.64" height="1.64"/>
      <rect class="cls-12" x="4.92" y="42.67" width="1.64" height="1.64"/>
      <rect class="cls-11" x="4.92" y="41.03" width="1.64" height="1.64"/>
      <rect class="cls-9" x="4.92" y="39.38" width="1.64" height="1.64"/>
      <rect class="cls-9" x="4.92" y="37.74" width="1.64" height="1.64"/>
      <rect class="cls-9" x="4.92" y="36.1" width="1.64" height="1.64"/>
      <rect class="cls-9" x="4.92" y="34.46" width="1.64" height="1.64"/>
      <rect class="cls-9" x="4.92" y="32.82" width="1.64" height="1.64"/>
      <rect class="cls-9" x="4.92" y="31.18" width="1.64" height="1.64"/>
      <rect class="cls-9" x="4.92" y="29.54" width="1.64" height="1.64"/>
      <rect class="cls-9" x="4.92" y="27.9" width="1.64" height="1.64"/>
      <rect class="cls-9" x="4.92" y="26.26" width="1.64" height="1.64"/>
      <rect class="cls-9" x="4.92" y="24.62" width="1.64" height="1.64"/>
      <rect class="cls-9" x="4.92" y="22.97" width="1.64" height="1.64"/>
      <rect class="cls-9" x="4.92" y="21.33" width="1.64" height="1.64"/>
      <rect class="cls-9" x="4.92" y="19.69" width="1.64" height="1.64"/>
      <rect class="cls-9" x="4.92" y="18.05" width="1.64" height="1.64"/>
      <rect class="cls-9" x="4.92" y="16.41" width="1.64" height="1.64"/>
      <rect class="cls-9" x="4.92" y="14.77" width="1.64" height="1.64"/>
      <rect class="cls-9" x="4.92" y="13.13" width="1.64" height="1.64"/>
      <rect class="cls-9" x="4.92" y="11.49" width="1.64" height="1.64"/>
      <rect class="cls-9" x="4.92" y="9.85" width="1.64" height="1.64"/>
      <rect class="cls-9" x="4.92" y="8.2" width="1.64" height="1.64"/>
      <rect class="cls-4" x="3.28" y="52.51" width="1.64" height="1.64"/>
      <rect class="cls-4" x="3.28" y="50.87" width="1.64" height="1.64"/>
      <rect class="cls-7" x="3.28" y="49.23" width="1.64" height="1.64"/>
      <rect class="cls-7" x="3.28" y="47.59" width="1.64" height="1.64"/>
      <rect class="cls-12" x="3.28" y="45.95" width="1.64" height="1.64"/>
      <rect class="cls-12" x="3.28" y="44.31" width="1.64" height="1.64"/>
      <rect class="cls-12" x="3.28" y="42.67" width="1.64" height="1.64"/>
      <rect class="cls-11" x="3.28" y="41.03" width="1.64" height="1.64"/>
      <rect class="cls-9" x="3.28" y="39.38" width="1.64" height="1.64"/>
      <rect class="cls-9" x="3.28" y="37.74" width="1.64" height="1.64"/>
      <rect class="cls-9" x="3.28" y="36.1" width="1.64" height="1.64"/>
      <rect class="cls-9" x="3.28" y="34.46" width="1.64" height="1.64"/>
      <rect class="cls-11" x="3.28" y="32.82" width="1.64" height="1.64"/>
      <rect class="cls-11" x="3.28" y="31.18" width="1.64" height="1.64"/>
      <rect class="cls-11" x="3.28" y="29.54" width="1.64" height="1.64"/>
      <rect class="cls-11" x="3.28" y="27.9" width="1.64" height="1.64"/>
      <rect class="cls-9" x="3.28" y="26.26" width="1.64" height="1.64"/>
      <rect class="cls-9" x="3.28" y="24.62" width="1.64" height="1.64"/>
      <rect class="cls-9" x="3.28" y="22.97" width="1.64" height="1.64"/>
      <rect class="cls-9" x="3.28" y="21.33" width="1.64" height="1.64"/>
      <rect class="cls-9" x="3.28" y="19.69" width="1.64" height="1.64"/>
      <rect class="cls-9" x="3.28" y="18.05" width="1.64" height="1.64"/>
      <rect class="cls-9" x="3.28" y="16.41" width="1.64" height="1.64"/>
      <rect class="cls-9" x="3.28" y="14.77" width="1.64" height="1.64"/>
      <rect class="cls-9" x="3.28" y="13.13" width="1.64" height="1.64"/>
      <rect class="cls-9" x="3.28" y="11.49" width="1.64" height="1.64"/>
      <rect class="cls-2" x="1.64" y="52.51" width="1.64" height="1.64"/>
      <rect class="cls-2" x="1.64" y="50.87" width="1.64" height="1.64"/>
      <rect class="cls-7" x="1.64" y="49.23" width="1.64" height="1.64"/>
      <rect class="cls-12" x="1.64" y="47.59" width="1.64" height="1.64"/>
      <rect class="cls-12" x="1.64" y="45.95" width="1.64" height="1.64"/>
      <rect class="cls-12" x="1.64" y="44.31" width="1.64" height="1.64"/>
      <rect class="cls-12" x="1.64" y="42.67" width="1.64" height="1.64"/>
      <rect class="cls-11" x="1.64" y="39.38" width="1.64" height="1.64"/>
      <rect class="cls-9" x="1.64" y="37.74" width="1.64" height="1.64"/>
      <rect class="cls-9" x="1.64" y="36.1" width="1.64" height="1.64"/>
      <rect class="cls-9" x="1.64" y="34.46" width="1.64" height="1.64"/>
      <rect class="cls-11" x="1.64" y="26.26" width="1.64" height="1.64"/>
      <rect class="cls-11" x="1.64" y="24.62" width="1.64" height="1.64"/>
      <rect class="cls-11" x="1.64" y="22.97" width="1.64" height="1.64"/>
      <rect class="cls-11" x="1.64" y="21.33" width="1.64" height="1.64"/>
      <rect class="cls-11" x="1.64" y="19.69" width="1.64" height="1.64"/>
      <rect class="cls-11" x="1.64" y="18.05" width="1.64" height="1.64"/>
      <rect class="cls-11" x="1.64" y="16.41" width="1.64" height="1.64"/>
      <rect class="cls-9" x="1.64" y="14.77" width="1.64" height="1.64"/>
      <rect class="cls-9" x="1.64" y="13.13" width="1.64" height="1.64"/>
      <rect class="cls-2" y="50.87" width="1.64" height="1.64"/>
      <rect class="cls-2" y="49.23" width="1.64" height="1.64"/>
      <rect class="cls-12" y="47.59" width="1.64" height="1.64"/>
      <rect class="cls-12" y="45.95" width="1.64" height="1.64"/>
      <rect class="cls-12" y="44.31" width="1.64" height="1.64"/>
      <rect class="cls-9" y="37.74" width="1.64" height="1.64"/>
      <rect class="cls-9" y="36.1" width="1.64" height="1.64"/>
    </g>
  </g>
</svg>