<?xml version="1.0" encoding="UTF-8"?>
<svg id="Layer_2" data-name="Layer 2" xmlns="http://www.w3.org/2000/svg" viewBox="0 0 35.2 64">
  
  <g id="Layer_1-2" data-name="Layer 1">
    <g>
      <g>
        <rect fill="#33261b" x="33.6" y="40" width="1.6" height="1.6"/>
        <rect fill="#3d2e20" x="33.6" y="38.4" width="1.6" height="1.6"/>
        <rect fill="#5d4016" x="33.6" y="22.4" width="1.6" height="1.6"/>
        <rect fill="#5d4016" x="33.6" y="20.8" width="1.6" height="1.6"/>
        <rect fill="#5d4016" x="33.6" y="19.2" width="1.6" height="1.6"/>
        <rect fill="#5d4016" x="33.6" y="17.6" width="1.6" height="1.6"/>
        <rect fill="#5d4016" x="33.6" y="16" width="1.6" height="1.6"/>
        <rect fill="#5d4016" x="33.6" y="14.4" width="1.6" height="1.6"/>
        <rect fill="#5d4016" x="33.6" y="12.8" width="1.6" height="1.6"/>
        <rect fill="#4d4f35" x="32" y="40" width="1.6" height="1.6"/>
        <rect fill="#33261b" x="32" y="38.4" width="1.6" height="1.6"/>
        <rect fill="#3d2e20" x="32" y="36.8" width="1.6" height="1.6"/>
        <rect fill="#3d2e20" x="32" y="35.2" width="1.6" height="1.6"/>
        <rect fill="#3d2e20" x="32" y="33.6" width="1.6" height="1.6"/>
        <rect fill="#3d2e20" x="32" y="27.2" width="1.6" height="1.6"/>
        <rect fill="#3d2e20" x="32" y="25.6" width="1.6" height="1.6"/>
        <rect fill="#5d4016" x="32" y="24" width="1.6" height="1.6"/>
        <rect fill="#5d4016" x="32" y="22.4" width="1.6" height="1.6"/>
        <rect fill="#5d4016" x="32" y="20.8" width="1.6" height="1.6"/>
        <rect fill="#5d4016" x="32" y="19.2" width="1.6" height="1.6"/>
        <rect fill="#5d4016" x="32" y="17.6" width="1.6" height="1.6"/>
        <rect fill="#5d4016" x="32" y="16" width="1.6" height="1.6"/>
        <rect fill="#5d4016" x="32" y="14.4" width="1.6" height="1.6"/>
        <rect fill="#5d4016" x="32" y="12.8" width="1.6" height="1.6"/>
        <rect fill="#5d4016" x="32" y="11.2" width="1.6" height="1.6"/>
        <rect fill="#5d4016" x="32" y="9.6" width="1.6" height="1.6"/>
        <rect fill="#4d4f35" x="30.4" y="40" width="1.6" height="1.6"/>
        <rect fill="#4d4f35" x="30.4" y="38.4" width="1.6" height="1.6"/>
        <rect fill="#33261b" x="30.4" y="36.8" width="1.6" height="1.6"/>
        <rect fill="#33261b" x="30.4" y="35.2" width="1.6" height="1.6"/>
        <rect fill="#3d2e20" x="30.4" y="33.6" width="1.6" height="1.6"/>
        <rect fill="#33261b" x="30.4" y="32" width="1.6" height="1.6"/>
        <rect fill="#33261b" x="30.4" y="30.4" width="1.6" height="1.6"/>
        <rect fill="#33261b" x="30.4" y="28.8" width="1.6" height="1.6"/>
        <rect fill="#33261b" x="30.4" y="27.2" width="1.6" height="1.6"/>
        <rect fill="#ffc483" x="30.4" y="25.6" width="1.6" height="1.6"/>
        <rect fill="#ffc483" x="30.4" y="24" width="1.6" height="1.6"/>
        <rect fill="#5d4016" x="30.4" y="22.4" width="1.6" height="1.6"/>
        <rect fill="#5d4016" x="30.4" y="20.8" width="1.6" height="1.6"/>
        <rect fill="#5d4016" x="30.4" y="19.2" width="1.6" height="1.6"/>
        <rect fill="#5d4016" x="30.4" y="17.6" width="1.6" height="1.6"/>
        <rect fill="#5d4016" x="30.4" y="16" width="1.6" height="1.6"/>
        <rect fill="#895f28" x="30.4" y="14.4" width="1.6" height="1.6"/>
        <rect fill="#895f28" x="30.4" y="12.8" width="1.6" height="1.6"/>
        <rect fill="#5d4016" x="30.4" y="11.2" width="1.6" height="1.6"/>
        <rect fill="#5d4016" x="30.4" y="9.6" width="1.6" height="1.6"/>
        <rect fill="#5d4016" x="30.4" y="8" width="1.6" height="1.6"/>
        <rect fill="#4d4f35" x="28.8" y="40" width="1.6" height="1.6"/>
        <rect fill="#4d4f35" x="28.8" y="38.4" width="1.6" height="1.6"/>
        <rect fill="#4d4f35" x="28.8" y="36.8" width="1.6" height="1.6"/>
        <rect fill="#33261b" x="28.8" y="35.2" width="1.6" height="1.6"/>
        <rect fill="#33261b" x="28.8" y="33.6" width="1.6" height="1.6"/>
        <rect fill="#33261b" x="28.8" y="32" width="1.6" height="1.6"/>
        <rect fill="#33261b" x="28.8" y="30.4" width="1.6" height="1.6"/>
        <rect fill="#33261b" x="28.8" y="28.8" width="1.6" height="1.6"/>
        <rect fill="#c68c5c" x="28.8" y="27.2" width="1.6" height="1.6"/>
        <rect fill="#c68c5c" x="28.8" y="25.6" width="1.6" height="1.6"/>
        <rect fill="#3d2e20" x="28.8" y="24" width="1.6" height="1.6"/>
        <rect fill="#5d4016" x="28.8" y="22.4" width="1.6" height="1.6"/>
        <rect fill="#5d4016" x="28.8" y="20.8" width="1.6" height="1.6"/>
        <rect fill="#5d4016" x="28.8" y="19.2" width="1.6" height="1.6"/>
        <rect fill="#5d4016" x="28.8" y="17.6" width="1.6" height="1.6"/>
        <rect fill="#895f28" x="28.8" y="16" width="1.6" height="1.6"/>
        <rect fill="#895f28" x="28.8" y="14.4" width="1.6" height="1.6"/>
        <rect fill="#5d4016" x="28.8" y="12.8" width="1.6" height="1.6"/>
        <rect fill="#5d4016" x="28.8" y="11.2" width="1.6" height="1.6"/>
        <rect fill="#5d4016" x="28.8" y="9.6" width="1.6" height="1.6"/>
        <rect fill="#5d4016" x="28.8" y="8" width="1.6" height="1.6"/>
        <rect fill="#5d4016" x="28.8" y="6.4" width="1.6" height="1.6"/>
        <rect fill="#4d4f35" x="27.2" y="40" width="1.6" height="1.6"/>
        <rect fill="#4d4f35" x="27.2" y="38.4" width="1.6" height="1.6"/>
        <rect fill="#4d4f35" x="27.2" y="36.8" width="1.6" height="1.6"/>
        <rect fill="#4d4f35" x="27.2" y="35.2" width="1.6" height="1.6"/>
        <rect fill="#33261b" x="27.2" y="33.6" width="1.6" height="1.6"/>
        <rect fill="#c68c5c" x="27.2" y="32" width="1.6" height="1.6"/>
        <rect fill="#c68c5c" x="27.2" y="30.4" width="1.6" height="1.6"/>
        <rect fill="#c68c5c" x="27.2" y="28.8" width="1.6" height="1.6"/>
        <rect fill="#3d2e20" x="27.2" y="27.2" width="1.6" height="1.6"/>
        <rect fill="#3d2e20" x="27.2" y="25.6" width="1.6" height="1.6"/>
        <rect fill="#5d4016" x="27.2" y="24" width="1.6" height="1.6"/>
        <rect fill="#5d4016" x="27.2" y="22.4" width="1.6" height="1.6"/>
        <rect fill="#5d4016" x="27.2" y="20.8" width="1.6" height="1.6"/>
        <rect fill="#5d4016" x="27.2" y="19.2" width="1.6" height="1.6"/>
        <rect fill="#5d4016" x="27.2" y="17.6" width="1.6" height="1.6"/>
        <rect fill="#895f28" x="27.2" y="16" width="1.6" height="1.6"/>
        <rect fill="#5d4016" x="27.2" y="14.4" width="1.6" height="1.6"/>
        <rect fill="#5d4016" x="27.2" y="12.8" width="1.6" height="1.6"/>
        <rect fill="#5d4016" x="27.2" y="11.2" width="1.6" height="1.6"/>
        <rect fill="#5d4016" x="27.2" y="9.6" width="1.6" height="1.6"/>
        <rect fill="#5d4016" x="27.2" y="8" width="1.6" height="1.6"/>
        <rect fill="#5d4016" x="27.2" y="6.4" width="1.6" height="1.6"/>
        <rect fill="#3d2e20" x="27.2" y="4.8" width="1.6" height="1.6"/>
        <rect fill="#ccd1dd" x="25.6" y="62.4" width="1.6" height="1.6"/>
        <rect fill="#602e24" x="25.6" y="60.8" width="1.6" height="1.6"/>
        <rect fill="#602e24" x="25.6" y="59.2" width="1.6" height="1.6"/>
        <rect fill="#602e24" x="25.6" y="57.6" width="1.6" height="1.6"/>
        <rect fill="#602e24" x="25.6" y="54.4" width="1.6" height="1.6"/>
        <rect fill="#602e24" x="25.6" y="52.8" width="1.6" height="1.6"/>
        <rect fill="#727144" x="25.6" y="49.6" width="1.6" height="1.6"/>
        <rect fill="#727144" x="25.6" y="48" width="1.6" height="1.6"/>
        <rect fill="#727144" x="25.6" y="46.4" width="1.6" height="1.6"/>
        <rect fill="#727144" x="25.6" y="44.8" width="1.6" height="1.6"/>
        <rect fill="#727144" x="25.6" y="43.2" width="1.6" height="1.6"/>
        <rect fill="#3d3d25" x="25.6" y="41.6" width="1.6" height="1.6"/>
        <rect fill="#3d3d25" x="25.6" y="40" width="1.6" height="1.6"/>
        <rect fill="#3d3d25" x="25.6" y="38.4" width="1.6" height="1.6"/>
        <rect fill="#4d4f35" x="25.6" y="36.8" width="1.6" height="1.6"/>
        <rect fill="#4d4f35" x="25.6" y="35.2" width="1.6" height="1.6"/>
        <rect fill="#c68c5c" x="25.6" y="33.6" width="1.6" height="1.6"/>
        <rect fill="#ffc483" x="25.6" y="32" width="1.6" height="1.6"/>
        <rect fill="#ffc483" x="25.6" y="30.4" width="1.6" height="1.6"/>
        <rect fill="#ffc483" x="25.6" y="28.8" width="1.6" height="1.6"/>
        <rect fill="#c68c5c" x="25.6" y="27.2" width="1.6" height="1.6"/>
        <rect fill="#c68c5c" x="25.6" y="25.6" width="1.6" height="1.6"/>
        <rect fill="#c68c5c" x="25.6" y="24" width="1.6" height="1.6"/>
        <rect fill="#3d2e20" x="25.6" y="22.4" width="1.6" height="1.6"/>
        <rect fill="#5d4016" x="25.6" y="20.8" width="1.6" height="1.6"/>
        <rect fill="#5d4016" x="25.6" y="19.2" width="1.6" height="1.6"/>
        <rect fill="#5d4016" x="25.6" y="17.6" width="1.6" height="1.6"/>
        <rect fill="#5d4016" x="25.6" y="16" width="1.6" height="1.6"/>
        <rect fill="#5d4016" x="25.6" y="14.4" width="1.6" height="1.6"/>
        <rect fill="#5d4016" x="25.6" y="12.8" width="1.6" height="1.6"/>
        <rect fill="#5d4016" x="25.6" y="11.2" width="1.6" height="1.6"/>
        <rect fill="#5d4016" x="25.6" y="9.6" width="1.6" height="1.6"/>
        <rect fill="#5d4016" x="25.6" y="8" width="1.6" height="1.6"/>
        <rect fill="#3d2e20" x="25.6" y="6.4" width="1.6" height="1.6"/>
        <rect fill="#3d2e20" x="25.6" y="4.8" width="1.6" height="1.6"/>
        <rect fill="#6b707c" x="24" y="62.4" width="1.6" height="1.6"/>
        <rect fill="#6b707c" x="24" y="60.8" width="1.6" height="1.6"/>
        <rect fill="#97bfad" x="24" y="59.2" width="1.6" height="1.6"/>
        <rect fill="#602e24" x="24" y="57.6" width="1.6" height="1.6"/>
        <rect fill="#602e24" x="24" y="56" width="1.6" height="1.6"/>
        <rect fill="#602e24" x="24" y="54.4" width="1.6" height="1.6"/>
        <rect fill="#727144" x="24" y="51.2" width="1.6" height="1.6"/>
        <rect fill="#727144" x="24" y="49.6" width="1.6" height="1.6"/>
        <rect fill="#727144" x="24" y="48" width="1.6" height="1.6"/>
        <rect fill="#727144" x="24" y="46.4" width="1.6" height="1.6"/>
        <rect fill="#727144" x="24" y="44.8" width="1.6" height="1.6"/>
        <rect fill="#727144" x="24" y="43.2" width="1.6" height="1.6"/>
        <rect fill="#727144" x="24" y="41.6" width="1.6" height="1.6"/>
        <rect fill="#727144" x="24" y="40" width="1.6" height="1.6"/>
        <rect fill="#727144" x="24" y="38.4" width="1.6" height="1.6"/>
        <rect fill="#3d3d25" x="24" y="36.8" width="1.6" height="1.6"/>
        <rect fill="#c68c5c" x="24" y="35.2" width="1.6" height="1.6"/>
        <rect fill="#ffc483" x="24" y="33.6" width="1.6" height="1.6"/>
        <rect fill="#ffc483" x="24" y="32" width="1.6" height="1.6"/>
        <rect fill="#451c11" x="24" y="30.4" width="1.6" height="1.6"/>
        <rect fill="#ffc483" x="24" y="28.8" width="1.6" height="1.6"/>
        <rect fill="#c68c5c" x="24" y="27.2" width="1.6" height="1.6"/>
        <rect fill="#c68c5c" x="24" y="25.6" width="1.6" height="1.6"/>
        <rect fill="#c68c5c" x="24" y="24" width="1.6" height="1.6"/>
        <rect fill="#93694d" x="24" y="22.4" width="1.6" height="1.6"/>
        <rect fill="#3d2e20" x="24" y="20.8" width="1.6" height="1.6"/>
        <rect fill="#3d2e20" x="24" y="19.2" width="1.6" height="1.6"/>
        <rect fill="#5d4016" x="24" y="17.6" width="1.6" height="1.6"/>
        <rect fill="#5d4016" x="24" y="16" width="1.6" height="1.6"/>
        <rect fill="#5d4016" x="24" y="14.4" width="1.6" height="1.6"/>
        <rect fill="#2b2017" x="24" y="12.8" width="1.6" height="1.6"/>
        <rect fill="#3d2e20" x="24" y="11.2" width="1.6" height="1.6"/>
        <rect fill="#3d2e20" x="24" y="9.6" width="1.6" height="1.6"/>
        <rect fill="#3d2e20" x="24" y="8" width="1.6" height="1.6"/>
        <rect fill="#3d2e20" x="24" y="6.4" width="1.6" height="1.6"/>
        <rect fill="#3d2e20" x="24" y="4.8" width="1.6" height="1.6"/>
        <rect fill="#3d2e20" x="24" y="3.2" width="1.6" height="1.6"/>
        <rect fill="#6b707c" x="22.4" y="62.4" width="1.6" height="1.6"/>
        <rect fill="#6b707c" x="22.4" y="60.8" width="1.6" height="1.6"/>
        <rect fill="#97bfad" x="22.4" y="59.2" width="1.6" height="1.6"/>
        <rect fill="#602e24" x="22.4" y="57.6" width="1.6" height="1.6"/>
        <rect fill="#7c3f35" x="22.4" y="56" width="1.6" height="1.6"/>
        <rect fill="#602e24" x="22.4" y="54.4" width="1.6" height="1.6"/>
        <rect fill="#727144" x="22.4" y="51.2" width="1.6" height="1.6"/>
        <rect fill="#727144" x="22.4" y="49.6" width="1.6" height="1.6"/>
        <rect fill="#727144" x="22.4" y="48" width="1.6" height="1.6"/>
        <rect fill="#727144" x="22.4" y="46.4" width="1.6" height="1.6"/>
        <rect fill="#727144" x="22.4" y="44.8" width="1.6" height="1.6"/>
        <rect fill="#727144" x="22.4" y="43.2" width="1.6" height="1.6"/>
        <rect fill="#727144" x="22.4" y="41.6" width="1.6" height="1.6"/>
        <rect fill="#727144" x="22.4" y="40" width="1.6" height="1.6"/>
        <rect fill="#727144" x="22.4" y="38.4" width="1.6" height="1.6"/>
        <rect fill="#3d3d25" x="22.4" y="36.8" width="1.6" height="1.6"/>
        <rect fill="#c68c5c" x="22.4" y="35.2" width="1.6" height="1.6"/>
        <rect fill="#f9895d" x="22.4" y="33.6" width="1.6" height="1.6"/>
        <rect fill="#ffc483" x="22.4" y="32" width="1.6" height="1.6"/>
        <rect fill="#451c11" x="22.4" y="30.4" width="1.6" height="1.6"/>
        <rect fill="#93694d" x="22.4" y="28.8" width="1.6" height="1.6"/>
        <rect fill="#c68c5c" x="22.4" y="27.2" width="1.6" height="1.6"/>
        <rect fill="#c68c5c" x="22.4" y="25.6" width="1.6" height="1.6"/>
        <rect fill="#c68c5c" x="22.4" y="24" width="1.6" height="1.6"/>
        <rect fill="#c68c5c" x="22.4" y="22.4" width="1.6" height="1.6"/>
        <rect fill="#93694d" x="22.4" y="20.8" width="1.6" height="1.6"/>
        <rect fill="#3d2e20" x="22.4" y="19.2" width="1.6" height="1.6"/>
        <rect fill="#3d2e20" x="22.4" y="17.6" width="1.6" height="1.6"/>
        <rect fill="#3d2e20" x="22.4" y="16" width="1.6" height="1.6"/>
        <rect fill="#2b2017" x="22.4" y="14.4" width="1.6" height="1.6"/>
        <rect fill="#3d2e20" x="22.4" y="12.8" width="1.6" height="1.6"/>
        <rect fill="#5d4016" x="22.4" y="11.2" width="1.6" height="1.6"/>
        <rect fill="#5d4016" x="22.4" y="9.6" width="1.6" height="1.6"/>
        <rect fill="#5d4016" x="22.4" y="8" width="1.6" height="1.6"/>
        <rect fill="#5d4016" x="22.4" y="6.4" width="1.6" height="1.6"/>
        <rect fill="#5d4016" x="22.4" y="4.8" width="1.6" height="1.6"/>
        <rect fill="#3d2e20" x="22.4" y="3.2" width="1.6" height="1.6"/>
        <rect fill="#6b707c" x="20.8" y="62.4" width="1.6" height="1.6"/>
        <rect fill="#6b707c" x="20.8" y="60.8" width="1.6" height="1.6"/>
        <rect fill="#97bfad" x="20.8" y="59.2" width="1.6" height="1.6"/>
        <rect fill="#602e24" x="20.8" y="57.6" width="1.6" height="1.6"/>
        <rect fill="#7c3f35" x="20.8" y="56" width="1.6" height="1.6"/>
        <rect fill="#602e24" x="20.8" y="54.4" width="1.6" height="1.6"/>
        <rect fill="#838c5d" x="20.8" y="51.2" width="1.6" height="1.6"/>
        <rect fill="#838c5d" x="22.4" y="51.2" width="1.6" height="1.6"/>
        <rect fill="#727144" x="20.8" y="49.6" width="1.6" height="1.6"/>
        <rect fill="#727144" x="20.8" y="48" width="1.6" height="1.6"/>
        <rect fill="#727144" x="20.8" y="46.4" width="1.6" height="1.6"/>
        <rect fill="#727144" x="20.8" y="44.8" width="1.6" height="1.6"/>
        <rect fill="#727144" x="20.8" y="43.2" width="1.6" height="1.6"/>
        <rect fill="#727144" x="20.8" y="41.6" width="1.6" height="1.6"/>
        <rect fill="#727144" x="20.8" y="40" width="1.6" height="1.6"/>
        <rect fill="#4d4f35" x="20.8" y="38.4" width="1.6" height="1.6"/>
        <rect fill="#4e6b6a" x="20.8" y="36.8" width="1.6" height="1.6"/>
        <rect fill="#c68c5c" x="20.8" y="35.2" width="1.6" height="1.6"/>
        <rect fill="#f9895d" x="20.8" y="33.6" width="1.6" height="1.6"/>
        <rect fill="#4a5b2e" x="20.8" y="32" width="1.6" height="1.6"/>
        <rect fill="#451c11" x="20.8" y="30.4" width="1.6" height="1.6"/>
        <rect fill="#93694d" x="20.8" y="28.8" width="1.6" height="1.6"/>
        <rect fill="#c68c5c" x="20.8" y="27.2" width="1.6" height="1.6"/>
        <rect fill="#e2a77f" x="20.8" y="25.6" width="1.6" height="1.6"/>
        <rect fill="#c68c5c" x="20.8" y="24" width="1.6" height="1.6"/>
        <rect fill="#c68c5c" x="20.8" y="22.4" width="1.6" height="1.6"/>
        <rect fill="#c68c5c" x="20.8" y="20.8" width="1.6" height="1.6"/>
        <rect fill="#93694d" x="20.8" y="19.2" width="1.6" height="1.6"/>
        <rect fill="#2b2017" x="20.8" y="17.6" width="1.6" height="1.6"/>
        <rect fill="#2b2017" x="20.8" y="16" width="1.6" height="1.6"/>
        <rect fill="#3d2e20" x="20.8" y="14.4" width="1.6" height="1.6"/>
        <rect fill="#5d4016" x="20.8" y="12.8" width="1.6" height="1.6"/>
        <rect fill="#5d4016" x="20.8" y="11.2" width="1.6" height="1.6"/>
        <rect fill="#5d4016" x="20.8" y="9.6" width="1.6" height="1.6"/>
        <rect fill="#5d4016" x="20.8" y="8" width="1.6" height="1.6"/>
        <rect fill="#5d4016" x="20.8" y="6.4" width="1.6" height="1.6"/>
        <rect fill="#5d4016" x="20.8" y="4.8" width="1.6" height="1.6"/>
        <rect fill="#5d4016" x="20.8" y="3.2" width="1.6" height="1.6"/>
        <rect fill="#3d2e20" x="20.8" y="1.6" width="1.6" height="1.6"/>
        <rect fill="#895f28" x="20.8" width="1.6" height="1.6"/>
        <rect fill="#ccd1dd" x="19.2" y="62.4" width="1.6" height="1.6"/>
        <rect fill="#602e24" x="19.2" y="54.4" width="1.6" height="1.6"/>
        <rect fill="#602e24" x="19.2" y="52.8" width="1.6" height="1.6"/>
        <rect fill="#602e24" x="19.2" y="51.2" width="1.6" height="1.6"/>
        <rect fill="#602e24" x="19.2" y="49.6" width="1.6" height="1.6"/>
        <rect fill="#202223" x="19.2" y="48" width="1.6" height="1.6"/>
        <rect fill="#9ef2f2" x="19.2" y="46.4" width="1.6" height="1.6"/>
        <rect fill="#9ef2f2" x="19.2" y="44.8" width="1.6" height="1.6"/>
        <rect fill="#9ef2f2" x="19.2" y="43.2" width="1.6" height="1.6"/>
        <rect fill="#9ef2f2" x="19.2" y="41.6" width="1.6" height="1.6"/>
        <rect fill="#60a8a4" x="19.2" y="40" width="1.6" height="1.6"/>
        <rect fill="#4e6b6a" x="19.2" y="38.4" width="1.6" height="1.6"/>
        <rect fill="#4e6b6a" x="19.2" y="36.8" width="1.6" height="1.6"/>
        <rect fill="#c68c5c" x="19.2" y="35.2" width="1.6" height="1.6"/>
        <rect fill="#ffc483" x="19.2" y="33.6" width="1.6" height="1.6"/>
        <rect fill="#f9e1ca" x="19.2" y="32" width="1.6" height="1.6"/>
        <rect fill="#ffc483" x="19.2" y="30.4" width="1.6" height="1.6"/>
        <rect fill="#c68c5c" x="19.2" y="28.8" width="1.6" height="1.6"/>
        <rect fill="#c68c5c" x="19.2" y="27.2" width="1.6" height="1.6"/>
        <rect fill="#e2a77f" x="19.2" y="25.6" width="1.6" height="1.6"/>
        <rect fill="#e2a77f" x="19.2" y="24" width="1.6" height="1.6"/>
        <rect fill="#c68c5c" x="19.2" y="22.4" width="1.6" height="1.6"/>
        <rect fill="#c68c5c" x="19.2" y="20.8" width="1.6" height="1.6"/>
        <rect fill="#93694d" x="19.2" y="19.2" width="1.6" height="1.6"/>
        <rect fill="#93694d" x="19.2" y="17.6" width="1.6" height="1.6"/>
        <rect fill="#2b2017" x="19.2" y="16" width="1.6" height="1.6"/>
        <rect fill="#5d4016" x="19.2" y="14.4" width="1.6" height="1.6"/>
        <rect fill="#5d4016" x="19.2" y="12.8" width="1.6" height="1.6"/>
        <rect fill="#5d4016" x="19.2" y="11.2" width="1.6" height="1.6"/>
        <rect fill="#5d4016" x="19.2" y="9.6" width="1.6" height="1.6"/>
        <rect fill="#5d4016" x="19.2" y="8" width="1.6" height="1.6"/>
        <rect fill="#5d4016" x="19.2" y="6.4" width="1.6" height="1.6"/>
        <rect fill="#5d4016" x="19.2" y="4.8" width="1.6" height="1.6"/>
        <rect fill="#5d4016" x="19.2" y="3.2" width="1.6" height="1.6"/>
        <rect fill="#5d4016" x="19.2" y="1.6" width="1.6" height="1.6"/>
        <rect fill="#602e24" x="17.6" y="51.2" width="1.6" height="1.6"/>
        <rect fill="#202223" x="17.6" y="49.6" width="1.6" height="1.6"/>
        <rect fill="#9ef2f2" x="17.6" y="48" width="1.6" height="1.6"/>
        <rect fill="#9ef2f2" x="17.6" y="46.4" width="1.6" height="1.6"/>
        <rect fill="#9ef2f2" x="17.6" y="44.8" width="1.6" height="1.6"/>
        <rect fill="#9ef2f2" x="17.6" y="43.2" width="1.6" height="1.6"/>
        <rect fill="#9ef2f2" x="17.6" y="41.6" width="1.6" height="1.6"/>
        <rect fill="#9ef2f2" x="17.6" y="40" width="1.6" height="1.6"/>
        <rect fill="#4e6b6a" x="17.6" y="38.4" width="1.6" height="1.6"/>
        <rect fill="#7c5a47" x="17.6" y="36.8" width="1.6" height="1.6"/>
        <rect fill="#c68c5c" x="17.6" y="35.2" width="1.6" height="1.6"/>
        <rect fill="#f9e1ca" x="17.6" y="33.6" width="1.6" height="1.6"/>
        <rect fill="#f9e1ca" x="17.6" y="32" width="1.6" height="1.6"/>
        <rect fill="#f9e1ca" x="17.6" y="30.4" width="1.6" height="1.6"/>
        <rect fill="#c68c5c" x="17.6" y="28.8" width="1.6" height="1.6"/>
        <rect fill="#c68c5c" x="17.6" y="27.2" width="1.6" height="1.6"/>
        <rect fill="#c68c5c" x="17.6" y="25.6" width="1.6" height="1.6"/>
        <rect fill="#c68c5c" x="17.6" y="24" width="1.6" height="1.6"/>
        <rect fill="#c68c5c" x="17.6" y="22.4" width="1.6" height="1.6"/>
        <rect fill="#93694d" x="17.6" y="20.8" width="1.6" height="1.6"/>
        <rect fill="#93694d" x="17.6" y="19.2" width="1.6" height="1.6"/>
        <rect fill="#93694d" x="17.6" y="17.6" width="1.6" height="1.6"/>
        <rect fill="#5d4016" x="17.6" y="16" width="1.6" height="1.6"/>
        <rect fill="#5d4016" x="17.6" y="14.4" width="1.6" height="1.6"/>
        <rect fill="#5d4016" x="17.6" y="12.8" width="1.6" height="1.6"/>
        <rect fill="#5d4016" x="17.6" y="11.2" width="1.6" height="1.6"/>
        <rect fill="#5d4016" x="17.6" y="9.6" width="1.6" height="1.6"/>
        <rect fill="#5d4016" x="17.6" y="8" width="1.6" height="1.6"/>
        <rect fill="#5d4016" x="17.6" y="6.4" width="1.6" height="1.6"/>
        <rect fill="#5d4016" x="17.6" y="4.8" width="1.6" height="1.6"/>
        <rect fill="#5d4016" x="17.6" y="3.2" width="1.6" height="1.6"/>
        <rect fill="#895f28" x="17.6" width="1.6" height="1.6"/>
        <rect fill="#602e24" x="16" y="51.2" width="1.6" height="1.6"/>
        <rect fill="#202223" x="16" y="49.6" width="1.6" height="1.6"/>
        <rect fill="#9ef2f2" x="16" y="48" width="1.6" height="1.6"/>
        <rect fill="#9ef2f2" x="16" y="46.4" width="1.6" height="1.6"/>
        <rect fill="#9ef2f2" x="16" y="44.8" width="1.6" height="1.6"/>
        <rect fill="#9ef2f2" x="16" y="43.2" width="1.6" height="1.6"/>
        <rect fill="#9ef2f2" x="16" y="41.6" width="1.6" height="1.6"/>
        <rect fill="#9ef2f2" x="16" y="40" width="1.6" height="1.6"/>
        <rect fill="#4e6b6a" x="16" y="38.4" width="1.6" height="1.6"/>
        <rect fill="#7c5a47" x="16" y="36.8" width="1.6" height="1.6"/>
        <rect fill="#c68c5c" x="16" y="35.2" width="1.6" height="1.6"/>
        <rect fill="#f9895d" x="16" y="33.6" width="1.6" height="1.6"/>
        <rect fill="#f9e1ca" x="16" y="32" width="1.6" height="1.6"/>
        <rect fill="#f9e1ca" x="16" y="30.4" width="1.6" height="1.6"/>
        <rect fill="#c68c5c" x="16" y="28.8" width="1.6" height="1.6"/>
        <rect fill="#c68c5c" x="16" y="27.2" width="1.6" height="1.6"/>
        <rect fill="#c68c5c" x="16" y="25.6" width="1.6" height="1.6"/>
        <rect fill="#c68c5c" x="16" y="24" width="1.6" height="1.6"/>
        <rect fill="#93694d" x="16" y="22.4" width="1.6" height="1.6"/>
        <rect fill="#93694d" x="16" y="20.8" width="1.6" height="1.6"/>
        <rect fill="#5d4016" x="16" y="19.2" width="1.6" height="1.6"/>
        <rect fill="#5d4016" x="16" y="17.6" width="1.6" height="1.6"/>
        <rect fill="#5d4016" x="16" y="16" width="1.6" height="1.6"/>
        <rect fill="#5d4016" x="16" y="14.4" width="1.6" height="1.6"/>
        <rect fill="#5d4016" x="16" y="12.8" width="1.6" height="1.6"/>
        <rect fill="#5d4016" x="16" y="11.2" width="1.6" height="1.6"/>
        <rect fill="#5d4016" x="16" y="9.6" width="1.6" height="1.6"/>
        <rect fill="#5d4016" x="16" y="8" width="1.6" height="1.6"/>
        <rect fill="#895f28" x="16" y="6.4" width="1.6" height="1.6"/>
        <rect fill="#895f28" x="16" y="4.8" width="1.6" height="1.6"/>
        <rect fill="#5d4016" x="16" y="3.2" width="1.6" height="1.6"/>
        <rect fill="#ccd1dd" x="14.4" y="62.4" width="1.6" height="1.6"/>
        <rect fill="#602e24" x="14.4" y="54.4" width="1.6" height="1.6"/>
        <rect fill="#602e24" x="14.4" y="52.8" width="1.6" height="1.6"/>
        <rect fill="#602e24" x="14.4" y="51.2" width="1.6" height="1.6"/>
        <rect fill="#602e24" x="14.4" y="49.6" width="1.6" height="1.6"/>
        <rect fill="#202223" x="14.4" y="48" width="1.6" height="1.6"/>
        <rect fill="#9ef2f2" x="14.4" y="46.4" width="1.6" height="1.6"/>
        <rect fill="#9ef2f2" x="14.4" y="44.8" width="1.6" height="1.6"/>
        <rect fill="#9ef2f2" x="14.4" y="43.2" width="1.6" height="1.6"/>
        <rect fill="#9ef2f2" x="14.4" y="41.6" width="1.6" height="1.6"/>
        <rect fill="#60a8a4" x="14.4" y="40" width="1.6" height="1.6"/>
        <rect fill="#4e6b6a" x="14.4" y="38.4" width="1.6" height="1.6"/>
        <rect fill="#4e6b6a" x="14.4" y="36.8" width="1.6" height="1.6"/>
        <rect fill="#c68c5c" x="14.4" y="35.2" width="1.6" height="1.6"/>
        <rect fill="#ffc483" x="14.4" y="33.6" width="1.6" height="1.6"/>
        <rect fill="#f9e1ca" x="14.4" y="32" width="1.6" height="1.6"/>
        <rect fill="#ffc483" x="14.4" y="30.4" width="1.6" height="1.6"/>
        <rect fill="#c68c5c" x="14.4" y="28.8" width="1.6" height="1.6"/>
        <rect fill="#c68c5c" x="14.4" y="27.2" width="1.6" height="1.6"/>
        <rect fill="#c68c5c" x="14.4" y="25.6" width="1.6" height="1.6"/>
        <rect fill="#93694d" x="14.4" y="24" width="1.6" height="1.6"/>
        <rect fill="#93694d" x="14.4" y="22.4" width="1.6" height="1.6"/>
        <rect fill="#5d4016" x="14.4" y="20.8" width="1.6" height="1.6"/>
        <rect fill="#5d4016" x="14.4" y="19.2" width="1.6" height="1.6"/>
        <rect fill="#5d4016" x="14.4" y="17.6" width="1.6" height="1.6"/>
        <rect fill="#5d4016" x="14.4" y="16" width="1.6" height="1.6"/>
        <rect fill="#5d4016" x="14.4" y="14.4" width="1.6" height="1.6"/>
        <rect fill="#5d4016" x="14.4" y="12.8" width="1.6" height="1.6"/>
        <rect fill="#5d4016" x="14.4" y="11.2" width="1.6" height="1.6"/>
        <rect fill="#5d4016" x="14.4" y="9.6" width="1.6" height="1.6"/>
        <rect fill="#895f28" x="14.4" y="8" width="1.6" height="1.6"/>
        <rect fill="#895f28" x="14.4" y="6.4" width="1.6" height="1.6"/>
        <rect fill="#b78448" x="14.4" y="4.8" width="1.6" height="1.6"/>
        <rect fill="#5d4016" x="14.4" y="3.2" width="1.6" height="1.6"/>
        <rect fill="#6b707c" x="12.8" y="62.4" width="1.6" height="1.6"/>
        <rect fill="#6b707c" x="12.8" y="60.8" width="1.6" height="1.6"/>
        <rect fill="#97bfad" x="12.8" y="59.2" width="1.6" height="1.6"/>
        <rect fill="#602e24" x="12.8" y="57.6" width="1.6" height="1.6"/>
        <rect fill="#7c3f35" x="12.8" y="56" width="1.6" height="1.6"/>
        <rect fill="#602e24" x="12.8" y="54.4" width="1.6" height="1.6"/>
        <rect fill="#838c5d" x="12.8" y="51.2" width="1.6" height="1.6"/>
        <rect fill="#727144" x="12.8" y="49.6" width="1.6" height="1.6"/>
        <rect fill="#727144" x="12.8" y="48" width="1.6" height="1.6"/>
        <rect fill="#727144" x="12.8" y="46.4" width="1.6" height="1.6"/>
        <rect fill="#727144" x="12.8" y="44.8" width="1.6" height="1.6"/>
        <rect fill="#727144" x="12.8" y="43.2" width="1.6" height="1.6"/>
        <rect fill="#727144" x="12.8" y="41.6" width="1.6" height="1.6"/>
        <rect fill="#727144" x="12.8" y="40" width="1.6" height="1.6"/>
        <rect fill="#4d4f35" x="12.8" y="38.4" width="1.6" height="1.6"/>
        <rect fill="#4e6b6a" x="12.8" y="36.8" width="1.6" height="1.6"/>
        <rect fill="#c68c5c" x="12.8" y="35.2" width="1.6" height="1.6"/>
        <rect fill="#f9895d" x="12.8" y="33.6" width="1.6" height="1.6"/>
        <rect fill="#4a5b2e" x="12.8" y="32" width="1.6" height="1.6"/>
        <rect fill="#451c11" x="12.8" y="30.4" width="1.6" height="1.6"/>
        <rect fill="#93694d" x="12.8" y="28.8" width="1.6" height="1.6"/>
        <rect fill="#c68c5c" x="12.8" y="27.2" width="1.6" height="1.6"/>
        <rect fill="#c68c5c" x="12.8" y="25.6" width="1.6" height="1.6"/>
        <rect fill="#93694d" x="12.8" y="24" width="1.6" height="1.6"/>
        <rect fill="#5d4016" x="12.8" y="22.4" width="1.6" height="1.6"/>
        <rect fill="#5d4016" x="12.8" y="20.8" width="1.6" height="1.6"/>
        <rect fill="#5d4016" x="12.8" y="19.2" width="1.6" height="1.6"/>
        <rect fill="#5d4016" x="12.8" y="17.6" width="1.6" height="1.6"/>
        <rect fill="#5d4016" x="12.8" y="16" width="1.6" height="1.6"/>
        <rect fill="#5d4016" x="12.8" y="14.4" width="1.6" height="1.6"/>
        <rect fill="#5d4016" x="12.8" y="12.8" width="1.6" height="1.6"/>
        <rect fill="#5d4016" x="12.8" y="11.2" width="1.6" height="1.6"/>
        <rect fill="#895f28" x="12.8" y="9.6" width="1.6" height="1.6"/>
        <rect fill="#895f28" x="12.8" y="8" width="1.6" height="1.6"/>
        <rect fill="#b78448" x="12.8" y="6.4" width="1.6" height="1.6"/>
        <rect fill="#b78448" x="12.8" y="4.8" width="1.6" height="1.6"/>
        <rect fill="#5d4016" x="12.8" y="3.2" width="1.6" height="1.6"/>
        <rect fill="#6b707c" x="11.2" y="62.4" width="1.6" height="1.6"/>
        <rect fill="#6b707c" x="11.2" y="60.8" width="1.6" height="1.6"/>
        <rect fill="#97bfad" x="11.2" y="59.2" width="1.6" height="1.6"/>
        <rect fill="#602e24" x="11.2" y="57.6" width="1.6" height="1.6"/>
        <rect fill="#7c3f35" x="11.2" y="56" width="1.6" height="1.6"/>
        <rect fill="#602e24" x="11.2" y="54.4" width="1.6" height="1.6"/>
        <rect fill="#727144" x="11.2" y="51.2" width="1.6" height="1.6"/>
        <rect fill="#727144" x="11.2" y="49.6" width="1.6" height="1.6"/>
        <rect fill="#727144" x="11.2" y="48" width="1.6" height="1.6"/>
        <rect fill="#727144" x="11.2" y="46.4" width="1.6" height="1.6"/>
        <rect fill="#727144" x="11.2" y="44.8" width="1.6" height="1.6"/>
        <rect fill="#727144" x="11.2" y="43.2" width="1.6" height="1.6"/>
        <rect fill="#727144" x="11.2" y="41.6" width="1.6" height="1.6"/>
        <rect fill="#727144" x="11.2" y="40" width="1.6" height="1.6"/>
        <rect fill="#727144" x="11.2" y="38.4" width="1.6" height="1.6"/>
        <rect fill="#3d3d25" x="11.2" y="36.8" width="1.6" height="1.6"/>
        <rect fill="#c68c5c" x="11.2" y="35.2" width="1.6" height="1.6"/>
        <rect fill="#f9895d" x="11.2" y="33.6" width="1.6" height="1.6"/>
        <rect fill="#ffc483" x="11.2" y="32" width="1.6" height="1.6"/>
        <rect fill="#451c11" x="11.2" y="30.4" width="1.6" height="1.6"/>
        <rect fill="#93694d" x="11.2" y="28.8" width="1.6" height="1.6"/>
        <rect fill="#c68c5c" x="11.2" y="27.2" width="1.6" height="1.6"/>
        <rect fill="#93694d" x="11.2" y="25.6" width="1.6" height="1.6"/>
        <rect fill="#3d2e20" x="11.2" y="24" width="1.6" height="1.6"/>
        <rect fill="#5d4016" x="11.2" y="22.4" width="1.6" height="1.6"/>
        <rect fill="#5d4016" x="11.2" y="20.8" width="1.6" height="1.6"/>
        <rect fill="#5d4016" x="11.2" y="19.2" width="1.6" height="1.6"/>
        <rect fill="#5d4016" x="11.2" y="17.6" width="1.6" height="1.6"/>
        <rect fill="#5d4016" x="11.2" y="16" width="1.6" height="1.6"/>
        <rect fill="#5d4016" x="11.2" y="14.4" width="1.6" height="1.6"/>
        <rect fill="#895f28" x="11.2" y="12.8" width="1.6" height="1.6"/>
        <rect fill="#895f28" x="11.2" y="11.2" width="1.6" height="1.6"/>
        <rect fill="#895f28" x="11.2" y="9.6" width="1.6" height="1.6"/>
        <rect fill="#895f28" x="11.2" y="8" width="1.6" height="1.6"/>
        <rect fill="#b78448" x="11.2" y="6.4" width="1.6" height="1.6"/>
        <rect fill="#5d4016" x="11.2" y="4.8" width="1.6" height="1.6"/>
        <rect fill="#5d4016" x="11.2" y="3.2" width="1.6" height="1.6"/>
        <rect fill="#6b707c" x="9.6" y="62.4" width="1.6" height="1.6"/>
        <rect fill="#6b707c" x="9.6" y="60.8" width="1.6" height="1.6"/>
        <rect fill="#97bfad" x="9.6" y="59.2" width="1.6" height="1.6"/>
        <rect fill="#602e24" x="9.6" y="57.6" width="1.6" height="1.6"/>
        <rect fill="#602e24" x="9.6" y="56" width="1.6" height="1.6"/>
        <rect fill="#602e24" x="9.6" y="54.4" width="1.6" height="1.6"/>
        <rect fill="#727144" x="9.6" y="51.2" width="1.6" height="1.6"/>
        <rect fill="#727144" x="9.6" y="49.6" width="1.6" height="1.6"/>
        <rect fill="#727144" x="9.6" y="48" width="1.6" height="1.6"/>
        <rect fill="#727144" x="9.6" y="46.4" width="1.6" height="1.6"/>
        <rect fill="#727144" x="9.6" y="44.8" width="1.6" height="1.6"/>
        <rect fill="#727144" x="9.6" y="43.2" width="1.6" height="1.6"/>
        <rect fill="#727144" x="9.6" y="41.6" width="1.6" height="1.6"/>
        <rect fill="#727144" x="9.6" y="40" width="1.6" height="1.6"/>
        <rect fill="#727144" x="9.6" y="38.4" width="1.6" height="1.6"/>
        <rect fill="#3d3d25" x="9.6" y="36.8" width="1.6" height="1.6"/>
        <rect fill="#c68c5c" x="9.6" y="35.2" width="1.6" height="1.6"/>
        <rect fill="#ffc483" x="9.6" y="33.6" width="1.6" height="1.6"/>
        <rect fill="#ffc483" x="9.6" y="32" width="1.6" height="1.6"/>
        <rect fill="#451c11" x="9.6" y="30.4" width="1.6" height="1.6"/>
        <rect fill="#ffc483" x="9.6" y="28.8" width="1.6" height="1.6"/>
        <rect fill="#93694d" x="9.6" y="27.2" width="1.6" height="1.6"/>
        <rect fill="#3d2e20" x="9.6" y="25.6" width="1.6" height="1.6"/>
        <rect fill="#5d4016" x="9.6" y="24" width="1.6" height="1.6"/>
        <rect fill="#5d4016" x="9.6" y="22.4" width="1.6" height="1.6"/>
        <rect fill="#5d4016" x="9.6" y="20.8" width="1.6" height="1.6"/>
        <rect fill="#5d4016" x="9.6" y="19.2" width="1.6" height="1.6"/>
        <rect fill="#5d4016" x="9.6" y="17.6" width="1.6" height="1.6"/>
        <rect fill="#5d4016" x="9.6" y="16" width="1.6" height="1.6"/>
        <rect fill="#5d4016" x="9.6" y="14.4" width="1.6" height="1.6"/>
        <rect fill="#5d4016" x="9.6" y="12.8" width="1.6" height="1.6"/>
        <rect fill="#895f28" x="9.6" y="11.2" width="1.6" height="1.6"/>
        <rect fill="#895f28" x="9.6" y="9.6" width="1.6" height="1.6"/>
        <rect fill="#b78448" x="9.6" y="8" width="1.6" height="1.6"/>
        <rect fill="#5d4016" x="9.6" y="6.4" width="1.6" height="1.6"/>
        <rect fill="#5d4016" x="9.6" y="4.8" width="1.6" height="1.6"/>
        <rect fill="#ccd1dd" x="8" y="62.4" width="1.6" height="1.6"/>
        <rect fill="#602e24" x="8" y="60.8" width="1.6" height="1.6"/>
        <rect fill="#602e24" x="8" y="59.2" width="1.6" height="1.6"/>
        <rect fill="#602e24" x="8" y="57.6" width="1.6" height="1.6"/>
        <rect fill="#602e24" x="8" y="54.4" width="1.6" height="1.6"/>
        <rect fill="#602e24" x="8" y="52.8" width="1.6" height="1.6"/>
        <rect fill="#727144" x="8" y="49.6" width="1.6" height="1.6"/>
        <rect fill="#727144" x="8" y="48" width="1.6" height="1.6"/>
        <rect fill="#727144" x="8" y="46.4" width="1.6" height="1.6"/>
        <rect fill="#727144" x="8" y="44.8" width="1.6" height="1.6"/>
        <rect fill="#727144" x="8" y="43.2" width="1.6" height="1.6"/>
        <rect fill="#3d3d25" x="8" y="41.6" width="1.6" height="1.6"/>
        <rect fill="#3d3d25" x="8" y="40" width="1.6" height="1.6"/>
        <rect fill="#3d3d25" x="8" y="38.4" width="1.6" height="1.6"/>
        <rect fill="#4d4f35" x="8" y="36.8" width="1.6" height="1.6"/>
        <rect fill="#4d4f35" x="8" y="35.2" width="1.6" height="1.6"/>
        <rect fill="#c68c5c" x="8" y="33.6" width="1.6" height="1.6"/>
        <rect fill="#ffc483" x="8" y="32" width="1.6" height="1.6"/>
        <rect fill="#ffc483" x="8" y="30.4" width="1.6" height="1.6"/>
        <rect fill="#ffc483" x="8" y="28.8" width="1.6" height="1.6"/>
        <rect fill="#93694d" x="8" y="27.2" width="1.6" height="1.6"/>
        <rect fill="#3d2e20" x="8" y="25.6" width="1.6" height="1.6"/>
        <rect fill="#5d4016" x="8" y="24" width="1.6" height="1.6"/>
        <rect fill="#5d4016" x="8" y="22.4" width="1.6" height="1.6"/>
        <rect fill="#5d4016" x="8" y="20.8" width="1.6" height="1.6"/>
        <rect fill="#5d4016" x="8" y="19.2" width="1.6" height="1.6"/>
        <rect fill="#5d4016" x="8" y="17.6" width="1.6" height="1.6"/>
        <rect fill="#5d4016" x="8" y="16" width="1.6" height="1.6"/>
        <rect fill="#5d4016" x="8" y="14.4" width="1.6" height="1.6"/>
        <rect fill="#5d4016" x="8" y="12.8" width="1.6" height="1.6"/>
        <rect fill="#5d4016" x="8" y="11.2" width="1.6" height="1.6"/>
        <rect fill="#5d4016" x="8" y="9.6" width="1.6" height="1.6"/>
        <rect fill="#5d4016" x="8" y="8" width="1.6" height="1.6"/>
        <rect fill="#5d4016" x="8" y="6.4" width="1.6" height="1.6"/>
        <rect fill="#5d4016" x="8" y="4.8" width="1.6" height="1.6"/>
        <rect fill="#4d4f35" x="6.4" y="36.8" width="1.6" height="1.6"/>
        <rect fill="#4d4f35" x="6.4" y="35.2" width="1.6" height="1.6"/>
        <rect fill="#33261b" x="6.4" y="33.6" width="1.6" height="1.6"/>
        <rect fill="#c68c5c" x="6.4" y="32" width="1.6" height="1.6"/>
        <rect fill="#c68c5c" x="6.4" y="30.4" width="1.6" height="1.6"/>
        <rect fill="#c68c5c" x="6.4" y="28.8" width="1.6" height="1.6"/>
        <rect fill="#3d2e20" x="6.4" y="27.2" width="1.6" height="1.6"/>
        <rect fill="#3d2e20" x="6.4" y="25.6" width="1.6" height="1.6"/>
        <rect fill="#5d4016" x="6.4" y="24" width="1.6" height="1.6"/>
        <rect fill="#5d4016" x="6.4" y="22.4" width="1.6" height="1.6"/>
        <rect fill="#5d4016" x="6.4" y="20.8" width="1.6" height="1.6"/>
        <rect fill="#5d4016" x="6.4" y="19.2" width="1.6" height="1.6"/>
        <rect fill="#5d4016" x="6.4" y="17.6" width="1.6" height="1.6"/>
        <rect fill="#5d4016" x="6.4" y="16" width="1.6" height="1.6"/>
        <rect fill="#5d4016" x="6.4" y="14.4" width="1.6" height="1.6"/>
        <rect fill="#5d4016" x="6.4" y="12.8" width="1.6" height="1.6"/>
        <rect fill="#5d4016" x="6.4" y="11.2" width="1.6" height="1.6"/>
        <rect fill="#5d4016" x="6.4" y="9.6" width="1.6" height="1.6"/>
        <rect fill="#5d4016" x="6.4" y="8" width="1.6" height="1.6"/>
        <rect fill="#5d4016" x="6.4" y="6.4" width="1.6" height="1.6"/>
        <rect fill="#4d4f35" x="4.8" y="36.8" width="1.6" height="1.6"/>
        <rect fill="#33261b" x="4.8" y="35.2" width="1.6" height="1.6"/>
        <rect fill="#33261b" x="4.8" y="33.6" width="1.6" height="1.6"/>
        <rect fill="#2b2017" x="4.8" y="32" width="1.6" height="1.6"/>
        <rect fill="#3d2e20" x="4.8" y="30.4" width="1.6" height="1.6"/>
        <rect fill="#3d2e20" x="4.8" y="28.8" width="1.6" height="1.6"/>
        <rect fill="#3d2e20" x="4.8" y="27.2" width="1.6" height="1.6"/>
        <rect fill="#5d4016" x="4.8" y="25.6" width="1.6" height="1.6"/>
        <rect fill="#5d4016" x="4.8" y="24" width="1.6" height="1.6"/>
        <rect fill="#5d4016" x="4.8" y="22.4" width="1.6" height="1.6"/>
        <rect fill="#5d4016" x="4.8" y="20.8" width="1.6" height="1.6"/>
        <rect fill="#5d4016" x="4.8" y="19.2" width="1.6" height="1.6"/>
        <rect fill="#5d4016" x="4.8" y="17.6" width="1.6" height="1.6"/>
        <rect fill="#5d4016" x="4.8" y="16" width="1.6" height="1.6"/>
        <rect fill="#5d4016" x="4.8" y="14.4" width="1.6" height="1.6"/>
        <rect fill="#5d4016" x="4.8" y="12.8" width="1.6" height="1.6"/>
        <rect fill="#5d4016" x="4.8" y="11.2" width="1.6" height="1.6"/>
        <rect fill="#5d4016" x="4.8" y="9.6" width="1.6" height="1.6"/>
        <rect fill="#5d4016" x="4.8" y="8" width="1.6" height="1.6"/>
        <rect fill="#3d2e20" x="3.2" y="36.8" width="1.6" height="1.6"/>
        <rect fill="#5d4016" x="3.2" y="35.2" width="1.6" height="1.6"/>
        <rect fill="#5d4016" x="3.2" y="33.6" width="1.6" height="1.6"/>
        <rect fill="#5d4016" x="3.2" y="32" width="1.6" height="1.6"/>
        <rect fill="#2b2017" x="3.2" y="30.4" width="1.6" height="1.6"/>
        <rect fill="#2b2017" x="3.2" y="28.8" width="1.6" height="1.6"/>
        <rect fill="#3d2e20" x="3.2" y="27.2" width="1.6" height="1.6"/>
        <rect fill="#3d2e20" x="3.2" y="25.6" width="1.6" height="1.6"/>
        <rect fill="#3d2e20" x="3.2" y="24" width="1.6" height="1.6"/>
        <rect fill="#5d4016" x="3.2" y="22.4" width="1.6" height="1.6"/>
        <rect fill="#5d4016" x="3.2" y="20.8" width="1.6" height="1.6"/>
        <rect fill="#5d4016" x="3.2" y="19.2" width="1.6" height="1.6"/>
        <rect fill="#5d4016" x="3.2" y="17.6" width="1.6" height="1.6"/>
        <rect fill="#5d4016" x="3.2" y="16" width="1.6" height="1.6"/>
        <rect fill="#5d4016" x="3.2" y="14.4" width="1.6" height="1.6"/>
        <rect fill="#5d4016" x="3.2" y="12.8" width="1.6" height="1.6"/>
        <rect fill="#5d4016" x="3.2" y="11.2" width="1.6" height="1.6"/>
        <rect fill="#5d4016" x="1.6" y="38.4" width="1.6" height="1.6"/>
        <rect fill="#5d4016" x="1.6" y="36.8" width="1.6" height="1.6"/>
        <rect fill="#5d4016" x="1.6" y="35.2" width="1.6" height="1.6"/>
        <rect fill="#5d4016" x="1.6" y="33.6" width="1.6" height="1.6"/>
        <rect fill="#5d4016" x="1.6" y="32" width="1.6" height="1.6"/>
        <rect fill="#3d2e20" x="1.6" y="25.6" width="1.6" height="1.6"/>
        <rect fill="#3d2e20" x="1.6" y="24" width="1.6" height="1.6"/>
        <rect fill="#3d2e20" x="1.6" y="22.4" width="1.6" height="1.6"/>
        <rect fill="#3d2e20" x="1.6" y="20.8" width="1.6" height="1.6"/>
        <rect fill="#3d2e20" x="1.6" y="19.2" width="1.6" height="1.6"/>
        <rect fill="#3d2e20" x="1.6" y="17.6" width="1.6" height="1.6"/>
        <rect fill="#3d2e20" x="1.6" y="16" width="1.6" height="1.6"/>
        <rect fill="#5d4016" x="1.6" y="14.4" width="1.6" height="1.6"/>
        <rect fill="#5d4016" x="1.6" y="12.8" width="1.6" height="1.6"/>
        <rect fill="#5d4016" y="36.8" width="1.6" height="1.6"/>
        <rect fill="#5d4016" y="35.2" width="1.6" height="1.6"/>
        <rect fill="#5d4016" y="33.6" width="1.6" height="1.6"/>
        <rect fill="#602e24" x="24" y="52.8" width="1.6" height="1.6"/>
        <rect fill="#602e24" x="22.4" y="52.8" width="1.6" height="1.6"/>
        <rect fill="#602e24" x="20.8" y="52.8" width="1.6" height="1.6"/>
        <rect fill="#602e24" x="12.8" y="52.8" width="1.6" height="1.6"/>
        <rect fill="#602e24" x="11.2" y="52.8" width="1.6" height="1.6"/>
        <rect fill="#602e24" x="9.6" y="52.8" width="1.6" height="1.6"/>
        <rect fill="#602e24" x="8" y="51.2" width="1.6" height="1.6"/>
        <rect fill="#602e24" x="25.6" y="51.2" width="1.6" height="1.6"/>
        <rect fill="#838c5d" x="20.8" y="49.6" width="1.6" height="1.6"/>
        <rect fill="#838c5d" x="11.2" y="51.2" width="1.6" height="1.6"/>
        <rect fill="#838c5d" x="12.8" y="49.6" width="1.6" height="1.6"/>
      </g>
      <g>
        <rect fill="#ffc483" x="32" y="46.4" width="1.6" height="1.6"/>
        <rect fill="#ffc483" x="32" y="44.8" width="1.6" height="1.6"/>
        <rect fill="#4d4f35" x="32" y="43.2" width="1.6" height="1.6"/>
        <rect fill="#4d4f35" x="32" y="41.6" width="1.6" height="1.6"/>
        <rect fill="#4d4f35" x="32" y="40" width="1.6" height="1.6"/>
        <rect fill="#ffc483" x="30.4" y="48" width="1.6" height="1.6"/>
        <rect fill="#ffc483" x="30.4" y="46.4" width="1.6" height="1.6"/>
        <rect fill="#4d4f35" x="30.4" y="44.8" width="1.6" height="1.6"/>
        <rect fill="#4d4f35" x="30.4" y="43.2" width="1.6" height="1.6"/>
        <rect fill="#4d4f35" x="30.4" y="41.6" width="1.6" height="1.6"/>
        <rect fill="#4d4f35" x="30.4" y="40" width="1.6" height="1.6"/>
        <rect fill="#4d4f35" x="30.4" y="38.4" width="1.6" height="1.6"/>
        <rect fill="#4d4f35" x="30.4" y="36.8" width="1.6" height="1.6"/>
        <rect fill="#c68c5c" x="28.8" y="48" width="1.6" height="1.6"/>
        <rect fill="#c68c5c" x="28.8" y="46.4" width="1.6" height="1.6"/>
        <rect fill="#4d4f35" x="28.8" y="44.8" width="1.6" height="1.6"/>
        <rect fill="#4d4f35" x="28.8" y="43.2" width="1.6" height="1.6"/>
        <rect fill="#4d4f35" x="28.8" y="41.6" width="1.6" height="1.6"/>
        <rect fill="#4d4f35" x="28.8" y="40" width="1.6" height="1.6"/>
        <rect fill="#4d4f35" x="28.8" y="38.4" width="1.6" height="1.6"/>
        <rect fill="#4d4f35" x="28.8" y="36.8" width="1.6" height="1.6"/>
        <rect fill="#4d4f35" x="28.8" y="35.2" width="1.6" height="1.6"/>
        <rect fill="#4d4f35" x="28.8" y="33.6" width="1.6" height="1.6"/>
        <rect fill="#c68c5c" x="27.2" y="46.4" width="1.6" height="1.6"/>
        <rect fill="#4d4f35" x="27.2" y="44.8" width="1.6" height="1.6"/>
        <rect fill="#4d4f35" x="27.2" y="43.2" width="1.6" height="1.6"/>
        <rect fill="#4d4f35" x="27.2" y="41.6" width="1.6" height="1.6"/>
        <rect fill="#4d4f35" x="27.2" y="40" width="1.6" height="1.6"/>
        <rect fill="#4d4f35" x="27.2" y="38.4" width="1.6" height="1.6"/>
        <rect fill="#4d4f35" x="27.2" y="36.8" width="1.6" height="1.6"/>
        <rect fill="#4d4f35" x="27.2" y="35.2" width="1.6" height="1.6"/>
        <rect fill="#4d4f35" x="27.2" y="33.6" width="1.6" height="1.6"/>
        <rect fill="#4d4f35" x="27.2" y="32" width="1.6" height="1.6"/>
        <rect fill="#3d3d25" x="25.6" y="38.4" width="1.6" height="1.6"/>
        <rect fill="#4d4f35" x="25.6" y="36.8" width="1.6" height="1.6"/>
        <rect fill="#4d4f35" x="25.6" y="35.2" width="1.6" height="1.6"/>
        <rect fill="#4d4f35" x="25.6" y="33.6" width="1.6" height="1.6"/>
      </g>
      <g>
        <rect fill="#ffc483" x="1.63" y="46.4" width="1.6" height="1.6"/>
        <rect fill="#ffc483" x="1.63" y="44.8" width="1.6" height="1.6"/>
        <rect fill="#4d4f35" x="1.63" y="43.2" width="1.6" height="1.6"/>
        <rect fill="#4d4f35" x="1.63" y="41.6" width="1.6" height="1.6"/>
        <rect fill="#4d4f35" x="1.63" y="40" width="1.6" height="1.6"/>
        <rect fill="#ffc483" x="3.23" y="48" width="1.6" height="1.6"/>
        <rect fill="#ffc483" x="3.23" y="46.4" width="1.6" height="1.6"/>
        <rect fill="#4d4f35" x="3.23" y="44.8" width="1.6" height="1.6"/>
        <rect fill="#4d4f35" x="3.23" y="43.2" width="1.6" height="1.6"/>
        <rect fill="#4d4f35" x="3.23" y="41.6" width="1.6" height="1.6"/>
        <rect fill="#4d4f35" x="3.23" y="40" width="1.6" height="1.6"/>
        <rect fill="#4d4f35" x="3.23" y="38.4" width="1.6" height="1.6"/>
        <rect fill="#4d4f35" x="3.23" y="36.8" width="1.6" height="1.6"/>
        <rect fill="#c68c5c" x="4.83" y="48" width="1.6" height="1.6"/>
        <rect fill="#c68c5c" x="4.83" y="46.4" width="1.6" height="1.6"/>
        <rect fill="#4d4f35" x="4.83" y="44.8" width="1.6" height="1.6"/>
        <rect fill="#4d4f35" x="4.83" y="43.2" width="1.6" height="1.6"/>
        <rect fill="#4d4f35" x="4.83" y="41.6" width="1.6" height="1.6"/>
        <rect fill="#4d4f35" x="4.83" y="40" width="1.6" height="1.6"/>
        <rect fill="#4d4f35" x="4.83" y="38.4" width="1.6" height="1.6"/>
        <rect fill="#4d4f35" x="4.83" y="36.8" width="1.6" height="1.6"/>
        <rect fill="#4d4f35" x="4.83" y="35.2" width="1.6" height="1.6"/>
        <rect fill="#4d4f35" x="4.83" y="33.6" width="1.6" height="1.6"/>
        <rect fill="#c68c5c" x="6.43" y="46.4" width="1.6" height="1.6"/>
        <rect fill="#4d4f35" x="6.43" y="44.8" width="1.6" height="1.6"/>
        <rect fill="#4d4f35" x="6.43" y="43.2" width="1.6" height="1.6"/>
        <rect fill="#4d4f35" x="6.43" y="41.6" width="1.6" height="1.6"/>
        <rect fill="#4d4f35" x="6.43" y="40" width="1.6" height="1.6"/>
        <rect fill="#4d4f35" x="6.43" y="38.4" width="1.6" height="1.6"/>
        <rect fill="#4d4f35" x="6.43" y="36.8" width="1.6" height="1.6"/>
        <rect fill="#4d4f35" x="6.43" y="35.2" width="1.6" height="1.6"/>
        <rect fill="#4d4f35" x="6.43" y="33.6" width="1.6" height="1.6"/>
        <rect fill="#4d4f35" x="6.43" y="32" width="1.6" height="1.6"/>
        <rect fill="#3d3d25" x="8.03" y="38.4" width="1.6" height="1.6"/>
        <rect fill="#4d4f35" x="8.03" y="36.8" width="1.6" height="1.6"/>
        <rect fill="#4d4f35" x="8.03" y="35.2" width="1.6" height="1.6"/>
        <rect fill="#4d4f35" x="8.03" y="33.6" width="1.6" height="1.6"/>
      </g>
    </g>
  </g>
</svg>