<?xml version="1.0" encoding="UTF-8"?>
<svg id="Layer_2" data-name="Layer 2" xmlns="http://www.w3.org/2000/svg" viewBox="0 0 35.2 64">
  
  <g id="Layer_1-2" data-name="Layer 1">
    <g>
      <rect fill="#623e09" x="0" y="27.2" width="1.6" height="1.6"/>
      <rect fill="#623e09" x="0" y="25.6" width="1.6" height="1.6"/>
      <rect fill="#623e09" x="0" y="24" width="1.6" height="1.6"/>
      <rect fill="#623e09" x="0" y="22.4" width="1.6" height="1.6"/>
      <rect fill="#623e09" x="0" y="20.8" width="1.6" height="1.6"/>
      <rect fill="#623e09" x="0" y="19.2" width="1.6" height="1.6"/>
      <rect fill="#402d1e" x="1.6" y="30.4" width="1.6" height="1.6"/>
      <rect fill="#402d1e" x="1.6" y="28.8" width="1.6" height="1.6"/>
      <rect fill="#623e09" x="1.6" y="27.2" width="1.6" height="1.6"/>
      <rect fill="#623e09" x="1.6" y="25.6" width="1.6" height="1.6"/>
      <rect fill="#623e09" x="1.6" y="24" width="1.6" height="1.6"/>
      <rect fill="#623e09" x="1.6" y="22.4" width="1.6" height="1.6"/>
      <rect fill="#623e09" x="1.6" y="20.8" width="1.6" height="1.6"/>
      <rect fill="#623e09" x="1.6" y="19.2" width="1.6" height="1.6"/>
      <rect fill="#623e09" x="1.6" y="17.6" width="1.6" height="1.6"/>
      <rect fill="#623e09" x="1.6" y="16" width="1.6" height="1.6"/>
      <rect fill="#623e09" x="1.6" y="14.4" width="1.6" height="1.6"/>
      <rect fill="#402d1e" x="3.2" y="32" width="1.6" height="1.6"/>
      <rect fill="#402d1e" x="3.2" y="30.4" width="1.6" height="1.6"/>
      <rect fill="#623e09" x="3.2" y="28.8" width="1.6" height="1.6"/>
      <rect fill="#623e09" x="3.2" y="27.2" width="1.6" height="1.6"/>
      <rect fill="#623e09" x="3.2" y="25.6" width="1.6" height="1.6"/>
      <rect fill="#623e09" x="3.2" y="24" width="1.6" height="1.6"/>
      <rect fill="#623e09" x="3.2" y="22.4" width="1.6" height="1.6"/>
      <rect fill="#623e09" x="3.2" y="20.8" width="1.6" height="1.6"/>
      <rect fill="#623e09" x="3.2" y="19.2" width="1.6" height="1.6"/>
      <rect fill="#623e09" x="3.2" y="17.6" width="1.6" height="1.6"/>
      <rect fill="#623e09" x="3.2" y="16" width="1.6" height="1.6"/>
      <rect fill="#623e09" x="3.2" y="14.4" width="1.6" height="1.6"/>
      <rect fill="#623e09" x="3.2" y="12.8" width="1.6" height="1.6"/>
      <rect fill="#402d1e" x="4.8" y="44.8" width="1.6" height="1.6"/>
      <rect fill="#402d1e" x="4.8" y="43.2" width="1.6" height="1.6"/>
      <rect fill="#402d1e" x="4.8" y="41.6" width="1.6" height="1.6"/>
      <rect fill="#402d1e" x="4.8" y="40" width="1.6" height="1.6"/>
      <rect fill="#402d1e" x="4.8" y="35.2" width="1.6" height="1.6"/>
      <rect fill="#402d1e" x="4.8" y="33.6" width="1.6" height="1.6"/>
      <rect fill="#402d1e" x="4.8" y="32" width="1.6" height="1.6"/>
      <rect fill="#623e09" x="4.8" y="30.4" width="1.6" height="1.6"/>
      <rect fill="#623e09" x="4.8" y="28.8" width="1.6" height="1.6"/>
      <rect fill="#623e09" x="4.8" y="27.2" width="1.6" height="1.6"/>
      <rect fill="#623e09" x="4.8" y="25.6" width="1.6" height="1.6"/>
      <rect fill="#623e09" x="4.8" y="24" width="1.6" height="1.6"/>
      <rect fill="#623e09" x="4.8" y="22.4" width="1.6" height="1.6"/>
      <rect fill="#623e09" x="4.8" y="20.8" width="1.6" height="1.6"/>
      <rect fill="#623e09" x="4.8" y="19.2" width="1.6" height="1.6"/>
      <rect fill="#623e09" x="4.8" y="17.6" width="1.6" height="1.6"/>
      <rect fill="#623e09" x="4.8" y="16" width="1.6" height="1.6"/>
      <rect fill="#623e09" x="4.8" y="14.4" width="1.6" height="1.6"/>
      <rect fill="#623e09" x="4.8" y="12.8" width="1.6" height="1.6"/>
      <rect fill="#623e09" x="4.8" y="11.2" width="1.6" height="1.6"/>
      <rect fill="#402d1e" x="6.4" y="46.4" width="1.6" height="1.6"/>
      <rect fill="#402d1e" x="6.4" y="44.8" width="1.6" height="1.6"/>
      <rect fill="#402d1e" x="6.4" y="43.2" width="1.6" height="1.6"/>
      <rect fill="#402d1e" x="6.4" y="41.6" width="1.6" height="1.6"/>
      <rect fill="#402d1e" x="6.4" y="40" width="1.6" height="1.6"/>
      <rect fill="#402d1e" x="6.4" y="38.4" width="1.6" height="1.6"/>
      <rect fill="#402d1e" x="6.4" y="36.8" width="1.6" height="1.6"/>
      <rect fill="#402d1e" x="6.4" y="35.2" width="1.6" height="1.6"/>
      <rect fill="#402d1e" x="6.4" y="33.6" width="1.6" height="1.6"/>
      <rect fill="#623e09" x="6.4" y="32" width="1.6" height="1.6"/>
      <rect fill="#623e09" x="6.4" y="30.4" width="1.6" height="1.6"/>
      <rect fill="#623e09" x="6.4" y="28.8" width="1.6" height="1.6"/>
      <rect fill="#623e09" x="6.4" y="27.2" width="1.6" height="1.6"/>
      <rect fill="#623e09" x="6.4" y="25.6" width="1.6" height="1.6"/>
      <rect fill="#623e09" x="6.4" y="24" width="1.6" height="1.6"/>
      <rect fill="#623e09" x="6.4" y="22.4" width="1.6" height="1.6"/>
      <rect fill="#623e09" x="6.4" y="20.8" width="1.6" height="1.6"/>
      <rect fill="#623e09" x="6.4" y="19.2" width="1.6" height="1.6"/>
      <rect fill="#623e09" x="6.4" y="17.6" width="1.6" height="1.6"/>
      <rect fill="#623e09" x="6.4" y="16" width="1.6" height="1.6"/>
      <rect fill="#623e09" x="6.4" y="14.4" width="1.6" height="1.6"/>
      <rect fill="#623e09" x="6.4" y="12.8" width="1.6" height="1.6"/>
      <rect fill="#623e09" x="6.4" y="11.2" width="1.6" height="1.6"/>
      <rect fill="#623e09" x="6.4" y="9.6" width="1.6" height="1.6"/>
      <rect fill="#402d1e" x="8" y="48" width="1.6" height="1.6"/>
      <rect fill="#2d1f16" x="8" y="46.4" width="1.6" height="1.6"/>
      <rect fill="#2d1f16" x="8" y="44.8" width="1.6" height="1.6"/>
      <rect fill="#2d1f16" x="8" y="43.2" width="1.6" height="1.6"/>
      <rect fill="#352519" x="8" y="41.6" width="1.6" height="1.6"/>
      <rect fill="#402d1e" x="8" y="40" width="1.6" height="1.6"/>
      <rect fill="#402d1e" x="8" y="38.4" width="1.6" height="1.6"/>
      <rect fill="#402d1e" x="8" y="36.8" width="1.6" height="1.6"/>
      <rect fill="#402d1e" x="8" y="35.2" width="1.6" height="1.6"/>
      <rect fill="#402d1e" x="8" y="33.6" width="1.6" height="1.6"/>
      <rect fill="#623e09" x="8" y="32" width="1.6" height="1.6"/>
      <rect fill="#623e09" x="8" y="30.4" width="1.6" height="1.6"/>
      <rect fill="#623e09" x="8" y="28.8" width="1.6" height="1.6"/>
      <rect fill="#623e09" x="8" y="27.2" width="1.6" height="1.6"/>
      <rect fill="#623e09" x="8" y="25.6" width="1.6" height="1.6"/>
      <rect fill="#623e09" x="8" y="24" width="1.6" height="1.6"/>
      <rect fill="#623e09" x="8" y="22.4" width="1.6" height="1.6"/>
      <rect fill="#623e09" x="8" y="20.8" width="1.6" height="1.6"/>
      <rect fill="#623e09" x="8" y="19.2" width="1.6" height="1.6"/>
      <rect fill="#623e09" x="8" y="17.6" width="1.6" height="1.6"/>
      <rect fill="#8f5d18" x="8" y="16" width="1.6" height="1.6"/>
      <rect fill="#8f5d18" x="8" y="14.4" width="1.6" height="1.6"/>
      <rect fill="#623e09" x="8" y="12.8" width="1.6" height="1.6"/>
      <rect fill="#623e09" x="8" y="11.2" width="1.6" height="1.6"/>
      <rect fill="#623e09" x="8" y="9.6" width="1.6" height="1.6"/>
      <rect fill="#2d1f16" x="9.6" y="49.6" width="1.6" height="1.6"/>
      <rect fill="#2d1f16" x="9.6" y="48" width="1.6" height="1.6"/>
      <rect fill="#2d1f16" x="9.6" y="46.4" width="1.6" height="1.6"/>
      <rect fill="#2d1f16" x="9.6" y="44.8" width="1.6" height="1.6"/>
      <rect fill="#808b57" x="9.6" y="43.2" width="1.6" height="1.6"/>
      <rect fill="#808b57" x="9.6" y="41.6" width="1.6" height="1.6"/>
      <rect fill="#402d1e" x="9.6" y="40" width="1.6" height="1.6"/>
      <rect fill="#402d1e" x="9.6" y="38.4" width="1.6" height="1.6"/>
      <rect fill="#402d1e" x="9.6" y="36.8" width="1.6" height="1.6"/>
      <rect fill="#402d1e" x="9.6" y="35.2" width="1.6" height="1.6"/>
      <rect fill="#402d1e" x="9.6" y="33.6" width="1.6" height="1.6"/>
      <rect fill="#623e09" x="9.6" y="32" width="1.6" height="1.6"/>
      <rect fill="#623e09" x="9.6" y="30.4" width="1.6" height="1.6"/>
      <rect fill="#623e09" x="9.6" y="28.8" width="1.6" height="1.6"/>
      <rect fill="#623e09" x="9.6" y="27.2" width="1.6" height="1.6"/>
      <rect fill="#623e09" x="9.6" y="25.6" width="1.6" height="1.6"/>
      <rect fill="#623e09" x="9.6" y="24" width="1.6" height="1.6"/>
      <rect fill="#623e09" x="9.6" y="22.4" width="1.6" height="1.6"/>
      <rect fill="#623e09" x="9.6" y="20.8" width="1.6" height="1.6"/>
      <rect fill="#8f5d18" x="9.6" y="19.2" width="1.6" height="1.6"/>
      <rect fill="#8f5d18" x="9.6" y="17.6" width="1.6" height="1.6"/>
      <rect fill="#8f5d18" x="9.6" y="16" width="1.6" height="1.6"/>
      <rect fill="#623e09" x="9.6" y="14.4" width="1.6" height="1.6"/>
      <rect fill="#623e09" x="9.6" y="12.8" width="1.6" height="1.6"/>
      <rect fill="#623e09" x="9.6" y="11.2" width="1.6" height="1.6"/>
      <rect fill="#8f5d18" x="9.6" y="9.6" width="1.6" height="1.6"/>
      <rect fill="#623e09" x="9.6" y="8" width="1.6" height="1.6"/>
      <rect fill="#2d1f16" x="11.2" y="46.4" width="1.6" height="1.6"/>
      <rect fill="#808b57" x="11.2" y="44.8" width="1.6" height="1.6"/>
      <rect fill="#808b57" x="11.2" y="43.2" width="1.6" height="1.6"/>
      <rect fill="#808b57" x="11.2" y="41.6" width="1.6" height="1.6"/>
      <rect fill="#352519" x="11.2" y="40" width="1.6" height="1.6"/>
      <rect fill="#402d1e" x="11.2" y="38.4" width="1.6" height="1.6"/>
      <rect fill="#402d1e" x="11.2" y="36.8" width="1.6" height="1.6"/>
      <rect fill="#402d1e" x="11.2" y="35.2" width="1.6" height="1.6"/>
      <rect fill="#402d1e" x="11.2" y="33.6" width="1.6" height="1.6"/>
      <rect fill="#402d1e" x="11.2" y="32" width="1.6" height="1.6"/>
      <rect fill="#623e09" x="11.2" y="30.4" width="1.6" height="1.6"/>
      <rect fill="#623e09" x="11.2" y="28.8" width="1.6" height="1.6"/>
      <rect fill="#402d1e" x="11.2" y="27.2" width="1.6" height="1.6"/>
      <rect fill="#623e09" x="11.2" y="25.6" width="1.6" height="1.6"/>
      <rect fill="#623e09" x="11.2" y="24" width="1.6" height="1.6"/>
      <rect fill="#623e09" x="11.2" y="22.4" width="1.6" height="1.6"/>
      <rect fill="#623e09" x="11.2" y="20.8" width="1.6" height="1.6"/>
      <rect fill="#8f5d18" x="11.2" y="19.2" width="1.6" height="1.6"/>
      <rect fill="#8f5d18" x="11.2" y="17.6" width="1.6" height="1.6"/>
      <rect fill="#623e09" x="11.2" y="16" width="1.6" height="1.6"/>
      <rect fill="#623e09" x="11.2" y="14.4" width="1.6" height="1.6"/>
      <rect fill="#623e09" x="11.2" y="12.8" width="1.6" height="1.6"/>
      <rect fill="#623e09" x="11.2" y="11.2" width="1.6" height="1.6"/>
      <rect fill="#623e09" x="11.2" y="9.6" width="1.6" height="1.6"/>
      <rect fill="#623e09" x="11.2" y="8" width="1.6" height="1.6"/>
      <rect fill="#808b57" x="12.8" y="52.8" width="1.6" height="1.6"/>
      <rect fill="#808b57" x="12.8" y="51.2" width="1.6" height="1.6"/>
      <rect fill="#72713d" x="12.8" y="49.6" width="1.6" height="1.6"/>
      <rect fill="#3d3d22" x="12.8" y="48" width="1.6" height="1.6"/>
      <rect fill="#808b57" x="12.8" y="46.4" width="1.6" height="1.6"/>
      <rect fill="#808b57" x="12.8" y="44.8" width="1.6" height="1.6"/>
      <rect fill="#808b57" x="12.8" y="43.2" width="1.6" height="1.6"/>
      <rect fill="#808b57" x="12.8" y="41.6" width="1.6" height="1.6"/>
      <rect fill="#808b57" x="12.8" y="40" width="1.6" height="1.6"/>
      <rect fill="#352519" x="12.8" y="38.4" width="1.6" height="1.6"/>
      <rect fill="#402d1e" x="12.8" y="36.8" width="1.6" height="1.6"/>
      <rect fill="#402d1e" x="12.8" y="35.2" width="1.6" height="1.6"/>
      <rect fill="#402d1e" x="12.8" y="33.6" width="1.6" height="1.6"/>
      <rect fill="#402d1e" x="12.8" y="32" width="1.6" height="1.6"/>
      <rect fill="#402d1e" x="12.8" y="30.4" width="1.6" height="1.6"/>
      <rect fill="#402d1e" x="12.8" y="28.8" width="1.6" height="1.6"/>
      <rect fill="#623e09" x="12.8" y="27.2" width="1.6" height="1.6"/>
      <rect fill="#623e09" x="12.8" y="25.6" width="1.6" height="1.6"/>
      <rect fill="#623e09" x="12.8" y="24" width="1.6" height="1.6"/>
      <rect fill="#623e09" x="12.8" y="22.4" width="1.6" height="1.6"/>
      <rect fill="#8f5d18" x="12.8" y="20.8" width="1.6" height="1.6"/>
      <rect fill="#8f5d18" x="12.8" y="19.2" width="1.6" height="1.6"/>
      <rect fill="#bf803b" x="12.8" y="17.6" width="1.6" height="1.6"/>
      <rect fill="#623e09" x="12.8" y="16" width="1.6" height="1.6"/>
      <rect fill="#623e09" x="12.8" y="14.4" width="1.6" height="1.6"/>
      <rect fill="#623e09" x="12.8" y="12.8" width="1.6" height="1.6"/>
      <rect fill="#623e09" x="12.8" y="11.2" width="1.6" height="1.6"/>
      <rect fill="#623e09" x="12.8" y="9.6" width="1.6" height="1.6"/>
      <rect fill="#623e09" x="12.8" y="8" width="1.6" height="1.6"/>
      <rect fill="#623e09" x="12.8" y="6.4" width="1.6" height="1.6"/>
      <rect fill="#3e231f" x="14.4" y="57.6" width="1.6" height="1.6"/>
      <rect fill="#3e231f" x="14.4" y="56" width="1.6" height="1.6"/>
      <rect fill="#3e231f" x="14.4" y="54.4" width="1.6" height="1.6"/>
      <rect fill="#808b57" x="14.4" y="52.8" width="1.6" height="1.6"/>
      <rect fill="#72713d" x="14.4" y="51.2" width="1.6" height="1.6"/>
      <rect fill="#72713d" x="14.4" y="49.6" width="1.6" height="1.6"/>
      <rect fill="#72713d" x="14.4" y="48" width="1.6" height="1.6"/>
      <rect fill="#3d3d22" x="14.4" y="46.4" width="1.6" height="1.6"/>
      <rect fill="#3d3d22" x="14.4" y="44.8" width="1.6" height="1.6"/>
      <rect fill="#808b57" x="14.4" y="43.2" width="1.6" height="1.6"/>
      <rect fill="#808b57" x="14.4" y="41.6" width="1.6" height="1.6"/>
      <rect fill="#808b57" x="14.4" y="40" width="1.6" height="1.6"/>
      <rect fill="#352519" x="14.4" y="38.4" width="1.6" height="1.6"/>
      <rect fill="#352519" x="14.4" y="36.8" width="1.6" height="1.6"/>
      <rect fill="#352519" x="14.4" y="35.2" width="1.6" height="1.6"/>
      <rect fill="#2d1f16" x="14.4" y="33.6" width="1.6" height="1.6"/>
      <rect fill="#2d1f16" x="14.4" y="32" width="1.6" height="1.6"/>
      <rect fill="#352519" x="14.4" y="30.4" width="1.6" height="1.6"/>
      <rect fill="#623e09" x="14.4" y="28.8" width="1.6" height="1.6"/>
      <rect fill="#623e09" x="14.4" y="27.2" width="1.6" height="1.6"/>
      <rect fill="#623e09" x="14.4" y="25.6" width="1.6" height="1.6"/>
      <rect fill="#623e09" x="14.4" y="24" width="1.6" height="1.6"/>
      <rect fill="#623e09" x="14.4" y="22.4" width="1.6" height="1.6"/>
      <rect fill="#8f5d18" x="14.4" y="20.8" width="1.6" height="1.6"/>
      <rect fill="#bf803b" x="14.4" y="19.2" width="1.6" height="1.6"/>
      <rect fill="#bf803b" x="14.4" y="17.6" width="1.6" height="1.6"/>
      <rect fill="#623e09" x="14.4" y="16" width="1.6" height="1.6"/>
      <rect fill="#623e09" x="14.4" y="14.4" width="1.6" height="1.6"/>
      <rect fill="#623e09" x="14.4" y="12.8" width="1.6" height="1.6"/>
      <rect fill="#623e09" x="14.4" y="11.2" width="1.6" height="1.6"/>
      <rect fill="#623e09" x="14.4" y="9.6" width="1.6" height="1.6"/>
      <rect fill="#623e09" x="14.4" y="8" width="1.6" height="1.6"/>
      <rect fill="#623e09" x="14.4" y="6.4" width="1.6" height="1.6"/>
      <rect fill="#3e231f" x="16" y="62.4" width="1.6" height="1.6"/>
      <rect fill="#3e231f" x="16" y="60.8" width="1.6" height="1.6"/>
      <rect fill="#3e231f" x="16" y="59.2" width="1.6" height="1.6"/>
      <rect fill="#682a21" x="16" y="57.6" width="1.6" height="1.6"/>
      <rect fill="#682a21" x="16" y="56" width="1.6" height="1.6"/>
      <rect fill="#682a21" x="16" y="54.4" width="1.6" height="1.6"/>
      <rect fill="#72713d" x="16" y="52.8" width="1.6" height="1.6"/>
      <rect fill="#72713d" x="16" y="51.2" width="1.6" height="1.6"/>
      <rect fill="#72713d" x="16" y="49.6" width="1.6" height="1.6"/>
      <rect fill="#4d4f32" x="16" y="48" width="1.6" height="1.6"/>
      <rect fill="#4d4f32" x="16" y="46.4" width="1.6" height="1.6"/>
      <rect fill="#4d4f32" x="16" y="44.8" width="1.6" height="1.6"/>
      <rect fill="#4d4f32" x="16" y="43.2" width="1.6" height="1.6"/>
      <rect fill="#4d4f32" x="16" y="41.6" width="1.6" height="1.6"/>
      <rect fill="#808b57" x="16" y="40" width="1.6" height="1.6"/>
      <rect fill="#2d1f16" x="16" y="38.4" width="1.6" height="1.6"/>
      <rect fill="#2d1f16" x="16" y="36.8" width="1.6" height="1.6"/>
      <rect fill="#2d1f16" x="16" y="35.2" width="1.6" height="1.6"/>
      <rect fill="#cf8853" x="16" y="33.6" width="1.6" height="1.6"/>
      <rect fill="#cf8853" x="16" y="32" width="1.6" height="1.6"/>
      <rect fill="#fddfc6" x="16" y="30.4" width="1.6" height="1.6"/>
      <rect fill="#623e09" x="16" y="28.8" width="1.6" height="1.6"/>
      <rect fill="#623e09" x="16" y="27.2" width="1.6" height="1.6"/>
      <rect fill="#623e09" x="16" y="25.6" width="1.6" height="1.6"/>
      <rect fill="#623e09" x="16" y="24" width="1.6" height="1.6"/>
      <rect fill="#623e09" x="16" y="22.4" width="1.6" height="1.6"/>
      <rect fill="#8f5d18" x="16" y="20.8" width="1.6" height="1.6"/>
      <rect fill="#bf803b" x="16" y="19.2" width="1.6" height="1.6"/>
      <rect fill="#bf803b" x="16" y="17.6" width="1.6" height="1.6"/>
      <rect fill="#623e09" x="16" y="16" width="1.6" height="1.6"/>
      <rect fill="#623e09" x="16" y="14.4" width="1.6" height="1.6"/>
      <rect fill="#623e09" x="16" y="12.8" width="1.6" height="1.6"/>
      <rect fill="#623e09" x="16" y="11.2" width="1.6" height="1.6"/>
      <rect fill="#623e09" x="16" y="9.6" width="1.6" height="1.6"/>
      <rect fill="#623e09" x="16" y="8" width="1.6" height="1.6"/>
      <rect fill="#402d1e" x="16" y="6.4" width="1.6" height="1.6"/>
      <rect fill="#623e09" x="16" y="4.8" width="1.6" height="1.6"/>
      <rect fill="#623e09" x="16" y="3.2" width="1.6" height="1.6"/>
      <rect fill="#8f5d18" x="16" y="1.6" width="1.6" height="1.6"/>
      <rect fill="#cad0dd" x="17.6" y="62.4" width="1.6" height="1.6"/>
      <rect fill="#843b31" x="17.6" y="60.8" width="1.6" height="1.6"/>
      <rect fill="#843b31" x="17.6" y="59.2" width="1.6" height="1.6"/>
      <rect fill="#682a21" x="17.6" y="57.6" width="1.6" height="1.6"/>
      <rect fill="#682a21" x="17.6" y="56" width="1.6" height="1.6"/>
      <rect fill="#ffc078" x="17.6" y="54.4" width="1.6" height="1.6"/>
      <rect fill="#cf8853" x="17.6" y="52.8" width="1.6" height="1.6"/>
      <rect fill="#3d3d22" x="17.6" y="51.2" width="1.6" height="1.6"/>
      <rect fill="#4d4f32" x="17.6" y="49.6" width="1.6" height="1.6"/>
      <rect fill="#4d4f32" x="17.6" y="48" width="1.6" height="1.6"/>
      <rect fill="#4d4f32" x="17.6" y="46.4" width="1.6" height="1.6"/>
      <rect fill="#4d4f32" x="17.6" y="44.8" width="1.6" height="1.6"/>
      <rect fill="#4d4f32" x="17.6" y="43.2" width="1.6" height="1.6"/>
      <rect fill="#4d4f32" x="17.6" y="41.6" width="1.6" height="1.6"/>
      <rect fill="#4d4f32" x="17.6" y="40" width="1.6" height="1.6"/>
      <rect fill="#808b57" x="17.6" y="38.4" width="1.6" height="1.6"/>
      <rect fill="#2d1f16" x="17.6" y="36.8" width="1.6" height="1.6"/>
      <rect fill="#2d1f16" x="17.6" y="35.2" width="1.6" height="1.6"/>
      <rect fill="#ffba62" x="17.6" y="33.6" width="1.6" height="1.6"/>
      <rect fill="#ffba62" x="17.6" y="32" width="1.6" height="1.6"/>
      <rect fill="#ffba62" x="17.6" y="30.4" width="1.6" height="1.6"/>
      <rect fill="#623e09" x="17.6" y="28.8" width="1.6" height="1.6"/>
      <rect fill="#623e09" x="17.6" y="27.2" width="1.6" height="1.6"/>
      <rect fill="#623e09" x="17.6" y="25.6" width="1.6" height="1.6"/>
      <rect fill="#623e09" x="17.6" y="24" width="1.6" height="1.6"/>
      <rect fill="#623e09" x="17.6" y="22.4" width="1.6" height="1.6"/>
      <rect fill="#623e09" x="17.6" y="20.8" width="1.6" height="1.6"/>
      <rect fill="#8f5d18" x="17.6" y="19.2" width="1.6" height="1.6"/>
      <rect fill="#bf803b" x="17.6" y="17.6" width="1.6" height="1.6"/>
      <rect fill="#bf803b" x="17.6" y="16" width="1.6" height="1.6"/>
      <rect fill="#623e09" x="17.6" y="14.4" width="1.6" height="1.6"/>
      <rect fill="#623e09" x="17.6" y="12.8" width="1.6" height="1.6"/>
      <rect fill="#623e09" x="17.6" y="11.2" width="1.6" height="1.6"/>
      <rect fill="#623e09" x="17.6" y="9.6" width="1.6" height="1.6"/>
      <rect fill="#402d1e" x="17.6" y="8" width="1.6" height="1.6"/>
      <rect fill="#402d1e" x="17.6" y="6.4" width="1.6" height="1.6"/>
      <rect fill="#623e09" x="17.6" y="4.8" width="1.6" height="1.6"/>
      <rect fill="#8f5d18" x="17.6" y="0" width="1.6" height="1.6"/>
      <rect fill="#cad0dd" x="19.2" y="62.4" width="1.6" height="1.6"/>
      <rect fill="#8bbfab" x="19.2" y="60.8" width="1.6" height="1.6"/>
      <rect fill="#843b31" x="19.2" y="59.2" width="1.6" height="1.6"/>
      <rect fill="#682a21" x="19.2" y="57.6" width="1.6" height="1.6"/>
      <rect fill="#682a21" x="19.2" y="56" width="1.6" height="1.6"/>
      <rect fill="#ffc078" x="19.2" y="54.4" width="1.6" height="1.6"/>
      <rect fill="#ffc078" x="19.2" y="52.8" width="1.6" height="1.6"/>
      <rect fill="#cf8853" x="19.2" y="51.2" width="1.6" height="1.6"/>
      <rect fill="#3d3d22" x="19.2" y="49.6" width="1.6" height="1.6"/>
      <rect fill="#4d4f32" x="19.2" y="48" width="1.6" height="1.6"/>
      <rect fill="#4d4f32" x="19.2" y="46.4" width="1.6" height="1.6"/>
      <rect fill="#4d4f32" x="19.2" y="44.8" width="1.6" height="1.6"/>
      <rect fill="#4d4f32" x="19.2" y="43.2" width="1.6" height="1.6"/>
      <rect fill="#4d4f32" x="19.2" y="41.6" width="1.6" height="1.6"/>
      <rect fill="#4d4f32" x="19.2" y="40" width="1.6" height="1.6"/>
      <rect fill="#c6cb6e" x="19.2" y="38.4" width="1.6" height="1.6"/>
      <rect fill="#cf8853" x="19.2" y="36.8" width="1.6" height="1.6"/>
      <rect fill="#ffc078" x="19.2" y="35.2" width="1.6" height="1.6"/>
      <rect fill="#ffc078" x="19.2" y="33.6" width="1.6" height="1.6"/>
      <rect fill="#352519" x="19.2" y="32" width="1.6" height="1.6"/>
      <rect fill="#623e09" x="19.2" y="30.4" width="1.6" height="1.6"/>
      <rect fill="#623e09" x="19.2" y="28.8" width="1.6" height="1.6"/>
      <rect fill="#623e09" x="19.2" y="27.2" width="1.6" height="1.6"/>
      <rect fill="#623e09" x="19.2" y="25.6" width="1.6" height="1.6"/>
      <rect fill="#623e09" x="19.2" y="24" width="1.6" height="1.6"/>
      <rect fill="#623e09" x="19.2" y="22.4" width="1.6" height="1.6"/>
      <rect fill="#623e09" x="19.2" y="20.8" width="1.6" height="1.6"/>
      <rect fill="#8f5d18" x="19.2" y="19.2" width="1.6" height="1.6"/>
      <rect fill="#8f5d18" x="19.2" y="17.6" width="1.6" height="1.6"/>
      <rect fill="#8f5d18" x="19.2" y="16" width="1.6" height="1.6"/>
      <rect fill="#8f5d18" x="19.2" y="14.4" width="1.6" height="1.6"/>
      <rect fill="#623e09" x="19.2" y="12.8" width="1.6" height="1.6"/>
      <rect fill="#623e09" x="19.2" y="11.2" width="1.6" height="1.6"/>
      <rect fill="#623e09" x="19.2" y="9.6" width="1.6" height="1.6"/>
      <rect fill="#402d1e" x="19.2" y="8" width="1.6" height="1.6"/>
      <rect fill="#623e09" x="19.2" y="3.2" width="1.6" height="1.6"/>
      <rect fill="#6a707d" x="20.8" y="62.4" width="1.6" height="1.6"/>
      <rect fill="#8bbfab" x="20.8" y="60.8" width="1.6" height="1.6"/>
      <rect fill="#843b31" x="20.8" y="59.2" width="1.6" height="1.6"/>
      <rect fill="#682a21" x="20.8" y="57.6" width="1.6" height="1.6"/>
      <rect fill="#682a21" x="20.8" y="56" width="1.6" height="1.6"/>
      <rect fill="#682a21" x="20.8" y="54.4" width="1.6" height="1.6"/>
      <rect fill="#ffc078" x="20.8" y="52.8" width="1.6" height="1.6"/>
      <rect fill="#cf8853" x="20.8" y="51.2" width="1.6" height="1.6"/>
      <rect fill="#3d3d22" x="20.8" y="49.6" width="1.6" height="1.6"/>
      <rect fill="#4d4f32" x="20.8" y="48" width="1.6" height="1.6"/>
      <rect fill="#4d4f32" x="20.8" y="46.4" width="1.6" height="1.6"/>
      <rect fill="#4d4f32" x="20.8" y="44.8" width="1.6" height="1.6"/>
      <rect fill="#4d4f32" x="20.8" y="43.2" width="1.6" height="1.6"/>
      <rect fill="#4d4f32" x="20.8" y="41.6" width="1.6" height="1.6"/>
      <rect fill="#c6cb6e" x="20.8" y="40" width="1.6" height="1.6"/>
      <rect fill="#cf8853" x="20.8" y="38.4" width="1.6" height="1.6"/>
      <rect fill="#ffc078" x="20.8" y="36.8" width="1.6" height="1.6"/>
      <rect fill="#352519" x="20.8" y="35.2" width="1.6" height="1.6"/>
      <rect fill="#352519" x="20.8" y="33.6" width="1.6" height="1.6"/>
      <rect fill="#623e09" x="20.8" y="32" width="1.6" height="1.6"/>
      <rect fill="#623e09" x="20.8" y="30.4" width="1.6" height="1.6"/>
      <rect fill="#623e09" x="20.8" y="28.8" width="1.6" height="1.6"/>
      <rect fill="#623e09" x="20.8" y="27.2" width="1.6" height="1.6"/>
      <rect fill="#623e09" x="20.8" y="25.6" width="1.6" height="1.6"/>
      <rect fill="#623e09" x="20.8" y="24" width="1.6" height="1.6"/>
      <rect fill="#623e09" x="20.8" y="22.4" width="1.6" height="1.6"/>
      <rect fill="#623e09" x="20.8" y="20.8" width="1.6" height="1.6"/>
      <rect fill="#623e09" x="20.8" y="19.2" width="1.6" height="1.6"/>
      <rect fill="#8f5d18" x="20.8" y="17.6" width="1.6" height="1.6"/>
      <rect fill="#8f5d18" x="20.8" y="16" width="1.6" height="1.6"/>
      <rect fill="#8f5d18" x="20.8" y="14.4" width="1.6" height="1.6"/>
      <rect fill="#623e09" x="20.8" y="12.8" width="1.6" height="1.6"/>
      <rect fill="#623e09" x="20.8" y="11.2" width="1.6" height="1.6"/>
      <rect fill="#402d1e" x="20.8" y="9.6" width="1.6" height="1.6"/>
      <rect fill="#402d1e" x="20.8" y="8" width="1.6" height="1.6"/>
      <rect fill="#8f5d18" x="20.8" y="3.2" width="1.6" height="1.6"/>
      <rect fill="#6a707d" x="22.4" y="62.4" width="1.6" height="1.6"/>
      <rect fill="#6a707d" x="22.4" y="60.8" width="1.6" height="1.6"/>
      <rect fill="#843b31" x="22.4" y="57.6" width="1.6" height="1.6"/>
      <rect fill="#843b31" x="22.4" y="56" width="1.6" height="1.6"/>
      <rect fill="#682a21" x="22.4" y="54.4" width="1.6" height="1.6"/>
      <rect fill="#808b57" x="22.4" y="52.8" width="1.6" height="1.6"/>
      <rect fill="#808b57" x="22.4" y="51.2" width="1.6" height="1.6"/>
      <rect fill="#808b57" x="22.4" y="49.6" width="1.6" height="1.6"/>
      <rect fill="#808b57" x="22.4" y="48" width="1.6" height="1.6"/>
      <rect fill="#808b57" x="22.4" y="46.4" width="1.6" height="1.6"/>
      <rect fill="#808b57" x="22.4" y="44.8" width="1.6" height="1.6"/>
      <rect fill="#808b57" x="22.4" y="43.2" width="1.6" height="1.6"/>
      <rect fill="#c6cb6e" x="22.4" y="41.6" width="1.6" height="1.6"/>
      <rect fill="#456c6a" x="22.4" y="40" width="1.6" height="1.6"/>
      <rect fill="#cf8853" x="22.4" y="38.4" width="1.6" height="1.6"/>
      <rect fill="#ffc078" x="22.4" y="36.8" width="1.6" height="1.6"/>
      <rect fill="#ffc078" x="22.4" y="35.2" width="1.6" height="1.6"/>
      <rect fill="#623e09" x="22.4" y="33.6" width="1.6" height="1.6"/>
      <rect fill="#623e09" x="22.4" y="32" width="1.6" height="1.6"/>
      <rect fill="#623e09" x="22.4" y="30.4" width="1.6" height="1.6"/>
      <rect fill="#623e09" x="22.4" y="28.8" width="1.6" height="1.6"/>
      <rect fill="#623e09" x="22.4" y="27.2" width="1.6" height="1.6"/>
      <rect fill="#623e09" x="22.4" y="25.6" width="1.6" height="1.6"/>
      <rect fill="#623e09" x="22.4" y="24" width="1.6" height="1.6"/>
      <rect fill="#623e09" x="22.4" y="22.4" width="1.6" height="1.6"/>
      <rect fill="#623e09" x="22.4" y="20.8" width="1.6" height="1.6"/>
      <rect fill="#623e09" x="22.4" y="19.2" width="1.6" height="1.6"/>
      <rect fill="#623e09" x="22.4" y="17.6" width="1.6" height="1.6"/>
      <rect fill="#623e09" x="22.4" y="16" width="1.6" height="1.6"/>
      <rect fill="#623e09" x="22.4" y="14.4" width="1.6" height="1.6"/>
      <rect fill="#623e09" x="22.4" y="12.8" width="1.6" height="1.6"/>
      <rect fill="#623e09" x="22.4" y="11.2" width="1.6" height="1.6"/>
      <rect fill="#402d1e" x="22.4" y="9.6" width="1.6" height="1.6"/>
      <rect fill="#402d1e" x="22.4" y="8" width="1.6" height="1.6"/>
      <rect fill="#6a707d" x="24" y="62.4" width="1.6" height="1.6"/>
      <rect fill="#6a707d" x="24" y="60.8" width="1.6" height="1.6"/>
      <rect fill="#682a21" x="24" y="54.4" width="1.6" height="1.6"/>
      <rect fill="#682a21" x="24" y="52.8" width="1.6" height="1.6"/>
      <rect fill="#72713d" x="24" y="51.2" width="1.6" height="1.6"/>
      <rect fill="#72713d" x="24" y="49.6" width="1.6" height="1.6"/>
      <rect fill="#72713d" x="24" y="48" width="1.6" height="1.6"/>
      <rect fill="#72713d" x="24" y="46.4" width="1.6" height="1.6"/>
      <rect fill="#72713d" x="24" y="44.8" width="1.6" height="1.6"/>
      <rect fill="#72713d" x="24" y="43.2" width="1.6" height="1.6"/>
      <rect fill="#456c6a" x="24" y="41.6" width="1.6" height="1.6"/>
      <rect fill="#9a6748" x="24" y="40" width="1.6" height="1.6"/>
      <rect fill="#cf8853" x="24" y="38.4" width="1.6" height="1.6"/>
      <rect fill="#ffc078" x="24" y="36.8" width="1.6" height="1.6"/>
      <rect fill="#ffc078" x="24" y="35.2" width="1.6" height="1.6"/>
      <rect fill="#ffc078" x="24" y="33.6" width="1.6" height="1.6"/>
      <rect fill="#bf803b" x="24" y="32" width="1.6" height="1.6"/>
      <rect fill="#623e09" x="24" y="30.4" width="1.6" height="1.6"/>
      <rect fill="#623e09" x="24" y="28.8" width="1.6" height="1.6"/>
      <rect fill="#623e09" x="24" y="27.2" width="1.6" height="1.6"/>
      <rect fill="#623e09" x="24" y="25.6" width="1.6" height="1.6"/>
      <rect fill="#623e09" x="24" y="24" width="1.6" height="1.6"/>
      <rect fill="#623e09" x="24" y="22.4" width="1.6" height="1.6"/>
      <rect fill="#623e09" x="24" y="20.8" width="1.6" height="1.6"/>
      <rect fill="#623e09" x="24" y="19.2" width="1.6" height="1.6"/>
      <rect fill="#623e09" x="24" y="17.6" width="1.6" height="1.6"/>
      <rect fill="#623e09" x="24" y="16" width="1.6" height="1.6"/>
      <rect fill="#623e09" x="24" y="14.4" width="1.6" height="1.6"/>
      <rect fill="#623e09" x="24" y="12.8" width="1.6" height="1.6"/>
      <rect fill="#402d1e" x="24" y="11.2" width="1.6" height="1.6"/>
      <rect fill="#402d1e" x="24" y="9.6" width="1.6" height="1.6"/>
      <rect fill="#202223" x="25.6" y="51.2" width="1.6" height="1.6"/>
      <rect fill="#80f4f2" x="25.6" y="49.6" width="1.6" height="1.6"/>
      <rect fill="#80f4f2" x="25.6" y="48" width="1.6" height="1.6"/>
      <rect fill="#80f4f2" x="25.6" y="46.4" width="1.6" height="1.6"/>
      <rect fill="#80f4f2" x="25.6" y="44.8" width="1.6" height="1.6"/>
      <rect fill="#cf8853" x="25.6" y="38.4" width="1.6" height="1.6"/>
      <rect fill="#ffc078" x="25.6" y="36.8" width="1.6" height="1.6"/>
      <rect fill="#ff8051" x="25.6" y="35.2" width="1.6" height="1.6"/>
      <rect fill="#ffc078" x="25.6" y="33.6" width="1.6" height="1.6"/>
      <rect fill="#4b190d" x="25.6" y="32" width="1.6" height="1.6"/>
      <rect fill="#bf803b" x="25.6" y="30.4" width="1.6" height="1.6"/>
      <rect fill="#cf8853" x="25.6" y="28.8" width="1.6" height="1.6"/>
      <rect fill="#9a6748" x="25.6" y="27.2" width="1.6" height="1.6"/>
      <rect fill="#623e09" x="25.6" y="25.6" width="1.6" height="1.6"/>
      <rect fill="#623e09" x="25.6" y="24" width="1.6" height="1.6"/>
      <rect fill="#623e09" x="25.6" y="22.4" width="1.6" height="1.6"/>
      <rect fill="#623e09" x="25.6" y="20.8" width="1.6" height="1.6"/>
      <rect fill="#623e09" x="25.6" y="19.2" width="1.6" height="1.6"/>
      <rect fill="#623e09" x="25.6" y="17.6" width="1.6" height="1.6"/>
      <rect fill="#623e09" x="25.6" y="16" width="1.6" height="1.6"/>
      <rect fill="#623e09" x="25.6" y="14.4" width="1.6" height="1.6"/>
      <rect fill="#402d1e" x="25.6" y="12.8" width="1.6" height="1.6"/>
      <rect fill="#402d1e" x="25.6" y="11.2" width="1.6" height="1.6"/>
      <rect fill="#402d1e" x="25.6" y="9.6" width="1.6" height="1.6"/>
      <rect fill="#cf8853" x="27.2" y="38.4" width="1.6" height="1.6"/>
      <rect fill="#ffc078" x="27.2" y="36.8" width="1.6" height="1.6"/>
      <rect fill="#ff8051" x="27.2" y="35.2" width="1.6" height="1.6"/>
      <rect fill="#ffc078" x="27.2" y="33.6" width="1.6" height="1.6"/>
      <rect fill="#b6c4ea" x="27.2" y="32" width="1.6" height="1.6"/>
      <rect fill="#4b190d" x="27.2" y="30.4" width="1.6" height="1.6"/>
      <rect fill="#cf8853" x="27.2" y="28.8" width="1.6" height="1.6"/>
      <rect fill="#cf8853" x="27.2" y="27.2" width="1.6" height="1.6"/>
      <rect fill="#9a6748" x="27.2" y="25.6" width="1.6" height="1.6"/>
      <rect fill="#623e09" x="27.2" y="24" width="1.6" height="1.6"/>
      <rect fill="#623e09" x="27.2" y="22.4" width="1.6" height="1.6"/>
      <rect fill="#623e09" x="27.2" y="20.8" width="1.6" height="1.6"/>
      <rect fill="#623e09" x="27.2" y="19.2" width="1.6" height="1.6"/>
      <rect fill="#623e09" x="27.2" y="17.6" width="1.6" height="1.6"/>
      <rect fill="#623e09" x="27.2" y="16" width="1.6" height="1.6"/>
      <rect fill="#352519" x="27.2" y="14.4" width="1.6" height="1.6"/>
      <rect fill="#402d1e" x="27.2" y="12.8" width="1.6" height="1.6"/>
      <rect fill="#623e09" x="27.2" y="11.2" width="1.6" height="1.6"/>
      <rect fill="#cf8853" x="28.8" y="38.4" width="1.6" height="1.6"/>
      <rect fill="#ffc078" x="28.8" y="36.8" width="1.6" height="1.6"/>
      <rect fill="#ffc078" x="28.8" y="35.2" width="1.6" height="1.6"/>
      <rect fill="#455c27" x="28.8" y="33.6" width="1.6" height="1.6"/>
      <rect fill="#4b190d" x="28.8" y="32" width="1.6" height="1.6"/>
      <rect fill="#4b190d" x="28.8" y="30.4" width="1.6" height="1.6"/>
      <rect fill="#cf8853" x="28.8" y="28.8" width="1.6" height="1.6"/>
      <rect fill="#cf8853" x="28.8" y="27.2" width="1.6" height="1.6"/>
      <rect fill="#cf8853" x="28.8" y="25.6" width="1.6" height="1.6"/>
      <rect fill="#9a6748" x="28.8" y="24" width="1.6" height="1.6"/>
      <rect fill="#623e09" x="28.8" y="22.4" width="1.6" height="1.6"/>
      <rect fill="#623e09" x="28.8" y="20.8" width="1.6" height="1.6"/>
      <rect fill="#623e09" x="28.8" y="19.2" width="1.6" height="1.6"/>
      <rect fill="#623e09" x="28.8" y="17.6" width="1.6" height="1.6"/>
      <rect fill="#2d1f16" x="28.8" y="16" width="1.6" height="1.6"/>
      <rect fill="#402d1e" x="28.8" y="14.4" width="1.6" height="1.6"/>
      <rect fill="#623e09" x="28.8" y="12.8" width="1.6" height="1.6"/>
      <rect fill="#ffba62" x="30.4" y="36.8" width="1.6" height="1.6"/>
      <rect fill="#ffc078" x="30.4" y="35.2" width="1.6" height="1.6"/>
      <rect fill="#fddfc6" x="30.4" y="33.6" width="1.6" height="1.6"/>
      <rect fill="#fddfc6" x="30.4" y="32" width="1.6" height="1.6"/>
      <rect fill="#ffc078" x="30.4" y="30.4" width="1.6" height="1.6"/>
      <rect fill="#cf8853" x="30.4" y="28.8" width="1.6" height="1.6"/>
      <rect fill="#623e09" x="30.4" y="27.2" width="1.6" height="1.6"/>
      <rect fill="#352519" x="30.4" y="25.6" width="1.6" height="1.6"/>
      <rect fill="#352519" x="30.4" y="24" width="1.6" height="1.6"/>
      <rect fill="#623e09" x="30.4" y="22.4" width="1.6" height="1.6"/>
      <rect fill="#623e09" x="30.4" y="20.8" width="1.6" height="1.6"/>
      <rect fill="#623e09" x="30.4" y="19.2" width="1.6" height="1.6"/>
      <rect fill="#2d1f16" x="30.4" y="17.6" width="1.6" height="1.6"/>
      <rect fill="#623e09" x="30.4" y="16" width="1.6" height="1.6"/>
      <rect fill="#623e09" x="30.4" y="14.4" width="1.6" height="1.6"/>
      <rect fill="#ffc078" x="32" y="35.2" width="1.6" height="1.6"/>
      <rect fill="#fddfc6" x="32" y="33.6" width="1.6" height="1.6"/>
      <rect fill="#fddfc6" x="32" y="32" width="1.6" height="1.6"/>
      <rect fill="#fddfc6" x="32" y="30.4" width="1.6" height="1.6"/>
      <rect fill="#ffc078" x="32" y="28.8" width="1.6" height="1.6"/>
      <rect fill="#cf8853" x="32" y="27.2" width="1.6" height="1.6"/>
      <rect fill="#623e09" x="32" y="25.6" width="1.6" height="1.6"/>
      <rect fill="#623e09" x="32" y="24" width="1.6" height="1.6"/>
      <rect fill="#2d1f16" x="32" y="22.4" width="1.6" height="1.6"/>
      <rect fill="#2d1f16" x="32" y="20.8" width="1.6" height="1.6"/>
      <rect fill="#352519" x="32" y="19.2" width="1.6" height="1.6"/>
      <rect fill="#bf803b" x="32" y="17.6" width="1.6" height="1.6"/>
      <rect fill="#623e09" x="32" y="16" width="1.6" height="1.6"/>
      <rect fill="#e9424a" x="33.6" y="33.6" width="1.6" height="1.6"/>
      <rect fill="#623e09" x="33.6" y="22.4" width="1.6" height="1.6"/>
      <rect fill="#bf803b" x="33.6" y="20.8" width="1.6" height="1.6"/>
      <rect fill="#bf803b" x="33.6" y="19.2" width="1.6" height="1.6"/>
    </g>
  </g>
</svg>