<?xml version="1.0" encoding="UTF-8"?><svg id="Layer_1" xmlns="http://www.w3.org/2000/svg" viewBox="0 0 437.04 437.04"><circle cx="218.52" cy="218.52" r="218.52" fill="#4f4f4f"/><g><path d="M216.57,156c-5.36-1.69-11.2-2.55-17.54-2.55-10.19,0-19.31,2.17-27.38,6.49-4.42,2.38-8.32,5.3-11.69,8.78-3.2-3.7-6.94-6.8-11.22-9.28-6.88-3.99-14.65-5.99-23.31-5.99-9.33,0-17.74,1.91-25.21,5.73-2.57,1.31-4.94,2.82-7.13,4.53v-7.71H48.53v124.53h44.56v-71.82c0-3.56,.72-6.62,2.17-9.17,1.44-2.54,3.47-4.45,6.11-5.72,2.63-1.28,5.56-1.92,8.78-1.92,4.76,0,8.7,1.45,11.85,4.33,3.14,2.89,4.71,6.97,4.71,12.23v72.07h44.56v-71.82c0-3.56,.72-6.62,2.17-9.17,1.44-2.54,3.47-4.45,6.11-5.72,2.63-1.28,5.56-1.92,8.78-1.92,4.76,0,8.75,1.45,11.97,4.33,3.23,2.89,4.84,6.97,4.84,12.23v72.07h44.57v-31.76l-37.94-92.77h4.8Z" fill="#fff"/><path d="M282.53,231.07l-23.14-75.07h-42.82c2.96,.93,5.78,2.11,8.44,3.56,7.46,4.08,13.45,9.98,17.95,17.7,4.5,7.73,6.75,16.94,6.75,27.63v43.88l12.99,31.76h39.22l50.68-124.53h-47.11l-22.96,75.07Z" fill="#fff"/><path d="M389.38,239.15c-4.75-5.01-10.78-7.51-18.08-7.51s-13.62,2.51-18.46,7.51c-4.84,5.01-7.26,11.25-7.26,18.72,0,6.96,2.42,12.99,7.26,18.08,4.84,5.09,10.99,7.64,18.46,7.64s13.33-2.55,18.08-7.64c4.75-5.09,7.13-11.12,7.13-18.08,0-7.47-2.38-13.71-7.13-18.72Z" fill="#fff"/></g></svg>