<?xml version="1.0" encoding="UTF-8"?>
<svg id="Layer_2" data-name="Layer 2" xmlns="http://www.w3.org/2000/svg" viewBox="0 0 7 9">
  
  <g id="Layer_1-2" data-name="Layer 1" shape-rendering="crispEdges">
    <rect fill="#901b11" x="2" width="1" height="1"/>
    <rect fill="#ad291e" x="3" width="1" height="1"/>
    <rect fill="#ad291e" x="4" width="1" height="1"/>
    <rect fill="#901b11" x="2" y="1" width="1" height="1"/>
    <rect fill="#f78a8b" x="3" y="1" width="1" height="1"/>
    <rect fill="#ad291e" x="4" y="1" width="1" height="1"/>
    <rect fill="#901b11" y="2" width="1" height="1"/>
    <rect fill="#901b11" x="1" y="2" width="1" height="1"/>
    <rect fill="#901b11" x="2" y="2" width="1" height="1"/>
    <rect fill="#f78a8b" x="3" y="2" width="1" height="1"/>
    <rect fill="#ad291e" x="4" y="2" width="1" height="1"/>
    <rect fill="#ad291e" x="5" y="2" width="1" height="1"/>
    <rect fill="#ad291e" x="6" y="2" width="1" height="1"/>
    <rect fill="#901b11" y="3" width="1" height="1"/>
    <rect fill="#eb5152" x="1" y="3" width="1" height="1"/>
    <rect fill="#eb5152" x="2" y="3" width="1" height="1"/>
    <rect fill="#f78a8b" x="3" y="3" width="1" height="1"/>
    <rect fill="#f78a8b" x="4" y="3" width="1" height="1"/>
    <rect fill="#f78a8b" x="5" y="3" width="1" height="1"/>
    <rect fill="#ad291e" x="6" y="3" width="1" height="1"/>
    <rect fill="#901b11" x="1" y="4" width="1" height="1"/>
    <rect fill="#eb5152" x="2" y="4" width="1" height="1"/>
    <rect fill="#eb5152" x="3" y="4" width="1" height="1"/>
    <rect fill="#f78a8b" x="4" y="4" width="1" height="1"/>
    <rect fill="#ad291e" x="5" y="4" width="1" height="1"/>
    <rect fill="#901b11" x="1" y="5" width="1" height="1"/>
    <rect fill="#eb5152" x="2" y="5" width="1" height="1"/>
    <rect fill="#eb5152" x="3" y="5" width="1" height="1"/>
    <rect fill="#f78a8b" x="4" y="5" width="1" height="1"/>
    <rect fill="#ad291e" x="5" y="5" width="1" height="1"/>
    <rect fill="#901b11" x="2" y="6" width="1" height="1"/>
    <rect fill="#eb5152" x="3" y="6" width="1" height="1"/>
    <rect fill="#ad291e" x="4" y="6" width="1" height="1"/>
    <rect fill="#901b11" x="2" y="7" width="1" height="1"/>
    <rect fill="#eb5152" x="3" y="7" width="1" height="1"/>
    <rect fill="#ad291e" x="4" y="7" width="1" height="1"/>
    <rect fill="#ad291e" x="3" y="8" width="1" height="1"/>
  </g>
</svg>