<?xml version="1.0" encoding="UTF-8"?>
<svg id="Layer_2" data-name="Layer 2" xmlns="http://www.w3.org/2000/svg" viewBox="0 0 7 9">
  <defs>
    <style>
      .cls-1 {
        fill: #eb5152;
      }

      .cls-2 {
        fill: #ad291e;
      }

      .cls-3 {
        fill: #f78a8b;
      }

      .cls-4 {
        fill: #901b11;
      }
    </style>
  </defs>
  <g id="Layer_1-2" data-name="Layer 1" shape-rendering="crispEdges">
    <rect class="cls-4" x="2" width="1" height="1"/>
    <rect class="cls-2" x="3" width="1" height="1"/>
    <rect class="cls-2" x="4" width="1" height="1"/>
    <rect class="cls-4" x="2" y="1" width="1" height="1"/>
    <rect class="cls-3" x="3" y="1" width="1" height="1"/>
    <rect class="cls-2" x="4" y="1" width="1" height="1"/>
    <rect class="cls-4" y="2" width="1" height="1"/>
    <rect class="cls-4" x="1" y="2" width="1" height="1"/>
    <rect class="cls-4" x="2" y="2" width="1" height="1"/>
    <rect class="cls-3" x="3" y="2" width="1" height="1"/>
    <rect class="cls-2" x="4" y="2" width="1" height="1"/>
    <rect class="cls-2" x="5" y="2" width="1" height="1"/>
    <rect class="cls-2" x="6" y="2" width="1" height="1"/>
    <rect class="cls-4" y="3" width="1" height="1"/>
    <rect class="cls-1" x="1" y="3" width="1" height="1"/>
    <rect class="cls-1" x="2" y="3" width="1" height="1"/>
    <rect class="cls-3" x="3" y="3" width="1" height="1"/>
    <rect class="cls-3" x="4" y="3" width="1" height="1"/>
    <rect class="cls-3" x="5" y="3" width="1" height="1"/>
    <rect class="cls-2" x="6" y="3" width="1" height="1"/>
    <rect class="cls-4" x="1" y="4" width="1" height="1"/>
    <rect class="cls-1" x="2" y="4" width="1" height="1"/>
    <rect class="cls-1" x="3" y="4" width="1" height="1"/>
    <rect class="cls-3" x="4" y="4" width="1" height="1"/>
    <rect class="cls-2" x="5" y="4" width="1" height="1"/>
    <rect class="cls-4" x="1" y="5" width="1" height="1"/>
    <rect class="cls-1" x="2" y="5" width="1" height="1"/>
    <rect class="cls-1" x="3" y="5" width="1" height="1"/>
    <rect class="cls-3" x="4" y="5" width="1" height="1"/>
    <rect class="cls-2" x="5" y="5" width="1" height="1"/>
    <rect class="cls-4" x="2" y="6" width="1" height="1"/>
    <rect class="cls-1" x="3" y="6" width="1" height="1"/>
    <rect class="cls-2" x="4" y="6" width="1" height="1"/>
    <rect class="cls-4" x="2" y="7" width="1" height="1"/>
    <rect class="cls-1" x="3" y="7" width="1" height="1"/>
    <rect class="cls-2" x="4" y="7" width="1" height="1"/>
    <rect class="cls-2" x="3" y="8" width="1" height="1"/>
  </g>
</svg>