<?xml version="1.0" encoding="UTF-8"?>
<svg id="Layer_2" data-name="Layer 2" xmlns="http://www.w3.org/2000/svg" viewBox="0 0 14 21">
  
  <g id="Layer_1-2" data-name="Layer 1" shape-rendering="crispEdges">
    <rect fill="#28ccdf" x="6" width="1" height="1"/>
    <rect fill="#385949" x="7" width="1" height="1"/>
    <rect fill="#28ccdf" x="5" y="1" width="1" height="1"/>
    <rect fill="#355b4c" x="6" y="1" width="1" height="1"/>
    <rect fill="#d7e1c1" x="7" y="1" width="1" height="1"/>
    <rect fill="#385949" x="8" y="1" width="1" height="1"/>
    <rect fill="#28ccdf" x="5" y="2" width="1" height="1"/>
    <rect fill="#d9f8f9" x="6" y="2" width="1" height="1"/>
    <rect fill="#d7e1c1" x="7" y="2" width="1" height="1"/>
    <rect fill="#385949" x="8" y="2" width="1" height="1"/>
    <rect fill="#28ccdf" x="5" y="3" width="1" height="1"/>
    <rect fill="#a6a08e" x="6" y="3" width="1" height="1"/>
    <rect fill="#9cc7b1" x="7" y="3" width="1" height="1"/>
    <rect fill="#385949" x="8" y="3" width="1" height="1"/>
    <rect fill="#28ccdf" x="6" y="4" width="1" height="1"/>
    <rect fill="#7a8276" x="7" y="4" width="1" height="1"/>
    <rect fill="#385949" x="8" y="4" width="1" height="1"/>
    <rect fill="#28ccdf" x="6" y="5" width="1" height="1"/>
    <rect fill="#355b4c" x="7" y="5" width="1" height="1"/>
    <rect fill="#7a8276" x="8" y="5" width="1" height="1"/>
    <rect fill="#385949" x="9" y="5" width="1" height="1"/>
    <rect fill="#28ccdf" x="6" y="6" width="1" height="1"/>
    <rect fill="#355b4c" x="7" y="6" width="1" height="1"/>
    <rect fill="#7a8276" x="8" y="6" width="1" height="1"/>
    <rect fill="#385949" x="9" y="6" width="1" height="1"/>
    <rect fill="#1f5f73" x="2" y="7" width="1" height="1"/>
    <rect fill="#28ccdf" x="6" y="7" width="1" height="1"/>
    <rect fill="#355b4c" x="7" y="7" width="1" height="1"/>
    <rect fill="#7a8276" x="8" y="7" width="1" height="1"/>
    <rect fill="#aa8e79" x="9" y="7" width="1" height="1"/>
    <rect fill="#385949" x="10" y="7" width="1" height="1"/>
    <rect fill="#1f5f73" x="1" y="8" width="1" height="1"/>
    <rect fill="#1f5f73" x="2" y="8" width="1" height="1"/>
    <rect fill="#28ccdf" x="6" y="8" width="1" height="1"/>
    <rect fill="#355b4c" x="7" y="8" width="1" height="1"/>
    <rect fill="#7a8276" x="8" y="8" width="1" height="1"/>
    <rect fill="#979686" x="9" y="8" width="1" height="1"/>
    <rect fill="#385949" x="10" y="8" width="1" height="1"/>
    <rect fill="#2d8ba8" x="1" y="9" width="1" height="1"/>
    <rect fill="#1f5f73" x="2" y="9" width="1" height="1"/>
    <rect fill="#1f5f73" x="3" y="9" width="1" height="1"/>
    <rect fill="#355b4c" x="6" y="9" width="1" height="1"/>
    <rect fill="#7a8276" x="7" y="9" width="1" height="1"/>
    <rect fill="#7a8276" x="8" y="9" width="1" height="1"/>
    <rect fill="#daf7f9" x="9" y="9" width="1" height="1"/>
    <rect fill="#385949" x="10" y="9" width="1" height="1"/>
    <rect fill="#2d8ba8" y="10" width="1" height="1"/>
    <rect fill="#1f5f73" x="2" y="10" width="1" height="1"/>
    <rect fill="#1f5f73" x="3" y="10" width="1" height="1"/>
    <rect fill="#355b4c" x="6" y="10" width="1" height="1"/>
    <rect fill="#7a8276" x="7" y="10" width="1" height="1"/>
    <rect fill="#e0ebbd" x="8" y="10" width="1" height="1"/>
    <rect fill="#daf7f9" x="9" y="10" width="1" height="1"/>
    <rect fill="#d5e2c1" x="10" y="10" width="1" height="1"/>
    <rect fill="#2d8ba8" y="11" width="1" height="1"/>
    <rect fill="#1f5f73" x="2" y="11" width="1" height="1"/>
    <rect fill="#1f5f73" x="3" y="11" width="1" height="1"/>
    <rect fill="#1f5f73" x="4" y="11" width="1" height="1"/>
    <rect fill="#355b4c" x="6" y="11" width="1" height="1"/>
    <rect fill="#d7e1c1" x="7" y="11" width="1" height="1"/>
    <rect fill="#d7e1c1" x="8" y="11" width="1" height="1"/>
    <rect fill="#daf7f9" x="9" y="11" width="1" height="1"/>
    <rect fill="#d5e2c1" x="10" y="11" width="1" height="1"/>
    <rect fill="#2d8ba8" y="12" width="1" height="1"/>
    <rect fill="#1f5f73" x="2" y="12" width="1" height="1"/>
    <rect fill="#1f5f73" x="3" y="12" width="1" height="1"/>
    <rect fill="#1f5f73" x="4" y="12" width="1" height="1"/>
    <rect fill="#1f5f73" x="5" y="12" width="1" height="1"/>
    <rect fill="#355b4c" x="6" y="12" width="1" height="1"/>
    <rect fill="#9cc7b1" x="7" y="12" width="1" height="1"/>
    <rect fill="#e0ebbd" x="8" y="12" width="1" height="1"/>
    <rect fill="#daf7f9" x="9" y="12" width="1" height="1"/>
    <rect fill="#deecbd" x="10" y="12" width="1" height="1"/>
    <rect fill="#e0ebbd" x="12" y="12" width="1" height="1"/>
    <rect fill="#385949" x="13" y="12" width="1" height="1"/>
    <rect fill="#2d8ba8" y="13" width="1" height="1"/>
    <rect fill="#1f83b5" x="2" y="13" width="1" height="1"/>
    <rect fill="#1f83b5" x="3" y="13" width="1" height="1"/>
    <rect fill="#1f5f73" x="4" y="13" width="1" height="1"/>
    <rect fill="#1f5f73" x="5" y="13" width="1" height="1"/>
    <rect fill="#355b4c" x="6" y="13" width="1" height="1"/>
    <rect fill="#9cc7b1" x="7" y="13" width="1" height="1"/>
    <rect fill="#daf7f9" x="8" y="13" width="1" height="1"/>
    <rect fill="#daf7f9" x="9" y="13" width="1" height="1"/>
    <rect fill="#e0ebbd" x="10" y="13" width="1" height="1"/>
    <rect fill="#deecbd" x="11" y="13" width="1" height="1"/>
    <rect fill="#385949" x="12" y="13" width="1" height="1"/>
    <rect fill="#1f5f73" x="2" y="14" width="1" height="1"/>
    <rect fill="#1f5f73" x="3" y="14" width="1" height="1"/>
    <rect fill="#136475" x="4" y="14" width="1" height="1"/>
    <rect fill="#136475" x="5" y="14" width="1" height="1"/>
    <rect fill="#9cc7b1" x="6" y="14" width="1" height="1"/>
    <rect fill="#9cc7b1" x="7" y="14" width="1" height="1"/>
    <rect fill="#daf7f9" x="8" y="14" width="1" height="1"/>
    <rect fill="#daf7f9" x="9" y="14" width="1" height="1"/>
    <rect fill="#e0ebbd" x="10" y="14" width="1" height="1"/>
    <rect fill="#deecbd" x="11" y="14" width="1" height="1"/>
    <rect fill="#385949" x="12" y="14" width="1" height="1"/>
    <rect fill="#2d8ba8" y="15" width="1" height="1"/>
    <rect fill="#1f5f73" x="2" y="15" width="1" height="1"/>
    <rect fill="#1f5f73" x="3" y="15" width="1" height="1"/>
    <rect fill="#1f5f73" x="4" y="15" width="1" height="1"/>
    <rect fill="#355b4c" x="5" y="15" width="1" height="1"/>
    <rect fill="#7a8276" x="6" y="15" width="1" height="1"/>
    <rect fill="#979686" x="7" y="15" width="1" height="1"/>
    <rect fill="#daf7f9" x="8" y="15" width="1" height="1"/>
    <rect fill="#e0ebbd" x="9" y="15" width="1" height="1"/>
    <rect fill="#e0ebbd" x="10" y="15" width="1" height="1"/>
    <rect fill="#385949" x="11" y="15" width="1" height="1"/>
    <rect fill="#1f5f73" x="2" y="16" width="1" height="1"/>
    <rect fill="#1f5f73" x="3" y="16" width="1" height="1"/>
    <rect fill="#1f5f73" x="4" y="16" width="1" height="1"/>
    <rect fill="#136475" x="5" y="16" width="1" height="1"/>
    <rect fill="#355b4c" x="6" y="16" width="1" height="1"/>
    <rect fill="#9cc7b1" x="7" y="16" width="1" height="1"/>
    <rect fill="#daf7f9" x="8" y="16" width="1" height="1"/>
    <rect fill="#e0ebbd" x="9" y="16" width="1" height="1"/>
    <rect fill="#aa8e79" x="10" y="16" width="1" height="1"/>
    <rect fill="#385949" x="11" y="16" width="1" height="1"/>
    <rect fill="#1f5f73" x="2" y="17" width="1" height="1"/>
    <rect fill="#1f5f73" x="3" y="17" width="1" height="1"/>
    <rect fill="#1f5f73" x="4" y="17" width="1" height="1"/>
    <rect fill="#136475" x="5" y="17" width="1" height="1"/>
    <rect fill="#355b4c" x="6" y="17" width="1" height="1"/>
    <rect fill="#7a8276" x="7" y="17" width="1" height="1"/>
    <rect fill="#979686" x="8" y="17" width="1" height="1"/>
    <rect fill="#979686" x="9" y="17" width="1" height="1"/>
    <rect fill="#a6a08e" x="10" y="17" width="1" height="1"/>
    <rect fill="#385949" x="11" y="17" width="1" height="1"/>
    <rect fill="#1f83b5" x="1" y="18" width="1" height="1"/>
    <rect fill="#1f5f73" x="2" y="18" width="1" height="1"/>
    <rect fill="#1f5f73" x="3" y="18" width="1" height="1"/>
    <rect fill="#1f5f73" x="4" y="18" width="1" height="1"/>
    <rect fill="#136475" x="5" y="18" width="1" height="1"/>
    <rect fill="#355b4c" x="6" y="18" width="1" height="1"/>
    <rect fill="#355b4c" x="7" y="18" width="1" height="1"/>
    <rect fill="#7a8276" x="8" y="18" width="1" height="1"/>
    <rect fill="#a6a08e" x="9" y="18" width="1" height="1"/>
    <rect fill="#385949" x="10" y="18" width="1" height="1"/>
    <rect fill="#2d8ba8" x="1" y="19" width="1" height="1"/>
    <rect fill="#1f83b5" x="2" y="19" width="1" height="1"/>
    <rect fill="#1f5f73" x="3" y="19" width="1" height="1"/>
    <rect fill="#1f5f73" x="4" y="19" width="1" height="1"/>
    <rect fill="#1f5f73" x="5" y="19" width="1" height="1"/>
    <rect fill="#1f5f73" x="6" y="19" width="1" height="1"/>
    <rect fill="#355b4c" x="8" y="19" width="1" height="1"/>
    <rect fill="#385949" x="9" y="19" width="1" height="1"/>
    <rect fill="#2d8ba8" x="2" y="20" width="1" height="1"/>
    <rect fill="#2d8ba8" x="3" y="20" width="1" height="1"/>
    <rect fill="#2d8ba8" x="4" y="20" width="1" height="1"/>
    <rect fill="#1f5f73" x="5" y="20" width="1" height="1"/>
    <rect fill="#1f5f73" x="6" y="20" width="1" height="1"/>
  </g>
</svg>