<?xml version="1.0" encoding="UTF-8"?>
<svg id="Layer_2" data-name="Layer 2" xmlns="http://www.w3.org/2000/svg" viewBox="0 0 14 21">
  <defs>
    <style>
      .cls-1 {
        fill: #979686;
      }

      .cls-2 {
        fill: #deecbd;
      }

      .cls-3 {
        fill: #136475;
      }

      .cls-4 {
        fill: #d5e2c1;
      }

      .cls-5 {
        fill: #1f5f73;
      }

      .cls-6 {
        fill: #28ccdf;
        isolation: isolate;
        opacity: .4;
      }

      .cls-7 {
        fill: #a6a08e;
      }

      .cls-8 {
        fill: #2d8ba8;
      }

      .cls-9 {
        fill: #355b4c;
      }

      .cls-10 {
        fill: #7a8276;
      }

      .cls-11 {
        fill: #daf7f9;
      }

      .cls-12 {
        fill: #1f83b5;
      }

      .cls-13 {
        fill: #385949;
      }

      .cls-14 {
        fill: #e0ebbd;
      }

      .cls-15 {
        fill: #aa8e79;
      }

      .cls-16 {
        fill: #d7e1c1;
      }

      .cls-17 {
        fill: #d9f8f9;
      }

      .cls-18 {
        fill: #9cc7b1;
      }
    </style>
  </defs>
  <g id="Layer_1-2" data-name="Layer 1" shape-rendering="crispEdges">
    <rect class="cls-6" x="6" width="1" height="1"/>
    <rect class="cls-13" x="7" width="1" height="1"/>
    <rect class="cls-6" x="5" y="1" width="1" height="1"/>
    <rect class="cls-9" x="6" y="1" width="1" height="1"/>
    <rect class="cls-16" x="7" y="1" width="1" height="1"/>
    <rect class="cls-13" x="8" y="1" width="1" height="1"/>
    <rect class="cls-6" x="5" y="2" width="1" height="1"/>
    <rect class="cls-17" x="6" y="2" width="1" height="1"/>
    <rect class="cls-16" x="7" y="2" width="1" height="1"/>
    <rect class="cls-13" x="8" y="2" width="1" height="1"/>
    <rect class="cls-6" x="5" y="3" width="1" height="1"/>
    <rect class="cls-7" x="6" y="3" width="1" height="1"/>
    <rect class="cls-18" x="7" y="3" width="1" height="1"/>
    <rect class="cls-13" x="8" y="3" width="1" height="1"/>
    <rect class="cls-6" x="6" y="4" width="1" height="1"/>
    <rect class="cls-10" x="7" y="4" width="1" height="1"/>
    <rect class="cls-13" x="8" y="4" width="1" height="1"/>
    <rect class="cls-6" x="6" y="5" width="1" height="1"/>
    <rect class="cls-9" x="7" y="5" width="1" height="1"/>
    <rect class="cls-10" x="8" y="5" width="1" height="1"/>
    <rect class="cls-13" x="9" y="5" width="1" height="1"/>
    <rect class="cls-6" x="6" y="6" width="1" height="1"/>
    <rect class="cls-9" x="7" y="6" width="1" height="1"/>
    <rect class="cls-10" x="8" y="6" width="1" height="1"/>
    <rect class="cls-13" x="9" y="6" width="1" height="1"/>
    <rect class="cls-5" x="2" y="7" width="1" height="1"/>
    <rect class="cls-6" x="6" y="7" width="1" height="1"/>
    <rect class="cls-9" x="7" y="7" width="1" height="1"/>
    <rect class="cls-10" x="8" y="7" width="1" height="1"/>
    <rect class="cls-15" x="9" y="7" width="1" height="1"/>
    <rect class="cls-13" x="10" y="7" width="1" height="1"/>
    <rect class="cls-5" x="1" y="8" width="1" height="1"/>
    <rect class="cls-5" x="2" y="8" width="1" height="1"/>
    <rect class="cls-6" x="6" y="8" width="1" height="1"/>
    <rect class="cls-9" x="7" y="8" width="1" height="1"/>
    <rect class="cls-10" x="8" y="8" width="1" height="1"/>
    <rect class="cls-1" x="9" y="8" width="1" height="1"/>
    <rect class="cls-13" x="10" y="8" width="1" height="1"/>
    <rect class="cls-8" x="1" y="9" width="1" height="1"/>
    <rect class="cls-5" x="2" y="9" width="1" height="1"/>
    <rect class="cls-5" x="3" y="9" width="1" height="1"/>
    <rect class="cls-9" x="6" y="9" width="1" height="1"/>
    <rect class="cls-10" x="7" y="9" width="1" height="1"/>
    <rect class="cls-10" x="8" y="9" width="1" height="1"/>
    <rect class="cls-11" x="9" y="9" width="1" height="1"/>
    <rect class="cls-13" x="10" y="9" width="1" height="1"/>
    <rect class="cls-8" y="10" width="1" height="1"/>
    <rect class="cls-5" x="2" y="10" width="1" height="1"/>
    <rect class="cls-5" x="3" y="10" width="1" height="1"/>
    <rect class="cls-9" x="6" y="10" width="1" height="1"/>
    <rect class="cls-10" x="7" y="10" width="1" height="1"/>
    <rect class="cls-14" x="8" y="10" width="1" height="1"/>
    <rect class="cls-11" x="9" y="10" width="1" height="1"/>
    <rect class="cls-4" x="10" y="10" width="1" height="1"/>
    <rect class="cls-8" y="11" width="1" height="1"/>
    <rect class="cls-5" x="2" y="11" width="1" height="1"/>
    <rect class="cls-5" x="3" y="11" width="1" height="1"/>
    <rect class="cls-5" x="4" y="11" width="1" height="1"/>
    <rect class="cls-9" x="6" y="11" width="1" height="1"/>
    <rect class="cls-16" x="7" y="11" width="1" height="1"/>
    <rect class="cls-16" x="8" y="11" width="1" height="1"/>
    <rect class="cls-11" x="9" y="11" width="1" height="1"/>
    <rect class="cls-4" x="10" y="11" width="1" height="1"/>
    <rect class="cls-8" y="12" width="1" height="1"/>
    <rect class="cls-5" x="2" y="12" width="1" height="1"/>
    <rect class="cls-5" x="3" y="12" width="1" height="1"/>
    <rect class="cls-5" x="4" y="12" width="1" height="1"/>
    <rect class="cls-5" x="5" y="12" width="1" height="1"/>
    <rect class="cls-9" x="6" y="12" width="1" height="1"/>
    <rect class="cls-18" x="7" y="12" width="1" height="1"/>
    <rect class="cls-14" x="8" y="12" width="1" height="1"/>
    <rect class="cls-11" x="9" y="12" width="1" height="1"/>
    <rect class="cls-2" x="10" y="12" width="1" height="1"/>
    <rect class="cls-14" x="12" y="12" width="1" height="1"/>
    <rect class="cls-13" x="13" y="12" width="1" height="1"/>
    <rect class="cls-8" y="13" width="1" height="1"/>
    <rect class="cls-12" x="2" y="13" width="1" height="1"/>
    <rect class="cls-12" x="3" y="13" width="1" height="1"/>
    <rect class="cls-5" x="4" y="13" width="1" height="1"/>
    <rect class="cls-5" x="5" y="13" width="1" height="1"/>
    <rect class="cls-9" x="6" y="13" width="1" height="1"/>
    <rect class="cls-18" x="7" y="13" width="1" height="1"/>
    <rect class="cls-11" x="8" y="13" width="1" height="1"/>
    <rect class="cls-11" x="9" y="13" width="1" height="1"/>
    <rect class="cls-14" x="10" y="13" width="1" height="1"/>
    <rect class="cls-2" x="11" y="13" width="1" height="1"/>
    <rect class="cls-13" x="12" y="13" width="1" height="1"/>
    <rect class="cls-5" x="2" y="14" width="1" height="1"/>
    <rect class="cls-5" x="3" y="14" width="1" height="1"/>
    <rect class="cls-3" x="4" y="14" width="1" height="1"/>
    <rect class="cls-3" x="5" y="14" width="1" height="1"/>
    <rect class="cls-18" x="6" y="14" width="1" height="1"/>
    <rect class="cls-18" x="7" y="14" width="1" height="1"/>
    <rect class="cls-11" x="8" y="14" width="1" height="1"/>
    <rect class="cls-11" x="9" y="14" width="1" height="1"/>
    <rect class="cls-14" x="10" y="14" width="1" height="1"/>
    <rect class="cls-2" x="11" y="14" width="1" height="1"/>
    <rect class="cls-13" x="12" y="14" width="1" height="1"/>
    <rect class="cls-8" y="15" width="1" height="1"/>
    <rect class="cls-5" x="2" y="15" width="1" height="1"/>
    <rect class="cls-5" x="3" y="15" width="1" height="1"/>
    <rect class="cls-5" x="4" y="15" width="1" height="1"/>
    <rect class="cls-9" x="5" y="15" width="1" height="1"/>
    <rect class="cls-10" x="6" y="15" width="1" height="1"/>
    <rect class="cls-1" x="7" y="15" width="1" height="1"/>
    <rect class="cls-11" x="8" y="15" width="1" height="1"/>
    <rect class="cls-14" x="9" y="15" width="1" height="1"/>
    <rect class="cls-14" x="10" y="15" width="1" height="1"/>
    <rect class="cls-13" x="11" y="15" width="1" height="1"/>
    <rect class="cls-5" x="2" y="16" width="1" height="1"/>
    <rect class="cls-5" x="3" y="16" width="1" height="1"/>
    <rect class="cls-5" x="4" y="16" width="1" height="1"/>
    <rect class="cls-3" x="5" y="16" width="1" height="1"/>
    <rect class="cls-9" x="6" y="16" width="1" height="1"/>
    <rect class="cls-18" x="7" y="16" width="1" height="1"/>
    <rect class="cls-11" x="8" y="16" width="1" height="1"/>
    <rect class="cls-14" x="9" y="16" width="1" height="1"/>
    <rect class="cls-15" x="10" y="16" width="1" height="1"/>
    <rect class="cls-13" x="11" y="16" width="1" height="1"/>
    <rect class="cls-5" x="2" y="17" width="1" height="1"/>
    <rect class="cls-5" x="3" y="17" width="1" height="1"/>
    <rect class="cls-5" x="4" y="17" width="1" height="1"/>
    <rect class="cls-3" x="5" y="17" width="1" height="1"/>
    <rect class="cls-9" x="6" y="17" width="1" height="1"/>
    <rect class="cls-10" x="7" y="17" width="1" height="1"/>
    <rect class="cls-1" x="8" y="17" width="1" height="1"/>
    <rect class="cls-1" x="9" y="17" width="1" height="1"/>
    <rect class="cls-7" x="10" y="17" width="1" height="1"/>
    <rect class="cls-13" x="11" y="17" width="1" height="1"/>
    <rect class="cls-12" x="1" y="18" width="1" height="1"/>
    <rect class="cls-5" x="2" y="18" width="1" height="1"/>
    <rect class="cls-5" x="3" y="18" width="1" height="1"/>
    <rect class="cls-5" x="4" y="18" width="1" height="1"/>
    <rect class="cls-3" x="5" y="18" width="1" height="1"/>
    <rect class="cls-9" x="6" y="18" width="1" height="1"/>
    <rect class="cls-9" x="7" y="18" width="1" height="1"/>
    <rect class="cls-10" x="8" y="18" width="1" height="1"/>
    <rect class="cls-7" x="9" y="18" width="1" height="1"/>
    <rect class="cls-13" x="10" y="18" width="1" height="1"/>
    <rect class="cls-8" x="1" y="19" width="1" height="1"/>
    <rect class="cls-12" x="2" y="19" width="1" height="1"/>
    <rect class="cls-5" x="3" y="19" width="1" height="1"/>
    <rect class="cls-5" x="4" y="19" width="1" height="1"/>
    <rect class="cls-5" x="5" y="19" width="1" height="1"/>
    <rect class="cls-5" x="6" y="19" width="1" height="1"/>
    <rect class="cls-9" x="8" y="19" width="1" height="1"/>
    <rect class="cls-13" x="9" y="19" width="1" height="1"/>
    <rect class="cls-8" x="2" y="20" width="1" height="1"/>
    <rect class="cls-8" x="3" y="20" width="1" height="1"/>
    <rect class="cls-8" x="4" y="20" width="1" height="1"/>
    <rect class="cls-5" x="5" y="20" width="1" height="1"/>
    <rect class="cls-5" x="6" y="20" width="1" height="1"/>
  </g>
</svg>