<?xml version="1.0" encoding="UTF-8"?>
<svg id="Layer_2" data-name="Layer 2" xmlns="http://www.w3.org/2000/svg" viewBox="0 0 12 9">
  
  <g id="Layer_1-2" data-name="Layer 1" shape-rendering="crispEdges">
    <rect fill="#a4c036" x="5" width="1" height="1"/>
    <rect fill="#a4c036" x="6" width="1" height="1"/>
    <rect fill="#a4c036" x="7" width="1" height="1"/>
    <rect fill="#a4c036" x="8" width="1" height="1"/>
    <rect fill="#a4c036" x="3" y="1" width="1" height="1"/>
    <rect fill="#a4c036" x="4" y="1" width="1" height="1"/>
    <rect fill="#a4c036" x="5" y="1" width="1" height="1"/>
    <rect fill="#a4c036" x="6" y="1" width="1" height="1"/>
    <rect fill="#a4c036" x="7" y="1" width="1" height="1"/>
    <rect fill="#a4c036" x="8" y="1" width="1" height="1"/>
    <rect fill="#a4c036" x="9" y="1" width="1" height="1"/>
    <rect fill="#a4c036" x="10" y="1" width="1" height="1"/>
    <rect fill="#a4c036" x="2" y="2" width="1" height="1"/>
    <rect fill="#a4c036" x="3" y="2" width="1" height="1"/>
    <rect fill="#a4c036" x="4" y="2" width="1" height="1"/>
    <rect fill="#a4c036" x="5" y="2" width="1" height="1"/>
    <rect fill="#a4c036" x="6" y="2" width="1" height="1"/>
    <rect fill="#a4c036" x="7" y="2" width="1" height="1"/>
    <rect fill="#8ea62f" x="8" y="2" width="1" height="1"/>
    <rect fill="#277790" x="9" y="2" width="1" height="1"/>
    <rect fill="#277790" x="10" y="2" width="1" height="1"/>
    <rect fill="#a4c036" x="2" y="3" width="1" height="1"/>
    <rect fill="#a4c036" x="3" y="3" width="1" height="1"/>
    <rect fill="#a4c036" x="4" y="3" width="1" height="1"/>
    <rect fill="#a4c036" x="5" y="3" width="1" height="1"/>
    <rect fill="#a4c036" x="6" y="3" width="1" height="1"/>
    <rect fill="#a4c036" x="7" y="3" width="1" height="1"/>
    <rect fill="#a4c036" x="8" y="3" width="1" height="1"/>
    <rect fill="#8ea62f" x="9" y="3" width="1" height="1"/>
    <rect fill="#8ea62f" x="10" y="3" width="1" height="1"/>
    <rect fill="#8ea62f" x="11" y="3" width="1" height="1"/>
    <rect fill="#a4c036" x="2" y="4" width="1" height="1"/>
    <rect fill="#a4c036" x="3" y="4" width="1" height="1"/>
    <rect fill="#a4c036" x="4" y="4" width="1" height="1"/>
    <rect fill="#a4c036" x="5" y="4" width="1" height="1"/>
    <rect fill="#a4c036" x="6" y="4" width="1" height="1"/>
    <rect fill="#a4c036" x="7" y="4" width="1" height="1"/>
    <rect fill="#a4c036" x="8" y="4" width="1" height="1"/>
    <rect fill="#a4c036" x="9" y="4" width="1" height="1"/>
    <rect fill="#8ea62f" x="10" y="4" width="1" height="1"/>
    <rect fill="#8ea62f" x="11" y="4" width="1" height="1"/>
    <rect fill="#94c5c8" y="5" width="1" height="1"/>
    <rect fill="#236b81" x="2" y="5" width="1" height="1"/>
    <rect fill="#a4c036" x="3" y="5" width="1" height="1"/>
    <rect fill="#a4c036" x="4" y="5" width="1" height="1"/>
    <rect fill="#a4c036" x="5" y="5" width="1" height="1"/>
    <rect fill="#a4c036" x="6" y="5" width="1" height="1"/>
    <rect fill="#a4c036" x="7" y="5" width="1" height="1"/>
    <rect fill="#a4c036" x="8" y="5" width="1" height="1"/>
    <rect fill="#a4c036" x="9" y="5" width="1" height="1"/>
    <rect fill="#8ea62f" x="10" y="5" width="1" height="1"/>
    <rect fill="#236b81" x="11" y="5" width="1" height="1"/>
    <rect fill="#94c5c8" y="6" width="1" height="1"/>
    <rect fill="#236b81" x="3" y="6" width="1" height="1"/>
    <rect fill="#236b81" x="4" y="6" width="1" height="1"/>
    <rect fill="#a4c036" x="5" y="6" width="1" height="1"/>
    <rect fill="#a4c036" x="6" y="6" width="1" height="1"/>
    <rect fill="#a4c036" x="7" y="6" width="1" height="1"/>
    <rect fill="#a4c036" x="8" y="6" width="1" height="1"/>
    <rect fill="#236b81" x="9" y="6" width="1" height="1"/>
    <rect fill="#236b81" x="10" y="6" width="1" height="1"/>
    <rect fill="#94c5c8" x="1" y="7" width="1" height="1"/>
    <rect fill="#236b81" x="5" y="7" width="1" height="1"/>
    <rect fill="#236b81" x="6" y="7" width="1" height="1"/>
    <rect fill="#236b81" x="7" y="7" width="1" height="1"/>
    <rect fill="#236b81" x="8" y="7" width="1" height="1"/>
    <rect fill="#94c5c8" x="2" y="8" width="1" height="1"/>
    <rect fill="#94c5c8" x="3" y="8" width="1" height="1"/>
  </g>
</svg>