<?xml version="1.0" encoding="UTF-8"?>
<svg id="Layer_2" data-name="Layer 2" xmlns="http://www.w3.org/2000/svg" viewBox="0 0 12 9">
  <defs>
    <style>
      .cls-1 {
        fill: #a4c036;
      }

      .cls-2 {
        fill: #8ea62f;
      }

      .cls-3 {
        fill: #236b81;
      }

      .cls-4 {
        fill: #277790;
      }

      .cls-5 {
        fill: #94c5c8;
      }
    </style>
  </defs>
  <g id="Layer_1-2" data-name="Layer 1" shape-rendering="crispEdges">
    <rect class="cls-1" x="5" width="1" height="1"/>
    <rect class="cls-1" x="6" width="1" height="1"/>
    <rect class="cls-1" x="7" width="1" height="1"/>
    <rect class="cls-1" x="8" width="1" height="1"/>
    <rect class="cls-1" x="3" y="1" width="1" height="1"/>
    <rect class="cls-1" x="4" y="1" width="1" height="1"/>
    <rect class="cls-1" x="5" y="1" width="1" height="1"/>
    <rect class="cls-1" x="6" y="1" width="1" height="1"/>
    <rect class="cls-1" x="7" y="1" width="1" height="1"/>
    <rect class="cls-1" x="8" y="1" width="1" height="1"/>
    <rect class="cls-1" x="9" y="1" width="1" height="1"/>
    <rect class="cls-1" x="10" y="1" width="1" height="1"/>
    <rect class="cls-1" x="2" y="2" width="1" height="1"/>
    <rect class="cls-1" x="3" y="2" width="1" height="1"/>
    <rect class="cls-1" x="4" y="2" width="1" height="1"/>
    <rect class="cls-1" x="5" y="2" width="1" height="1"/>
    <rect class="cls-1" x="6" y="2" width="1" height="1"/>
    <rect class="cls-1" x="7" y="2" width="1" height="1"/>
    <rect class="cls-2" x="8" y="2" width="1" height="1"/>
    <rect class="cls-4" x="9" y="2" width="1" height="1"/>
    <rect class="cls-4" x="10" y="2" width="1" height="1"/>
    <rect class="cls-1" x="2" y="3" width="1" height="1"/>
    <rect class="cls-1" x="3" y="3" width="1" height="1"/>
    <rect class="cls-1" x="4" y="3" width="1" height="1"/>
    <rect class="cls-1" x="5" y="3" width="1" height="1"/>
    <rect class="cls-1" x="6" y="3" width="1" height="1"/>
    <rect class="cls-1" x="7" y="3" width="1" height="1"/>
    <rect class="cls-1" x="8" y="3" width="1" height="1"/>
    <rect class="cls-2" x="9" y="3" width="1" height="1"/>
    <rect class="cls-2" x="10" y="3" width="1" height="1"/>
    <rect class="cls-2" x="11" y="3" width="1" height="1"/>
    <rect class="cls-1" x="2" y="4" width="1" height="1"/>
    <rect class="cls-1" x="3" y="4" width="1" height="1"/>
    <rect class="cls-1" x="4" y="4" width="1" height="1"/>
    <rect class="cls-1" x="5" y="4" width="1" height="1"/>
    <rect class="cls-1" x="6" y="4" width="1" height="1"/>
    <rect class="cls-1" x="7" y="4" width="1" height="1"/>
    <rect class="cls-1" x="8" y="4" width="1" height="1"/>
    <rect class="cls-1" x="9" y="4" width="1" height="1"/>
    <rect class="cls-2" x="10" y="4" width="1" height="1"/>
    <rect class="cls-2" x="11" y="4" width="1" height="1"/>
    <rect class="cls-5" y="5" width="1" height="1"/>
    <rect class="cls-3" x="2" y="5" width="1" height="1"/>
    <rect class="cls-1" x="3" y="5" width="1" height="1"/>
    <rect class="cls-1" x="4" y="5" width="1" height="1"/>
    <rect class="cls-1" x="5" y="5" width="1" height="1"/>
    <rect class="cls-1" x="6" y="5" width="1" height="1"/>
    <rect class="cls-1" x="7" y="5" width="1" height="1"/>
    <rect class="cls-1" x="8" y="5" width="1" height="1"/>
    <rect class="cls-1" x="9" y="5" width="1" height="1"/>
    <rect class="cls-2" x="10" y="5" width="1" height="1"/>
    <rect class="cls-3" x="11" y="5" width="1" height="1"/>
    <rect class="cls-5" y="6" width="1" height="1"/>
    <rect class="cls-3" x="3" y="6" width="1" height="1"/>
    <rect class="cls-3" x="4" y="6" width="1" height="1"/>
    <rect class="cls-1" x="5" y="6" width="1" height="1"/>
    <rect class="cls-1" x="6" y="6" width="1" height="1"/>
    <rect class="cls-1" x="7" y="6" width="1" height="1"/>
    <rect class="cls-1" x="8" y="6" width="1" height="1"/>
    <rect class="cls-3" x="9" y="6" width="1" height="1"/>
    <rect class="cls-3" x="10" y="6" width="1" height="1"/>
    <rect class="cls-5" x="1" y="7" width="1" height="1"/>
    <rect class="cls-3" x="5" y="7" width="1" height="1"/>
    <rect class="cls-3" x="6" y="7" width="1" height="1"/>
    <rect class="cls-3" x="7" y="7" width="1" height="1"/>
    <rect class="cls-3" x="8" y="7" width="1" height="1"/>
    <rect class="cls-5" x="2" y="8" width="1" height="1"/>
    <rect class="cls-5" x="3" y="8" width="1" height="1"/>
  </g>
</svg>