<?xml version="1.0" encoding="UTF-8"?>
<svg id="Layer_2" data-name="Layer 2" xmlns="http://www.w3.org/2000/svg" viewBox="-2 -8 25 30">
  <defs>
    <style>
      .cls-1 {
        fill: #6c6464;
      }

      .cls-2 {
        fill: #3e3939;
      }

      .cls-3 {
        fill: #554f4f;
      }

      .cls-4 {
        fill: #272424;
      }

      .cls-5 {
        fill: #1b1919;
      }

      .cls-6 {
        fill: #3a3535;
      }

      .cls-7 {
        fill: #5d5656;
      }
    </style>
  </defs>
  <g id="Layer_1-2" data-name="Layer 1" shape-rendering="crispEdges">
    <rect x="10" width="1" height="1"/>
    <rect x="11" width="1" height="1"/>
    <rect x="9" y="1" width="1" height="1"/>
    <rect class="cls-2" x="10" y="1" width="1" height="1"/>
    <rect class="cls-2" x="11" y="1" width="1" height="1"/>
    <rect x="12" y="1" width="1" height="1"/>
    <rect x="13" y="1" width="1" height="1"/>
    <rect x="9" y="2" width="1" height="1"/>
    <rect class="cls-2" x="10" y="2" width="1" height="1"/>
    <rect class="cls-2" x="11" y="2" width="1" height="1"/>
    <rect class="cls-2" x="12" y="2" width="1" height="1"/>
    <rect class="cls-2" x="13" y="2" width="1" height="1"/>
    <rect x="14" y="2" width="1" height="1"/>
    <rect x="15" y="2" width="1" height="1"/>
    <rect x="8" y="3" width="1" height="1"/>
    <rect class="cls-2" x="9" y="3" width="1" height="1"/>
    <rect class="cls-2" x="10" y="3" width="1" height="1"/>
    <rect class="cls-2" x="11" y="3" width="1" height="1"/>
    <rect class="cls-2" x="12" y="3" width="1" height="1"/>
    <rect class="cls-2" x="13" y="3" width="1" height="1"/>
    <rect class="cls-2" x="14" y="3" width="1" height="1"/>
    <rect class="cls-2" x="15" y="3" width="1" height="1"/>
    <rect x="16" y="3" width="1" height="1"/>
    <rect x="17" y="3" width="1" height="1"/>
    <rect x="8" y="4" width="1" height="1"/>
    <rect class="cls-2" x="9" y="4" width="1" height="1"/>
    <rect class="cls-2" x="10" y="4" width="1" height="1"/>
    <rect class="cls-2" x="11" y="4" width="1" height="1"/>
    <rect class="cls-2" x="12" y="4" width="1" height="1"/>
    <rect class="cls-2" x="13" y="4" width="1" height="1"/>
    <rect class="cls-2" x="14" y="4" width="1" height="1"/>
    <rect class="cls-2" x="15" y="4" width="1" height="1"/>
    <rect class="cls-2" x="16" y="4" width="1" height="1"/>
    <rect class="cls-2" x="17" y="4" width="1" height="1"/>
    <rect x="18" y="4" width="1" height="1"/>
    <rect x="19" y="4" width="1" height="1"/>
    <rect x="7" y="5" width="1" height="1"/>
    <rect class="cls-2" x="8" y="5" width="1" height="1"/>
    <rect class="cls-2" x="9" y="5" width="1" height="1"/>
    <rect class="cls-2" x="10" y="5" width="1" height="1"/>
    <rect class="cls-2" x="11" y="5" width="1" height="1"/>
    <rect class="cls-2" x="12" y="5" width="1" height="1"/>
    <rect class="cls-2" x="13" y="5" width="1" height="1"/>
    <rect class="cls-2" x="14" y="5" width="1" height="1"/>
    <rect class="cls-2" x="15" y="5" width="1" height="1"/>
    <rect class="cls-2" x="16" y="5" width="1" height="1"/>
    <rect class="cls-2" x="17" y="5" width="1" height="1"/>
    <rect class="cls-2" x="18" y="5" width="1" height="1"/>
    <rect class="cls-2" x="19" y="5" width="1" height="1"/>
    <rect x="20" y="5" width="1" height="1"/>
    <rect x="21" y="5" width="1" height="1"/>
    <rect x="7" y="6" width="1" height="1"/>
    <rect class="cls-2" x="8" y="6" width="1" height="1"/>
    <rect class="cls-2" x="9" y="6" width="1" height="1"/>
    <rect class="cls-2" x="10" y="6" width="1" height="1"/>
    <rect class="cls-2" x="11" y="6" width="1" height="1"/>
    <rect class="cls-2" x="12" y="6" width="1" height="1"/>
    <rect class="cls-2" x="13" y="6" width="1" height="1"/>
    <rect class="cls-2" x="14" y="6" width="1" height="1"/>
    <rect class="cls-2" x="15" y="6" width="1" height="1"/>
    <rect class="cls-2" x="16" y="6" width="1" height="1"/>
    <rect class="cls-2" x="17" y="6" width="1" height="1"/>
    <rect class="cls-2" x="18" y="6" width="1" height="1"/>
    <rect class="cls-2" x="19" y="6" width="1" height="1"/>
    <rect class="cls-2" x="20" y="6" width="1" height="1"/>
    <rect class="cls-2" x="21" y="6" width="1" height="1"/>
    <rect x="22" y="6" width="1" height="1"/>
    <rect x="6" y="7" width="1" height="1"/>
    <rect class="cls-2" x="7" y="7" width="1" height="1"/>
    <rect class="cls-2" x="8" y="7" width="1" height="1"/>
    <rect class="cls-2" x="9" y="7" width="1" height="1"/>
    <rect class="cls-2" x="10" y="7" width="1" height="1"/>
    <rect class="cls-2" x="11" y="7" width="1" height="1"/>
    <rect class="cls-2" x="12" y="7" width="1" height="1"/>
    <rect class="cls-2" x="13" y="7" width="1" height="1"/>
    <rect class="cls-2" x="14" y="7" width="1" height="1"/>
    <rect class="cls-2" x="15" y="7" width="1" height="1"/>
    <rect class="cls-2" x="16" y="7" width="1" height="1"/>
    <rect class="cls-2" x="17" y="7" width="1" height="1"/>
    <rect class="cls-2" x="18" y="7" width="1" height="1"/>
    <rect class="cls-2" x="19" y="7" width="1" height="1"/>
    <rect class="cls-2" x="20" y="7" width="1" height="1"/>
    <rect class="cls-2" x="21" y="7" width="1" height="1"/>
    <rect x="22" y="7" width="1" height="1"/>
    <rect x="6" y="8" width="1" height="1"/>
    <rect x="7" y="8" width="1" height="1"/>
    <rect class="cls-2" x="8" y="8" width="1" height="1"/>
    <rect class="cls-2" x="9" y="8" width="1" height="1"/>
    <rect class="cls-2" x="10" y="8" width="1" height="1"/>
    <rect class="cls-2" x="11" y="8" width="1" height="1"/>
    <rect class="cls-2" x="12" y="8" width="1" height="1"/>
    <rect class="cls-2" x="13" y="8" width="1" height="1"/>
    <rect class="cls-2" x="14" y="8" width="1" height="1"/>
    <rect class="cls-2" x="15" y="8" width="1" height="1"/>
    <rect class="cls-2" x="16" y="8" width="1" height="1"/>
    <rect class="cls-2" x="17" y="8" width="1" height="1"/>
    <rect class="cls-2" x="18" y="8" width="1" height="1"/>
    <rect class="cls-2" x="19" y="8" width="1" height="1"/>
    <rect class="cls-2" x="20" y="8" width="1" height="1"/>
    <rect x="21" y="8" width="1" height="1"/>
    <rect class="cls-5" x="5" y="9" width="1" height="1"/>
    <rect class="cls-5" x="6" y="9" width="1" height="1"/>
    <rect x="7" y="9" width="1" height="1"/>
    <rect x="8" y="9" width="1" height="1"/>
    <rect x="9" y="9" width="1" height="1"/>
    <rect class="cls-2" x="10" y="9" width="1" height="1"/>
    <rect class="cls-2" x="11" y="9" width="1" height="1"/>
    <rect class="cls-2" x="12" y="9" width="1" height="1"/>
    <rect class="cls-2" x="13" y="9" width="1" height="1"/>
    <rect class="cls-2" x="14" y="9" width="1" height="1"/>
    <rect class="cls-2" x="15" y="9" width="1" height="1"/>
    <rect class="cls-2" x="16" y="9" width="1" height="1"/>
    <rect class="cls-2" x="17" y="9" width="1" height="1"/>
    <rect class="cls-2" x="18" y="9" width="1" height="1"/>
    <rect class="cls-2" x="19" y="9" width="1" height="1"/>
    <rect class="cls-2" x="20" y="9" width="1" height="1"/>
    <rect x="21" y="9" width="1" height="1"/>
    <rect class="cls-5" x="4" y="10" width="1" height="1"/>
    <rect class="cls-5" x="5" y="10" width="1" height="1"/>
    <rect class="cls-1" x="6" y="10" width="1" height="1"/>
    <rect class="cls-5" x="7" y="10" width="1" height="1"/>
    <rect class="cls-4" x="8" y="10" width="1" height="1"/>
    <rect x="9" y="10" width="1" height="1"/>
    <rect x="10" y="10" width="1" height="1"/>
    <rect x="11" y="10" width="1" height="1"/>
    <rect class="cls-2" x="12" y="10" width="1" height="1"/>
    <rect class="cls-2" x="13" y="10" width="1" height="1"/>
    <rect class="cls-2" x="14" y="10" width="1" height="1"/>
    <rect class="cls-2" x="15" y="10" width="1" height="1"/>
    <rect class="cls-2" x="16" y="10" width="1" height="1"/>
    <rect class="cls-2" x="17" y="10" width="1" height="1"/>
    <rect class="cls-2" x="18" y="10" width="1" height="1"/>
    <rect class="cls-2" x="19" y="10" width="1" height="1"/>
    <rect x="20" y="10" width="1" height="1"/>
    <rect class="cls-5" x="3" y="11" width="1" height="1"/>
    <rect class="cls-5" x="4" y="11" width="1" height="1"/>
    <rect class="cls-1" x="5" y="11" width="1" height="1"/>
    <rect class="cls-3" x="6" y="11" width="1" height="1"/>
    <rect class="cls-1" x="7" y="11" width="1" height="1"/>
    <rect class="cls-3" x="8" y="11" width="1" height="1"/>
    <rect class="cls-5" x="9" y="11" width="1" height="1"/>
    <rect class="cls-4" x="10" y="11" width="1" height="1"/>
    <rect x="11" y="11" width="1" height="1"/>
    <rect x="12" y="11" width="1" height="1"/>
    <rect x="13" y="11" width="1" height="1"/>
    <rect class="cls-2" x="14" y="11" width="1" height="1"/>
    <rect class="cls-2" x="15" y="11" width="1" height="1"/>
    <rect class="cls-2" x="16" y="11" width="1" height="1"/>
    <rect class="cls-2" x="17" y="11" width="1" height="1"/>
    <rect class="cls-2" x="18" y="11" width="1" height="1"/>
    <rect class="cls-2" x="19" y="11" width="1" height="1"/>
    <rect x="20" y="11" width="1" height="1"/>
    <rect class="cls-5" x="2" y="12" width="1" height="1"/>
    <rect class="cls-4" x="3" y="12" width="1" height="1"/>
    <rect class="cls-1" x="4" y="12" width="1" height="1"/>
    <rect class="cls-3" x="5" y="12" width="1" height="1"/>
    <rect class="cls-1" x="6" y="12" width="1" height="1"/>
    <rect class="cls-3" x="7" y="12" width="1" height="1"/>
    <rect class="cls-1" x="8" y="12" width="1" height="1"/>
    <rect class="cls-3" x="9" y="12" width="1" height="1"/>
    <rect class="cls-1" x="10" y="12" width="1" height="1"/>
    <rect class="cls-5" x="11" y="12" width="1" height="1"/>
    <rect class="cls-4" x="12" y="12" width="1" height="1"/>
    <rect x="13" y="12" width="1" height="1"/>
    <rect x="14" y="12" width="1" height="1"/>
    <rect x="15" y="12" width="1" height="1"/>
    <rect class="cls-2" x="16" y="12" width="1" height="1"/>
    <rect class="cls-2" x="17" y="12" width="1" height="1"/>
    <rect class="cls-2" x="18" y="12" width="1" height="1"/>
    <rect x="19" y="12" width="1" height="1"/>
    <rect class="cls-5" x="1" y="13" width="1" height="1"/>
    <rect class="cls-4" x="2" y="13" width="1" height="1"/>
    <rect class="cls-4" x="3" y="13" width="1" height="1"/>
    <rect class="cls-4" x="4" y="13" width="1" height="1"/>
    <rect class="cls-1" x="5" y="13" width="1" height="1"/>
    <rect class="cls-3" x="6" y="13" width="1" height="1"/>
    <rect class="cls-1" x="7" y="13" width="1" height="1"/>
    <rect class="cls-3" x="8" y="13" width="1" height="1"/>
    <rect class="cls-1" x="9" y="13" width="1" height="1"/>
    <rect class="cls-3" x="10" y="13" width="1" height="1"/>
    <rect class="cls-1" x="11" y="13" width="1" height="1"/>
    <rect class="cls-3" x="12" y="13" width="1" height="1"/>
    <rect class="cls-5" x="13" y="13" width="1" height="1"/>
    <rect class="cls-4" x="14" y="13" width="1" height="1"/>
    <rect x="15" y="13" width="1" height="1"/>
    <rect x="16" y="13" width="1" height="1"/>
    <rect x="17" y="13" width="1" height="1"/>
    <rect class="cls-2" x="18" y="13" width="1" height="1"/>
    <rect x="19" y="13" width="1" height="1"/>
    <rect class="cls-5" y="14" width="1" height="1"/>
    <rect class="cls-4" x="1" y="14" width="1" height="1"/>
    <rect class="cls-4" x="2" y="14" width="1" height="1"/>
    <rect class="cls-4" x="3" y="14" width="1" height="1"/>
    <rect class="cls-4" x="4" y="14" width="1" height="1"/>
    <rect class="cls-4" x="5" y="14" width="1" height="1"/>
    <rect class="cls-4" x="6" y="14" width="1" height="1"/>
    <rect class="cls-3" x="7" y="14" width="1" height="1"/>
    <rect class="cls-1" x="8" y="14" width="1" height="1"/>
    <rect class="cls-3" x="9" y="14" width="1" height="1"/>
    <rect class="cls-1" x="10" y="14" width="1" height="1"/>
    <rect class="cls-3" x="11" y="14" width="1" height="1"/>
    <rect class="cls-1" x="12" y="14" width="1" height="1"/>
    <rect class="cls-3" x="13" y="14" width="1" height="1"/>
    <rect class="cls-1" x="14" y="14" width="1" height="1"/>
    <rect class="cls-5" x="15" y="14" width="1" height="1"/>
    <rect class="cls-4" x="16" y="14" width="1" height="1"/>
    <rect x="17" y="14" width="1" height="1"/>
    <rect x="18" y="14" width="1" height="1"/>
    <rect class="cls-5" y="15" width="1" height="1"/>
    <rect class="cls-4" x="1" y="15" width="1" height="1"/>
    <rect class="cls-4" x="2" y="15" width="1" height="1"/>
    <rect class="cls-4" x="3" y="15" width="1" height="1"/>
    <rect class="cls-4" x="4" y="15" width="1" height="1"/>
    <rect class="cls-6" x="5" y="15" width="1" height="1"/>
    <rect class="cls-4" x="6" y="15" width="1" height="1"/>
    <rect class="cls-4" x="7" y="15" width="1" height="1"/>
    <rect class="cls-4" x="8" y="15" width="1" height="1"/>
    <rect class="cls-1" x="9" y="15" width="1" height="1"/>
    <rect class="cls-3" x="10" y="15" width="1" height="1"/>
    <rect class="cls-1" x="11" y="15" width="1" height="1"/>
    <rect class="cls-3" x="12" y="15" width="1" height="1"/>
    <rect class="cls-1" x="13" y="15" width="1" height="1"/>
    <rect class="cls-3" x="14" y="15" width="1" height="1"/>
    <rect class="cls-1" x="15" y="15" width="1" height="1"/>
    <rect class="cls-4" x="16" y="15" width="1" height="1"/>
    <rect class="cls-4" x="17" y="15" width="1" height="1"/>
    <rect class="cls-4" x="18" y="15" width="1" height="1"/>
    <rect class="cls-7" y="16" width="1" height="1"/>
    <rect class="cls-5" x="1" y="16" width="1" height="1"/>
    <rect class="cls-4" x="2" y="16" width="1" height="1"/>
    <rect class="cls-4" x="3" y="16" width="1" height="1"/>
    <rect class="cls-6" x="4" y="16" width="1" height="1"/>
    <rect class="cls-6" x="5" y="16" width="1" height="1"/>
    <rect class="cls-6" x="6" y="16" width="1" height="1"/>
    <rect class="cls-6" x="7" y="16" width="1" height="1"/>
    <rect class="cls-4" x="8" y="16" width="1" height="1"/>
    <rect class="cls-4" x="9" y="16" width="1" height="1"/>
    <rect class="cls-4" x="10" y="16" width="1" height="1"/>
    <rect class="cls-3" x="11" y="16" width="1" height="1"/>
    <rect class="cls-1" x="12" y="16" width="1" height="1"/>
    <rect class="cls-4" x="13" y="16" width="1" height="1"/>
    <rect class="cls-1" x="14" y="16" width="1" height="1"/>
    <rect class="cls-4" x="15" y="16" width="1" height="1"/>
    <rect class="cls-4" x="16" y="16" width="1" height="1"/>
    <rect class="cls-4" x="17" y="16" width="1" height="1"/>
    <rect class="cls-7" x="1" y="17" width="1" height="1"/>
    <rect class="cls-7" x="2" y="17" width="1" height="1"/>
    <rect class="cls-4" x="3" y="17" width="1" height="1"/>
    <rect class="cls-4" x="4" y="17" width="1" height="1"/>
    <rect class="cls-4" x="5" y="17" width="1" height="1"/>
    <rect class="cls-6" x="6" y="17" width="1" height="1"/>
    <rect class="cls-6" x="7" y="17" width="1" height="1"/>
    <rect class="cls-6" x="8" y="17" width="1" height="1"/>
    <rect class="cls-6" x="9" y="17" width="1" height="1"/>
    <rect class="cls-4" x="10" y="17" width="1" height="1"/>
    <rect class="cls-4" x="11" y="17" width="1" height="1"/>
    <rect class="cls-4" x="12" y="17" width="1" height="1"/>
    <rect class="cls-1" x="13" y="17" width="1" height="1"/>
    <rect class="cls-4" x="14" y="17" width="1" height="1"/>
    <rect class="cls-4" x="15" y="17" width="1" height="1"/>
    <rect class="cls-4" x="16" y="17" width="1" height="1"/>
    <rect class="cls-7" x="3" y="18" width="1" height="1"/>
    <rect class="cls-7" x="4" y="18" width="1" height="1"/>
    <rect class="cls-4" x="5" y="18" width="1" height="1"/>
    <rect class="cls-4" x="6" y="18" width="1" height="1"/>
    <rect class="cls-4" x="7" y="18" width="1" height="1"/>
    <rect class="cls-6" x="8" y="18" width="1" height="1"/>
    <rect class="cls-4" x="9" y="18" width="1" height="1"/>
    <rect class="cls-4" x="10" y="18" width="1" height="1"/>
    <rect class="cls-4" x="11" y="18" width="1" height="1"/>
    <rect class="cls-4" x="12" y="18" width="1" height="1"/>
    <rect class="cls-4" x="13" y="18" width="1" height="1"/>
    <rect class="cls-4" x="14" y="18" width="1" height="1"/>
    <rect class="cls-4" x="15" y="18" width="1" height="1"/>
    <rect class="cls-7" x="5" y="19" width="1" height="1"/>
    <rect class="cls-7" x="6" y="19" width="1" height="1"/>
    <rect class="cls-4" x="7" y="19" width="1" height="1"/>
    <rect class="cls-4" x="8" y="19" width="1" height="1"/>
    <rect class="cls-4" x="9" y="19" width="1" height="1"/>
    <rect class="cls-4" x="10" y="19" width="1" height="1"/>
    <rect class="cls-4" x="11" y="19" width="1" height="1"/>
    <rect class="cls-4" x="12" y="19" width="1" height="1"/>
    <rect class="cls-4" x="13" y="19" width="1" height="1"/>
    <rect class="cls-4" x="14" y="19" width="1" height="1"/>
    <rect class="cls-7" x="7" y="20" width="1" height="1"/>
    <rect class="cls-7" x="8" y="20" width="1" height="1"/>
    <rect class="cls-4" x="9" y="20" width="1" height="1"/>
    <rect class="cls-4" x="10" y="20" width="1" height="1"/>
    <rect class="cls-4" x="11" y="20" width="1" height="1"/>
    <rect class="cls-4" x="12" y="20" width="1" height="1"/>
    <rect class="cls-4" x="13" y="20" width="1" height="1"/>
    <rect class="cls-7" x="9" y="21" width="1" height="1"/>
    <rect class="cls-7" x="10" y="21" width="1" height="1"/>
    <rect class="cls-4" x="11" y="21" width="1" height="1"/>
    <rect class="cls-4" x="12" y="21" width="1" height="1"/>
  </g>
</svg>