<?xml version="1.0" encoding="UTF-8"?>
<svg id="Layer_2" data-name="Layer 2" xmlns="http://www.w3.org/2000/svg" viewBox="0 0 129 290">
  <defs>
    <style>
      .cls-1 {
        fill: #3ab4cb;
      }

      .cls-1, .cls-2, .cls-3 {
        isolation: isolate;
        opacity: .8;
      }

      .cls-2 {
        fill: #f0e88e;
      }

      .cls-3 {
        fill: #8aebdd;
      }
    </style>
  </defs>
  <g id="Layer_1-2" data-name="Layer 1" shape-rendering="crispEdges">
    <rect class="cls-3" x="2" width="1" height="1"/>
    <rect class="cls-3" x="1" y="1" width="1" height="1"/>
    <rect class="cls-3" x="37" y="30" width="1" height="1"/>
    <rect class="cls-3" x="39" y="31" width="1" height="1"/>
    <rect class="cls-3" x="37" y="32" width="1" height="1"/>
    <rect class="cls-3" x="37" y="33" width="1" height="1"/>
    <rect class="cls-3" x="38" y="33" width="1" height="1"/>
    <rect class="cls-3" x="39" y="33" width="1" height="1"/>
    <rect class="cls-3" x="40" y="33" width="1" height="1"/>
    <rect class="cls-3" x="35" y="34" width="1" height="1"/>
    <rect class="cls-3" x="36" y="34" width="1" height="1"/>
    <rect class="cls-3" x="37" y="34" width="1" height="1"/>
    <rect class="cls-3" x="38" y="34" width="1" height="1"/>
    <rect class="cls-3" x="34" y="35" width="1" height="1"/>
    <rect class="cls-3" x="35" y="35" width="1" height="1"/>
    <rect class="cls-3" x="36" y="35" width="1" height="1"/>
    <rect class="cls-3" x="27" y="36" width="1" height="1"/>
    <rect class="cls-3" x="28" y="36" width="1" height="1"/>
    <rect class="cls-3" x="29" y="36" width="1" height="1"/>
    <rect class="cls-3" x="33" y="36" width="1" height="1"/>
    <rect class="cls-3" x="28" y="37" width="1" height="1"/>
    <rect class="cls-3" x="29" y="37" width="1" height="1"/>
    <rect class="cls-3" x="30" y="37" width="1" height="1"/>
    <rect class="cls-3" x="27" y="38" width="1" height="1"/>
    <rect class="cls-3" x="28" y="38" width="1" height="1"/>
    <rect class="cls-3" x="29" y="38" width="1" height="1"/>
    <rect class="cls-3" x="28" y="39" width="1" height="1"/>
    <rect class="cls-3" x="29" y="39" width="1" height="1"/>
    <rect class="cls-3" x="30" y="39" width="1" height="1"/>
    <rect class="cls-3" x="31" y="39" width="1" height="1"/>
    <rect class="cls-3" x="28" y="40" width="1" height="1"/>
    <rect class="cls-3" x="29" y="40" width="1" height="1"/>
    <rect class="cls-3" x="30" y="40" width="1" height="1"/>
    <rect class="cls-3" x="30" y="42" width="1" height="1"/>
    <rect class="cls-3" x="59" y="73" width="1" height="1"/>
    <rect class="cls-3" x="60" y="73" width="1" height="1"/>
    <rect class="cls-3" x="61" y="73" width="1" height="1"/>
    <rect class="cls-3" x="62" y="73" width="1" height="1"/>
    <rect class="cls-3" x="63" y="73" width="1" height="1"/>
    <rect class="cls-3" x="64" y="73" width="1" height="1"/>
    <rect class="cls-3" x="67" y="73" width="1" height="1"/>
    <rect class="cls-3" x="56" y="79" width="1" height="1"/>
    <rect class="cls-3" x="57" y="79" width="1" height="1"/>
    <rect class="cls-3" x="58" y="79" width="1" height="1"/>
    <rect class="cls-3" x="59" y="79" width="1" height="1"/>
    <rect class="cls-3" x="60" y="79" width="1" height="1"/>
    <rect class="cls-3" x="61" y="79" width="1" height="1"/>
    <rect class="cls-3" x="53" y="80" width="1" height="1"/>
    <rect class="cls-3" x="54" y="80" width="1" height="1"/>
    <rect class="cls-3" x="55" y="80" width="1" height="1"/>
    <rect class="cls-3" x="62" y="80" width="1" height="1"/>
    <rect class="cls-3" x="63" y="80" width="1" height="1"/>
    <rect class="cls-3" x="64" y="80" width="1" height="1"/>
    <rect class="cls-3" x="65" y="80" width="1" height="1"/>
    <rect class="cls-3" x="66" y="80" width="1" height="1"/>
    <rect class="cls-3" x="67" y="80" width="1" height="1"/>
    <rect class="cls-3" x="68" y="80" width="1" height="1"/>
    <rect class="cls-3" x="69" y="80" width="1" height="1"/>
    <rect class="cls-3" x="70" y="80" width="1" height="1"/>
    <rect class="cls-3" x="71" y="80" width="1" height="1"/>
    <rect class="cls-3" x="63" y="81" width="1" height="1"/>
    <rect class="cls-3" x="64" y="81" width="1" height="1"/>
    <rect class="cls-3" x="65" y="81" width="1" height="1"/>
    <rect class="cls-3" x="66" y="81" width="1" height="1"/>
    <rect class="cls-3" x="67" y="81" width="1" height="1"/>
    <rect class="cls-3" x="68" y="81" width="1" height="1"/>
    <rect class="cls-3" x="69" y="81" width="1" height="1"/>
    <rect class="cls-3" x="70" y="81" width="1" height="1"/>
    <rect class="cls-3" x="71" y="81" width="1" height="1"/>
    <rect class="cls-3" x="72" y="81" width="1" height="1"/>
    <rect class="cls-3" x="73" y="81" width="1" height="1"/>
    <rect class="cls-3" x="65" y="82" width="1" height="1"/>
    <rect class="cls-3" x="66" y="82" width="1" height="1"/>
    <rect class="cls-3" x="67" y="82" width="1" height="1"/>
    <rect class="cls-3" x="60" y="83" width="1" height="1"/>
    <rect class="cls-3" x="61" y="83" width="1" height="1"/>
    <rect class="cls-3" x="62" y="83" width="1" height="1"/>
    <rect class="cls-3" x="63" y="83" width="1" height="1"/>
    <rect class="cls-3" x="64" y="83" width="1" height="1"/>
    <rect class="cls-3" x="62" y="84" width="1" height="1"/>
    <rect class="cls-3" x="63" y="84" width="1" height="1"/>
    <rect class="cls-3" x="64" y="84" width="1" height="1"/>
    <rect class="cls-3" x="65" y="84" width="1" height="1"/>
    <rect class="cls-3" x="66" y="84" width="1" height="1"/>
    <rect class="cls-3" x="67" y="85" width="1" height="1"/>
    <rect class="cls-3" x="68" y="85" width="1" height="1"/>
    <rect class="cls-3" x="60" y="86" width="1" height="1"/>
    <rect class="cls-3" x="61" y="86" width="1" height="1"/>
    <rect class="cls-3" x="62" y="86" width="1" height="1"/>
    <rect class="cls-3" x="63" y="86" width="1" height="1"/>
    <rect class="cls-3" x="64" y="86" width="1" height="1"/>
    <rect class="cls-3" x="65" y="86" width="1" height="1"/>
    <rect class="cls-3" x="66" y="86" width="1" height="1"/>
    <rect class="cls-3" x="67" y="86" width="1" height="1"/>
    <rect class="cls-3" x="68" y="86" width="1" height="1"/>
    <rect class="cls-3" x="61" y="87" width="1" height="1"/>
    <rect class="cls-3" x="62" y="87" width="1" height="1"/>
    <rect class="cls-3" x="64" y="87" width="1" height="1"/>
    <rect class="cls-3" x="65" y="87" width="1" height="1"/>
    <rect class="cls-3" x="66" y="87" width="1" height="1"/>
    <rect class="cls-3" x="75" y="92" width="1" height="1"/>
    <rect class="cls-3" x="76" y="93" width="1" height="1"/>
    <rect class="cls-3" x="77" y="93" width="1" height="1"/>
    <rect class="cls-3" x="77" y="94" width="1" height="1"/>
    <rect class="cls-3" x="77" y="124" width="1" height="1"/>
    <rect class="cls-3" x="75" y="125" width="1" height="1"/>
    <rect class="cls-3" x="76" y="125" width="1" height="1"/>
    <rect class="cls-3" x="72" y="126" width="1" height="1"/>
    <rect class="cls-3" x="73" y="126" width="1" height="1"/>
    <rect class="cls-3" x="74" y="126" width="1" height="1"/>
    <rect class="cls-3" x="74" y="127" width="1" height="1"/>
    <rect class="cls-3" x="75" y="127" width="1" height="1"/>
    <rect class="cls-2" x="76" y="128" width="1" height="1"/>
    <rect class="cls-2" x="77" y="128" width="1" height="1"/>
    <rect class="cls-2" x="78" y="128" width="1" height="1"/>
    <rect class="cls-2" x="74" y="129" width="1" height="1"/>
    <rect class="cls-2" x="75" y="129" width="1" height="1"/>
    <rect class="cls-2" x="76" y="129" width="1" height="1"/>
    <rect class="cls-2" x="77" y="129" width="1" height="1"/>
    <rect class="cls-2" x="73" y="130" width="1" height="1"/>
    <rect class="cls-2" x="74" y="130" width="1" height="1"/>
    <rect class="cls-2" x="75" y="130" width="1" height="1"/>
    <rect class="cls-2" x="76" y="130" width="1" height="1"/>
    <rect class="cls-2" x="77" y="130" width="1" height="1"/>
    <rect class="cls-2" x="78" y="130" width="1" height="1"/>
    <rect class="cls-2" x="72" y="131" width="1" height="1"/>
    <rect class="cls-2" x="73" y="131" width="1" height="1"/>
    <rect class="cls-2" x="74" y="131" width="1" height="1"/>
    <rect class="cls-2" x="75" y="131" width="1" height="1"/>
    <rect class="cls-2" x="76" y="131" width="1" height="1"/>
    <rect class="cls-3" x="22" y="134" width="1" height="1"/>
    <rect class="cls-3" x="24" y="134" width="1" height="1"/>
    <rect class="cls-3" x="25" y="134" width="1" height="1"/>
    <rect class="cls-3" x="23" y="135" width="1" height="1"/>
    <rect class="cls-3" x="24" y="135" width="1" height="1"/>
    <rect class="cls-3" x="25" y="135" width="1" height="1"/>
    <rect class="cls-3" x="22" y="136" width="1" height="1"/>
    <rect class="cls-3" x="23" y="136" width="1" height="1"/>
    <rect class="cls-3" x="24" y="136" width="1" height="1"/>
    <rect class="cls-3" x="25" y="136" width="1" height="1"/>
    <rect class="cls-3" x="26" y="136" width="1" height="1"/>
    <rect class="cls-3" x="27" y="136" width="1" height="1"/>
    <rect class="cls-3" x="28" y="136" width="1" height="1"/>
    <rect class="cls-3" x="28" y="139" width="1" height="1"/>
    <rect class="cls-3" x="29" y="140" width="1" height="1"/>
    <rect class="cls-3" x="30" y="140" width="1" height="1"/>
    <rect class="cls-3" x="31" y="140" width="1" height="1"/>
    <rect class="cls-3" x="32" y="140" width="1" height="1"/>
    <rect class="cls-3" x="33" y="140" width="1" height="1"/>
    <rect class="cls-3" x="34" y="140" width="1" height="1"/>
    <rect class="cls-3" x="35" y="140" width="1" height="1"/>
    <rect class="cls-3" x="36" y="140" width="1" height="1"/>
    <rect class="cls-3" x="37" y="140" width="1" height="1"/>
    <rect class="cls-3" x="38" y="140" width="1" height="1"/>
    <rect class="cls-3" x="39" y="140" width="1" height="1"/>
    <rect class="cls-3" x="34" y="141" width="1" height="1"/>
    <rect class="cls-3" x="35" y="141" width="1" height="1"/>
    <rect class="cls-3" x="36" y="141" width="1" height="1"/>
    <rect class="cls-3" x="37" y="141" width="1" height="1"/>
    <rect class="cls-3" x="38" y="141" width="1" height="1"/>
    <rect class="cls-3" x="35" y="142" width="1" height="1"/>
    <rect class="cls-3" x="36" y="142" width="1" height="1"/>
    <rect class="cls-3" x="37" y="142" width="1" height="1"/>
    <rect class="cls-3" x="38" y="142" width="1" height="1"/>
    <rect class="cls-3" x="35" y="143" width="1" height="1"/>
    <rect class="cls-3" x="36" y="143" width="1" height="1"/>
    <rect class="cls-3" x="37" y="143" width="1" height="1"/>
    <rect class="cls-3" x="38" y="143" width="1" height="1"/>
    <rect class="cls-3" x="39" y="143" width="1" height="1"/>
    <rect class="cls-3" x="40" y="143" width="1" height="1"/>
    <rect class="cls-3" x="41" y="143" width="1" height="1"/>
    <rect class="cls-3" x="45" y="143" width="1" height="1"/>
    <rect class="cls-3" x="46" y="143" width="1" height="1"/>
    <rect class="cls-3" x="47" y="143" width="1" height="1"/>
    <rect class="cls-3" x="48" y="143" width="1" height="1"/>
    <rect class="cls-3" x="53" y="144" width="1" height="1"/>
    <rect class="cls-3" x="54" y="144" width="1" height="1"/>
    <rect class="cls-3" x="55" y="144" width="1" height="1"/>
    <rect class="cls-3" x="56" y="144" width="1" height="1"/>
    <rect class="cls-3" x="52" y="145" width="1" height="1"/>
    <rect class="cls-1" x="55" y="145" width="1" height="1"/>
    <rect class="cls-1" x="56" y="145" width="1" height="1"/>
    <rect class="cls-1" x="57" y="145" width="1" height="1"/>
    <rect class="cls-1" x="58" y="145" width="1" height="1"/>
    <rect class="cls-1" x="59" y="145" width="1" height="1"/>
    <rect class="cls-1" x="60" y="145" width="1" height="1"/>
    <rect class="cls-1" x="61" y="145" width="1" height="1"/>
    <rect class="cls-1" x="62" y="145" width="1" height="1"/>
    <rect class="cls-3" x="63" y="146" width="1" height="1"/>
    <rect class="cls-3" x="65" y="146" width="1" height="1"/>
    <rect class="cls-3" x="66" y="146" width="1" height="1"/>
    <rect class="cls-3" x="53" y="147" width="1" height="1"/>
    <rect class="cls-3" x="54" y="147" width="1" height="1"/>
    <rect class="cls-3" x="55" y="147" width="1" height="1"/>
    <rect class="cls-3" x="60" y="147" width="1" height="1"/>
    <rect class="cls-3" x="61" y="147" width="1" height="1"/>
    <rect class="cls-3" x="62" y="147" width="1" height="1"/>
    <rect class="cls-3" x="64" y="147" width="1" height="1"/>
    <rect class="cls-3" x="65" y="147" width="1" height="1"/>
    <rect class="cls-3" x="66" y="147" width="1" height="1"/>
    <rect class="cls-3" x="67" y="147" width="1" height="1"/>
    <rect class="cls-3" x="68" y="147" width="1" height="1"/>
    <rect class="cls-3" x="51" y="148" width="1" height="1"/>
    <rect class="cls-3" x="52" y="148" width="1" height="1"/>
    <rect class="cls-3" x="58" y="148" width="1" height="1"/>
    <rect class="cls-3" x="59" y="148" width="1" height="1"/>
    <rect class="cls-3" x="60" y="148" width="1" height="1"/>
    <rect class="cls-3" x="61" y="148" width="1" height="1"/>
    <rect class="cls-3" x="62" y="148" width="1" height="1"/>
    <rect class="cls-3" x="63" y="148" width="1" height="1"/>
    <rect class="cls-3" x="62" y="149" width="1" height="1"/>
    <rect class="cls-3" x="63" y="149" width="1" height="1"/>
    <rect class="cls-3" x="64" y="150" width="1" height="1"/>
    <rect class="cls-3" x="65" y="150" width="1" height="1"/>
    <rect class="cls-3" x="66" y="150" width="1" height="1"/>
    <rect class="cls-3" x="67" y="150" width="1" height="1"/>
    <rect class="cls-3" x="68" y="150" width="1" height="1"/>
    <rect class="cls-3" x="69" y="150" width="1" height="1"/>
    <rect class="cls-3" x="70" y="150" width="1" height="1"/>
    <rect class="cls-3" x="71" y="150" width="1" height="1"/>
    <rect class="cls-3" x="72" y="150" width="1" height="1"/>
    <rect class="cls-3" x="57" y="151" width="1" height="1"/>
    <rect class="cls-3" x="58" y="151" width="1" height="1"/>
    <rect class="cls-3" x="59" y="151" width="1" height="1"/>
    <rect class="cls-3" x="60" y="151" width="1" height="1"/>
    <rect class="cls-3" x="61" y="151" width="1" height="1"/>
    <rect class="cls-3" x="62" y="151" width="1" height="1"/>
    <rect class="cls-3" x="63" y="151" width="1" height="1"/>
    <rect class="cls-3" x="64" y="151" width="1" height="1"/>
    <rect class="cls-3" x="65" y="151" width="1" height="1"/>
    <rect class="cls-3" x="66" y="151" width="1" height="1"/>
    <rect class="cls-3" x="67" y="151" width="1" height="1"/>
    <rect class="cls-3" x="55" y="152" width="1" height="1"/>
    <rect class="cls-3" x="56" y="152" width="1" height="1"/>
    <rect class="cls-3" x="57" y="152" width="1" height="1"/>
    <rect class="cls-3" x="58" y="152" width="1" height="1"/>
    <rect class="cls-3" x="59" y="152" width="1" height="1"/>
    <rect class="cls-3" x="60" y="152" width="1" height="1"/>
    <rect class="cls-3" x="61" y="152" width="1" height="1"/>
    <rect class="cls-3" x="62" y="152" width="1" height="1"/>
    <rect class="cls-3" x="52" y="153" width="1" height="1"/>
    <rect class="cls-3" x="53" y="153" width="1" height="1"/>
    <rect class="cls-3" x="54" y="153" width="1" height="1"/>
    <rect class="cls-3" x="55" y="153" width="1" height="1"/>
    <rect class="cls-3" x="56" y="153" width="1" height="1"/>
    <rect class="cls-3" x="57" y="153" width="1" height="1"/>
    <rect class="cls-3" x="58" y="153" width="1" height="1"/>
    <rect class="cls-3" x="59" y="153" width="1" height="1"/>
    <rect class="cls-3" x="60" y="153" width="1" height="1"/>
    <rect class="cls-3" x="50" y="154" width="1" height="1"/>
    <rect class="cls-3" x="51" y="154" width="1" height="1"/>
    <rect class="cls-3" x="52" y="154" width="1" height="1"/>
    <rect class="cls-3" x="53" y="154" width="1" height="1"/>
    <rect class="cls-3" x="54" y="154" width="1" height="1"/>
    <rect class="cls-3" x="55" y="154" width="1" height="1"/>
    <rect class="cls-3" x="56" y="154" width="1" height="1"/>
    <rect class="cls-3" x="57" y="154" width="1" height="1"/>
    <rect class="cls-3" x="58" y="154" width="1" height="1"/>
    <rect class="cls-3" x="59" y="154" width="1" height="1"/>
    <rect class="cls-3" x="60" y="154" width="1" height="1"/>
    <rect class="cls-3" x="61" y="154" width="1" height="1"/>
    <rect class="cls-3" x="48" y="155" width="1" height="1"/>
    <rect class="cls-3" x="49" y="155" width="1" height="1"/>
    <rect class="cls-3" x="50" y="155" width="1" height="1"/>
    <rect class="cls-3" x="51" y="155" width="1" height="1"/>
    <rect class="cls-3" x="52" y="155" width="1" height="1"/>
    <rect class="cls-3" x="53" y="155" width="1" height="1"/>
    <rect class="cls-3" x="54" y="155" width="1" height="1"/>
    <rect class="cls-3" x="49" y="156" width="1" height="1"/>
    <rect class="cls-3" x="50" y="156" width="1" height="1"/>
    <rect class="cls-3" x="51" y="156" width="1" height="1"/>
    <rect class="cls-3" x="52" y="156" width="1" height="1"/>
    <rect class="cls-3" x="53" y="156" width="1" height="1"/>
    <rect class="cls-3" x="42" y="157" width="1" height="1"/>
    <rect class="cls-3" x="43" y="157" width="1" height="1"/>
    <rect class="cls-3" x="44" y="157" width="1" height="1"/>
    <rect class="cls-3" x="45" y="157" width="1" height="1"/>
    <rect class="cls-3" x="46" y="157" width="1" height="1"/>
    <rect class="cls-3" x="47" y="157" width="1" height="1"/>
    <rect class="cls-3" x="48" y="157" width="1" height="1"/>
    <rect class="cls-3" x="40" y="158" width="1" height="1"/>
    <rect class="cls-3" x="41" y="158" width="1" height="1"/>
    <rect class="cls-3" x="42" y="159" width="1" height="1"/>
    <rect class="cls-3" x="43" y="159" width="1" height="1"/>
    <rect class="cls-3" x="44" y="159" width="1" height="1"/>
    <rect class="cls-3" x="45" y="159" width="1" height="1"/>
    <rect class="cls-3" x="46" y="159" width="1" height="1"/>
    <rect class="cls-3" x="47" y="159" width="1" height="1"/>
    <rect class="cls-3" x="48" y="159" width="1" height="1"/>
    <rect class="cls-3" x="49" y="159" width="1" height="1"/>
    <rect class="cls-3" x="50" y="159" width="1" height="1"/>
    <rect class="cls-3" x="51" y="159" width="1" height="1"/>
    <rect class="cls-3" x="43" y="160" width="1" height="1"/>
    <rect class="cls-3" x="44" y="160" width="1" height="1"/>
    <rect class="cls-3" x="45" y="160" width="1" height="1"/>
    <rect class="cls-3" x="46" y="160" width="1" height="1"/>
    <rect class="cls-3" x="47" y="160" width="1" height="1"/>
    <rect class="cls-3" x="48" y="160" width="1" height="1"/>
    <rect class="cls-3" x="49" y="160" width="1" height="1"/>
    <rect class="cls-3" x="50" y="160" width="1" height="1"/>
    <rect class="cls-3" x="51" y="160" width="1" height="1"/>
    <rect class="cls-3" x="52" y="160" width="1" height="1"/>
    <rect class="cls-3" x="53" y="160" width="1" height="1"/>
    <rect class="cls-3" x="54" y="160" width="1" height="1"/>
    <rect class="cls-3" x="55" y="160" width="1" height="1"/>
    <rect class="cls-3" x="55" y="161" width="1" height="1"/>
    <rect class="cls-3" x="56" y="161" width="1" height="1"/>
    <rect class="cls-2" x="48" y="162" width="1" height="1"/>
    <rect class="cls-2" x="49" y="162" width="1" height="1"/>
    <rect class="cls-2" x="50" y="162" width="1" height="1"/>
    <rect class="cls-2" x="51" y="162" width="1" height="1"/>
    <rect class="cls-2" x="52" y="162" width="1" height="1"/>
    <rect class="cls-2" x="53" y="162" width="1" height="1"/>
    <rect class="cls-2" x="54" y="162" width="1" height="1"/>
    <rect class="cls-2" x="50" y="163" width="1" height="1"/>
    <rect class="cls-2" x="51" y="163" width="1" height="1"/>
    <rect class="cls-2" x="52" y="163" width="1" height="1"/>
    <rect class="cls-2" x="53" y="163" width="1" height="1"/>
    <rect class="cls-2" x="54" y="163" width="1" height="1"/>
    <rect class="cls-2" x="55" y="163" width="1" height="1"/>
    <rect class="cls-2" x="56" y="163" width="1" height="1"/>
    <rect class="cls-2" x="57" y="163" width="1" height="1"/>
    <rect class="cls-2" x="53" y="164" width="1" height="1"/>
    <rect class="cls-2" x="54" y="164" width="1" height="1"/>
    <rect class="cls-2" x="55" y="164" width="1" height="1"/>
    <rect class="cls-2" x="56" y="164" width="1" height="1"/>
    <rect class="cls-2" x="49" y="165" width="1" height="1"/>
    <rect class="cls-2" x="50" y="165" width="1" height="1"/>
    <rect class="cls-2" x="51" y="165" width="1" height="1"/>
    <rect class="cls-2" x="52" y="165" width="1" height="1"/>
    <rect class="cls-2" x="53" y="165" width="1" height="1"/>
    <rect class="cls-2" x="54" y="165" width="1" height="1"/>
    <rect class="cls-2" x="55" y="165" width="1" height="1"/>
    <rect class="cls-2" x="56" y="166" width="1" height="1"/>
    <rect class="cls-2" x="57" y="166" width="1" height="1"/>
    <rect class="cls-2" x="58" y="166" width="1" height="1"/>
    <rect class="cls-2" x="59" y="166" width="1" height="1"/>
    <rect class="cls-2" x="60" y="166" width="1" height="1"/>
    <rect class="cls-2" x="56" y="167" width="1" height="1"/>
    <rect class="cls-2" x="57" y="167" width="1" height="1"/>
    <rect class="cls-2" x="58" y="167" width="1" height="1"/>
    <rect class="cls-2" x="59" y="167" width="1" height="1"/>
    <rect class="cls-2" x="53" y="168" width="1" height="1"/>
    <rect class="cls-2" x="54" y="168" width="1" height="1"/>
    <rect class="cls-2" x="55" y="168" width="1" height="1"/>
    <rect class="cls-2" x="56" y="168" width="1" height="1"/>
    <rect class="cls-2" x="57" y="168" width="1" height="1"/>
    <rect class="cls-2" x="58" y="168" width="1" height="1"/>
    <rect class="cls-2" x="59" y="168" width="1" height="1"/>
    <rect class="cls-2" x="60" y="168" width="1" height="1"/>
    <rect class="cls-2" x="60" y="169" width="1" height="1"/>
    <rect class="cls-2" x="61" y="169" width="1" height="1"/>
    <rect class="cls-2" x="57" y="170" width="1" height="1"/>
    <rect class="cls-2" x="58" y="170" width="1" height="1"/>
    <rect class="cls-2" x="59" y="170" width="1" height="1"/>
    <rect class="cls-2" x="56" y="171" width="1" height="1"/>
    <rect class="cls-2" x="57" y="171" width="1" height="1"/>
    <rect class="cls-2" x="58" y="171" width="1" height="1"/>
    <rect class="cls-2" x="59" y="172" width="1" height="1"/>
    <rect class="cls-3" y="211" width="1" height="1"/>
    <rect class="cls-3" x="1" y="211" width="1" height="1"/>
    <rect class="cls-3" y="212" width="1" height="1"/>
    <rect class="cls-3" x="1" y="212" width="1" height="1"/>
    <rect class="cls-1" x="98" y="273" width="1" height="1"/>
    <rect class="cls-1" x="99" y="273" width="1" height="1"/>
    <rect class="cls-1" x="100" y="273" width="1" height="1"/>
    <rect class="cls-1" x="101" y="273" width="1" height="1"/>
    <rect class="cls-1" x="102" y="273" width="1" height="1"/>
    <rect class="cls-1" x="103" y="273" width="1" height="1"/>
    <rect class="cls-1" x="104" y="273" width="1" height="1"/>
    <rect class="cls-1" x="105" y="273" width="1" height="1"/>
    <rect class="cls-1" x="106" y="273" width="1" height="1"/>
    <rect class="cls-1" x="107" y="273" width="1" height="1"/>
    <rect class="cls-1" x="108" y="273" width="1" height="1"/>
    <rect class="cls-3" x="112" y="273" width="1" height="1"/>
    <rect class="cls-3" x="93" y="274" width="1" height="1"/>
    <rect class="cls-3" x="94" y="274" width="1" height="1"/>
    <rect class="cls-3" x="97" y="274" width="1" height="1"/>
    <rect class="cls-3" x="90" y="275" width="1" height="1"/>
    <rect class="cls-3" x="91" y="275" width="1" height="1"/>
    <rect class="cls-3" x="92" y="275" width="1" height="1"/>
    <rect class="cls-3" x="93" y="275" width="1" height="1"/>
    <rect class="cls-3" x="94" y="275" width="1" height="1"/>
    <rect class="cls-3" x="95" y="275" width="1" height="1"/>
    <rect class="cls-3" x="96" y="275" width="1" height="1"/>
    <rect class="cls-3" x="98" y="275" width="1" height="1"/>
    <rect class="cls-3" x="99" y="275" width="1" height="1"/>
    <rect class="cls-3" x="100" y="275" width="1" height="1"/>
    <rect class="cls-3" x="101" y="275" width="1" height="1"/>
    <rect class="cls-3" x="108" y="275" width="1" height="1"/>
    <rect class="cls-3" x="109" y="275" width="1" height="1"/>
    <rect class="cls-3" x="110" y="275" width="1" height="1"/>
    <rect class="cls-3" x="111" y="275" width="1" height="1"/>
    <rect class="cls-3" x="97" y="276" width="1" height="1"/>
    <rect class="cls-3" x="98" y="276" width="1" height="1"/>
    <rect class="cls-3" x="99" y="276" width="1" height="1"/>
    <rect class="cls-3" x="100" y="276" width="1" height="1"/>
    <rect class="cls-3" x="101" y="276" width="1" height="1"/>
    <rect class="cls-3" x="102" y="276" width="1" height="1"/>
    <rect class="cls-3" x="103" y="276" width="1" height="1"/>
    <rect class="cls-3" x="104" y="276" width="1" height="1"/>
    <rect class="cls-3" x="112" y="276" width="1" height="1"/>
    <rect class="cls-3" x="113" y="276" width="1" height="1"/>
    <rect class="cls-3" x="97" y="277" width="1" height="1"/>
    <rect class="cls-3" x="98" y="277" width="1" height="1"/>
    <rect class="cls-3" x="84" y="278" width="1" height="1"/>
    <rect class="cls-3" x="85" y="278" width="1" height="1"/>
    <rect class="cls-3" x="86" y="278" width="1" height="1"/>
    <rect class="cls-3" x="87" y="278" width="1" height="1"/>
    <rect class="cls-3" x="88" y="278" width="1" height="1"/>
    <rect class="cls-3" x="89" y="278" width="1" height="1"/>
    <rect class="cls-3" x="90" y="278" width="1" height="1"/>
    <rect class="cls-3" x="91" y="278" width="1" height="1"/>
    <rect class="cls-3" x="92" y="278" width="1" height="1"/>
    <rect class="cls-3" x="93" y="278" width="1" height="1"/>
    <rect class="cls-3" x="94" y="278" width="1" height="1"/>
    <rect class="cls-3" x="95" y="278" width="1" height="1"/>
    <rect class="cls-3" x="96" y="278" width="1" height="1"/>
    <rect class="cls-3" x="91" y="279" width="1" height="1"/>
    <rect class="cls-3" x="92" y="279" width="1" height="1"/>
    <rect class="cls-3" x="93" y="279" width="1" height="1"/>
    <rect class="cls-3" x="94" y="279" width="1" height="1"/>
    <rect class="cls-3" x="95" y="279" width="1" height="1"/>
    <rect class="cls-3" x="96" y="279" width="1" height="1"/>
    <rect class="cls-3" x="97" y="279" width="1" height="1"/>
    <rect class="cls-3" x="98" y="279" width="1" height="1"/>
    <rect class="cls-3" x="99" y="279" width="1" height="1"/>
    <rect class="cls-3" x="100" y="279" width="1" height="1"/>
    <rect class="cls-3" x="101" y="279" width="1" height="1"/>
    <rect class="cls-3" x="102" y="279" width="1" height="1"/>
    <rect class="cls-3" x="103" y="279" width="1" height="1"/>
    <rect class="cls-3" x="104" y="279" width="1" height="1"/>
    <rect class="cls-3" x="105" y="279" width="1" height="1"/>
    <rect class="cls-3" x="98" y="280" width="1" height="1"/>
    <rect class="cls-3" x="99" y="280" width="1" height="1"/>
    <rect class="cls-3" x="100" y="280" width="1" height="1"/>
    <rect class="cls-3" x="101" y="280" width="1" height="1"/>
    <rect class="cls-3" x="102" y="280" width="1" height="1"/>
    <rect class="cls-3" x="103" y="280" width="1" height="1"/>
    <rect class="cls-3" x="104" y="280" width="1" height="1"/>
    <rect class="cls-3" x="105" y="280" width="1" height="1"/>
    <rect class="cls-3" x="106" y="280" width="1" height="1"/>
    <rect class="cls-3" x="107" y="280" width="1" height="1"/>
    <rect class="cls-3" x="108" y="280" width="1" height="1"/>
    <rect class="cls-3" x="101" y="281" width="1" height="1"/>
    <rect class="cls-3" x="102" y="281" width="1" height="1"/>
    <rect class="cls-3" x="103" y="281" width="1" height="1"/>
    <rect class="cls-3" x="104" y="281" width="1" height="1"/>
    <rect class="cls-3" x="105" y="281" width="1" height="1"/>
    <rect class="cls-3" x="106" y="281" width="1" height="1"/>
    <rect class="cls-3" x="107" y="281" width="1" height="1"/>
    <rect class="cls-3" x="108" y="281" width="1" height="1"/>
    <rect class="cls-3" x="109" y="281" width="1" height="1"/>
    <rect class="cls-3" x="110" y="281" width="1" height="1"/>
    <rect class="cls-3" x="111" y="281" width="1" height="1"/>
    <rect class="cls-3" x="112" y="281" width="1" height="1"/>
    <rect class="cls-3" x="99" y="282" width="1" height="1"/>
    <rect class="cls-3" x="100" y="282" width="1" height="1"/>
    <rect class="cls-3" x="101" y="282" width="1" height="1"/>
    <rect class="cls-3" x="102" y="282" width="1" height="1"/>
    <rect class="cls-3" x="103" y="282" width="1" height="1"/>
    <rect class="cls-3" x="104" y="282" width="1" height="1"/>
    <rect class="cls-3" x="105" y="282" width="1" height="1"/>
    <rect class="cls-3" x="106" y="282" width="1" height="1"/>
    <rect class="cls-3" x="107" y="282" width="1" height="1"/>
    <rect class="cls-3" x="108" y="282" width="1" height="1"/>
    <rect class="cls-3" x="109" y="282" width="1" height="1"/>
    <rect class="cls-3" x="110" y="282" width="1" height="1"/>
    <rect class="cls-3" x="111" y="282" width="1" height="1"/>
    <rect class="cls-3" x="112" y="282" width="1" height="1"/>
    <rect class="cls-3" x="113" y="282" width="1" height="1"/>
    <rect class="cls-3" x="114" y="282" width="1" height="1"/>
    <rect class="cls-3" x="115" y="282" width="1" height="1"/>
    <rect class="cls-3" x="109" y="283" width="1" height="1"/>
    <rect class="cls-3" x="110" y="283" width="1" height="1"/>
    <rect class="cls-3" x="111" y="283" width="1" height="1"/>
    <rect class="cls-3" x="112" y="283" width="1" height="1"/>
    <rect class="cls-3" x="113" y="283" width="1" height="1"/>
    <rect class="cls-3" x="114" y="283" width="1" height="1"/>
    <rect class="cls-3" x="115" y="283" width="1" height="1"/>
    <rect class="cls-3" x="116" y="283" width="1" height="1"/>
    <rect class="cls-3" x="117" y="283" width="1" height="1"/>
    <rect class="cls-3" x="118" y="283" width="1" height="1"/>
    <rect class="cls-3" x="110" y="284" width="1" height="1"/>
    <rect class="cls-3" x="111" y="284" width="1" height="1"/>
    <rect class="cls-3" x="112" y="284" width="1" height="1"/>
    <rect class="cls-3" x="113" y="284" width="1" height="1"/>
    <rect class="cls-3" x="114" y="284" width="1" height="1"/>
    <rect class="cls-3" x="115" y="284" width="1" height="1"/>
    <rect class="cls-3" x="116" y="284" width="1" height="1"/>
    <rect class="cls-3" x="117" y="285" width="1" height="1"/>
    <rect class="cls-3" x="118" y="285" width="1" height="1"/>
    <rect class="cls-3" x="119" y="285" width="1" height="1"/>
    <rect class="cls-3" x="120" y="285" width="1" height="1"/>
    <rect class="cls-3" x="121" y="285" width="1" height="1"/>
    <rect class="cls-3" x="122" y="285" width="1" height="1"/>
    <rect class="cls-3" x="123" y="285" width="1" height="1"/>
    <rect class="cls-3" x="124" y="285" width="1" height="1"/>
    <rect class="cls-3" x="125" y="285" width="1" height="1"/>
    <rect class="cls-3" x="126" y="285" width="1" height="1"/>
    <rect class="cls-3" x="127" y="286" width="1" height="1"/>
    <rect class="cls-3" x="128" y="286" width="1" height="1"/>
    <rect class="cls-3" x="113" y="287" width="1" height="1"/>
    <rect class="cls-3" x="114" y="287" width="1" height="1"/>
    <rect class="cls-3" x="115" y="287" width="1" height="1"/>
    <rect class="cls-3" x="116" y="287" width="1" height="1"/>
    <rect class="cls-3" x="117" y="287" width="1" height="1"/>
    <rect class="cls-3" x="118" y="287" width="1" height="1"/>
    <rect class="cls-3" x="119" y="287" width="1" height="1"/>
    <rect class="cls-3" x="120" y="287" width="1" height="1"/>
    <rect class="cls-3" x="121" y="287" width="1" height="1"/>
    <rect class="cls-3" x="122" y="287" width="1" height="1"/>
    <rect class="cls-3" x="123" y="287" width="1" height="1"/>
    <rect class="cls-3" x="124" y="287" width="1" height="1"/>
    <rect class="cls-3" x="125" y="287" width="1" height="1"/>
    <rect class="cls-3" x="126" y="287" width="1" height="1"/>
    <rect class="cls-3" x="108" y="288" width="1" height="1"/>
    <rect class="cls-3" x="109" y="288" width="1" height="1"/>
    <rect class="cls-3" x="110" y="288" width="1" height="1"/>
    <rect class="cls-3" x="111" y="288" width="1" height="1"/>
    <rect class="cls-3" x="112" y="288" width="1" height="1"/>
    <rect class="cls-3" x="113" y="288" width="1" height="1"/>
    <rect class="cls-3" x="114" y="288" width="1" height="1"/>
    <rect class="cls-3" x="115" y="288" width="1" height="1"/>
    <rect class="cls-3" x="116" y="288" width="1" height="1"/>
    <rect class="cls-3" x="117" y="288" width="1" height="1"/>
    <rect class="cls-3" x="118" y="288" width="1" height="1"/>
    <rect class="cls-3" x="119" y="288" width="1" height="1"/>
    <rect class="cls-3" x="120" y="288" width="1" height="1"/>
    <rect class="cls-3" x="121" y="288" width="1" height="1"/>
    <rect class="cls-3" x="122" y="288" width="1" height="1"/>
    <rect class="cls-3" x="123" y="288" width="1" height="1"/>
    <rect class="cls-3" x="124" y="288" width="1" height="1"/>
    <rect class="cls-3" x="106" y="289" width="1" height="1"/>
    <rect class="cls-3" x="107" y="289" width="1" height="1"/>
    <rect class="cls-3" x="108" y="289" width="1" height="1"/>
  </g>
</svg>