<?xml version="1.0" encoding="UTF-8"?>
<svg id="Layer_2" data-name="Layer 2" xmlns="http://www.w3.org/2000/svg" viewBox="0 0 119 299">
  <defs>
    <style>
      .cls-1 {
        fill: #f0e88e;
      }

      .cls-2 {
        fill: #8aebdd;
      }
    </style>
  </defs>
  <g id="Layer_1-2" data-name="Layer 1" shape-rendering="crispEdges">
    <rect class="cls-2" x="2" width="1" height="1"/>
    <rect class="cls-2" x="3" width="1" height="1"/>
    <rect class="cls-2" y="1" width="1" height="1"/>
    <rect class="cls-2" x="1" y="1" width="1" height="1"/>
    <rect class="cls-2" x="2" y="1" width="1" height="1"/>
    <rect class="cls-2" x="3" y="1" width="1" height="1"/>
    <rect class="cls-2" x="4" y="1" width="1" height="1"/>
    <rect class="cls-2" x="42" y="38" width="1" height="1"/>
    <rect class="cls-2" x="43" y="38" width="1" height="1"/>
    <rect class="cls-2" x="44" y="38" width="1" height="1"/>
    <rect class="cls-2" x="43" y="39" width="1" height="1"/>
    <rect class="cls-2" x="44" y="39" width="1" height="1"/>
    <rect class="cls-2" x="45" y="39" width="1" height="1"/>
    <rect class="cls-2" x="46" y="39" width="1" height="1"/>
    <rect class="cls-2" x="44" y="40" width="1" height="1"/>
    <rect class="cls-2" x="45" y="40" width="1" height="1"/>
    <rect class="cls-2" x="42" y="41" width="1" height="1"/>
    <rect class="cls-2" x="43" y="41" width="1" height="1"/>
    <rect class="cls-2" x="44" y="41" width="1" height="1"/>
    <rect class="cls-2" x="41" y="43" width="1" height="1"/>
    <rect class="cls-2" x="67" y="86" width="1" height="1"/>
    <rect class="cls-2" x="68" y="86" width="1" height="1"/>
    <rect class="cls-2" x="69" y="86" width="1" height="1"/>
    <rect class="cls-2" x="70" y="86" width="1" height="1"/>
    <rect class="cls-2" x="71" y="86" width="1" height="1"/>
    <rect class="cls-2" x="72" y="86" width="1" height="1"/>
    <rect class="cls-2" x="73" y="86" width="1" height="1"/>
    <rect class="cls-2" x="65" y="87" width="1" height="1"/>
    <rect class="cls-2" x="66" y="87" width="1" height="1"/>
    <rect class="cls-2" x="67" y="87" width="1" height="1"/>
    <rect class="cls-2" x="68" y="87" width="1" height="1"/>
    <rect class="cls-2" x="69" y="87" width="1" height="1"/>
    <rect class="cls-2" x="60" y="88" width="1" height="1"/>
    <rect class="cls-2" x="61" y="88" width="1" height="1"/>
    <rect class="cls-2" x="62" y="88" width="1" height="1"/>
    <rect class="cls-2" x="63" y="88" width="1" height="1"/>
    <rect class="cls-2" x="64" y="88" width="1" height="1"/>
    <rect class="cls-2" x="73" y="95" width="1" height="1"/>
    <rect class="cls-2" x="74" y="95" width="1" height="1"/>
    <rect class="cls-2" x="75" y="95" width="1" height="1"/>
    <rect class="cls-2" x="74" y="96" width="1" height="1"/>
    <rect class="cls-2" x="75" y="96" width="1" height="1"/>
    <rect class="cls-2" x="76" y="96" width="1" height="1"/>
    <rect class="cls-1" x="109" y="288" width="1" height="1"/>
    <rect class="cls-1" x="110" y="288" width="1" height="1"/>
    <rect class="cls-1" x="111" y="288" width="1" height="1"/>
    <rect class="cls-1" x="112" y="288" width="1" height="1"/>
    <rect class="cls-1" x="113" y="288" width="1" height="1"/>
    <rect class="cls-1" x="114" y="288" width="1" height="1"/>
    <rect class="cls-1" x="115" y="288" width="1" height="1"/>
    <rect class="cls-1" x="116" y="288" width="1" height="1"/>
    <rect class="cls-1" x="117" y="288" width="1" height="1"/>
    <rect class="cls-1" x="118" y="288" width="1" height="1"/>
    <rect class="cls-1" x="105" y="289" width="1" height="1"/>
    <rect class="cls-1" x="106" y="289" width="1" height="1"/>
    <rect class="cls-1" x="107" y="289" width="1" height="1"/>
    <rect class="cls-1" x="108" y="289" width="1" height="1"/>
    <rect class="cls-1" x="109" y="289" width="1" height="1"/>
    <rect class="cls-1" x="110" y="289" width="1" height="1"/>
    <rect class="cls-1" x="111" y="289" width="1" height="1"/>
    <rect class="cls-1" x="112" y="289" width="1" height="1"/>
    <rect class="cls-1" x="113" y="289" width="1" height="1"/>
    <rect class="cls-1" x="114" y="289" width="1" height="1"/>
    <rect class="cls-1" x="115" y="289" width="1" height="1"/>
    <rect class="cls-1" x="106" y="290" width="1" height="1"/>
    <rect class="cls-1" x="107" y="290" width="1" height="1"/>
    <rect class="cls-1" x="108" y="290" width="1" height="1"/>
    <rect class="cls-1" x="109" y="290" width="1" height="1"/>
    <rect class="cls-1" x="110" y="290" width="1" height="1"/>
    <rect class="cls-1" x="111" y="290" width="1" height="1"/>
    <rect class="cls-1" x="108" y="291" width="1" height="1"/>
    <rect class="cls-1" x="109" y="291" width="1" height="1"/>
    <rect class="cls-1" x="110" y="291" width="1" height="1"/>
    <rect class="cls-1" x="111" y="291" width="1" height="1"/>
    <rect class="cls-1" x="112" y="291" width="1" height="1"/>
    <rect class="cls-1" x="113" y="291" width="1" height="1"/>
    <rect class="cls-1" x="114" y="291" width="1" height="1"/>
    <rect class="cls-1" x="115" y="291" width="1" height="1"/>
    <rect class="cls-1" x="116" y="291" width="1" height="1"/>
    <rect class="cls-1" x="101" y="292" width="1" height="1"/>
    <rect class="cls-1" x="102" y="292" width="1" height="1"/>
    <rect class="cls-1" x="103" y="292" width="1" height="1"/>
    <rect class="cls-1" x="104" y="292" width="1" height="1"/>
    <rect class="cls-1" x="105" y="292" width="1" height="1"/>
    <rect class="cls-1" x="106" y="292" width="1" height="1"/>
    <rect class="cls-1" x="107" y="292" width="1" height="1"/>
    <rect class="cls-1" x="102" y="293" width="1" height="1"/>
    <rect class="cls-1" x="103" y="293" width="1" height="1"/>
    <rect class="cls-1" x="104" y="293" width="1" height="1"/>
    <rect class="cls-1" x="105" y="293" width="1" height="1"/>
    <rect class="cls-1" x="106" y="293" width="1" height="1"/>
    <rect class="cls-1" x="107" y="293" width="1" height="1"/>
    <rect class="cls-1" x="101" y="294" width="1" height="1"/>
    <rect class="cls-1" x="102" y="294" width="1" height="1"/>
    <rect class="cls-1" x="103" y="294" width="1" height="1"/>
    <rect class="cls-1" x="104" y="294" width="1" height="1"/>
    <rect class="cls-1" x="105" y="294" width="1" height="1"/>
    <rect class="cls-1" x="106" y="294" width="1" height="1"/>
    <rect class="cls-1" x="107" y="294" width="1" height="1"/>
    <rect class="cls-1" x="108" y="294" width="1" height="1"/>
    <rect class="cls-1" x="109" y="294" width="1" height="1"/>
    <rect class="cls-1" x="110" y="294" width="1" height="1"/>
    <rect class="cls-1" x="111" y="294" width="1" height="1"/>
    <rect class="cls-1" x="99" y="295" width="1" height="1"/>
    <rect class="cls-1" x="100" y="295" width="1" height="1"/>
    <rect class="cls-1" x="101" y="295" width="1" height="1"/>
    <rect class="cls-1" x="102" y="296" width="1" height="1"/>
    <rect class="cls-1" x="103" y="296" width="1" height="1"/>
    <rect class="cls-1" x="104" y="296" width="1" height="1"/>
    <rect class="cls-1" x="105" y="296" width="1" height="1"/>
    <rect class="cls-1" x="104" y="297" width="1" height="1"/>
    <rect class="cls-1" x="105" y="297" width="1" height="1"/>
    <rect class="cls-1" x="106" y="297" width="1" height="1"/>
    <rect class="cls-1" x="107" y="297" width="1" height="1"/>
    <rect class="cls-1" x="102" y="298" width="1" height="1"/>
    <rect class="cls-1" x="103" y="298" width="1" height="1"/>
  </g>
</svg>