<?xml version="1.0" encoding="UTF-8"?>
<svg id="Layer_2" data-name="Layer 2" xmlns="http://www.w3.org/2000/svg" viewBox="0 0 102 260">
  
  <g id="Layer_1-2" data-name="Layer 1" shape-rendering="crispEdges">
    <rect fill="#8aebdd" x="10" width="1" height="1"/>
    <rect fill="#8aebdd" x="12" y="1" width="1" height="1"/>
    <rect fill="#8aebdd" x="10" y="2" width="1" height="1"/>
    <rect fill="#8aebdd" x="10" y="3" width="1" height="1"/>
    <rect fill="#8aebdd" x="11" y="3" width="1" height="1"/>
    <rect fill="#8aebdd" x="12" y="3" width="1" height="1"/>
    <rect fill="#8aebdd" x="13" y="3" width="1" height="1"/>
    <rect fill="#8aebdd" x="8" y="4" width="1" height="1"/>
    <rect fill="#8aebdd" x="9" y="4" width="1" height="1"/>
    <rect fill="#8aebdd" x="10" y="4" width="1" height="1"/>
    <rect fill="#8aebdd" x="11" y="4" width="1" height="1"/>
    <rect fill="#8aebdd" x="7" y="5" width="1" height="1"/>
    <rect fill="#8aebdd" x="8" y="5" width="1" height="1"/>
    <rect fill="#8aebdd" x="9" y="5" width="1" height="1"/>
    <rect fill="#8aebdd" y="6" width="1" height="1"/>
    <rect fill="#8aebdd" x="1" y="6" width="1" height="1"/>
    <rect fill="#8aebdd" x="2" y="6" width="1" height="1"/>
    <rect fill="#8aebdd" x="6" y="6" width="1" height="1"/>
    <rect fill="#8aebdd" x="1" y="7" width="1" height="1"/>
    <rect fill="#8aebdd" x="2" y="7" width="1" height="1"/>
    <rect fill="#8aebdd" x="3" y="7" width="1" height="1"/>
    <rect fill="#8aebdd" y="8" width="1" height="1"/>
    <rect fill="#8aebdd" x="1" y="8" width="1" height="1"/>
    <rect fill="#8aebdd" x="2" y="8" width="1" height="1"/>
    <rect fill="#8aebdd" x="1" y="9" width="1" height="1"/>
    <rect fill="#8aebdd" x="2" y="9" width="1" height="1"/>
    <rect fill="#8aebdd" x="3" y="9" width="1" height="1"/>
    <rect fill="#8aebdd" x="4" y="9" width="1" height="1"/>
    <rect fill="#8aebdd" x="1" y="10" width="1" height="1"/>
    <rect fill="#8aebdd" x="2" y="10" width="1" height="1"/>
    <rect fill="#8aebdd" x="3" y="10" width="1" height="1"/>
    <rect fill="#8aebdd" x="3" y="12" width="1" height="1"/>
    <rect fill="#8aebdd" x="32" y="43" width="1" height="1"/>
    <rect fill="#8aebdd" x="33" y="43" width="1" height="1"/>
    <rect fill="#8aebdd" x="34" y="43" width="1" height="1"/>
    <rect fill="#8aebdd" x="35" y="43" width="1" height="1"/>
    <rect fill="#8aebdd" x="36" y="43" width="1" height="1"/>
    <rect fill="#8aebdd" x="37" y="43" width="1" height="1"/>
    <rect fill="#8aebdd" x="40" y="43" width="1" height="1"/>
    <rect fill="#8aebdd" x="29" y="49" width="1" height="1"/>
    <rect fill="#8aebdd" x="30" y="49" width="1" height="1"/>
    <rect fill="#8aebdd" x="31" y="49" width="1" height="1"/>
    <rect fill="#8aebdd" x="32" y="49" width="1" height="1"/>
    <rect fill="#8aebdd" x="33" y="49" width="1" height="1"/>
    <rect fill="#8aebdd" x="34" y="49" width="1" height="1"/>
    <rect fill="#8aebdd" x="26" y="50" width="1" height="1"/>
    <rect fill="#8aebdd" x="27" y="50" width="1" height="1"/>
    <rect fill="#8aebdd" x="28" y="50" width="1" height="1"/>
    <rect fill="#8aebdd" x="35" y="50" width="1" height="1"/>
    <rect fill="#8aebdd" x="36" y="50" width="1" height="1"/>
    <rect fill="#8aebdd" x="37" y="50" width="1" height="1"/>
    <rect fill="#8aebdd" x="38" y="50" width="1" height="1"/>
    <rect fill="#8aebdd" x="39" y="50" width="1" height="1"/>
    <rect fill="#8aebdd" x="40" y="50" width="1" height="1"/>
    <rect fill="#8aebdd" x="41" y="50" width="1" height="1"/>
    <rect fill="#8aebdd" x="42" y="50" width="1" height="1"/>
    <rect fill="#8aebdd" x="43" y="50" width="1" height="1"/>
    <rect fill="#8aebdd" x="44" y="50" width="1" height="1"/>
    <rect fill="#8aebdd" x="36" y="51" width="1" height="1"/>
    <rect fill="#8aebdd" x="37" y="51" width="1" height="1"/>
    <rect fill="#8aebdd" x="38" y="51" width="1" height="1"/>
    <rect fill="#8aebdd" x="39" y="51" width="1" height="1"/>
    <rect fill="#8aebdd" x="40" y="51" width="1" height="1"/>
    <rect fill="#8aebdd" x="41" y="51" width="1" height="1"/>
    <rect fill="#8aebdd" x="42" y="51" width="1" height="1"/>
    <rect fill="#8aebdd" x="43" y="51" width="1" height="1"/>
    <rect fill="#8aebdd" x="44" y="51" width="1" height="1"/>
    <rect fill="#8aebdd" x="45" y="51" width="1" height="1"/>
    <rect fill="#8aebdd" x="46" y="51" width="1" height="1"/>
    <rect fill="#8aebdd" x="38" y="52" width="1" height="1"/>
    <rect fill="#8aebdd" x="39" y="52" width="1" height="1"/>
    <rect fill="#8aebdd" x="40" y="52" width="1" height="1"/>
    <rect fill="#8aebdd" x="33" y="53" width="1" height="1"/>
    <rect fill="#8aebdd" x="34" y="53" width="1" height="1"/>
    <rect fill="#8aebdd" x="35" y="53" width="1" height="1"/>
    <rect fill="#8aebdd" x="36" y="53" width="1" height="1"/>
    <rect fill="#8aebdd" x="37" y="53" width="1" height="1"/>
    <rect fill="#8aebdd" x="35" y="54" width="1" height="1"/>
    <rect fill="#8aebdd" x="36" y="54" width="1" height="1"/>
    <rect fill="#8aebdd" x="37" y="54" width="1" height="1"/>
    <rect fill="#8aebdd" x="38" y="54" width="1" height="1"/>
    <rect fill="#8aebdd" x="39" y="54" width="1" height="1"/>
    <rect fill="#8aebdd" x="40" y="55" width="1" height="1"/>
    <rect fill="#8aebdd" x="41" y="55" width="1" height="1"/>
    <rect fill="#8aebdd" x="33" y="56" width="1" height="1"/>
    <rect fill="#8aebdd" x="34" y="56" width="1" height="1"/>
    <rect fill="#8aebdd" x="35" y="56" width="1" height="1"/>
    <rect fill="#8aebdd" x="36" y="56" width="1" height="1"/>
    <rect fill="#8aebdd" x="37" y="56" width="1" height="1"/>
    <rect fill="#8aebdd" x="38" y="56" width="1" height="1"/>
    <rect fill="#8aebdd" x="39" y="56" width="1" height="1"/>
    <rect fill="#8aebdd" x="40" y="56" width="1" height="1"/>
    <rect fill="#8aebdd" x="41" y="56" width="1" height="1"/>
    <rect fill="#8aebdd" x="34" y="57" width="1" height="1"/>
    <rect fill="#8aebdd" x="35" y="57" width="1" height="1"/>
    <rect fill="#8aebdd" x="37" y="57" width="1" height="1"/>
    <rect fill="#8aebdd" x="38" y="57" width="1" height="1"/>
    <rect fill="#8aebdd" x="39" y="57" width="1" height="1"/>
    <rect fill="#8aebdd" x="48" y="62" width="1" height="1"/>
    <rect fill="#8aebdd" x="49" y="63" width="1" height="1"/>
    <rect fill="#8aebdd" x="50" y="63" width="1" height="1"/>
    <rect fill="#8aebdd" x="50" y="64" width="1" height="1"/>
    <rect fill="#3ab4cb" x="71" y="243" width="1" height="1"/>
    <rect fill="#3ab4cb" x="72" y="243" width="1" height="1"/>
    <rect fill="#3ab4cb" x="73" y="243" width="1" height="1"/>
    <rect fill="#3ab4cb" x="74" y="243" width="1" height="1"/>
    <rect fill="#3ab4cb" x="75" y="243" width="1" height="1"/>
    <rect fill="#3ab4cb" x="76" y="243" width="1" height="1"/>
    <rect fill="#3ab4cb" x="77" y="243" width="1" height="1"/>
    <rect fill="#3ab4cb" x="78" y="243" width="1" height="1"/>
    <rect fill="#3ab4cb" x="79" y="243" width="1" height="1"/>
    <rect fill="#3ab4cb" x="80" y="243" width="1" height="1"/>
    <rect fill="#3ab4cb" x="81" y="243" width="1" height="1"/>
    <rect fill="#8aebdd" x="85" y="243" width="1" height="1"/>
    <rect fill="#8aebdd" x="66" y="244" width="1" height="1"/>
    <rect fill="#8aebdd" x="67" y="244" width="1" height="1"/>
    <rect fill="#8aebdd" x="70" y="244" width="1" height="1"/>
    <rect fill="#8aebdd" x="63" y="245" width="1" height="1"/>
    <rect fill="#8aebdd" x="64" y="245" width="1" height="1"/>
    <rect fill="#8aebdd" x="65" y="245" width="1" height="1"/>
    <rect fill="#8aebdd" x="66" y="245" width="1" height="1"/>
    <rect fill="#8aebdd" x="67" y="245" width="1" height="1"/>
    <rect fill="#8aebdd" x="68" y="245" width="1" height="1"/>
    <rect fill="#8aebdd" x="69" y="245" width="1" height="1"/>
    <rect fill="#8aebdd" x="71" y="245" width="1" height="1"/>
    <rect fill="#8aebdd" x="72" y="245" width="1" height="1"/>
    <rect fill="#8aebdd" x="73" y="245" width="1" height="1"/>
    <rect fill="#8aebdd" x="74" y="245" width="1" height="1"/>
    <rect fill="#8aebdd" x="81" y="245" width="1" height="1"/>
    <rect fill="#8aebdd" x="82" y="245" width="1" height="1"/>
    <rect fill="#8aebdd" x="83" y="245" width="1" height="1"/>
    <rect fill="#8aebdd" x="84" y="245" width="1" height="1"/>
    <rect fill="#8aebdd" x="70" y="246" width="1" height="1"/>
    <rect fill="#8aebdd" x="71" y="246" width="1" height="1"/>
    <rect fill="#8aebdd" x="72" y="246" width="1" height="1"/>
    <rect fill="#8aebdd" x="73" y="246" width="1" height="1"/>
    <rect fill="#8aebdd" x="74" y="246" width="1" height="1"/>
    <rect fill="#8aebdd" x="75" y="246" width="1" height="1"/>
    <rect fill="#8aebdd" x="76" y="246" width="1" height="1"/>
    <rect fill="#8aebdd" x="77" y="246" width="1" height="1"/>
    <rect fill="#8aebdd" x="85" y="246" width="1" height="1"/>
    <rect fill="#8aebdd" x="86" y="246" width="1" height="1"/>
    <rect fill="#8aebdd" x="70" y="247" width="1" height="1"/>
    <rect fill="#8aebdd" x="71" y="247" width="1" height="1"/>
    <rect fill="#8aebdd" x="57" y="248" width="1" height="1"/>
    <rect fill="#8aebdd" x="58" y="248" width="1" height="1"/>
    <rect fill="#8aebdd" x="59" y="248" width="1" height="1"/>
    <rect fill="#8aebdd" x="60" y="248" width="1" height="1"/>
    <rect fill="#8aebdd" x="61" y="248" width="1" height="1"/>
    <rect fill="#8aebdd" x="62" y="248" width="1" height="1"/>
    <rect fill="#8aebdd" x="63" y="248" width="1" height="1"/>
    <rect fill="#8aebdd" x="64" y="248" width="1" height="1"/>
    <rect fill="#8aebdd" x="65" y="248" width="1" height="1"/>
    <rect fill="#8aebdd" x="66" y="248" width="1" height="1"/>
    <rect fill="#8aebdd" x="67" y="248" width="1" height="1"/>
    <rect fill="#8aebdd" x="68" y="248" width="1" height="1"/>
    <rect fill="#8aebdd" x="69" y="248" width="1" height="1"/>
    <rect fill="#8aebdd" x="64" y="249" width="1" height="1"/>
    <rect fill="#8aebdd" x="65" y="249" width="1" height="1"/>
    <rect fill="#8aebdd" x="66" y="249" width="1" height="1"/>
    <rect fill="#8aebdd" x="67" y="249" width="1" height="1"/>
    <rect fill="#8aebdd" x="68" y="249" width="1" height="1"/>
    <rect fill="#8aebdd" x="69" y="249" width="1" height="1"/>
    <rect fill="#8aebdd" x="70" y="249" width="1" height="1"/>
    <rect fill="#8aebdd" x="71" y="249" width="1" height="1"/>
    <rect fill="#8aebdd" x="72" y="249" width="1" height="1"/>
    <rect fill="#8aebdd" x="73" y="249" width="1" height="1"/>
    <rect fill="#8aebdd" x="74" y="249" width="1" height="1"/>
    <rect fill="#8aebdd" x="75" y="249" width="1" height="1"/>
    <rect fill="#8aebdd" x="76" y="249" width="1" height="1"/>
    <rect fill="#8aebdd" x="77" y="249" width="1" height="1"/>
    <rect fill="#8aebdd" x="78" y="249" width="1" height="1"/>
    <rect fill="#8aebdd" x="71" y="250" width="1" height="1"/>
    <rect fill="#8aebdd" x="72" y="250" width="1" height="1"/>
    <rect fill="#8aebdd" x="73" y="250" width="1" height="1"/>
    <rect fill="#8aebdd" x="74" y="250" width="1" height="1"/>
    <rect fill="#8aebdd" x="75" y="250" width="1" height="1"/>
    <rect fill="#8aebdd" x="76" y="250" width="1" height="1"/>
    <rect fill="#8aebdd" x="77" y="250" width="1" height="1"/>
    <rect fill="#8aebdd" x="78" y="250" width="1" height="1"/>
    <rect fill="#8aebdd" x="79" y="250" width="1" height="1"/>
    <rect fill="#8aebdd" x="80" y="250" width="1" height="1"/>
    <rect fill="#8aebdd" x="81" y="250" width="1" height="1"/>
    <rect fill="#8aebdd" x="74" y="251" width="1" height="1"/>
    <rect fill="#8aebdd" x="75" y="251" width="1" height="1"/>
    <rect fill="#8aebdd" x="76" y="251" width="1" height="1"/>
    <rect fill="#8aebdd" x="77" y="251" width="1" height="1"/>
    <rect fill="#8aebdd" x="78" y="251" width="1" height="1"/>
    <rect fill="#8aebdd" x="79" y="251" width="1" height="1"/>
    <rect fill="#8aebdd" x="80" y="251" width="1" height="1"/>
    <rect fill="#8aebdd" x="81" y="251" width="1" height="1"/>
    <rect fill="#8aebdd" x="82" y="251" width="1" height="1"/>
    <rect fill="#8aebdd" x="83" y="251" width="1" height="1"/>
    <rect fill="#8aebdd" x="84" y="251" width="1" height="1"/>
    <rect fill="#8aebdd" x="85" y="251" width="1" height="1"/>
    <rect fill="#8aebdd" x="72" y="252" width="1" height="1"/>
    <rect fill="#8aebdd" x="73" y="252" width="1" height="1"/>
    <rect fill="#8aebdd" x="74" y="252" width="1" height="1"/>
    <rect fill="#8aebdd" x="75" y="252" width="1" height="1"/>
    <rect fill="#8aebdd" x="76" y="252" width="1" height="1"/>
    <rect fill="#8aebdd" x="77" y="252" width="1" height="1"/>
    <rect fill="#8aebdd" x="78" y="252" width="1" height="1"/>
    <rect fill="#8aebdd" x="79" y="252" width="1" height="1"/>
    <rect fill="#8aebdd" x="80" y="252" width="1" height="1"/>
    <rect fill="#8aebdd" x="81" y="252" width="1" height="1"/>
    <rect fill="#8aebdd" x="82" y="252" width="1" height="1"/>
    <rect fill="#8aebdd" x="83" y="252" width="1" height="1"/>
    <rect fill="#8aebdd" x="84" y="252" width="1" height="1"/>
    <rect fill="#8aebdd" x="85" y="252" width="1" height="1"/>
    <rect fill="#8aebdd" x="86" y="252" width="1" height="1"/>
    <rect fill="#8aebdd" x="87" y="252" width="1" height="1"/>
    <rect fill="#8aebdd" x="88" y="252" width="1" height="1"/>
    <rect fill="#8aebdd" x="82" y="253" width="1" height="1"/>
    <rect fill="#8aebdd" x="83" y="253" width="1" height="1"/>
    <rect fill="#8aebdd" x="84" y="253" width="1" height="1"/>
    <rect fill="#8aebdd" x="85" y="253" width="1" height="1"/>
    <rect fill="#8aebdd" x="86" y="253" width="1" height="1"/>
    <rect fill="#8aebdd" x="87" y="253" width="1" height="1"/>
    <rect fill="#8aebdd" x="88" y="253" width="1" height="1"/>
    <rect fill="#8aebdd" x="89" y="253" width="1" height="1"/>
    <rect fill="#8aebdd" x="90" y="253" width="1" height="1"/>
    <rect fill="#8aebdd" x="91" y="253" width="1" height="1"/>
    <rect fill="#8aebdd" x="83" y="254" width="1" height="1"/>
    <rect fill="#8aebdd" x="84" y="254" width="1" height="1"/>
    <rect fill="#8aebdd" x="85" y="254" width="1" height="1"/>
    <rect fill="#8aebdd" x="86" y="254" width="1" height="1"/>
    <rect fill="#8aebdd" x="87" y="254" width="1" height="1"/>
    <rect fill="#8aebdd" x="88" y="254" width="1" height="1"/>
    <rect fill="#8aebdd" x="89" y="254" width="1" height="1"/>
    <rect fill="#8aebdd" x="90" y="255" width="1" height="1"/>
    <rect fill="#8aebdd" x="91" y="255" width="1" height="1"/>
    <rect fill="#8aebdd" x="92" y="255" width="1" height="1"/>
    <rect fill="#8aebdd" x="93" y="255" width="1" height="1"/>
    <rect fill="#8aebdd" x="94" y="255" width="1" height="1"/>
    <rect fill="#8aebdd" x="95" y="255" width="1" height="1"/>
    <rect fill="#8aebdd" x="96" y="255" width="1" height="1"/>
    <rect fill="#8aebdd" x="97" y="255" width="1" height="1"/>
    <rect fill="#8aebdd" x="98" y="255" width="1" height="1"/>
    <rect fill="#8aebdd" x="99" y="255" width="1" height="1"/>
    <rect fill="#8aebdd" x="100" y="256" width="1" height="1"/>
    <rect fill="#8aebdd" x="101" y="256" width="1" height="1"/>
    <rect fill="#8aebdd" x="86" y="257" width="1" height="1"/>
    <rect fill="#8aebdd" x="87" y="257" width="1" height="1"/>
    <rect fill="#8aebdd" x="88" y="257" width="1" height="1"/>
    <rect fill="#8aebdd" x="89" y="257" width="1" height="1"/>
    <rect fill="#8aebdd" x="90" y="257" width="1" height="1"/>
    <rect fill="#8aebdd" x="91" y="257" width="1" height="1"/>
    <rect fill="#8aebdd" x="92" y="257" width="1" height="1"/>
    <rect fill="#8aebdd" x="93" y="257" width="1" height="1"/>
    <rect fill="#8aebdd" x="94" y="257" width="1" height="1"/>
    <rect fill="#8aebdd" x="95" y="257" width="1" height="1"/>
    <rect fill="#8aebdd" x="96" y="257" width="1" height="1"/>
    <rect fill="#8aebdd" x="97" y="257" width="1" height="1"/>
    <rect fill="#8aebdd" x="98" y="257" width="1" height="1"/>
    <rect fill="#8aebdd" x="99" y="257" width="1" height="1"/>
    <rect fill="#8aebdd" x="81" y="258" width="1" height="1"/>
    <rect fill="#8aebdd" x="82" y="258" width="1" height="1"/>
    <rect fill="#8aebdd" x="83" y="258" width="1" height="1"/>
    <rect fill="#8aebdd" x="84" y="258" width="1" height="1"/>
    <rect fill="#8aebdd" x="85" y="258" width="1" height="1"/>
    <rect fill="#8aebdd" x="86" y="258" width="1" height="1"/>
    <rect fill="#8aebdd" x="87" y="258" width="1" height="1"/>
    <rect fill="#8aebdd" x="88" y="258" width="1" height="1"/>
    <rect fill="#8aebdd" x="89" y="258" width="1" height="1"/>
    <rect fill="#8aebdd" x="90" y="258" width="1" height="1"/>
    <rect fill="#8aebdd" x="91" y="258" width="1" height="1"/>
    <rect fill="#8aebdd" x="92" y="258" width="1" height="1"/>
    <rect fill="#8aebdd" x="93" y="258" width="1" height="1"/>
    <rect fill="#8aebdd" x="94" y="258" width="1" height="1"/>
    <rect fill="#8aebdd" x="95" y="258" width="1" height="1"/>
    <rect fill="#8aebdd" x="96" y="258" width="1" height="1"/>
    <rect fill="#8aebdd" x="97" y="258" width="1" height="1"/>
    <rect fill="#8aebdd" x="79" y="259" width="1" height="1"/>
    <rect fill="#8aebdd" x="80" y="259" width="1" height="1"/>
    <rect fill="#8aebdd" x="81" y="259" width="1" height="1"/>
  </g>
</svg>