<?xml version="1.0" encoding="UTF-8"?>
<svg id="Layer_2" data-name="Layer 2" xmlns="http://www.w3.org/2000/svg" viewBox="0 0 119 299">
  
  <g id="Layer_1-2" data-name="Layer 1" shape-rendering="crispEdges">
    <rect fill="#8aebdd" x="2" width="1" height="1"/>
    <rect fill="#8aebdd" x="3" width="1" height="1"/>
    <rect fill="#8aebdd" y="1" width="1" height="1"/>
    <rect fill="#8aebdd" x="1" y="1" width="1" height="1"/>
    <rect fill="#8aebdd" x="2" y="1" width="1" height="1"/>
    <rect fill="#8aebdd" x="3" y="1" width="1" height="1"/>
    <rect fill="#8aebdd" x="4" y="1" width="1" height="1"/>
    <rect fill="#8aebdd" x="42" y="38" width="1" height="1"/>
    <rect fill="#8aebdd" x="43" y="38" width="1" height="1"/>
    <rect fill="#8aebdd" x="44" y="38" width="1" height="1"/>
    <rect fill="#8aebdd" x="43" y="39" width="1" height="1"/>
    <rect fill="#8aebdd" x="44" y="39" width="1" height="1"/>
    <rect fill="#8aebdd" x="45" y="39" width="1" height="1"/>
    <rect fill="#8aebdd" x="46" y="39" width="1" height="1"/>
    <rect fill="#8aebdd" x="44" y="40" width="1" height="1"/>
    <rect fill="#8aebdd" x="45" y="40" width="1" height="1"/>
    <rect fill="#8aebdd" x="42" y="41" width="1" height="1"/>
    <rect fill="#8aebdd" x="43" y="41" width="1" height="1"/>
    <rect fill="#8aebdd" x="44" y="41" width="1" height="1"/>
    <rect fill="#8aebdd" x="41" y="43" width="1" height="1"/>
    <rect fill="#8aebdd" x="67" y="86" width="1" height="1"/>
    <rect fill="#8aebdd" x="68" y="86" width="1" height="1"/>
    <rect fill="#8aebdd" x="69" y="86" width="1" height="1"/>
    <rect fill="#8aebdd" x="70" y="86" width="1" height="1"/>
    <rect fill="#8aebdd" x="71" y="86" width="1" height="1"/>
    <rect fill="#8aebdd" x="72" y="86" width="1" height="1"/>
    <rect fill="#8aebdd" x="73" y="86" width="1" height="1"/>
    <rect fill="#8aebdd" x="65" y="87" width="1" height="1"/>
    <rect fill="#8aebdd" x="66" y="87" width="1" height="1"/>
    <rect fill="#8aebdd" x="67" y="87" width="1" height="1"/>
    <rect fill="#8aebdd" x="68" y="87" width="1" height="1"/>
    <rect fill="#8aebdd" x="69" y="87" width="1" height="1"/>
    <rect fill="#8aebdd" x="60" y="88" width="1" height="1"/>
    <rect fill="#8aebdd" x="61" y="88" width="1" height="1"/>
    <rect fill="#8aebdd" x="62" y="88" width="1" height="1"/>
    <rect fill="#8aebdd" x="63" y="88" width="1" height="1"/>
    <rect fill="#8aebdd" x="64" y="88" width="1" height="1"/>
    <rect fill="#8aebdd" x="73" y="95" width="1" height="1"/>
    <rect fill="#8aebdd" x="74" y="95" width="1" height="1"/>
    <rect fill="#8aebdd" x="75" y="95" width="1" height="1"/>
    <rect fill="#8aebdd" x="74" y="96" width="1" height="1"/>
    <rect fill="#8aebdd" x="75" y="96" width="1" height="1"/>
    <rect fill="#8aebdd" x="76" y="96" width="1" height="1"/>
    <rect fill="#f0e88e" x="109" y="288" width="1" height="1"/>
    <rect fill="#f0e88e" x="110" y="288" width="1" height="1"/>
    <rect fill="#f0e88e" x="111" y="288" width="1" height="1"/>
    <rect fill="#f0e88e" x="112" y="288" width="1" height="1"/>
    <rect fill="#f0e88e" x="113" y="288" width="1" height="1"/>
    <rect fill="#f0e88e" x="114" y="288" width="1" height="1"/>
    <rect fill="#f0e88e" x="115" y="288" width="1" height="1"/>
    <rect fill="#f0e88e" x="116" y="288" width="1" height="1"/>
    <rect fill="#f0e88e" x="117" y="288" width="1" height="1"/>
    <rect fill="#f0e88e" x="118" y="288" width="1" height="1"/>
    <rect fill="#f0e88e" x="105" y="289" width="1" height="1"/>
    <rect fill="#f0e88e" x="106" y="289" width="1" height="1"/>
    <rect fill="#f0e88e" x="107" y="289" width="1" height="1"/>
    <rect fill="#f0e88e" x="108" y="289" width="1" height="1"/>
    <rect fill="#f0e88e" x="109" y="289" width="1" height="1"/>
    <rect fill="#f0e88e" x="110" y="289" width="1" height="1"/>
    <rect fill="#f0e88e" x="111" y="289" width="1" height="1"/>
    <rect fill="#f0e88e" x="112" y="289" width="1" height="1"/>
    <rect fill="#f0e88e" x="113" y="289" width="1" height="1"/>
    <rect fill="#f0e88e" x="114" y="289" width="1" height="1"/>
    <rect fill="#f0e88e" x="115" y="289" width="1" height="1"/>
    <rect fill="#f0e88e" x="106" y="290" width="1" height="1"/>
    <rect fill="#f0e88e" x="107" y="290" width="1" height="1"/>
    <rect fill="#f0e88e" x="108" y="290" width="1" height="1"/>
    <rect fill="#f0e88e" x="109" y="290" width="1" height="1"/>
    <rect fill="#f0e88e" x="110" y="290" width="1" height="1"/>
    <rect fill="#f0e88e" x="111" y="290" width="1" height="1"/>
    <rect fill="#f0e88e" x="108" y="291" width="1" height="1"/>
    <rect fill="#f0e88e" x="109" y="291" width="1" height="1"/>
    <rect fill="#f0e88e" x="110" y="291" width="1" height="1"/>
    <rect fill="#f0e88e" x="111" y="291" width="1" height="1"/>
    <rect fill="#f0e88e" x="112" y="291" width="1" height="1"/>
    <rect fill="#f0e88e" x="113" y="291" width="1" height="1"/>
    <rect fill="#f0e88e" x="114" y="291" width="1" height="1"/>
    <rect fill="#f0e88e" x="115" y="291" width="1" height="1"/>
    <rect fill="#f0e88e" x="116" y="291" width="1" height="1"/>
    <rect fill="#f0e88e" x="101" y="292" width="1" height="1"/>
    <rect fill="#f0e88e" x="102" y="292" width="1" height="1"/>
    <rect fill="#f0e88e" x="103" y="292" width="1" height="1"/>
    <rect fill="#f0e88e" x="104" y="292" width="1" height="1"/>
    <rect fill="#f0e88e" x="105" y="292" width="1" height="1"/>
    <rect fill="#f0e88e" x="106" y="292" width="1" height="1"/>
    <rect fill="#f0e88e" x="107" y="292" width="1" height="1"/>
    <rect fill="#f0e88e" x="102" y="293" width="1" height="1"/>
    <rect fill="#f0e88e" x="103" y="293" width="1" height="1"/>
    <rect fill="#f0e88e" x="104" y="293" width="1" height="1"/>
    <rect fill="#f0e88e" x="105" y="293" width="1" height="1"/>
    <rect fill="#f0e88e" x="106" y="293" width="1" height="1"/>
    <rect fill="#f0e88e" x="107" y="293" width="1" height="1"/>
    <rect fill="#f0e88e" x="101" y="294" width="1" height="1"/>
    <rect fill="#f0e88e" x="102" y="294" width="1" height="1"/>
    <rect fill="#f0e88e" x="103" y="294" width="1" height="1"/>
    <rect fill="#f0e88e" x="104" y="294" width="1" height="1"/>
    <rect fill="#f0e88e" x="105" y="294" width="1" height="1"/>
    <rect fill="#f0e88e" x="106" y="294" width="1" height="1"/>
    <rect fill="#f0e88e" x="107" y="294" width="1" height="1"/>
    <rect fill="#f0e88e" x="108" y="294" width="1" height="1"/>
    <rect fill="#f0e88e" x="109" y="294" width="1" height="1"/>
    <rect fill="#f0e88e" x="110" y="294" width="1" height="1"/>
    <rect fill="#f0e88e" x="111" y="294" width="1" height="1"/>
    <rect fill="#f0e88e" x="99" y="295" width="1" height="1"/>
    <rect fill="#f0e88e" x="100" y="295" width="1" height="1"/>
    <rect fill="#f0e88e" x="101" y="295" width="1" height="1"/>
    <rect fill="#f0e88e" x="102" y="296" width="1" height="1"/>
    <rect fill="#f0e88e" x="103" y="296" width="1" height="1"/>
    <rect fill="#f0e88e" x="104" y="296" width="1" height="1"/>
    <rect fill="#f0e88e" x="105" y="296" width="1" height="1"/>
    <rect fill="#f0e88e" x="104" y="297" width="1" height="1"/>
    <rect fill="#f0e88e" x="105" y="297" width="1" height="1"/>
    <rect fill="#f0e88e" x="106" y="297" width="1" height="1"/>
    <rect fill="#f0e88e" x="107" y="297" width="1" height="1"/>
    <rect fill="#f0e88e" x="102" y="298" width="1" height="1"/>
    <rect fill="#f0e88e" x="103" y="298" width="1" height="1"/>
  </g>
</svg>