<?xml version="1.0" encoding="UTF-8"?>
<svg id="Layer_2" data-name="Layer 2" xmlns="http://www.w3.org/2000/svg" viewBox="0 0 29 37">
  
  <g id="Layer_1-2" data-name="Layer 1" shape-rendering="crispEdges">
    <g>
      <rect fill="#e4e3db" x="16.5" y="9" width="1" height="1"/>
      <rect fill="#e4e3db" x="17.5" y="9" width="1" height="1"/>
      <rect fill="#e4e3db" x="15.5" y="10" width="1" height="1"/>
      <rect fill="#e4e3db" x="16.5" y="10" width="1" height="1"/>
      <rect fill="#e4e3db" x="17.5" y="10" width="1" height="1"/>
      <rect fill="#e4e3db" x="18.5" y="10" width="1" height="1"/>
      <rect fill="#e4e3db" x="16.5" y="11" width="1" height="1"/>
      <rect fill="#e4e3db" x="17.5" y="11" width="1" height="1"/>
      <rect fill="#e4e3db" x="18.5" y="11" width="1" height="1"/>
      <rect fill="#e4e3db" x="19.5" y="11" width="1" height="1"/>
      <rect fill="#e4e3db" x="19.5" y="12" width="1" height="1"/>
      <rect fill="#e4e3db" x="15.5" y="14" width="1" height="1"/>
      <rect fill="#e4e3db" x="16.5" y="14" width="1" height="1"/>
      <rect fill="#e4e3db" x="18.5" y="14" width="1" height="1"/>
      <rect fill="#e4e3db" x="19.5" y="14" width="1" height="1"/>
      <rect fill="#e4e3db" x="14.5" y="15" width="1" height="1"/>
      <rect fill="#e4e3db" x="15.5" y="15" width="1" height="1"/>
      <rect fill="#e4e3db" x="16.5" y="15" width="1" height="1"/>
      <rect fill="#e4e3db" x="17.5" y="15" width="1" height="1"/>
      <rect fill="#e4e3db" x="18.5" y="15" width="1" height="1"/>
    </g>
    <rect fill="none" width="35" height="37"/>
  </g>
</svg>