<?xml version="1.0" encoding="UTF-8"?>
<svg id="Layer_2" data-name="Layer 2" xmlns="http://www.w3.org/2000/svg" viewBox="0 0 36 37">
  
  <g id="Layer_1-2" data-name="Layer 1" shape-rendering="crispEdges">
    <g>
      <rect fill="#e4e3db" x="17" y="5" width="1" height="1"/>
      <rect fill="#e4e3db" x="18" y="5" width="1" height="1"/>
      <rect fill="#e4e3db" x="19" y="5" width="1" height="1"/>
      <rect fill="#e4e3db" x="20" y="5" width="1" height="1"/>
      <rect fill="#e4e3db" x="15" y="6" width="1" height="1"/>
      <rect fill="#e4e3db" x="16" y="6" width="1" height="1"/>
      <rect fill="#e4e3db" x="17" y="6" width="1" height="1"/>
      <rect fill="#e4e3db" x="18" y="6" width="1" height="1"/>
      <rect fill="#e4e3db" x="19" y="6" width="1" height="1"/>
      <rect fill="#e4e3db" x="20" y="6" width="1" height="1"/>
      <rect fill="#e4e3db" x="21" y="6" width="1" height="1"/>
      <rect fill="#e4e3db" x="13" y="7" width="1" height="1"/>
      <rect fill="#e4e3db" x="14" y="7" width="1" height="1"/>
      <rect fill="#e4e3db" x="15" y="7" width="1" height="1"/>
      <rect fill="#e4e3db" x="16" y="7" width="1" height="1"/>
      <rect fill="#e4e3db" x="17" y="7" width="1" height="1"/>
      <rect fill="#e4e3db" x="18" y="7" width="1" height="1"/>
      <rect fill="#e4e3db" x="19" y="7" width="1" height="1"/>
      <rect fill="#e4e3db" x="20" y="7" width="1" height="1"/>
      <rect fill="#e4e3db" x="21" y="7" width="1" height="1"/>
      <rect fill="#e4e3db" x="22" y="7" width="1" height="1"/>
      <rect fill="#e4e3db" x="12" y="8" width="1" height="1"/>
      <rect fill="#e4e3db" x="13" y="8" width="1" height="1"/>
      <rect fill="#e4e3db" x="14" y="8" width="1" height="1"/>
      <rect fill="#e4e3db" x="15" y="8" width="1" height="1"/>
      <rect fill="#e4e3db" x="16" y="8" width="1" height="1"/>
      <rect fill="#e4e3db" x="17" y="8" width="1" height="1"/>
      <rect fill="#e4e3db" x="18" y="8" width="1" height="1"/>
      <rect fill="#e4e3db" x="19" y="8" width="1" height="1"/>
      <rect fill="#e4e3db" x="20" y="8" width="1" height="1"/>
      <rect fill="#e4e3db" x="21" y="8" width="1" height="1"/>
      <rect fill="#e4e3db" x="22" y="8" width="1" height="1"/>
      <rect fill="#e4e3db" x="23" y="8" width="1" height="1"/>
      <rect fill="#e4e3db" x="11" y="9" width="1" height="1"/>
      <rect fill="#e4e3db" x="12" y="9" width="1" height="1"/>
      <rect fill="#e4e3db" x="13" y="9" width="1" height="1"/>
      <rect fill="#e4e3db" x="14" y="9" width="1" height="1"/>
      <rect fill="#e4e3db" x="15" y="9" width="1" height="1"/>
      <rect fill="#e4e3db" x="16" y="9" width="1" height="1"/>
      <rect fill="#e4e3db" x="17" y="9" width="1" height="1"/>
      <rect fill="#e4e3db" x="18" y="9" width="1" height="1"/>
      <rect fill="#e4e3db" x="19" y="9" width="1" height="1"/>
      <rect fill="#e4e3db" x="20" y="9" width="1" height="1"/>
      <rect fill="#e4e3db" x="21" y="9" width="1" height="1"/>
      <rect fill="#e4e3db" x="22" y="9" width="1" height="1"/>
      <rect fill="#e4e3db" x="23" y="9" width="1" height="1"/>
      <rect fill="#e4e3db" x="11" y="10" width="1" height="1"/>
      <rect fill="#e4e3db" x="12" y="10" width="1" height="1"/>
      <rect fill="#e4e3db" x="13" y="10" width="1" height="1"/>
      <rect fill="#e4e3db" x="14" y="10" width="1" height="1"/>
      <rect fill="#e4e3db" x="15" y="10" width="1" height="1"/>
      <rect fill="#e4e3db" x="16" y="10" width="1" height="1"/>
      <rect fill="#e4e3db" x="17" y="10" width="1" height="1"/>
      <rect fill="#e4e3db" x="18" y="10" width="1" height="1"/>
      <rect fill="#e4e3db" x="19" y="10" width="1" height="1"/>
      <rect fill="#e4e3db" x="20" y="10" width="1" height="1"/>
      <rect fill="#e4e3db" x="21" y="10" width="1" height="1"/>
      <rect fill="#e4e3db" x="22" y="10" width="1" height="1"/>
      <rect fill="#e4e3db" x="11" y="11" width="1" height="1"/>
      <rect fill="#e4e3db" x="12" y="11" width="1" height="1"/>
      <rect fill="#e4e3db" x="13" y="11" width="1" height="1"/>
      <rect fill="#e4e3db" x="14" y="11" width="1" height="1"/>
      <rect fill="#e4e3db" x="15" y="11" width="1" height="1"/>
      <rect fill="#e4e3db" x="16" y="11" width="1" height="1"/>
      <rect fill="#e4e3db" x="17" y="11" width="1" height="1"/>
      <rect fill="#e4e3db" x="18" y="11" width="1" height="1"/>
      <rect fill="#e4e3db" x="19" y="11" width="1" height="1"/>
      <rect fill="#e4e3db" x="20" y="11" width="1" height="1"/>
      <rect fill="#e4e3db" x="21" y="11" width="1" height="1"/>
      <rect fill="#e4e3db" x="11" y="12" width="1" height="1"/>
      <rect fill="#e4e3db" x="12" y="12" width="1" height="1"/>
      <rect fill="#e4e3db" x="13" y="12" width="1" height="1"/>
      <rect fill="#e4e3db" x="14" y="12" width="1" height="1"/>
      <rect fill="#e4e3db" x="15" y="12" width="1" height="1"/>
      <rect fill="#e4e3db" x="16" y="12" width="1" height="1"/>
      <rect fill="#e4e3db" x="17" y="12" width="1" height="1"/>
      <rect fill="#e4e3db" x="18" y="12" width="1" height="1"/>
      <rect fill="#e4e3db" x="19" y="12" width="1" height="1"/>
      <rect fill="#e4e3db" x="11" y="13" width="1" height="1"/>
      <rect fill="#e4e3db" x="12" y="13" width="1" height="1"/>
      <rect fill="#e4e3db" x="13" y="13" width="1" height="1"/>
      <rect fill="#e4e3db" x="14" y="13" width="1" height="1"/>
      <rect fill="#e4e3db" x="15" y="13" width="1" height="1"/>
      <rect fill="#e4e3db" x="16" y="13" width="1" height="1"/>
      <rect fill="#e4e3db" x="17" y="13" width="1" height="1"/>
      <rect fill="#e4e3db" x="11" y="14" width="1" height="1"/>
      <rect fill="#e4e3db" x="12" y="14" width="1" height="1"/>
      <rect fill="#e4e3db" x="13" y="14" width="1" height="1"/>
      <rect fill="#e4e3db" x="14" y="14" width="1" height="1"/>
      <rect fill="#e4e3db" x="15" y="14" width="1" height="1"/>
      <rect fill="#e4e3db" x="16" y="14" width="1" height="1"/>
      <rect fill="#e4e3db" x="11" y="15" width="1" height="1"/>
      <rect fill="#e4e3db" x="12" y="15" width="1" height="1"/>
      <rect fill="#e4e3db" x="13" y="15" width="1" height="1"/>
      <rect fill="#e4e3db" x="14" y="15" width="1" height="1"/>
      <rect fill="#e4e3db" x="15" y="15" width="1" height="1"/>
      <rect fill="#e4e3db" x="16" y="15" width="1" height="1"/>
      <rect fill="#e4e3db" x="11" y="16" width="1" height="1"/>
      <rect fill="#e4e3db" x="12" y="16" width="1" height="1"/>
      <rect fill="#e4e3db" x="13" y="16" width="1" height="1"/>
      <rect fill="#e4e3db" x="14" y="16" width="1" height="1"/>
      <rect fill="#e4e3db" x="15" y="16" width="1" height="1"/>
      <rect fill="#e4e3db" x="12" y="17" width="1" height="1"/>
      <rect fill="#e4e3db" x="13" y="17" width="1" height="1"/>
      <rect fill="#e4e3db" x="14" y="17" width="1" height="1"/>
      <rect fill="#e4e3db" x="15" y="17" width="1" height="1"/>
      <rect fill="#e4e3db" x="12" y="18" width="1" height="1"/>
      <rect fill="#e4e3db" x="13" y="18" width="1" height="1"/>
      <rect fill="#e4e3db" x="14" y="18" width="1" height="1"/>
      <rect fill="#e4e3db" x="15" y="18" width="1" height="1"/>
      <rect fill="#e4e3db" x="13" y="19" width="1" height="1"/>
      <rect fill="#e4e3db" x="14" y="19" width="1" height="1"/>
      <rect fill="#e4e3db" x="15" y="19" width="1" height="1"/>
      <rect fill="#e4e3db" x="13" y="20" width="1" height="1"/>
      <rect fill="#e4e3db" x="14" y="20" width="1" height="1"/>
      <rect fill="#e4e3db" x="15" y="20" width="1" height="1"/>
      <rect fill="#e4e3db" x="14" y="21" width="1" height="1"/>
      <rect fill="#e4e3db" x="15" y="21" width="1" height="1"/>
      <rect fill="#e4e3db" x="16" y="21" width="1" height="1"/>
      <rect fill="#e4e3db" x="15" y="22" width="1" height="1"/>
      <rect fill="#e4e3db" x="16" y="22" width="1" height="1"/>
      <rect fill="#e4e3db" x="17" y="22" width="1" height="1"/>
      <rect fill="#e4e3db" x="16" y="23" width="1" height="1"/>
      <rect fill="#e4e3db" x="17" y="23" width="1" height="1"/>
      <rect fill="#e4e3db" x="18" y="23" width="1" height="1"/>
      <rect fill="#e4e3db" x="19" y="23" width="1" height="1"/>
      <rect fill="#e4e3db" x="17" y="24" width="1" height="1"/>
      <rect fill="#e4e3db" x="18" y="24" width="1" height="1"/>
      <rect fill="#e4e3db" x="19" y="24" width="1" height="1"/>
      <rect fill="#e4e3db" x="20" y="24" width="1" height="1"/>
      <rect fill="#e4e3db" x="19" y="25" width="1" height="1"/>
      <rect fill="#e4e3db" x="20" y="25" width="1" height="1"/>
      <rect fill="#e4e3db" x="21" y="25" width="1" height="1"/>
      <rect fill="#e4e3db" x="20" y="26" width="1" height="1"/>
      <rect fill="#e4e3db" x="21" y="26" width="1" height="1"/>
      <rect fill="#e4e3db" x="20" y="27" width="1" height="1"/>
      <rect fill="#e4e3db" x="21" y="27" width="1" height="1"/>
      <rect fill="#e4e3db" x="19" y="28" width="1" height="1"/>
      <rect fill="#e4e3db" x="20" y="28" width="1" height="1"/>
      <rect fill="#e4e3db" x="19" y="29" width="1" height="1"/>
      <rect fill="#e4e3db" x="18" y="30" width="1" height="1"/>
      <rect fill="#e4e3db" x="17" y="31" width="1" height="1"/>
      <rect fill="#e4e3db" x="17" y="32" width="1" height="1"/>
      <rect fill="#e4e3db" x="17" y="33" width="1" height="1"/>
      <rect fill="#e4e3db" x="17" y="34" width="1" height="1"/>
    </g>
    <rect fill="none" width="35" height="37"/>
  </g>
</svg>