<?xml version="1.0" encoding="UTF-8"?>
<svg id="Layer_2" data-name="Layer 2" xmlns="http://www.w3.org/2000/svg" viewBox="0 0 29 37">
  <defs>
    <style>
      .cls-1 {
        fill: none;
      }

      .cls-2 {
        fill: #e4e3db;
        isolation: isolate;
        opacity: .75;
      }
    </style>
  </defs>
  <g id="Layer_1-2" data-name="Layer 1" shape-rendering="crispEdges">
    <g>
      <rect class="cls-2" x="16.5" y="9" width="1" height="1"/>
      <rect class="cls-2" x="17.5" y="9" width="1" height="1"/>
      <rect class="cls-2" x="15.5" y="10" width="1" height="1"/>
      <rect class="cls-2" x="16.5" y="10" width="1" height="1"/>
      <rect class="cls-2" x="17.5" y="10" width="1" height="1"/>
      <rect class="cls-2" x="18.5" y="10" width="1" height="1"/>
      <rect class="cls-2" x="16.5" y="11" width="1" height="1"/>
      <rect class="cls-2" x="17.5" y="11" width="1" height="1"/>
      <rect class="cls-2" x="18.5" y="11" width="1" height="1"/>
      <rect class="cls-2" x="19.5" y="11" width="1" height="1"/>
      <rect class="cls-2" x="19.5" y="12" width="1" height="1"/>
      <rect class="cls-2" x="15.5" y="14" width="1" height="1"/>
      <rect class="cls-2" x="16.5" y="14" width="1" height="1"/>
      <rect class="cls-2" x="18.5" y="14" width="1" height="1"/>
      <rect class="cls-2" x="19.5" y="14" width="1" height="1"/>
      <rect class="cls-2" x="14.5" y="15" width="1" height="1"/>
      <rect class="cls-2" x="15.5" y="15" width="1" height="1"/>
      <rect class="cls-2" x="16.5" y="15" width="1" height="1"/>
      <rect class="cls-2" x="17.5" y="15" width="1" height="1"/>
      <rect class="cls-2" x="18.5" y="15" width="1" height="1"/>
    </g>
    <rect class="cls-1" width="35" height="37"/>
  </g>
</svg>