<?xml version="1.0" encoding="UTF-8"?>
<svg id="Layer_2" data-name="Layer 2" xmlns="http://www.w3.org/2000/svg" viewBox="0 0 29 37">
  
  <g id="Layer_1-2" data-name="Layer 1" shape-rendering="crispEdges">
    <g>
      <rect fill="#e4e3db" x="12.5" y="1" width="1" height="1"/>
      <rect fill="#e4e3db" x="13.5" y="1" width="1" height="1"/>
      <rect fill="#e4e3db" x="14.5" y="1" width="1" height="1"/>
      <rect fill="#e4e3db" x="15.5" y="1" width="1" height="1"/>
      <rect fill="#e4e3db" x="22.5" y="1" width="1" height="1"/>
      <rect fill="#e4e3db" x="23.5" y="1" width="1" height="1"/>
      <rect fill="#e4e3db" x="24.5" y="1" width="1" height="1"/>
      <rect fill="#e4e3db" x="11.5" y="2" width="1" height="1"/>
      <rect fill="#e4e3db" x="12.5" y="2" width="1" height="1"/>
      <rect fill="#e4e3db" x="13.5" y="2" width="1" height="1"/>
      <rect fill="#e4e3db" x="14.5" y="2" width="1" height="1"/>
      <rect fill="#e4e3db" x="15.5" y="2" width="1" height="1"/>
      <rect fill="#e4e3db" x="16.5" y="2" width="1" height="1"/>
      <rect fill="#e4e3db" x="21.5" y="2" width="1" height="1"/>
      <rect fill="#e4e3db" x="22.5" y="2" width="1" height="1"/>
      <rect fill="#e4e3db" x="23.5" y="2" width="1" height="1"/>
      <rect fill="#e4e3db" x="24.5" y="2" width="1" height="1"/>
      <rect fill="#e4e3db" x="25.5" y="2" width="1" height="1"/>
      <rect fill="#e4e3db" x="11.5" y="3" width="1" height="1"/>
      <rect fill="#e4e3db" x="12.5" y="3" width="1" height="1"/>
      <rect fill="#e4e3db" x="13.5" y="3" width="1" height="1"/>
      <rect fill="#e4e3db" x="14.5" y="3" width="1" height="1"/>
      <rect fill="#e4e3db" x="15.5" y="3" width="1" height="1"/>
      <rect fill="#e4e3db" x="16.5" y="3" width="1" height="1"/>
      <rect fill="#e4e3db" x="17.5" y="3" width="1" height="1"/>
      <rect fill="#e4e3db" x="21.5" y="3" width="1" height="1"/>
      <rect fill="#e4e3db" x="22.5" y="3" width="1" height="1"/>
      <rect fill="#e4e3db" x="23.5" y="3" width="1" height="1"/>
      <rect fill="#e4e3db" x="24.5" y="3" width="1" height="1"/>
      <rect fill="#e4e3db" x="25.5" y="3" width="1" height="1"/>
      <rect fill="#e4e3db" x="11.5" y="4" width="1" height="1"/>
      <rect fill="#e4e3db" x="12.5" y="4" width="1" height="1"/>
      <rect fill="#e4e3db" x="13.5" y="4" width="1" height="1"/>
      <rect fill="#e4e3db" x="14.5" y="4" width="1" height="1"/>
      <rect fill="#e4e3db" x="15.5" y="4" width="1" height="1"/>
      <rect fill="#e4e3db" x="16.5" y="4" width="1" height="1"/>
      <rect fill="#e4e3db" x="17.5" y="4" width="1" height="1"/>
      <rect fill="#e4e3db" x="22.5" y="4" width="1" height="1"/>
      <rect fill="#e4e3db" x="23.5" y="4" width="1" height="1"/>
      <rect fill="#e4e3db" x="24.5" y="4" width="1" height="1"/>
      <rect fill="#e4e3db" x="11.5" y="5" width="1" height="1"/>
      <rect fill="#e4e3db" x="12.5" y="5" width="1" height="1"/>
      <rect fill="#e4e3db" x="13.5" y="5" width="1" height="1"/>
      <rect fill="#e4e3db" x="14.5" y="5" width="1" height="1"/>
      <rect fill="#e4e3db" x="15.5" y="5" width="1" height="1"/>
      <rect fill="#e4e3db" x="16.5" y="5" width="1" height="1"/>
      <rect fill="#e4e3db" x="23.5" y="5" width="1" height="1"/>
      <rect fill="#e4e3db" x="12.5" y="6" width="1" height="1"/>
      <rect fill="#e4e3db" x="13.5" y="6" width="1" height="1"/>
      <rect fill="#e4e3db" x="14.5" y="6" width="1" height="1"/>
      <rect fill="#e4e3db" x="15.5" y="6" width="1" height="1"/>
      <rect fill="#e4e3db" x="16.5" y="6" width="1" height="1"/>
      <rect fill="#e4e3db" x="22.5" y="8" width="1" height="1"/>
      <rect fill="#e4e3db" x="23.5" y="8" width="1" height="1"/>
      <rect fill="#e4e3db" x="24.5" y="8" width="1" height="1"/>
      <rect fill="#e4e3db" x="14.5" y="9" width="1" height="1"/>
      <rect fill="#e4e3db" x="15.5" y="9" width="1" height="1"/>
      <rect fill="#e4e3db" x="16.5" y="9" width="1" height="1"/>
      <rect fill="#e4e3db" x="21.5" y="9" width="1" height="1"/>
      <rect fill="#e4e3db" x="22.5" y="9" width="1" height="1"/>
      <rect fill="#e4e3db" x="23.5" y="9" width="1" height="1"/>
      <rect fill="#e4e3db" x="24.5" y="9" width="1" height="1"/>
      <rect fill="#e4e3db" x="25.5" y="9" width="1" height="1"/>
      <rect fill="#e4e3db" x="13.5" y="10" width="1" height="1"/>
      <rect fill="#e4e3db" x="14.5" y="10" width="1" height="1"/>
      <rect fill="#e4e3db" x="15.5" y="10" width="1" height="1"/>
      <rect fill="#e4e3db" x="16.5" y="10" width="1" height="1"/>
      <rect fill="#e4e3db" x="17.5" y="10" width="1" height="1"/>
      <rect fill="#e4e3db" x="21.5" y="10" width="1" height="1"/>
      <rect fill="#e4e3db" x="22.5" y="10" width="1" height="1"/>
      <rect fill="#e4e3db" x="23.5" y="10" width="1" height="1"/>
      <rect fill="#e4e3db" x="24.5" y="10" width="1" height="1"/>
      <rect fill="#e4e3db" x="25.5" y="10" width="1" height="1"/>
      <rect fill="#e4e3db" x="13.5" y="11" width="1" height="1"/>
      <rect fill="#e4e3db" x="14.5" y="11" width="1" height="1"/>
      <rect fill="#e4e3db" x="15.5" y="11" width="1" height="1"/>
      <rect fill="#e4e3db" x="16.5" y="11" width="1" height="1"/>
      <rect fill="#e4e3db" x="17.5" y="11" width="1" height="1"/>
      <rect fill="#e4e3db" x="18.5" y="11" width="1" height="1"/>
      <rect fill="#e4e3db" x="21.5" y="11" width="1" height="1"/>
      <rect fill="#e4e3db" x="22.5" y="11" width="1" height="1"/>
      <rect fill="#e4e3db" x="23.5" y="11" width="1" height="1"/>
      <rect fill="#e4e3db" x="24.5" y="11" width="1" height="1"/>
      <rect fill="#e4e3db" x="14.5" y="12" width="1" height="1"/>
      <rect fill="#e4e3db" x="15.5" y="12" width="1" height="1"/>
      <rect fill="#e4e3db" x="16.5" y="12" width="1" height="1"/>
      <rect fill="#e4e3db" x="17.5" y="12" width="1" height="1"/>
      <rect fill="#e4e3db" x="18.5" y="12" width="1" height="1"/>
      <rect fill="#e4e3db" x="22.5" y="12" width="1" height="1"/>
      <rect fill="#e4e3db" x="23.5" y="12" width="1" height="1"/>
      <rect fill="#e4e3db" x="13.5" y="13" width="1" height="1"/>
      <rect fill="#e4e3db" x="14.5" y="13" width="1" height="1"/>
      <rect fill="#e4e3db" x="15.5" y="13" width="1" height="1"/>
      <rect fill="#e4e3db" x="16.5" y="13" width="1" height="1"/>
      <rect fill="#e4e3db" x="17.5" y="13" width="1" height="1"/>
      <rect fill="#e4e3db" x="18.5" y="13" width="1" height="1"/>
      <rect fill="#e4e3db" x="19.5" y="13" width="1" height="1"/>
      <rect fill="#e4e3db" x="11.5" y="14" width="1" height="1"/>
      <rect fill="#e4e3db" x="12.5" y="14" width="1" height="1"/>
      <rect fill="#e4e3db" x="13.5" y="14" width="1" height="1"/>
      <rect fill="#e4e3db" x="14.5" y="14" width="1" height="1"/>
      <rect fill="#e4e3db" x="15.5" y="14" width="1" height="1"/>
      <rect fill="#e4e3db" x="16.5" y="14" width="1" height="1"/>
      <rect fill="#e4e3db" x="17.5" y="14" width="1" height="1"/>
      <rect fill="#e4e3db" x="18.5" y="14" width="1" height="1"/>
      <rect fill="#e4e3db" x="9.5" y="15" width="1" height="1"/>
      <rect fill="#e4e3db" x="10.5" y="15" width="1" height="1"/>
      <rect fill="#e4e3db" x="11.5" y="15" width="1" height="1"/>
      <rect fill="#e4e3db" x="12.5" y="15" width="1" height="1"/>
      <rect fill="#e4e3db" x="13.5" y="15" width="1" height="1"/>
      <rect fill="#e4e3db" x="14.5" y="15" width="1" height="1"/>
      <rect fill="#e4e3db" x="15.5" y="15" width="1" height="1"/>
      <rect fill="#e4e3db" x="16.5" y="15" width="1" height="1"/>
      <rect fill="#e4e3db" x="17.5" y="15" width="1" height="1"/>
      <rect fill="#e4e3db" x="8.5" y="16" width="1" height="1"/>
      <rect fill="#e4e3db" x="9.5" y="16" width="1" height="1"/>
      <rect fill="#e4e3db" x="10.5" y="16" width="1" height="1"/>
      <rect fill="#e4e3db" x="11.5" y="16" width="1" height="1"/>
      <rect fill="#e4e3db" x="12.5" y="16" width="1" height="1"/>
      <rect fill="#e4e3db" x="8.5" y="17" width="1" height="1"/>
      <rect fill="#e4e3db" x="9.5" y="17" width="1" height="1"/>
      <rect fill="#e4e3db" x="10.5" y="17" width="1" height="1"/>
      <rect fill="#e4e3db" x="11.5" y="17" width="1" height="1"/>
      <rect fill="#e4e3db" x="8.5" y="18" width="1" height="1"/>
      <rect fill="#e4e3db" x="9.5" y="18" width="1" height="1"/>
      <rect fill="#e4e3db" x="10.5" y="18" width="1" height="1"/>
      <rect fill="#e4e3db" x="11.5" y="18" width="1" height="1"/>
      <rect fill="#e4e3db" x="9.5" y="19" width="1" height="1"/>
      <rect fill="#e4e3db" x="10.5" y="19" width="1" height="1"/>
      <rect fill="#e4e3db" x="11.5" y="19" width="1" height="1"/>
      <rect fill="#e4e3db" x="12.5" y="19" width="1" height="1"/>
      <rect fill="#e4e3db" x="10.5" y="20" width="1" height="1"/>
      <rect fill="#e4e3db" x="11.5" y="20" width="1" height="1"/>
      <rect fill="#e4e3db" x="12.5" y="20" width="1" height="1"/>
      <rect fill="#e4e3db" x="13.5" y="20" width="1" height="1"/>
      <rect fill="#e4e3db" x="11.5" y="21" width="1" height="1"/>
      <rect fill="#e4e3db" x="12.5" y="21" width="1" height="1"/>
      <rect fill="#e4e3db" x="13.5" y="21" width="1" height="1"/>
      <rect fill="#e4e3db" x="14.5" y="21" width="1" height="1"/>
      <rect fill="#e4e3db" x="12.5" y="22" width="1" height="1"/>
      <rect fill="#e4e3db" x="13.5" y="22" width="1" height="1"/>
      <rect fill="#e4e3db" x="14.5" y="22" width="1" height="1"/>
      <rect fill="#e4e3db" x="15.5" y="22" width="1" height="1"/>
      <rect fill="#e4e3db" x="14.5" y="23" width="1" height="1"/>
      <rect fill="#e4e3db" x="15.5" y="23" width="1" height="1"/>
      <rect fill="#e4e3db" x="16.5" y="23" width="1" height="1"/>
      <rect fill="#e4e3db" x="15.5" y="24" width="1" height="1"/>
      <rect fill="#e4e3db" x="16.5" y="24" width="1" height="1"/>
      <rect fill="#e4e3db" x="17.5" y="24" width="1" height="1"/>
      <rect fill="#e4e3db" x="16.5" y="25" width="1" height="1"/>
      <rect fill="#e4e3db" x="17.5" y="25" width="1" height="1"/>
      <rect fill="#e4e3db" x="17.5" y="26" width="1" height="1"/>
      <rect fill="#e4e3db" x="17.5" y="27" width="1" height="1"/>
      <rect fill="#e4e3db" x="15.5" y="29" width="1" height="1"/>
      <rect fill="#e4e3db" x="14.5" y="30" width="1" height="1"/>
      <rect fill="#e4e3db" x="13.5" y="31" width="1" height="1"/>
      <rect fill="#e4e3db" x="13.5" y="32" width="1" height="1"/>
      <rect fill="#e4e3db" x="13.5" y="33" width="1" height="1"/>
      <rect fill="#e4e3db" x="13.5" y="34" width="1" height="1"/>
    </g>
    <rect fill="none" width="35" height="37"/>
  </g>
</svg>