<?xml version="1.0" encoding="UTF-8"?>
<svg id="Layer_2" data-name="Layer 2" xmlns="http://www.w3.org/2000/svg" viewBox="0 0 35 37">
  <defs>
    <style>
      .cls-1 {
        fill: none;
      }

      .cls-2 {
        fill: #e4e3db;
        isolation: isolate;
        opacity: .75;
      }
    </style>
  </defs>
  <g id="Layer_1-2" data-name="Layer 1" shape-rendering="crispEdges">
    <g>
      <rect class="cls-2" x="12.5" y="12" width="1" height="1"/>
      <rect class="cls-2" x="13.5" y="12" width="1" height="1"/>
      <rect class="cls-2" x="14.5" y="12" width="1" height="1"/>
      <rect class="cls-2" x="15.5" y="12" width="1" height="1"/>
      <rect class="cls-2" x="11.5" y="13" width="1" height="1"/>
      <rect class="cls-2" x="12.5" y="13" width="1" height="1"/>
      <rect class="cls-2" x="13.5" y="13" width="1" height="1"/>
      <rect class="cls-2" x="14.5" y="13" width="1" height="1"/>
      <rect class="cls-2" x="15.5" y="13" width="1" height="1"/>
      <rect class="cls-2" x="16.5" y="13" width="1" height="1"/>
      <rect class="cls-2" x="17.5" y="13" width="1" height="1"/>
      <rect class="cls-2" x="10.5" y="14" width="1" height="1"/>
      <rect class="cls-2" x="11.5" y="14" width="1" height="1"/>
      <rect class="cls-2" x="12.5" y="14" width="1" height="1"/>
      <rect class="cls-2" x="13.5" y="14" width="1" height="1"/>
      <rect class="cls-2" x="14.5" y="14" width="1" height="1"/>
      <rect class="cls-2" x="15.5" y="14" width="1" height="1"/>
      <rect class="cls-2" x="16.5" y="14" width="1" height="1"/>
      <rect class="cls-2" x="17.5" y="14" width="1" height="1"/>
      <rect class="cls-2" x="18.5" y="14" width="1" height="1"/>
      <rect class="cls-2" x="10.5" y="15" width="1" height="1"/>
      <rect class="cls-2" x="11.5" y="15" width="1" height="1"/>
      <rect class="cls-2" x="12.5" y="15" width="1" height="1"/>
      <rect class="cls-2" x="13.5" y="15" width="1" height="1"/>
      <rect class="cls-2" x="14.5" y="15" width="1" height="1"/>
      <rect class="cls-2" x="15.5" y="15" width="1" height="1"/>
      <rect class="cls-2" x="16.5" y="15" width="1" height="1"/>
      <rect class="cls-2" x="17.5" y="15" width="1" height="1"/>
      <rect class="cls-2" x="18.5" y="15" width="1" height="1"/>
      <rect class="cls-2" x="19.5" y="15" width="1" height="1"/>
      <rect class="cls-2" x="10.5" y="16" width="1" height="1"/>
      <rect class="cls-2" x="11.5" y="16" width="1" height="1"/>
      <rect class="cls-2" x="12.5" y="16" width="1" height="1"/>
      <rect class="cls-2" x="13.5" y="16" width="1" height="1"/>
      <rect class="cls-2" x="14.5" y="16" width="1" height="1"/>
      <rect class="cls-2" x="15.5" y="16" width="1" height="1"/>
      <rect class="cls-2" x="16.5" y="16" width="1" height="1"/>
      <rect class="cls-2" x="17.5" y="16" width="1" height="1"/>
      <rect class="cls-2" x="18.5" y="16" width="1" height="1"/>
      <rect class="cls-2" x="19.5" y="16" width="1" height="1"/>
      <rect class="cls-2" x="20.5" y="16" width="1" height="1"/>
      <rect class="cls-2" x="11.5" y="17" width="1" height="1"/>
      <rect class="cls-2" x="12.5" y="17" width="1" height="1"/>
      <rect class="cls-2" x="13.5" y="17" width="1" height="1"/>
      <rect class="cls-2" x="14.5" y="17" width="1" height="1"/>
      <rect class="cls-2" x="15.5" y="17" width="1" height="1"/>
      <rect class="cls-2" x="16.5" y="17" width="1" height="1"/>
      <rect class="cls-2" x="17.5" y="17" width="1" height="1"/>
      <rect class="cls-2" x="18.5" y="17" width="1" height="1"/>
      <rect class="cls-2" x="19.5" y="17" width="1" height="1"/>
      <rect class="cls-2" x="20.5" y="17" width="1" height="1"/>
      <rect class="cls-2" x="21.5" y="17" width="1" height="1"/>
      <rect class="cls-2" x="12.5" y="18" width="1" height="1"/>
      <rect class="cls-2" x="13.5" y="18" width="1" height="1"/>
      <rect class="cls-2" x="14.5" y="18" width="1" height="1"/>
      <rect class="cls-2" x="15.5" y="18" width="1" height="1"/>
      <rect class="cls-2" x="16.5" y="18" width="1" height="1"/>
      <rect class="cls-2" x="17.5" y="18" width="1" height="1"/>
      <rect class="cls-2" x="18.5" y="18" width="1" height="1"/>
      <rect class="cls-2" x="19.5" y="18" width="1" height="1"/>
      <rect class="cls-2" x="20.5" y="18" width="1" height="1"/>
      <rect class="cls-2" x="21.5" y="18" width="1" height="1"/>
      <rect class="cls-2" x="22.5" y="18" width="1" height="1"/>
      <rect class="cls-2" x="13.5" y="19" width="1" height="1"/>
      <rect class="cls-2" x="14.5" y="19" width="1" height="1"/>
      <rect class="cls-2" x="15.5" y="19" width="1" height="1"/>
      <rect class="cls-2" x="16.5" y="19" width="1" height="1"/>
      <rect class="cls-2" x="17.5" y="19" width="1" height="1"/>
      <rect class="cls-2" x="18.5" y="19" width="1" height="1"/>
      <rect class="cls-2" x="19.5" y="19" width="1" height="1"/>
      <rect class="cls-2" x="20.5" y="19" width="1" height="1"/>
      <rect class="cls-2" x="21.5" y="19" width="1" height="1"/>
      <rect class="cls-2" x="22.5" y="19" width="1" height="1"/>
      <rect class="cls-2" x="23.5" y="19" width="1" height="1"/>
      <rect class="cls-2" x="16.5" y="20" width="1" height="1"/>
      <rect class="cls-2" x="17.5" y="20" width="1" height="1"/>
      <rect class="cls-2" x="18.5" y="20" width="1" height="1"/>
      <rect class="cls-2" x="19.5" y="20" width="1" height="1"/>
      <rect class="cls-2" x="20.5" y="20" width="1" height="1"/>
      <rect class="cls-2" x="21.5" y="20" width="1" height="1"/>
      <rect class="cls-2" x="22.5" y="20" width="1" height="1"/>
      <rect class="cls-2" x="23.5" y="20" width="1" height="1"/>
      <rect class="cls-2" x="18.5" y="21" width="1" height="1"/>
      <rect class="cls-2" x="19.5" y="21" width="1" height="1"/>
      <rect class="cls-2" x="20.5" y="21" width="1" height="1"/>
      <rect class="cls-2" x="21.5" y="21" width="1" height="1"/>
      <rect class="cls-2" x="22.5" y="21" width="1" height="1"/>
      <rect class="cls-2" x="23.5" y="21" width="1" height="1"/>
      <rect class="cls-2" x="19.5" y="22" width="1" height="1"/>
      <rect class="cls-2" x="20.5" y="22" width="1" height="1"/>
      <rect class="cls-2" x="21.5" y="22" width="1" height="1"/>
      <rect class="cls-2" x="22.5" y="22" width="1" height="1"/>
      <rect class="cls-2" x="23.5" y="22" width="1" height="1"/>
      <rect class="cls-2" x="19.5" y="23" width="1" height="1"/>
      <rect class="cls-2" x="20.5" y="23" width="1" height="1"/>
      <rect class="cls-2" x="21.5" y="23" width="1" height="1"/>
      <rect class="cls-2" x="22.5" y="23" width="1" height="1"/>
      <rect class="cls-2" x="23.5" y="23" width="1" height="1"/>
      <rect class="cls-2" x="19.5" y="24" width="1" height="1"/>
      <rect class="cls-2" x="20.5" y="24" width="1" height="1"/>
      <rect class="cls-2" x="21.5" y="24" width="1" height="1"/>
      <rect class="cls-2" x="22.5" y="24" width="1" height="1"/>
      <rect class="cls-2" x="23.5" y="24" width="1" height="1"/>
      <rect class="cls-2" x="19.5" y="25" width="1" height="1"/>
      <rect class="cls-2" x="20.5" y="25" width="1" height="1"/>
      <rect class="cls-2" x="21.5" y="25" width="1" height="1"/>
      <rect class="cls-2" x="22.5" y="25" width="1" height="1"/>
      <rect class="cls-2" x="23.5" y="25" width="1" height="1"/>
      <rect class="cls-2" x="19.5" y="26" width="1" height="1"/>
      <rect class="cls-2" x="20.5" y="26" width="1" height="1"/>
      <rect class="cls-2" x="21.5" y="26" width="1" height="1"/>
      <rect class="cls-2" x="22.5" y="26" width="1" height="1"/>
      <rect class="cls-2" x="19.5" y="27" width="1" height="1"/>
      <rect class="cls-2" x="20.5" y="27" width="1" height="1"/>
      <rect class="cls-2" x="21.5" y="27" width="1" height="1"/>
      <rect class="cls-2" x="18.5" y="28" width="1" height="1"/>
      <rect class="cls-2" x="19.5" y="28" width="1" height="1"/>
      <rect class="cls-2" x="20.5" y="28" width="1" height="1"/>
      <rect class="cls-2" x="18.5" y="29" width="1" height="1"/>
      <rect class="cls-2" x="19.5" y="29" width="1" height="1"/>
      <rect class="cls-2" x="17.5" y="30" width="1" height="1"/>
      <rect class="cls-2" x="18.5" y="30" width="1" height="1"/>
      <rect class="cls-2" x="16.5" y="31" width="1" height="1"/>
      <rect class="cls-2" x="17.5" y="31" width="1" height="1"/>
      <rect class="cls-2" x="16.5" y="32" width="1" height="1"/>
      <rect class="cls-2" x="16.5" y="33" width="1" height="1"/>
      <rect class="cls-2" x="16.5" y="34" width="1" height="1"/>
    </g>
    <rect class="cls-1" width="35" height="37"/>
  </g>
</svg>