<?xml version="1.0" encoding="UTF-8"?>
<svg id="Layer_2" data-name="Layer 2" xmlns="http://www.w3.org/2000/svg" viewBox="0 0 29 37">
  <defs>
    <style>
      .cls-1 {
        fill: none;
      }

      .cls-2 {
        fill: #e4e3db;
        isolation: isolate;
        opacity: .75;
      }
    </style>
  </defs>
  <g id="Layer_1-2" data-name="Layer 1" shape-rendering="crispEdges">
    <g>
      <rect class="cls-2" x="21" y="1" width="1" height="1"/>
      <rect class="cls-2" x="22" y="1" width="1" height="1"/>
      <rect class="cls-2" x="23" y="1" width="1" height="1"/>
      <rect class="cls-2" x="10" y="2" width="1" height="1"/>
      <rect class="cls-2" x="11" y="2" width="1" height="1"/>
      <rect class="cls-2" x="20" y="2" width="1" height="1"/>
      <rect class="cls-2" x="21" y="2" width="1" height="1"/>
      <rect class="cls-2" x="22" y="2" width="1" height="1"/>
      <rect class="cls-2" x="13" y="3" width="1" height="1"/>
      <rect class="cls-2" x="11" y="4" width="1" height="1"/>
      <rect class="cls-2" x="12" y="4" width="1" height="1"/>
      <rect class="cls-2" x="13" y="4" width="1" height="1"/>
      <rect class="cls-2" x="14" y="4" width="1" height="1"/>
      <rect class="cls-2" x="12" y="5" width="1" height="1"/>
      <rect class="cls-2" x="13" y="5" width="1" height="1"/>
      <rect class="cls-2" x="14" y="5" width="1" height="1"/>
      <rect class="cls-2" x="22" y="8" width="1" height="1"/>
      <rect class="cls-2" x="23" y="8" width="1" height="1"/>
      <rect class="cls-2" x="14" y="9" width="1" height="1"/>
      <rect class="cls-2" x="15" y="9" width="1" height="1"/>
      <rect class="cls-2" x="22" y="9" width="1" height="1"/>
      <rect class="cls-2" x="23" y="9" width="1" height="1"/>
      <rect class="cls-2" x="24" y="9" width="1" height="1"/>
      <rect class="cls-2" x="13" y="10" width="1" height="1"/>
      <rect class="cls-2" x="14" y="10" width="1" height="1"/>
      <rect class="cls-2" x="15" y="10" width="1" height="1"/>
      <rect class="cls-2" x="16" y="10" width="1" height="1"/>
      <rect class="cls-2" x="12" y="11" width="1" height="1"/>
      <rect class="cls-2" x="13" y="11" width="1" height="1"/>
      <rect class="cls-2" x="14" y="11" width="1" height="1"/>
      <rect class="cls-2" x="15" y="11" width="1" height="1"/>
      <rect class="cls-2" x="16" y="11" width="1" height="1"/>
      <rect class="cls-2" x="12" y="12" width="1" height="1"/>
      <rect class="cls-2" x="13" y="12" width="1" height="1"/>
      <rect class="cls-2" x="15" y="12" width="1" height="1"/>
      <rect class="cls-2" x="11" y="13" width="1" height="1"/>
      <rect class="cls-2" x="12" y="13" width="1" height="1"/>
      <rect class="cls-2" x="13" y="13" width="1" height="1"/>
      <rect class="cls-2" x="12" y="14" width="1" height="1"/>
      <rect class="cls-2" x="13" y="14" width="1" height="1"/>
      <rect class="cls-2" x="14" y="14" width="1" height="1"/>
      <rect class="cls-2" x="15" y="14" width="1" height="1"/>
      <rect class="cls-2" x="16" y="14" width="1" height="1"/>
      <rect class="cls-2" x="17" y="14" width="1" height="1"/>
      <rect class="cls-2" x="18" y="14" width="1" height="1"/>
      <rect class="cls-2" x="13" y="15" width="1" height="1"/>
      <rect class="cls-2" x="14" y="15" width="1" height="1"/>
      <rect class="cls-2" x="15" y="15" width="1" height="1"/>
      <rect class="cls-2" x="16" y="15" width="1" height="1"/>
      <rect class="cls-2" x="17" y="15" width="1" height="1"/>
      <rect class="cls-2" x="18" y="15" width="1" height="1"/>
      <rect class="cls-2" x="19" y="15" width="1" height="1"/>
      <rect class="cls-2" x="18" y="16" width="1" height="1"/>
      <rect class="cls-2" x="19" y="16" width="1" height="1"/>
      <rect class="cls-2" x="19" y="17" width="1" height="1"/>
      <rect class="cls-2" x="19" y="18" width="1" height="1"/>
      <rect class="cls-2" x="18" y="19" width="1" height="1"/>
      <rect class="cls-2" x="19" y="19" width="1" height="1"/>
      <rect class="cls-2" x="17" y="20" width="1" height="1"/>
      <rect class="cls-2" x="18" y="20" width="1" height="1"/>
      <rect class="cls-2" x="16" y="21" width="1" height="1"/>
      <rect class="cls-2" x="15" y="22" width="1" height="1"/>
      <rect class="cls-2" x="14" y="23" width="1" height="1"/>
    </g>
    <rect class="cls-1" width="35" height="37"/>
  </g>
</svg>