<?xml version="1.0" encoding="UTF-8"?>
<svg id="Layer_2" data-name="Layer 2" xmlns="http://www.w3.org/2000/svg" viewBox="0 0 30 37">
  
  <g id="Layer_1-2" data-name="Layer 1" shape-rendering="crispEdges">
    <g>
      <rect fill="#e4e3db" x="17" width="1" height="1"/>
      <rect fill="#e4e3db" x="18" width="1" height="1"/>
      <rect fill="#e4e3db" x="19" width="1" height="1"/>
      <rect fill="#e4e3db" x="20" width="1" height="1"/>
      <rect fill="#e4e3db" x="21" width="1" height="1"/>
      <rect fill="#e4e3db" x="13" y="1" width="1" height="1"/>
      <rect fill="#e4e3db" x="14" y="1" width="1" height="1"/>
      <rect fill="#e4e3db" x="15" y="1" width="1" height="1"/>
      <rect fill="#e4e3db" x="16" y="1" width="1" height="1"/>
      <rect fill="#e4e3db" x="17" y="1" width="1" height="1"/>
      <rect fill="#e4e3db" x="18" y="1" width="1" height="1"/>
      <rect fill="#e4e3db" x="19" y="1" width="1" height="1"/>
      <rect fill="#e4e3db" x="20" y="1" width="1" height="1"/>
      <rect fill="#e4e3db" x="21" y="1" width="1" height="1"/>
      <rect fill="#e4e3db" x="22" y="1" width="1" height="1"/>
      <rect fill="#e4e3db" x="23" y="1" width="1" height="1"/>
      <rect fill="#e4e3db" x="12" y="2" width="1" height="1"/>
      <rect fill="#e4e3db" x="13" y="2" width="1" height="1"/>
      <rect fill="#e4e3db" x="14" y="2" width="1" height="1"/>
      <rect fill="#e4e3db" x="15" y="2" width="1" height="1"/>
      <rect fill="#e4e3db" x="16" y="2" width="1" height="1"/>
      <rect fill="#e4e3db" x="17" y="2" width="1" height="1"/>
      <rect fill="#e4e3db" x="18" y="2" width="1" height="1"/>
      <rect fill="#e4e3db" x="19" y="2" width="1" height="1"/>
      <rect fill="#e4e3db" x="20" y="2" width="1" height="1"/>
      <rect fill="#e4e3db" x="21" y="2" width="1" height="1"/>
      <rect fill="#e4e3db" x="22" y="2" width="1" height="1"/>
      <rect fill="#e4e3db" x="23" y="2" width="1" height="1"/>
      <rect fill="#e4e3db" x="24" y="2" width="1" height="1"/>
      <rect fill="#e4e3db" x="12" y="3" width="1" height="1"/>
      <rect fill="#e4e3db" x="13" y="3" width="1" height="1"/>
      <rect fill="#e4e3db" x="14" y="3" width="1" height="1"/>
      <rect fill="#e4e3db" x="15" y="3" width="1" height="1"/>
      <rect fill="#e4e3db" x="16" y="3" width="1" height="1"/>
      <rect fill="#e4e3db" x="17" y="3" width="1" height="1"/>
      <rect fill="#e4e3db" x="18" y="3" width="1" height="1"/>
      <rect fill="#e4e3db" x="19" y="3" width="1" height="1"/>
      <rect fill="#e4e3db" x="20" y="3" width="1" height="1"/>
      <rect fill="#e4e3db" x="21" y="3" width="1" height="1"/>
      <rect fill="#e4e3db" x="22" y="3" width="1" height="1"/>
      <rect fill="#e4e3db" x="23" y="3" width="1" height="1"/>
      <rect fill="#e4e3db" x="24" y="3" width="1" height="1"/>
      <rect fill="#e4e3db" x="25" y="3" width="1" height="1"/>
      <rect fill="#e4e3db" x="12" y="4" width="1" height="1"/>
      <rect fill="#e4e3db" x="13" y="4" width="1" height="1"/>
      <rect fill="#e4e3db" x="14" y="4" width="1" height="1"/>
      <rect fill="#e4e3db" x="15" y="4" width="1" height="1"/>
      <rect fill="#e4e3db" x="16" y="4" width="1" height="1"/>
      <rect fill="#e4e3db" x="17" y="4" width="1" height="1"/>
      <rect fill="#e4e3db" x="18" y="4" width="1" height="1"/>
      <rect fill="#e4e3db" x="19" y="4" width="1" height="1"/>
      <rect fill="#e4e3db" x="20" y="4" width="1" height="1"/>
      <rect fill="#e4e3db" x="21" y="4" width="1" height="1"/>
      <rect fill="#e4e3db" x="22" y="4" width="1" height="1"/>
      <rect fill="#e4e3db" x="23" y="4" width="1" height="1"/>
      <rect fill="#e4e3db" x="24" y="4" width="1" height="1"/>
      <rect fill="#e4e3db" x="25" y="4" width="1" height="1"/>
      <rect fill="#e4e3db" x="26" y="4" width="1" height="1"/>
      <rect fill="#e4e3db" x="12" y="5" width="1" height="1"/>
      <rect fill="#e4e3db" x="13" y="5" width="1" height="1"/>
      <rect fill="#e4e3db" x="14" y="5" width="1" height="1"/>
      <rect fill="#e4e3db" x="15" y="5" width="1" height="1"/>
      <rect fill="#e4e3db" x="16" y="5" width="1" height="1"/>
      <rect fill="#e4e3db" x="17" y="5" width="1" height="1"/>
      <rect fill="#e4e3db" x="18" y="5" width="1" height="1"/>
      <rect fill="#e4e3db" x="19" y="5" width="1" height="1"/>
      <rect fill="#e4e3db" x="20" y="5" width="1" height="1"/>
      <rect fill="#e4e3db" x="21" y="5" width="1" height="1"/>
      <rect fill="#e4e3db" x="22" y="5" width="1" height="1"/>
      <rect fill="#e4e3db" x="23" y="5" width="1" height="1"/>
      <rect fill="#e4e3db" x="24" y="5" width="1" height="1"/>
      <rect fill="#e4e3db" x="25" y="5" width="1" height="1"/>
      <rect fill="#e4e3db" x="26" y="5" width="1" height="1"/>
      <rect fill="#e4e3db" x="12" y="6" width="1" height="1"/>
      <rect fill="#e4e3db" x="13" y="6" width="1" height="1"/>
      <rect fill="#e4e3db" x="14" y="6" width="1" height="1"/>
      <rect fill="#e4e3db" x="15" y="6" width="1" height="1"/>
      <rect fill="#e4e3db" x="16" y="6" width="1" height="1"/>
      <rect fill="#e4e3db" x="17" y="6" width="1" height="1"/>
      <rect fill="#e4e3db" x="18" y="6" width="1" height="1"/>
      <rect fill="#e4e3db" x="19" y="6" width="1" height="1"/>
      <rect fill="#e4e3db" x="20" y="6" width="1" height="1"/>
      <rect fill="#e4e3db" x="21" y="6" width="1" height="1"/>
      <rect fill="#e4e3db" x="22" y="6" width="1" height="1"/>
      <rect fill="#e4e3db" x="23" y="6" width="1" height="1"/>
      <rect fill="#e4e3db" x="24" y="6" width="1" height="1"/>
      <rect fill="#e4e3db" x="25" y="6" width="1" height="1"/>
      <rect fill="#e4e3db" x="26" y="6" width="1" height="1"/>
      <rect fill="#e4e3db" x="13" y="7" width="1" height="1"/>
      <rect fill="#e4e3db" x="14" y="7" width="1" height="1"/>
      <rect fill="#e4e3db" x="15" y="7" width="1" height="1"/>
      <rect fill="#e4e3db" x="20" y="7" width="1" height="1"/>
      <rect fill="#e4e3db" x="21" y="7" width="1" height="1"/>
      <rect fill="#e4e3db" x="22" y="7" width="1" height="1"/>
      <rect fill="#e4e3db" x="23" y="7" width="1" height="1"/>
      <rect fill="#e4e3db" x="24" y="7" width="1" height="1"/>
      <rect fill="#e4e3db" x="25" y="7" width="1" height="1"/>
      <rect fill="#e4e3db" x="26" y="7" width="1" height="1"/>
      <rect fill="#e4e3db" x="21" y="8" width="1" height="1"/>
      <rect fill="#e4e3db" x="22" y="8" width="1" height="1"/>
      <rect fill="#e4e3db" x="23" y="8" width="1" height="1"/>
      <rect fill="#e4e3db" x="24" y="8" width="1" height="1"/>
      <rect fill="#e4e3db" x="25" y="8" width="1" height="1"/>
      <rect fill="#e4e3db" x="26" y="8" width="1" height="1"/>
      <rect fill="#e4e3db" x="15" y="9" width="1" height="1"/>
      <rect fill="#e4e3db" x="16" y="9" width="1" height="1"/>
      <rect fill="#e4e3db" x="17" y="9" width="1" height="1"/>
      <rect fill="#e4e3db" x="22" y="9" width="1" height="1"/>
      <rect fill="#e4e3db" x="23" y="9" width="1" height="1"/>
      <rect fill="#e4e3db" x="24" y="9" width="1" height="1"/>
      <rect fill="#e4e3db" x="25" y="9" width="1" height="1"/>
      <rect fill="#e4e3db" x="26" y="9" width="1" height="1"/>
      <rect fill="#e4e3db" x="12" y="10" width="1" height="1"/>
      <rect fill="#e4e3db" x="13" y="10" width="1" height="1"/>
      <rect fill="#e4e3db" x="14" y="10" width="1" height="1"/>
      <rect fill="#e4e3db" x="15" y="10" width="1" height="1"/>
      <rect fill="#e4e3db" x="16" y="10" width="1" height="1"/>
      <rect fill="#e4e3db" x="17" y="10" width="1" height="1"/>
      <rect fill="#e4e3db" x="18" y="10" width="1" height="1"/>
      <rect fill="#e4e3db" x="22" y="10" width="1" height="1"/>
      <rect fill="#e4e3db" x="23" y="10" width="1" height="1"/>
      <rect fill="#e4e3db" x="24" y="10" width="1" height="1"/>
      <rect fill="#e4e3db" x="25" y="10" width="1" height="1"/>
      <rect fill="#e4e3db" x="26" y="10" width="1" height="1"/>
      <rect fill="#e4e3db" x="11" y="11" width="1" height="1"/>
      <rect fill="#e4e3db" x="12" y="11" width="1" height="1"/>
      <rect fill="#e4e3db" x="13" y="11" width="1" height="1"/>
      <rect fill="#e4e3db" x="14" y="11" width="1" height="1"/>
      <rect fill="#e4e3db" x="15" y="11" width="1" height="1"/>
      <rect fill="#e4e3db" x="16" y="11" width="1" height="1"/>
      <rect fill="#e4e3db" x="17" y="11" width="1" height="1"/>
      <rect fill="#e4e3db" x="18" y="11" width="1" height="1"/>
      <rect fill="#e4e3db" x="19" y="11" width="1" height="1"/>
      <rect fill="#e4e3db" x="22" y="11" width="1" height="1"/>
      <rect fill="#e4e3db" x="23" y="11" width="1" height="1"/>
      <rect fill="#e4e3db" x="24" y="11" width="1" height="1"/>
      <rect fill="#e4e3db" x="25" y="11" width="1" height="1"/>
      <rect fill="#e4e3db" x="10" y="12" width="1" height="1"/>
      <rect fill="#e4e3db" x="11" y="12" width="1" height="1"/>
      <rect fill="#e4e3db" x="12" y="12" width="1" height="1"/>
      <rect fill="#e4e3db" x="13" y="12" width="1" height="1"/>
      <rect fill="#e4e3db" x="14" y="12" width="1" height="1"/>
      <rect fill="#e4e3db" x="15" y="12" width="1" height="1"/>
      <rect fill="#e4e3db" x="16" y="12" width="1" height="1"/>
      <rect fill="#e4e3db" x="17" y="12" width="1" height="1"/>
      <rect fill="#e4e3db" x="18" y="12" width="1" height="1"/>
      <rect fill="#e4e3db" x="19" y="12" width="1" height="1"/>
      <rect fill="#e4e3db" x="22" y="12" width="1" height="1"/>
      <rect fill="#e4e3db" x="23" y="12" width="1" height="1"/>
      <rect fill="#e4e3db" x="24" y="12" width="1" height="1"/>
      <rect fill="#e4e3db" x="9" y="13" width="1" height="1"/>
      <rect fill="#e4e3db" x="10" y="13" width="1" height="1"/>
      <rect fill="#e4e3db" x="11" y="13" width="1" height="1"/>
      <rect fill="#e4e3db" x="12" y="13" width="1" height="1"/>
      <rect fill="#e4e3db" x="13" y="13" width="1" height="1"/>
      <rect fill="#e4e3db" x="14" y="13" width="1" height="1"/>
      <rect fill="#e4e3db" x="15" y="13" width="1" height="1"/>
      <rect fill="#e4e3db" x="16" y="13" width="1" height="1"/>
      <rect fill="#e4e3db" x="17" y="13" width="1" height="1"/>
      <rect fill="#e4e3db" x="18" y="13" width="1" height="1"/>
      <rect fill="#e4e3db" x="19" y="13" width="1" height="1"/>
      <rect fill="#e4e3db" x="20" y="13" width="1" height="1"/>
      <rect fill="#e4e3db" x="23" y="13" width="1" height="1"/>
      <rect fill="#e4e3db" x="9" y="14" width="1" height="1"/>
      <rect fill="#e4e3db" x="10" y="14" width="1" height="1"/>
      <rect fill="#e4e3db" x="11" y="14" width="1" height="1"/>
      <rect fill="#e4e3db" x="12" y="14" width="1" height="1"/>
      <rect fill="#e4e3db" x="13" y="14" width="1" height="1"/>
      <rect fill="#e4e3db" x="14" y="14" width="1" height="1"/>
      <rect fill="#e4e3db" x="15" y="14" width="1" height="1"/>
      <rect fill="#e4e3db" x="16" y="14" width="1" height="1"/>
      <rect fill="#e4e3db" x="17" y="14" width="1" height="1"/>
      <rect fill="#e4e3db" x="18" y="14" width="1" height="1"/>
      <rect fill="#e4e3db" x="19" y="14" width="1" height="1"/>
      <rect fill="#e4e3db" x="8" y="15" width="1" height="1"/>
      <rect fill="#e4e3db" x="9" y="15" width="1" height="1"/>
      <rect fill="#e4e3db" x="10" y="15" width="1" height="1"/>
      <rect fill="#e4e3db" x="11" y="15" width="1" height="1"/>
      <rect fill="#e4e3db" x="12" y="15" width="1" height="1"/>
      <rect fill="#e4e3db" x="13" y="15" width="1" height="1"/>
      <rect fill="#e4e3db" x="14" y="15" width="1" height="1"/>
      <rect fill="#e4e3db" x="15" y="15" width="1" height="1"/>
      <rect fill="#e4e3db" x="16" y="15" width="1" height="1"/>
      <rect fill="#e4e3db" x="17" y="15" width="1" height="1"/>
      <rect fill="#e4e3db" x="18" y="15" width="1" height="1"/>
      <rect fill="#e4e3db" x="8" y="16" width="1" height="1"/>
      <rect fill="#e4e3db" x="9" y="16" width="1" height="1"/>
      <rect fill="#e4e3db" x="10" y="16" width="1" height="1"/>
      <rect fill="#e4e3db" x="11" y="16" width="1" height="1"/>
      <rect fill="#e4e3db" x="12" y="16" width="1" height="1"/>
      <rect fill="#e4e3db" x="13" y="16" width="1" height="1"/>
      <rect fill="#e4e3db" x="14" y="16" width="1" height="1"/>
      <rect fill="#e4e3db" x="15" y="16" width="1" height="1"/>
      <rect fill="#e4e3db" x="16" y="16" width="1" height="1"/>
      <rect fill="#e4e3db" x="17" y="16" width="1" height="1"/>
      <rect fill="#e4e3db" x="8" y="17" width="1" height="1"/>
      <rect fill="#e4e3db" x="9" y="17" width="1" height="1"/>
      <rect fill="#e4e3db" x="10" y="17" width="1" height="1"/>
      <rect fill="#e4e3db" x="11" y="17" width="1" height="1"/>
      <rect fill="#e4e3db" x="12" y="17" width="1" height="1"/>
      <rect fill="#e4e3db" x="13" y="17" width="1" height="1"/>
      <rect fill="#e4e3db" x="14" y="17" width="1" height="1"/>
      <rect fill="#e4e3db" x="15" y="17" width="1" height="1"/>
      <rect fill="#e4e3db" x="16" y="17" width="1" height="1"/>
      <rect fill="#e4e3db" x="9" y="18" width="1" height="1"/>
      <rect fill="#e4e3db" x="10" y="18" width="1" height="1"/>
      <rect fill="#e4e3db" x="11" y="18" width="1" height="1"/>
      <rect fill="#e4e3db" x="12" y="18" width="1" height="1"/>
      <rect fill="#e4e3db" x="13" y="18" width="1" height="1"/>
      <rect fill="#e4e3db" x="14" y="18" width="1" height="1"/>
      <rect fill="#e4e3db" x="15" y="18" width="1" height="1"/>
      <rect fill="#e4e3db" x="10" y="19" width="1" height="1"/>
      <rect fill="#e4e3db" x="11" y="19" width="1" height="1"/>
      <rect fill="#e4e3db" x="12" y="19" width="1" height="1"/>
      <rect fill="#e4e3db" x="13" y="19" width="1" height="1"/>
      <rect fill="#e4e3db" x="14" y="19" width="1" height="1"/>
      <rect fill="#e4e3db" x="11" y="20" width="1" height="1"/>
      <rect fill="#e4e3db" x="12" y="20" width="1" height="1"/>
      <rect fill="#e4e3db" x="13" y="20" width="1" height="1"/>
      <rect fill="#e4e3db" x="14" y="20" width="1" height="1"/>
      <rect fill="#e4e3db" x="12" y="21" width="1" height="1"/>
      <rect fill="#e4e3db" x="13" y="21" width="1" height="1"/>
      <rect fill="#e4e3db" x="14" y="21" width="1" height="1"/>
      <rect fill="#e4e3db" x="15" y="21" width="1" height="1"/>
      <rect fill="#e4e3db" x="13" y="22" width="1" height="1"/>
      <rect fill="#e4e3db" x="14" y="22" width="1" height="1"/>
      <rect fill="#e4e3db" x="15" y="22" width="1" height="1"/>
      <rect fill="#e4e3db" x="16" y="22" width="1" height="1"/>
      <rect fill="#e4e3db" x="15" y="23" width="1" height="1"/>
      <rect fill="#e4e3db" x="16" y="23" width="1" height="1"/>
      <rect fill="#e4e3db" x="17" y="23" width="1" height="1"/>
      <rect fill="#e4e3db" x="16" y="24" width="1" height="1"/>
      <rect fill="#e4e3db" x="17" y="24" width="1" height="1"/>
      <rect fill="#e4e3db" x="18" y="24" width="1" height="1"/>
      <rect fill="#e4e3db" x="17" y="25" width="1" height="1"/>
      <rect fill="#e4e3db" x="18" y="25" width="1" height="1"/>
      <rect fill="#e4e3db" x="17" y="26" width="1" height="1"/>
      <rect fill="#e4e3db" x="18" y="26" width="1" height="1"/>
      <rect fill="#e4e3db" x="17" y="27" width="1" height="1"/>
      <rect fill="#e4e3db" x="18" y="27" width="1" height="1"/>
      <rect fill="#e4e3db" x="16" y="28" width="1" height="1"/>
      <rect fill="#e4e3db" x="17" y="28" width="1" height="1"/>
      <rect fill="#e4e3db" x="16" y="29" width="1" height="1"/>
      <rect fill="#e4e3db" x="15" y="30" width="1" height="1"/>
      <rect fill="#e4e3db" x="14" y="31" width="1" height="1"/>
      <rect fill="#e4e3db" x="14" y="32" width="1" height="1"/>
      <rect fill="#e4e3db" x="14" y="33" width="1" height="1"/>
      <rect fill="#e4e3db" x="14" y="34" width="1" height="1"/>
    </g>
    <rect fill="none" width="35" height="37"/>
  </g>
</svg>