<?xml version="1.0" encoding="UTF-8"?>
<svg id="Layer_2" data-name="Layer 2" xmlns="http://www.w3.org/2000/svg" viewBox="0 0 28 37">
  
  <g id="Layer_1-2" data-name="Layer 1" shape-rendering="crispEdges">
    <rect fill="#896c2a" x="7" width="1" height="1"/>
    <rect fill="#b4944c" x="6" y="1" width="1" height="1"/>
    <rect fill="#b4944c" x="7" y="1" width="1" height="1"/>
    <rect fill="#896c2a" x="8" y="1" width="1" height="1"/>
    <rect fill="#ffddce" x="11" y="1" width="1" height="1"/>
    <rect fill="#ffddce" x="12" y="1" width="1" height="1"/>
    <rect fill="#ffddce" x="13" y="1" width="1" height="1"/>
    <rect fill="#ffddce" x="14" y="1" width="1" height="1"/>
    <rect fill="#ffddce" x="15" y="1" width="1" height="1"/>
    <rect fill="#ffddce" x="16" y="1" width="1" height="1"/>
    <rect fill="#b4944c" x="6" y="2" width="1" height="1"/>
    <rect fill="#b4944c" x="7" y="2" width="1" height="1"/>
    <rect fill="#b4944c" x="8" y="2" width="1" height="1"/>
    <rect fill="#896c2a" x="9" y="2" width="1" height="1"/>
    <rect fill="#e6926c" x="10" y="2" width="1" height="1"/>
    <rect fill="#e6926c" x="11" y="2" width="1" height="1"/>
    <rect fill="#e6926c" x="12" y="2" width="1" height="1"/>
    <rect fill="#e6926c" x="13" y="2" width="1" height="1"/>
    <rect fill="#e6926c" x="14" y="2" width="1" height="1"/>
    <rect fill="#e6926c" x="15" y="2" width="1" height="1"/>
    <rect fill="#e6926c" x="16" y="2" width="1" height="1"/>
    <rect fill="#ffddce" x="17" y="2" width="1" height="1"/>
    <rect fill="#ffddce" x="18" y="2" width="1" height="1"/>
    <rect fill="#ffddce" x="19" y="2" width="1" height="1"/>
    <rect fill="#fff" x="6" y="3" width="1" height="1"/>
    <rect fill="#fff" x="7" y="3" width="1" height="1"/>
    <rect fill="#fff" x="8" y="3" width="1" height="1"/>
    <rect fill="#fff" x="9" y="3" width="1" height="1"/>
    <rect fill="#fff" x="10" y="3" width="1" height="1"/>
    <rect fill="#efdfbd" x="11" y="3" width="1" height="1"/>
    <rect fill="#e6926c" x="12" y="3" width="1" height="1"/>
    <rect fill="#e6926c" x="13" y="3" width="1" height="1"/>
    <rect fill="#e6926c" x="14" y="3" width="1" height="1"/>
    <rect fill="#e6926c" x="15" y="3" width="1" height="1"/>
    <rect fill="#e6926c" x="16" y="3" width="1" height="1"/>
    <rect fill="#e6926c" x="17" y="3" width="1" height="1"/>
    <rect fill="#e6926c" x="18" y="3" width="1" height="1"/>
    <rect fill="#e6926c" x="19" y="3" width="1" height="1"/>
    <rect fill="#ffddce" x="20" y="3" width="1" height="1"/>
    <rect fill="#fff" x="5" y="4" width="1" height="1"/>
    <rect fill="#fff" x="6" y="4" width="1" height="1"/>
    <rect fill="#fff" x="7" y="4" width="1" height="1"/>
    <rect fill="#fff" x="8" y="4" width="1" height="1"/>
    <rect fill="#fff" x="9" y="4" width="1" height="1"/>
    <rect fill="#fff" x="10" y="4" width="1" height="1"/>
    <rect fill="#896c2a" x="11" y="4" width="1" height="1"/>
    <rect fill="#d0b068" x="12" y="4" width="1" height="1"/>
    <rect fill="#efaa8a" x="13" y="4" width="1" height="1"/>
    <rect fill="#efaa8a" x="14" y="4" width="1" height="1"/>
    <rect fill="#efaa8a" x="15" y="4" width="1" height="1"/>
    <rect fill="#efaa8a" x="16" y="4" width="1" height="1"/>
    <rect fill="#f7b99d" x="17" y="4" width="1" height="1"/>
    <rect fill="#e6926c" x="18" y="4" width="1" height="1"/>
    <rect fill="#e6926c" x="19" y="4" width="1" height="1"/>
    <rect fill="#e6926c" x="20" y="4" width="1" height="1"/>
    <rect fill="#ffddce" x="21" y="4" width="1" height="1"/>
    <rect fill="#ffddce" x="22" y="4" width="1" height="1"/>
    <rect fill="#896c2a" x="1" y="5" width="1" height="1"/>
    <rect fill="#896c2a" x="2" y="5" width="1" height="1"/>
    <rect fill="#896c2a" x="3" y="5" width="1" height="1"/>
    <rect fill="#fff" x="4" y="5" width="1" height="1"/>
    <rect fill="#fff" x="5" y="5" width="1" height="1"/>
    <rect fill="#fff" x="6" y="5" width="1" height="1"/>
    <rect fill="#fff" x="7" y="5" width="1" height="1"/>
    <rect fill="#fff" x="8" y="5" width="1" height="1"/>
    <rect fill="#fff" x="9" y="5" width="1" height="1"/>
    <rect fill="#fff" x="10" y="5" width="1" height="1"/>
    <rect fill="#896c2a" x="11" y="5" width="1" height="1"/>
    <rect fill="#d0b068" x="12" y="5" width="1" height="1"/>
    <rect fill="#b4944c" x="13" y="5" width="1" height="1"/>
    <rect fill="#fff7e6" x="14" y="5" width="1" height="1"/>
    <rect fill="#e4dec5" x="15" y="5" width="1" height="1"/>
    <rect fill="#efaa8a" x="16" y="5" width="1" height="1"/>
    <rect fill="#efaa8a" x="17" y="5" width="1" height="1"/>
    <rect fill="#efaa8a" x="18" y="5" width="1" height="1"/>
    <rect fill="#efaa8a" x="19" y="5" width="1" height="1"/>
    <rect fill="#e6926c" x="20" y="5" width="1" height="1"/>
    <rect fill="#e6926c" x="21" y="5" width="1" height="1"/>
    <rect fill="#e6926c" x="22" y="5" width="1" height="1"/>
    <rect fill="#ffddce" x="23" y="5" width="1" height="1"/>
    <rect fill="#b4944c" x="1" y="6" width="1" height="1"/>
    <rect fill="#b4944c" x="2" y="6" width="1" height="1"/>
    <rect fill="#b4944c" x="3" y="6" width="1" height="1"/>
    <rect fill="#fff" x="4" y="6" width="1" height="1"/>
    <rect fill="#fff" x="5" y="6" width="1" height="1"/>
    <rect fill="#fff" x="6" y="6" width="1" height="1"/>
    <rect fill="#fff" x="7" y="6" width="1" height="1"/>
    <rect fill="#fff" x="8" y="6" width="1" height="1"/>
    <rect fill="#fff" x="9" y="6" width="1" height="1"/>
    <rect fill="#896c2a" x="10" y="6" width="1" height="1"/>
    <rect fill="#d0b068" x="11" y="6" width="1" height="1"/>
    <rect x="12" y="6" width="1" height="1"/>
    <rect fill="#ebd5a3" x="13" y="6" width="1" height="1"/>
    <rect fill="#b4944c" x="14" y="6" width="1" height="1"/>
    <rect fill="#fff" x="15" y="6" width="1" height="1"/>
    <rect fill="#e4dec5" x="16" y="6" width="1" height="1"/>
    <rect fill="#f7b99d" x="17" y="6" width="1" height="1"/>
    <rect fill="#f7b99d" x="18" y="6" width="1" height="1"/>
    <rect fill="#f7b99d" x="19" y="6" width="1" height="1"/>
    <rect fill="#efaa8a" x="20" y="6" width="1" height="1"/>
    <rect fill="#e6926c" x="21" y="6" width="1" height="1"/>
    <rect fill="#e6926c" x="22" y="6" width="1" height="1"/>
    <rect fill="#e6926c" x="23" y="6" width="1" height="1"/>
    <rect fill="#ffddce" x="24" y="6" width="1" height="1"/>
    <rect fill="#b4944c" x="1" y="7" width="1" height="1"/>
    <rect fill="#b4944c" x="2" y="7" width="1" height="1"/>
    <rect fill="#fff" x="3" y="7" width="1" height="1"/>
    <rect fill="#fff" x="4" y="7" width="1" height="1"/>
    <rect fill="#fff" x="5" y="7" width="1" height="1"/>
    <rect fill="#fff" x="6" y="7" width="1" height="1"/>
    <rect fill="#896c2a" x="7" y="7" width="1" height="1"/>
    <rect fill="#896c2a" x="8" y="7" width="1" height="1"/>
    <rect fill="#896c2a" x="9" y="7" width="1" height="1"/>
    <rect fill="#e48f69" x="10" y="7" width="1" height="1"/>
    <rect fill="#d8d4c3" x="11" y="7" width="1" height="1"/>
    <rect fill="#fff" x="12" y="7" width="1" height="1"/>
    <rect fill="#fff" x="13" y="7" width="1" height="1"/>
    <rect fill="#b4944c" x="14" y="7" width="1" height="1"/>
    <rect fill="#fff" x="15" y="7" width="1" height="1"/>
    <rect fill="#fff" x="16" y="7" width="1" height="1"/>
    <rect fill="#e6926c" x="17" y="7" width="1" height="1"/>
    <rect fill="#e6926c" x="18" y="7" width="1" height="1"/>
    <rect fill="#e6926c" x="19" y="7" width="1" height="1"/>
    <rect fill="#f7b99d" x="20" y="7" width="1" height="1"/>
    <rect fill="#fbc0a4" x="21" y="7" width="1" height="1"/>
    <rect fill="#e6926c" x="22" y="7" width="1" height="1"/>
    <rect fill="#e6926c" x="23" y="7" width="1" height="1"/>
    <rect fill="#ffddce" x="24" y="7" width="1" height="1"/>
    <rect fill="#b4944c" x="2" y="8" width="1" height="1"/>
    <rect fill="#fff" x="3" y="8" width="1" height="1"/>
    <rect fill="#fff" x="4" y="8" width="1" height="1"/>
    <rect fill="#fff" x="5" y="8" width="1" height="1"/>
    <rect fill="#d0b068" x="6" y="8" width="1" height="1"/>
    <rect fill="#d0b068" x="7" y="8" width="1" height="1"/>
    <rect fill="#d0b068" x="8" y="8" width="1" height="1"/>
    <rect fill="#d0b068" x="9" y="8" width="1" height="1"/>
    <rect fill="#d8d4c3" x="10" y="8" width="1" height="1"/>
    <rect fill="#d8d4c3" x="11" y="8" width="1" height="1"/>
    <rect fill="#fff" x="12" y="8" width="1" height="1"/>
    <rect fill="#fff" x="13" y="8" width="1" height="1"/>
    <rect fill="#b4944c" x="14" y="8" width="1" height="1"/>
    <rect fill="#fff" x="15" y="8" width="1" height="1"/>
    <rect fill="#fff" x="16" y="8" width="1" height="1"/>
    <rect fill="#c4744f" x="17" y="8" width="1" height="1"/>
    <rect fill="#c4744f" x="18" y="8" width="1" height="1"/>
    <rect fill="#e6926c" x="19" y="8" width="1" height="1"/>
    <rect fill="#e6926c" x="20" y="8" width="1" height="1"/>
    <rect fill="#f7b99d" x="21" y="8" width="1" height="1"/>
    <rect fill="#fbc0a4" x="22" y="8" width="1" height="1"/>
    <rect fill="#e6926c" x="23" y="8" width="1" height="1"/>
    <rect fill="#e6926c" x="24" y="8" width="1" height="1"/>
    <rect fill="#ffddce" x="25" y="8" width="1" height="1"/>
    <rect fill="#e6926c" x="1" y="9" width="1" height="1"/>
    <rect fill="#fff" x="2" y="9" width="1" height="1"/>
    <rect fill="#fff" x="3" y="9" width="1" height="1"/>
    <rect fill="#fff" x="4" y="9" width="1" height="1"/>
    <rect fill="#fff" x="5" y="9" width="1" height="1"/>
    <rect fill="#d0b068" x="6" y="9" width="1" height="1"/>
    <rect fill="#d0b068" x="7" y="9" width="1" height="1"/>
    <rect fill="#ebd5a3" x="8" y="9" width="1" height="1"/>
    <rect x="9" y="9" width="1" height="1"/>
    <rect fill="#fff" x="10" y="9" width="1" height="1"/>
    <rect fill="#fff" x="11" y="9" width="1" height="1"/>
    <rect fill="#fff" x="12" y="9" width="1" height="1"/>
    <rect fill="#e4dec5" x="13" y="9" width="1" height="1"/>
    <rect fill="#d8d4c3" x="14" y="9" width="1" height="1"/>
    <rect fill="#d8d4c3" x="15" y="9" width="1" height="1"/>
    <rect fill="#c4744f" x="19" y="9" width="1" height="1"/>
    <rect fill="#e6926c" x="20" y="9" width="1" height="1"/>
    <rect fill="#e6926c" x="21" y="9" width="1" height="1"/>
    <rect fill="#e6926c" x="22" y="9" width="1" height="1"/>
    <rect fill="#f7b99d" x="23" y="9" width="1" height="1"/>
    <rect fill="#e6926c" x="24" y="9" width="1" height="1"/>
    <rect fill="#e6926c" x="25" y="9" width="1" height="1"/>
    <rect fill="#ffddce" x="26" y="9" width="1" height="1"/>
    <rect fill="#e6926c" x="1" y="10" width="1" height="1"/>
    <rect fill="#b16d4e" x="2" y="10" width="1" height="1"/>
    <rect fill="#fff" x="3" y="10" width="1" height="1"/>
    <rect fill="#fff" x="4" y="10" width="1" height="1"/>
    <rect fill="#fff" x="5" y="10" width="1" height="1"/>
    <rect fill="#d0b068" x="6" y="10" width="1" height="1"/>
    <rect fill="#ebd5a3" x="7" y="10" width="1" height="1"/>
    <rect fill="#ebd5a3" x="8" y="10" width="1" height="1"/>
    <rect fill="#ebd5a3" x="9" y="10" width="1" height="1"/>
    <rect fill="#fff" x="10" y="10" width="1" height="1"/>
    <rect fill="#fff" x="11" y="10" width="1" height="1"/>
    <rect fill="#e4dec5" x="12" y="10" width="1" height="1"/>
    <rect fill="#b4a787" x="13" y="10" width="1" height="1"/>
    <rect fill="#d8d4c3" x="14" y="10" width="1" height="1"/>
    <rect fill="#d8d4c3" x="15" y="10" width="1" height="1"/>
    <rect fill="#fff" x="16" y="10" width="1" height="1"/>
    <rect fill="#fff" x="17" y="10" width="1" height="1"/>
    <rect fill="#fff" x="18" y="10" width="1" height="1"/>
    <rect fill="#e6926c" x="20" y="10" width="1" height="1"/>
    <rect fill="#e6926c" x="21" y="10" width="1" height="1"/>
    <rect fill="#e6926c" x="22" y="10" width="1" height="1"/>
    <rect fill="#e6926c" x="23" y="10" width="1" height="1"/>
    <rect fill="#e6926c" x="24" y="10" width="1" height="1"/>
    <rect fill="#e6926c" x="25" y="10" width="1" height="1"/>
    <rect fill="#ffddce" x="26" y="10" width="1" height="1"/>
    <rect fill="#e6926c" x="1" y="11" width="1" height="1"/>
    <rect fill="#e6926c" x="2" y="11" width="1" height="1"/>
    <rect fill="#e4dec5" x="3" y="11" width="1" height="1"/>
    <rect fill="#fff" x="4" y="11" width="1" height="1"/>
    <rect fill="#fff" x="5" y="11" width="1" height="1"/>
    <rect fill="#fff" x="6" y="11" width="1" height="1"/>
    <rect fill="#ebd5a3" x="7" y="11" width="1" height="1"/>
    <rect fill="#ebd5a3" x="8" y="11" width="1" height="1"/>
    <rect fill="#fff" x="9" y="11" width="1" height="1"/>
    <rect fill="#fff" x="10" y="11" width="1" height="1"/>
    <rect fill="#e4dec5" x="11" y="11" width="1" height="1"/>
    <rect fill="#b4a787" x="12" y="11" width="1" height="1"/>
    <rect fill="#d8d4c3" x="13" y="11" width="1" height="1"/>
    <rect fill="#d8d4c3" x="14" y="11" width="1" height="1"/>
    <rect fill="#fff" x="15" y="11" width="1" height="1"/>
    <rect fill="#fff" x="16" y="11" width="1" height="1"/>
    <rect fill="#fff" x="17" y="11" width="1" height="1"/>
    <rect fill="#fff" x="18" y="11" width="1" height="1"/>
    <rect fill="#fff" x="19" y="11" width="1" height="1"/>
    <rect fill="#fff" x="20" y="11" width="1" height="1"/>
    <rect fill="#e6926c" x="21" y="11" width="1" height="1"/>
    <rect fill="#e6926c" x="22" y="11" width="1" height="1"/>
    <rect fill="#e6926c" x="23" y="11" width="1" height="1"/>
    <rect fill="#e6926c" x="24" y="11" width="1" height="1"/>
    <rect fill="#e6926c" x="25" y="11" width="1" height="1"/>
    <rect fill="#ffddce" x="26" y="11" width="1" height="1"/>
    <rect fill="#e6926c" y="12" width="1" height="1"/>
    <rect fill="#e6926c" x="1" y="12" width="1" height="1"/>
    <rect fill="#e6926c" x="2" y="12" width="1" height="1"/>
    <rect fill="#b16d4e" x="3" y="12" width="1" height="1"/>
    <rect fill="#e4dec5" x="4" y="12" width="1" height="1"/>
    <rect fill="#fff" x="5" y="12" width="1" height="1"/>
    <rect fill="#fff" x="6" y="12" width="1" height="1"/>
    <rect fill="#fff" x="7" y="12" width="1" height="1"/>
    <rect fill="#fff" x="8" y="12" width="1" height="1"/>
    <rect fill="#fff" x="9" y="12" width="1" height="1"/>
    <rect fill="#fff" x="10" y="12" width="1" height="1"/>
    <rect fill="#b4a787" x="11" y="12" width="1" height="1"/>
    <rect fill="#d8d4c3" x="12" y="12" width="1" height="1"/>
    <rect fill="#d8d4c3" x="13" y="12" width="1" height="1"/>
    <rect fill="#fff" x="14" y="12" width="1" height="1"/>
    <rect fill="#fff" x="15" y="12" width="1" height="1"/>
    <rect fill="#fff" x="16" y="12" width="1" height="1"/>
    <rect fill="#fff" x="17" y="12" width="1" height="1"/>
    <rect fill="#fff" x="18" y="12" width="1" height="1"/>
    <rect fill="#fff" x="19" y="12" width="1" height="1"/>
    <rect fill="#fff" x="20" y="12" width="1" height="1"/>
    <rect fill="#fff" x="21" y="12" width="1" height="1"/>
    <rect fill="#e6926c" x="22" y="12" width="1" height="1"/>
    <rect fill="#e4dec5" x="23" y="12" width="1" height="1"/>
    <rect fill="#b4944c" x="24" y="12" width="1" height="1"/>
    <rect fill="#e6926c" x="25" y="12" width="1" height="1"/>
    <rect fill="#e6926c" x="26" y="12" width="1" height="1"/>
    <rect fill="#f7b99d" x="27" y="12" width="1" height="1"/>
    <rect fill="#e6926c" y="13" width="1" height="1"/>
    <rect fill="#e6926c" x="1" y="13" width="1" height="1"/>
    <rect fill="#e6926c" x="2" y="13" width="1" height="1"/>
    <rect fill="#b16d4e" x="3" y="13" width="1" height="1"/>
    <rect fill="#b16d4e" x="4" y="13" width="1" height="1"/>
    <rect fill="#e4dec5" x="5" y="13" width="1" height="1"/>
    <rect fill="#fff" x="6" y="13" width="1" height="1"/>
    <rect fill="#fff" x="7" y="13" width="1" height="1"/>
    <rect fill="#fff" x="8" y="13" width="1" height="1"/>
    <rect fill="#fff" x="9" y="13" width="1" height="1"/>
    <rect fill="#d8d4c3" x="10" y="13" width="1" height="1"/>
    <rect fill="#e4dec5" x="11" y="13" width="1" height="1"/>
    <rect fill="#e4dec5" x="12" y="13" width="1" height="1"/>
    <rect fill="#fff" x="13" y="13" width="1" height="1"/>
    <rect fill="#fff" x="14" y="13" width="1" height="1"/>
    <rect fill="#fff" x="15" y="13" width="1" height="1"/>
    <rect fill="#fff" x="16" y="13" width="1" height="1"/>
    <rect fill="#fff" x="17" y="13" width="1" height="1"/>
    <rect fill="#fff" x="18" y="13" width="1" height="1"/>
    <rect fill="#fff" x="19" y="13" width="1" height="1"/>
    <rect fill="#fff" x="20" y="13" width="1" height="1"/>
    <rect fill="#fff" x="21" y="13" width="1" height="1"/>
    <rect fill="#e4dec5" x="22" y="13" width="1" height="1"/>
    <rect fill="#fff" x="23" y="13" width="1" height="1"/>
    <rect fill="#e4dec5" x="24" y="13" width="1" height="1"/>
    <rect fill="#e6926c" x="25" y="13" width="1" height="1"/>
    <rect fill="#e6926c" x="26" y="13" width="1" height="1"/>
    <rect fill="#f7b99d" x="27" y="13" width="1" height="1"/>
    <rect fill="#e6926c" y="14" width="1" height="1"/>
    <rect fill="#e6926c" x="1" y="14" width="1" height="1"/>
    <rect fill="#e6926c" x="2" y="14" width="1" height="1"/>
    <rect fill="#e6926c" x="3" y="14" width="1" height="1"/>
    <rect fill="#b16d4e" x="4" y="14" width="1" height="1"/>
    <rect fill="#b16d4e" x="5" y="14" width="1" height="1"/>
    <rect fill="#fff" x="6" y="14" width="1" height="1"/>
    <rect fill="#fff" x="7" y="14" width="1" height="1"/>
    <rect fill="#fff" x="8" y="14" width="1" height="1"/>
    <rect fill="#fff" x="9" y="14" width="1" height="1"/>
    <rect fill="#e4dec5" x="10" y="14" width="1" height="1"/>
    <rect fill="#fff" x="11" y="14" width="1" height="1"/>
    <rect fill="#fff" x="12" y="14" width="1" height="1"/>
    <rect fill="#e4dec5" x="13" y="14" width="1" height="1"/>
    <rect fill="#fff" x="14" y="14" width="1" height="1"/>
    <rect fill="#fff" x="15" y="14" width="1" height="1"/>
    <rect fill="#fff" x="16" y="14" width="1" height="1"/>
    <rect fill="#fff" x="17" y="14" width="1" height="1"/>
    <rect fill="#fff" x="18" y="14" width="1" height="1"/>
    <rect fill="#fff" x="19" y="14" width="1" height="1"/>
    <rect fill="#fff" x="20" y="14" width="1" height="1"/>
    <rect fill="#fff" x="21" y="14" width="1" height="1"/>
    <rect fill="#fff" x="22" y="14" width="1" height="1"/>
    <rect fill="#fff" x="23" y="14" width="1" height="1"/>
    <rect fill="#b4944c" x="24" y="14" width="1" height="1"/>
    <rect fill="#e6926c" x="25" y="14" width="1" height="1"/>
    <rect fill="#e6926c" x="26" y="14" width="1" height="1"/>
    <rect fill="#f7b99d" x="27" y="14" width="1" height="1"/>
    <rect fill="#e6926c" y="15" width="1" height="1"/>
    <rect fill="#e6926c" x="1" y="15" width="1" height="1"/>
    <rect fill="#e6926c" x="2" y="15" width="1" height="1"/>
    <rect fill="#e6926c" x="3" y="15" width="1" height="1"/>
    <rect fill="#b16d4e" x="4" y="15" width="1" height="1"/>
    <rect fill="#b16d4e" x="5" y="15" width="1" height="1"/>
    <rect fill="#b16d4e" x="6" y="15" width="1" height="1"/>
    <rect fill="#e4dec5" x="7" y="15" width="1" height="1"/>
    <rect fill="#fff" x="8" y="15" width="1" height="1"/>
    <rect fill="#e4dec5" x="9" y="15" width="1" height="1"/>
    <rect fill="#fff" x="10" y="15" width="1" height="1"/>
    <rect fill="#fff" x="11" y="15" width="1" height="1"/>
    <rect fill="#fff" x="12" y="15" width="1" height="1"/>
    <rect fill="#e4dec5" x="13" y="15" width="1" height="1"/>
    <rect fill="#d8d4c3" x="14" y="15" width="1" height="1"/>
    <rect fill="#fff" x="15" y="15" width="1" height="1"/>
    <rect fill="#fff" x="16" y="15" width="1" height="1"/>
    <rect fill="#fff" x="17" y="15" width="1" height="1"/>
    <rect fill="#fff" x="18" y="15" width="1" height="1"/>
    <rect fill="#fff" x="19" y="15" width="1" height="1"/>
    <rect fill="#fff" x="20" y="15" width="1" height="1"/>
    <rect fill="#fff" x="21" y="15" width="1" height="1"/>
    <rect fill="#fff" x="22" y="15" width="1" height="1"/>
    <rect fill="#e4dec5" x="23" y="15" width="1" height="1"/>
    <rect fill="#b4944c" x="24" y="15" width="1" height="1"/>
    <rect fill="#e6926c" x="25" y="15" width="1" height="1"/>
    <rect fill="#e6926c" x="26" y="15" width="1" height="1"/>
    <rect fill="#f7b99d" x="27" y="15" width="1" height="1"/>
    <rect fill="#e6926c" y="16" width="1" height="1"/>
    <rect fill="#e6926c" x="1" y="16" width="1" height="1"/>
    <rect fill="#e6926c" x="2" y="16" width="1" height="1"/>
    <rect fill="#e6926c" x="3" y="16" width="1" height="1"/>
    <rect fill="#e6926c" x="4" y="16" width="1" height="1"/>
    <rect fill="#b16d4e" x="5" y="16" width="1" height="1"/>
    <rect fill="#b16d4e" x="6" y="16" width="1" height="1"/>
    <rect fill="#2996b1" x="7" y="16" width="1" height="1"/>
    <rect fill="#e4dec5" x="8" y="16" width="1" height="1"/>
    <rect fill="#fff" x="9" y="16" width="1" height="1"/>
    <rect fill="#fff" x="10" y="16" width="1" height="1"/>
    <rect fill="#e4dec5" x="11" y="16" width="1" height="1"/>
    <rect fill="#e4dec5" x="12" y="16" width="1" height="1"/>
    <rect fill="#b4a787" x="13" y="16" width="1" height="1"/>
    <rect fill="#d8d4c3" x="14" y="16" width="1" height="1"/>
    <rect fill="#fff" x="15" y="16" width="1" height="1"/>
    <rect fill="#fff" x="16" y="16" width="1" height="1"/>
    <rect fill="#fff" x="17" y="16" width="1" height="1"/>
    <rect fill="#fff" x="18" y="16" width="1" height="1"/>
    <rect fill="#fff" x="19" y="16" width="1" height="1"/>
    <rect fill="#fff" x="20" y="16" width="1" height="1"/>
    <rect fill="#fff" x="21" y="16" width="1" height="1"/>
    <rect fill="#e4dec5" x="22" y="16" width="1" height="1"/>
    <rect fill="#b16d4e" x="23" y="16" width="1" height="1"/>
    <rect fill="#e6926c" x="24" y="16" width="1" height="1"/>
    <rect fill="#e6926c" x="25" y="16" width="1" height="1"/>
    <rect fill="#e6926c" x="26" y="16" width="1" height="1"/>
    <rect fill="#f7b99d" x="27" y="16" width="1" height="1"/>
    <rect fill="#d0805c" y="17" width="1" height="1"/>
    <rect fill="#e6926c" x="1" y="17" width="1" height="1"/>
    <rect fill="#e6926c" x="2" y="17" width="1" height="1"/>
    <rect fill="#e6926c" x="3" y="17" width="1" height="1"/>
    <rect fill="#e6926c" x="4" y="17" width="1" height="1"/>
    <rect fill="#e6926c" x="5" y="17" width="1" height="1"/>
    <rect fill="#b16d4e" x="6" y="17" width="1" height="1"/>
    <rect fill="#2996b1" x="7" y="17" width="1" height="1"/>
    <rect fill="#2996b1" x="8" y="17" width="1" height="1"/>
    <rect fill="#e4dec5" x="9" y="17" width="1" height="1"/>
    <rect fill="#e4dec5" x="10" y="17" width="1" height="1"/>
    <rect fill="#b4a787" x="11" y="17" width="1" height="1"/>
    <rect fill="#b4a787" x="12" y="17" width="1" height="1"/>
    <rect fill="#d8d4c3" x="13" y="17" width="1" height="1"/>
    <rect fill="#fff" x="14" y="17" width="1" height="1"/>
    <rect fill="#fff" x="15" y="17" width="1" height="1"/>
    <rect fill="#fff" x="16" y="17" width="1" height="1"/>
    <rect fill="#fff" x="17" y="17" width="1" height="1"/>
    <rect fill="#fff" x="18" y="17" width="1" height="1"/>
    <rect fill="#fff" x="19" y="17" width="1" height="1"/>
    <rect fill="#fff" x="20" y="17" width="1" height="1"/>
    <rect fill="#fff" x="21" y="17" width="1" height="1"/>
    <rect fill="#b16d4e" x="22" y="17" width="1" height="1"/>
    <rect fill="#e6926c" x="23" y="17" width="1" height="1"/>
    <rect fill="#e6926c" x="24" y="17" width="1" height="1"/>
    <rect fill="#e6926c" x="25" y="17" width="1" height="1"/>
    <rect fill="#e6926c" x="26" y="17" width="1" height="1"/>
    <rect fill="#f7b99d" x="27" y="17" width="1" height="1"/>
    <rect fill="#d0805c" x="1" y="18" width="1" height="1"/>
    <rect fill="#e6926c" x="2" y="18" width="1" height="1"/>
    <rect fill="#fbc0a4" x="3" y="18" width="1" height="1"/>
    <rect fill="#e6926c" x="4" y="18" width="1" height="1"/>
    <rect fill="#e6926c" x="5" y="18" width="1" height="1"/>
    <rect fill="#e6926c" x="6" y="18" width="1" height="1"/>
    <rect fill="#f7b99d" x="7" y="18" width="1" height="1"/>
    <rect fill="#2996b1" x="8" y="18" width="1" height="1"/>
    <rect fill="#2996b1" x="9" y="18" width="1" height="1"/>
    <rect fill="#a58d56" x="10" y="18" width="1" height="1"/>
    <rect fill="#b4a787" x="11" y="18" width="1" height="1"/>
    <rect fill="#d8d4c3" x="12" y="18" width="1" height="1"/>
    <rect fill="#fff" x="13" y="18" width="1" height="1"/>
    <rect fill="#fff" x="14" y="18" width="1" height="1"/>
    <rect fill="#fff" x="15" y="18" width="1" height="1"/>
    <rect fill="#fff" x="16" y="18" width="1" height="1"/>
    <rect fill="#fff" x="17" y="18" width="1" height="1"/>
    <rect fill="#fff" x="18" y="18" width="1" height="1"/>
    <rect fill="#fff" x="19" y="18" width="1" height="1"/>
    <rect fill="#fff" x="20" y="18" width="1" height="1"/>
    <rect fill="#e4dec5" x="21" y="18" width="1" height="1"/>
    <rect fill="#b16d4e" x="22" y="18" width="1" height="1"/>
    <rect fill="#e6926c" x="23" y="18" width="1" height="1"/>
    <rect fill="#e6926c" x="24" y="18" width="1" height="1"/>
    <rect fill="#e6926c" x="25" y="18" width="1" height="1"/>
    <rect fill="#f7b99d" x="26" y="18" width="1" height="1"/>
    <rect fill="#d0805c" x="1" y="19" width="1" height="1"/>
    <rect fill="#e6926c" x="2" y="19" width="1" height="1"/>
    <rect fill="#e6926c" x="3" y="19" width="1" height="1"/>
    <rect fill="#e6926c" x="4" y="19" width="1" height="1"/>
    <rect fill="#fbc0a4" x="5" y="19" width="1" height="1"/>
    <rect fill="#e6926c" x="6" y="19" width="1" height="1"/>
    <rect fill="#f7b99d" x="7" y="19" width="1" height="1"/>
    <rect fill="#2996b1" x="8" y="19" width="1" height="1"/>
    <rect fill="#2996b1" x="9" y="19" width="1" height="1"/>
    <rect fill="#2996b1" x="10" y="19" width="1" height="1"/>
    <rect fill="#b4944c" x="11" y="19" width="1" height="1"/>
    <rect fill="#b4944c" x="12" y="19" width="1" height="1"/>
    <rect fill="#d0b068" x="13" y="19" width="1" height="1"/>
    <rect fill="#d0b068" x="14" y="19" width="1" height="1"/>
    <rect fill="#d0b068" x="15" y="19" width="1" height="1"/>
    <rect fill="#d0b068" x="16" y="19" width="1" height="1"/>
    <rect fill="#fff" x="17" y="19" width="1" height="1"/>
    <rect fill="#fff" x="18" y="19" width="1" height="1"/>
    <rect fill="#fff" x="19" y="19" width="1" height="1"/>
    <rect fill="#fff" x="20" y="19" width="1" height="1"/>
    <rect fill="#e4dec5" x="21" y="19" width="1" height="1"/>
    <rect fill="#fff" x="22" y="19" width="1" height="1"/>
    <rect fill="#b4944c" x="23" y="19" width="1" height="1"/>
    <rect fill="#e6926c" x="24" y="19" width="1" height="1"/>
    <rect fill="#e6926c" x="25" y="19" width="1" height="1"/>
    <rect fill="#f7b99d" x="26" y="19" width="1" height="1"/>
    <rect fill="#d0805c" x="1" y="20" width="1" height="1"/>
    <rect fill="#e6926c" x="2" y="20" width="1" height="1"/>
    <rect fill="#e6926c" x="3" y="20" width="1" height="1"/>
    <rect fill="#e6926c" x="4" y="20" width="1" height="1"/>
    <rect fill="#e6926c" x="5" y="20" width="1" height="1"/>
    <rect fill="#e6926c" x="6" y="20" width="1" height="1"/>
    <rect fill="#e6926c" x="7" y="20" width="1" height="1"/>
    <rect fill="#f7b99d" x="8" y="20" width="1" height="1"/>
    <rect fill="#2996b1" x="9" y="20" width="1" height="1"/>
    <rect fill="#2996b1" x="10" y="20" width="1" height="1"/>
    <rect fill="#2996b1" x="11" y="20" width="1" height="1"/>
    <rect fill="#b4944c" x="12" y="20" width="1" height="1"/>
    <rect fill="#d0b068" x="13" y="20" width="1" height="1"/>
    <rect fill="#d0b068" x="14" y="20" width="1" height="1"/>
    <rect fill="#d0b068" x="15" y="20" width="1" height="1"/>
    <rect fill="#d0b068" x="16" y="20" width="1" height="1"/>
    <rect fill="#d0b068" x="17" y="20" width="1" height="1"/>
    <rect fill="#fff" x="18" y="20" width="1" height="1"/>
    <rect fill="#fff" x="19" y="20" width="1" height="1"/>
    <rect fill="#fff" x="20" y="20" width="1" height="1"/>
    <rect fill="#fff" x="21" y="20" width="1" height="1"/>
    <rect fill="#fff" x="22" y="20" width="1" height="1"/>
    <rect fill="#e4dec5" x="23" y="20" width="1" height="1"/>
    <rect fill="#e6926c" x="24" y="20" width="1" height="1"/>
    <rect fill="#e6926c" x="25" y="20" width="1" height="1"/>
    <rect fill="#f7b99d" x="26" y="20" width="1" height="1"/>
    <rect fill="#2996b1" x="1" y="21" width="1" height="1"/>
    <rect fill="#d0805c" x="2" y="21" width="1" height="1"/>
    <rect fill="#e6926c" x="3" y="21" width="1" height="1"/>
    <rect fill="#e6926c" x="4" y="21" width="1" height="1"/>
    <rect fill="#e6926c" x="5" y="21" width="1" height="1"/>
    <rect fill="#e6926c" x="6" y="21" width="1" height="1"/>
    <rect fill="#b4944c" x="7" y="21" width="1" height="1"/>
    <rect fill="#b4944c" x="8" y="21" width="1" height="1"/>
    <rect fill="#896c2a" x="9" y="21" width="1" height="1"/>
    <rect fill="#2996b1" x="10" y="21" width="1" height="1"/>
    <rect fill="#2996b1" x="11" y="21" width="1" height="1"/>
    <rect fill="#2996b1" x="12" y="21" width="1" height="1"/>
    <rect fill="#2996b1" x="13" y="21" width="1" height="1"/>
    <rect fill="#d0b068" x="14" y="21" width="1" height="1"/>
    <rect fill="#d0b068" x="15" y="21" width="1" height="1"/>
    <rect fill="#d0b068" x="16" y="21" width="1" height="1"/>
    <rect fill="#d0b068" x="17" y="21" width="1" height="1"/>
    <rect fill="#d0b068" x="18" y="21" width="1" height="1"/>
    <rect fill="#fff" x="19" y="21" width="1" height="1"/>
    <rect fill="#fff" x="20" y="21" width="1" height="1"/>
    <rect fill="#fff" x="21" y="21" width="1" height="1"/>
    <rect fill="#fff" x="22" y="21" width="1" height="1"/>
    <rect fill="#b4944c" x="23" y="21" width="1" height="1"/>
    <rect fill="#e6926c" x="24" y="21" width="1" height="1"/>
    <rect fill="#f7b99d" x="25" y="21" width="1" height="1"/>
    <rect fill="#2996b1" y="22" width="1" height="1"/>
    <rect fill="#2996b1" x="1" y="22" width="1" height="1"/>
    <rect fill="#2996b1" x="2" y="22" width="1" height="1"/>
    <rect fill="#e6926c" x="3" y="22" width="1" height="1"/>
    <rect fill="#e6926c" x="4" y="22" width="1" height="1"/>
    <rect fill="#b4944c" x="5" y="22" width="1" height="1"/>
    <rect fill="#b4944c" x="6" y="22" width="1" height="1"/>
    <rect fill="#b4944c" x="7" y="22" width="1" height="1"/>
    <rect fill="#b4944c" x="8" y="22" width="1" height="1"/>
    <rect fill="#b4944c" x="9" y="22" width="1" height="1"/>
    <rect fill="#896c2a" x="10" y="22" width="1" height="1"/>
    <rect fill="#896c2a" x="11" y="22" width="1" height="1"/>
    <rect fill="#b16d4e" x="12" y="22" width="1" height="1"/>
    <rect fill="#b16d4e" x="13" y="22" width="1" height="1"/>
    <rect fill="#b16d4e" x="14" y="22" width="1" height="1"/>
    <rect fill="#896c2a" x="15" y="22" width="1" height="1"/>
    <rect fill="#b4944c" x="16" y="22" width="1" height="1"/>
    <rect fill="#d0b068" x="17" y="22" width="1" height="1"/>
    <rect fill="#a99d6b" x="18" y="22" width="1" height="1"/>
    <rect fill="#a99d6b" x="19" y="22" width="1" height="1"/>
    <rect fill="#a99d6b" x="20" y="22" width="1" height="1"/>
    <rect fill="#a99d6b" x="21" y="22" width="1" height="1"/>
    <rect fill="#a99d6b" x="22" y="22" width="1" height="1"/>
    <rect fill="#b4944c" x="23" y="22" width="1" height="1"/>
    <rect fill="#f7b99d" x="24" y="22" width="1" height="1"/>
    <rect fill="#2996b1" y="23" width="1" height="1"/>
    <rect fill="#2996b1" x="1" y="23" width="1" height="1"/>
    <rect fill="#2996b1" x="2" y="23" width="1" height="1"/>
    <rect fill="#d0805c" x="3" y="23" width="1" height="1"/>
    <rect fill="#b4944c" x="4" y="23" width="1" height="1"/>
    <rect fill="#b4944c" x="5" y="23" width="1" height="1"/>
    <rect fill="#b4944c" x="6" y="23" width="1" height="1"/>
    <rect fill="#b4944c" x="7" y="23" width="1" height="1"/>
    <rect fill="#d0b068" x="8" y="23" width="1" height="1"/>
    <rect fill="#d0b068" x="9" y="23" width="1" height="1"/>
    <rect fill="#b4944c" x="10" y="23" width="1" height="1"/>
    <rect fill="#b4944c" x="11" y="23" width="1" height="1"/>
    <rect fill="#896c2a" x="12" y="23" width="1" height="1"/>
    <rect fill="#896c2a" x="13" y="23" width="1" height="1"/>
    <rect fill="#896c2a" x="14" y="23" width="1" height="1"/>
    <rect fill="#b4944c" x="15" y="23" width="1" height="1"/>
    <rect fill="#d0b068" x="16" y="23" width="1" height="1"/>
    <rect fill="#a99d6b" x="17" y="23" width="1" height="1"/>
    <rect fill="#e6926c" x="18" y="23" width="1" height="1"/>
    <rect fill="#e6926c" x="19" y="23" width="1" height="1"/>
    <rect fill="#e6926c" x="20" y="23" width="1" height="1"/>
    <rect fill="#e6926c" x="21" y="23" width="1" height="1"/>
    <rect fill="#e6926c" x="22" y="23" width="1" height="1"/>
    <rect fill="#e6926c" x="23" y="23" width="1" height="1"/>
    <rect fill="#f7b99d" x="24" y="23" width="1" height="1"/>
    <rect fill="#2996b1" y="24" width="1" height="1"/>
    <rect fill="#2996b1" x="1" y="24" width="1" height="1"/>
    <rect fill="#2996b1" x="2" y="24" width="1" height="1"/>
    <rect fill="#2996b1" x="3" y="24" width="1" height="1"/>
    <rect fill="#b4944c" x="4" y="24" width="1" height="1"/>
    <rect fill="#b4944c" x="5" y="24" width="1" height="1"/>
    <rect fill="#b4944c" x="6" y="24" width="1" height="1"/>
    <rect fill="#d0b068" x="7" y="24" width="1" height="1"/>
    <rect fill="#d0b068" x="8" y="24" width="1" height="1"/>
    <rect fill="#d0b068" x="9" y="24" width="1" height="1"/>
    <rect fill="#d0b068" x="10" y="24" width="1" height="1"/>
    <rect fill="#d0b068" x="11" y="24" width="1" height="1"/>
    <rect fill="#b4944c" x="12" y="24" width="1" height="1"/>
    <rect fill="#b4944c" x="13" y="24" width="1" height="1"/>
    <rect fill="#b4944c" x="14" y="24" width="1" height="1"/>
    <rect fill="#d0b068" x="15" y="24" width="1" height="1"/>
    <rect fill="#d0b068" x="16" y="24" width="1" height="1"/>
    <rect fill="#b16d4e" x="17" y="24" width="1" height="1"/>
    <rect fill="#e6926c" x="18" y="24" width="1" height="1"/>
    <rect fill="#e6926c" x="19" y="24" width="1" height="1"/>
    <rect fill="#e6926c" x="20" y="24" width="1" height="1"/>
    <rect fill="#e6926c" x="21" y="24" width="1" height="1"/>
    <rect fill="#e6926c" x="22" y="24" width="1" height="1"/>
    <rect fill="#f7b99d" x="23" y="24" width="1" height="1"/>
    <rect fill="#2996b1" y="25" width="1" height="1"/>
    <rect fill="#2996b1" x="1" y="25" width="1" height="1"/>
    <rect fill="#2996b1" x="2" y="25" width="1" height="1"/>
    <rect fill="#2996b1" x="3" y="25" width="1" height="1"/>
    <rect fill="#b4944c" x="4" y="25" width="1" height="1"/>
    <rect fill="#b4944c" x="5" y="25" width="1" height="1"/>
    <rect fill="#d0b068" x="6" y="25" width="1" height="1"/>
    <rect fill="#d0b068" x="7" y="25" width="1" height="1"/>
    <rect fill="#d0b068" x="8" y="25" width="1" height="1"/>
    <rect fill="#d0b068" x="9" y="25" width="1" height="1"/>
    <rect fill="#d0b068" x="10" y="25" width="1" height="1"/>
    <rect fill="#d0b068" x="11" y="25" width="1" height="1"/>
    <rect fill="#d0b068" x="12" y="25" width="1" height="1"/>
    <rect fill="#d0b068" x="13" y="25" width="1" height="1"/>
    <rect fill="#d0b068" x="14" y="25" width="1" height="1"/>
    <rect fill="#d0b068" x="15" y="25" width="1" height="1"/>
    <rect fill="#b16d4e" x="16" y="25" width="1" height="1"/>
    <rect fill="#e6926c" x="17" y="25" width="1" height="1"/>
    <rect fill="#e6926c" x="18" y="25" width="1" height="1"/>
    <rect fill="#e6926c" x="19" y="25" width="1" height="1"/>
    <rect fill="#e6926c" x="20" y="25" width="1" height="1"/>
    <rect fill="#f7b99d" x="21" y="25" width="1" height="1"/>
    <rect fill="#f7b99d" x="22" y="25" width="1" height="1"/>
    <rect fill="#2996b1" x="1" y="26" width="1" height="1"/>
    <rect fill="#2996b1" x="2" y="26" width="1" height="1"/>
    <rect fill="#2996b1" x="3" y="26" width="1" height="1"/>
    <rect fill="#b2e9f3" x="4" y="26" width="1" height="1"/>
    <rect fill="#b4944c" x="5" y="26" width="1" height="1"/>
    <rect fill="#d0b068" x="6" y="26" width="1" height="1"/>
    <rect fill="#d0b068" x="7" y="26" width="1" height="1"/>
    <rect fill="#d0b068" x="8" y="26" width="1" height="1"/>
    <rect fill="#d0b068" x="9" y="26" width="1" height="1"/>
    <rect fill="#b16d4e" x="10" y="26" width="1" height="1"/>
    <rect fill="#b16d4e" x="11" y="26" width="1" height="1"/>
    <rect fill="#b16d4e" x="12" y="26" width="1" height="1"/>
    <rect fill="#b16d4e" x="13" y="26" width="1" height="1"/>
    <rect fill="#b16d4e" x="14" y="26" width="1" height="1"/>
    <rect fill="#b16d4e" x="15" y="26" width="1" height="1"/>
    <rect fill="#e6926c" x="16" y="26" width="1" height="1"/>
    <rect fill="#e6926c" x="17" y="26" width="1" height="1"/>
    <rect fill="#e6926c" x="18" y="26" width="1" height="1"/>
    <rect fill="#e6926c" x="19" y="26" width="1" height="1"/>
    <rect fill="#f7b99d" x="20" y="26" width="1" height="1"/>
    <rect fill="#2996b1" x="2" y="27" width="1" height="1"/>
    <rect fill="#2996b1" x="3" y="27" width="1" height="1"/>
    <rect fill="#87a951" x="4" y="27" width="1" height="1"/>
    <rect fill="#b2e9f3" x="5" y="27" width="1" height="1"/>
    <rect fill="#b2e9f3" x="6" y="27" width="1" height="1"/>
    <rect fill="#d0b068" x="7" y="27" width="1" height="1"/>
    <rect fill="#d0b068" x="8" y="27" width="1" height="1"/>
    <rect fill="#b16d4e" x="9" y="27" width="1" height="1"/>
    <rect fill="#b16d4e" x="10" y="27" width="1" height="1"/>
    <rect fill="#b16d4e" x="11" y="27" width="1" height="1"/>
    <rect fill="#b16d4e" x="12" y="27" width="1" height="1"/>
    <rect fill="#e6926c" x="13" y="27" width="1" height="1"/>
    <rect fill="#e6926c" x="14" y="27" width="1" height="1"/>
    <rect fill="#e6926c" x="15" y="27" width="1" height="1"/>
    <rect fill="#e6926c" x="16" y="27" width="1" height="1"/>
    <rect fill="#f7b99d" x="17" y="27" width="1" height="1"/>
    <rect fill="#f7b99d" x="18" y="27" width="1" height="1"/>
    <rect fill="#f7b99d" x="19" y="27" width="1" height="1"/>
    <rect fill="#2996b1" x="2" y="28" width="1" height="1"/>
    <rect fill="#2996b1" x="3" y="28" width="1" height="1"/>
    <rect fill="#87a951" x="4" y="28" width="1" height="1"/>
    <rect fill="#87a951" x="5" y="28" width="1" height="1"/>
    <rect fill="#9bc060" x="6" y="28" width="1" height="1"/>
    <rect fill="#b2e9f3" x="7" y="28" width="1" height="1"/>
    <rect fill="#b2e9f3" x="8" y="28" width="1" height="1"/>
    <rect fill="#2996b1" x="9" y="28" width="1" height="1"/>
    <rect fill="#2996b1" x="10" y="28" width="1" height="1"/>
    <rect fill="#e6926c" x="11" y="28" width="1" height="1"/>
    <rect fill="#e6926c" x="12" y="28" width="1" height="1"/>
    <rect fill="#e6926c" x="13" y="28" width="1" height="1"/>
    <rect fill="#e6926c" x="14" y="28" width="1" height="1"/>
    <rect fill="#e6926c" x="15" y="28" width="1" height="1"/>
    <rect fill="#f7b99d" x="16" y="28" width="1" height="1"/>
    <rect fill="#2996b1" x="17" y="28" width="1" height="1"/>
    <rect fill="#2996b1" x="18" y="28" width="1" height="1"/>
    <rect fill="#2996b1" x="2" y="29" width="1" height="1"/>
    <rect fill="#2996b1" x="3" y="29" width="1" height="1"/>
    <rect fill="#2996b1" x="4" y="29" width="1" height="1"/>
    <rect fill="#87a951" x="5" y="29" width="1" height="1"/>
    <rect fill="#9bc060" x="6" y="29" width="1" height="1"/>
    <rect fill="#9bc060" x="7" y="29" width="1" height="1"/>
    <rect fill="#9bc060" x="8" y="29" width="1" height="1"/>
    <rect fill="#2996b1" x="9" y="29" width="1" height="1"/>
    <rect fill="#2996b1" x="10" y="29" width="1" height="1"/>
    <rect fill="#2996b1" x="11" y="29" width="1" height="1"/>
    <rect fill="#2996b1" x="12" y="29" width="1" height="1"/>
    <rect fill="#2996b1" x="13" y="29" width="1" height="1"/>
    <rect fill="#2996b1" x="14" y="29" width="1" height="1"/>
    <rect fill="#2996b1" x="15" y="29" width="1" height="1"/>
    <rect fill="#2996b1" x="16" y="29" width="1" height="1"/>
    <rect fill="#2996b1" x="1" y="30" width="1" height="1"/>
    <rect fill="#2996b1" x="2" y="30" width="1" height="1"/>
    <rect fill="#2996b1" x="3" y="30" width="1" height="1"/>
    <rect fill="#2996b1" x="4" y="30" width="1" height="1"/>
    <rect fill="#2996b1" x="5" y="30" width="1" height="1"/>
    <rect fill="#87a951" x="6" y="30" width="1" height="1"/>
    <rect fill="#9bc060" x="7" y="30" width="1" height="1"/>
    <rect fill="#9bc060" x="8" y="30" width="1" height="1"/>
    <rect fill="#2996b1" x="9" y="30" width="1" height="1"/>
    <rect fill="#2996b1" x="10" y="30" width="1" height="1"/>
    <rect fill="#2996b1" x="11" y="30" width="1" height="1"/>
    <rect fill="#2996b1" x="12" y="30" width="1" height="1"/>
    <rect fill="#2996b1" x="13" y="30" width="1" height="1"/>
    <rect fill="#2996b1" x="14" y="30" width="1" height="1"/>
    <rect fill="#2996b1" y="31" width="1" height="1"/>
    <rect fill="#2996b1" x="1" y="31" width="1" height="1"/>
    <rect fill="#2996b1" x="2" y="31" width="1" height="1"/>
    <rect fill="#2996b1" x="3" y="31" width="1" height="1"/>
    <rect fill="#2996b1" x="4" y="31" width="1" height="1"/>
    <rect fill="#2996b1" x="5" y="31" width="1" height="1"/>
    <rect fill="#2996b1" x="6" y="31" width="1" height="1"/>
    <rect fill="#9bc060" x="7" y="31" width="1" height="1"/>
    <rect fill="#2996b1" x="8" y="31" width="1" height="1"/>
    <rect fill="#2996b1" x="9" y="31" width="1" height="1"/>
    <rect fill="#2996b1" x="10" y="31" width="1" height="1"/>
    <rect fill="#2996b1" x="11" y="31" width="1" height="1"/>
    <rect fill="#2996b1" x="12" y="31" width="1" height="1"/>
    <rect fill="#2996b1" y="32" width="1" height="1"/>
    <rect fill="#2996b1" x="1" y="32" width="1" height="1"/>
    <rect fill="#2996b1" x="2" y="32" width="1" height="1"/>
    <rect fill="#2996b1" x="3" y="32" width="1" height="1"/>
    <rect fill="#2996b1" x="4" y="32" width="1" height="1"/>
    <rect fill="#2996b1" x="5" y="32" width="1" height="1"/>
    <rect fill="#2996b1" x="6" y="32" width="1" height="1"/>
    <rect fill="#2996b1" x="7" y="32" width="1" height="1"/>
    <rect fill="#2996b1" x="8" y="32" width="1" height="1"/>
    <rect fill="#2996b1" x="1" y="33" width="1" height="1"/>
    <rect fill="#2996b1" x="2" y="33" width="1" height="1"/>
    <rect fill="#2996b1" x="3" y="33" width="1" height="1"/>
    <rect fill="#2996b1" x="4" y="33" width="1" height="1"/>
    <rect fill="#2996b1" x="5" y="33" width="1" height="1"/>
    <rect fill="#2996b1" x="6" y="33" width="1" height="1"/>
    <rect fill="#2996b1" x="7" y="33" width="1" height="1"/>
    <rect fill="#2996b1" x="2" y="34" width="1" height="1"/>
    <rect fill="#2996b1" x="3" y="34" width="1" height="1"/>
    <rect fill="#2996b1" x="4" y="34" width="1" height="1"/>
    <rect fill="#2996b1" x="5" y="34" width="1" height="1"/>
    <rect fill="#2996b1" x="6" y="34" width="1" height="1"/>
    <rect fill="#2996b1" x="7" y="34" width="1" height="1"/>
    <rect fill="#2996b1" x="2" y="35" width="1" height="1"/>
    <rect fill="#2996b1" x="3" y="35" width="1" height="1"/>
    <rect fill="#2996b1" x="4" y="35" width="1" height="1"/>
    <rect fill="#2996b1" x="5" y="35" width="1" height="1"/>
    <rect fill="#2996b1" x="3" y="36" width="1" height="1"/>
    <rect fill="#2996b1" x="4" y="36" width="1" height="1"/>
  </g>
</svg>