<?xml version="1.0" encoding="UTF-8" ?>
<svg id="glasses" version="1.1" width="188" height="48" viewBox="0 0 188 48" fill="#545454" xmlns="http://www.w3.org/2000/svg" shape-rendering="crispEdges">
    <rect x="119" y="9" width="1" height="1" />
    <rect x="120" y="9" width="1" height="1" />
    <rect x="121" y="9" width="1" height="1" />
    <rect x="51" y="9" width="1" height="1" />
    <rect x="52" y="9" width="1" height="1" />
    <rect x="53" y="9" width="1" height="1" />
    <rect x="54" y="9" width="1" height="1" />
    <rect x="55" y="9" width="1" height="1" />
    <rect x="56" y="9" width="1" height="1" />
    <rect x="57" y="9" width="1" height="1" />
    <rect x="58" y="9" width="1" height="1" />
    <rect x="59" y="9" width="1" height="1" />
    <rect x="60" y="9" width="1" height="1" />
    <rect x="61" y="9" width="1" height="1" />
    <rect x="62" y="9" width="1" height="1" />
    <rect x="63" y="9" width="1" height="1" />
    <rect x="64" y="9" width="1" height="1" />
    <rect x="65" y="9" width="1" height="1" />
    <rect x="66" y="9" width="1" height="1" />
    <rect x="67" y="9" width="1" height="1" />
    <rect x="68" y="9" width="1" height="1" />
    <rect x="69" y="9" width="1" height="1" />
    <rect x="70" y="9" width="1" height="1" />
    <rect x="71" y="9" width="1" height="1" />
    <rect x="72" y="9" width="1" height="1" />
    <rect x="73" y="9" width="1" height="1" />
    <rect x="74" y="9" width="1" height="1" />
    <rect x="75" y="9" width="1" height="1" />
    <rect x="76" y="9" width="1" height="1" />
    <rect x="77" y="9" width="1" height="1" />
    <rect x="78" y="9" width="1" height="1" />
    <rect x="79" y="9" width="1" height="1" />
    <rect x="80" y="9" width="1" height="1" />
    <rect x="81" y="9" width="1" height="1" />
    <rect x="82" y="9" width="1" height="1" />
    <rect x="83" y="9" width="1" height="1" />
    <rect x="96" y="9" width="1" height="1" />
    <rect x="97" y="9" width="1" height="1" />
    <rect x="98" y="9" width="1" height="1" />
    <rect x="99" y="9" width="1" height="1" />
    <rect x="100" y="9" width="1" height="1" />
    <rect x="101" y="9" width="1" height="1" />
    <rect x="102" y="9" width="1" height="1" />
    <rect x="103" y="9" width="1" height="1" />
    <rect x="104" y="9" width="1" height="1" />
    <rect x="105" y="9" width="1" height="1" />
    <rect x="106" y="9" width="1" height="1" />
    <rect x="107" y="9" width="1" height="1" />
    <rect x="108" y="9" width="1" height="1" />
    <rect x="109" y="9" width="1" height="1" />
    <rect x="110" y="9" width="1" height="1" />
    <rect x="111" y="9" width="1" height="1" />
    <rect x="112" y="9" width="1" height="1" />
    <rect x="113" y="9" width="1" height="1" />
    <rect x="114" y="9" width="1" height="1" />
    <rect x="115" y="9" width="1" height="1" />
    <rect x="116" y="9" width="1" height="1" />
    <rect x="117" y="9" width="1" height="1" />
    <rect x="118" y="9" width="1" height="1" />
    <rect x="119" y="9" width="1" height="1" />
    <rect x="120" y="9" width="1" height="1" />
    <rect x="121" y="9" width="1" height="1" />
    <rect x="122" y="9" width="1" height="1" />
    <rect x="123" y="9" width="1" height="1" />
    <rect x="124" y="9" width="1" height="1" />
    <rect x="125" y="9" width="1" height="1" />
    <rect x="126" y="9" width="1" height="1" />
    <rect x="127" y="9" width="1" height="1" />
    <rect x="128" y="9" width="1" height="1" />
    <rect x="129" y="9" width="1" height="1" />
    <rect x="130" y="9" width="1" height="1" />
    <rect x="131" y="9" width="1" height="1" />
    <rect x="132" y="9" width="1" height="1" />
    <rect x="133" y="9" width="1" height="1" />
    <rect x="134" y="9" width="1" height="1" />
    <rect x="135" y="9" width="1" height="1" />
    <rect x="136" y="9" width="1" height="1" />
    <rect x="137" y="9" width="1" height="1" />
    <rect x="51" y="10" width="1" height="1" />
    <rect x="52" y="10" width="1" height="1" />
    <rect x="53" y="10" width="1" height="1" />
    <rect x="54" y="10" width="1" height="1" />
    <rect x="55" y="10" width="1" height="1" />
    <rect x="56" y="10" width="1" height="1" />
    <rect x="57" y="10" width="1" height="1" />
    <rect x="58" y="10" width="1" height="1" />
    <rect x="59" y="10" width="1" height="1" />
    <rect x="60" y="10" width="1" height="1" />
    <rect x="61" y="10" width="1" height="1" />
    <rect x="62" y="10" width="1" height="1" />
    <rect x="63" y="10" width="1" height="1" />
    <rect x="64" y="10" width="1" height="1" />
    <rect x="65" y="10" width="1" height="1" />
    <rect x="66" y="10" width="1" height="1" />
    <rect x="67" y="10" width="1" height="1" />
    <rect x="68" y="10" width="1" height="1" />
    <rect x="69" y="10" width="1" height="1" />
    <rect x="70" y="10" width="1" height="1" />
    <rect x="71" y="10" width="1" height="1" />
    <rect x="72" y="10" width="1" height="1" />
    <rect x="73" y="10" width="1" height="1" />
    <rect x="74" y="10" width="1" height="1" />
    <rect x="75" y="10" width="1" height="1" />
    <rect x="76" y="10" width="1" height="1" />
    <rect x="77" y="10" width="1" height="1" />
    <rect x="78" y="10" width="1" height="1" />
    <rect x="79" y="10" width="1" height="1" />
    <rect x="80" y="10" width="1" height="1" />
    <rect x="81" y="10" width="1" height="1" />
    <rect x="82" y="10" width="1" height="1" />
    <rect x="83" y="10" width="1" height="1" />
    <rect x="96" y="10" width="1" height="1" />
    <rect x="97" y="10" width="1" height="1" />
    <rect x="98" y="10" width="1" height="1" />
    <rect x="99" y="10" width="1" height="1" />
    <rect x="100" y="10" width="1" height="1" />
    <rect x="101" y="10" width="1" height="1" />
    <rect x="102" y="10" width="1" height="1" />
    <rect x="103" y="10" width="1" height="1" />
    <rect x="104" y="10" width="1" height="1" />
    <rect x="105" y="10" width="1" height="1" />
    <rect x="106" y="10" width="1" height="1" />
    <rect x="107" y="10" width="1" height="1" />
    <rect x="108" y="10" width="1" height="1" />
    <rect x="109" y="10" width="1" height="1" />
    <rect x="110" y="10" width="1" height="1" />
    <rect x="111" y="10" width="1" height="1" />
    <rect x="112" y="10" width="1" height="1" />
    <rect x="113" y="10" width="1" height="1" />
    <rect x="114" y="10" width="1" height="1" />
    <rect x="115" y="10" width="1" height="1" />
    <rect x="116" y="10" width="1" height="1" />
    <rect x="117" y="10" width="1" height="1" />
    <rect x="118" y="10" width="1" height="1" />
    <rect x="119" y="10" width="1" height="1" />
    <rect x="120" y="10" width="1" height="1" />
    <rect x="121" y="10" width="1" height="1" />
    <rect x="122" y="10" width="1" height="1" />
    <rect x="123" y="10" width="1" height="1" />
    <rect x="124" y="10" width="1" height="1" />
    <rect x="125" y="10" width="1" height="1" />
    <rect x="126" y="10" width="1" height="1" />
    <rect x="127" y="10" width="1" height="1" />
    <rect x="128" y="10" width="1" height="1" />
    <rect x="129" y="10" width="1" height="1" />
    <rect x="130" y="10" width="1" height="1" />
    <rect x="131" y="10" width="1" height="1" />
    <rect x="132" y="10" width="1" height="1" />
    <rect x="133" y="10" width="1" height="1" />
    <rect x="134" y="10" width="1" height="1" />
    <rect x="135" y="10" width="1" height="1" />
    <rect x="136" y="10" width="1" height="1" />
    <rect x="137" y="10" width="1" height="1" />
    <rect x="51" y="11" width="1" height="1" />
    <rect x="52" y="11" width="1" height="1" />
    <rect x="53" y="11" width="1" height="1" />
    <rect x="54" y="11" width="1" height="1" />
    <rect x="55" y="11" width="1" height="1" />
    <rect x="56" y="11" width="1" height="1" />
    <rect x="57" y="11" width="1" height="1" />
    <rect x="58" y="11" width="1" height="1" />
    <rect x="59" y="11" width="1" height="1" />
    <rect x="60" y="11" width="1" height="1" />
    <rect x="61" y="11" width="1" height="1" />
    <rect x="62" y="11" width="1" height="1" />
    <rect x="63" y="11" width="1" height="1" />
    <rect x="64" y="11" width="1" height="1" />
    <rect x="65" y="11" width="1" height="1" />
    <rect x="66" y="11" width="1" height="1" />
    <rect x="67" y="11" width="1" height="1" />
    <rect x="68" y="11" width="1" height="1" />
    <rect x="69" y="11" width="1" height="1" />
    <rect x="70" y="11" width="1" height="1" />
    <rect x="71" y="11" width="1" height="1" />
    <rect x="72" y="11" width="1" height="1" />
    <rect x="73" y="11" width="1" height="1" />
    <rect x="74" y="11" width="1" height="1" />
    <rect x="75" y="11" width="1" height="1" />
    <rect x="76" y="11" width="1" height="1" />
    <rect x="77" y="11" width="1" height="1" />
    <rect x="78" y="11" width="1" height="1" />
    <rect x="79" y="11" width="1" height="1" />
    <rect x="80" y="11" width="1" height="1" />
    <rect x="81" y="11" width="1" height="1" />
    <rect x="82" y="11" width="1" height="1" />
    <rect x="83" y="11" width="1" height="1" />
    <rect x="96" y="11" width="1" height="1" />
    <rect x="97" y="11" width="1" height="1" />
    <rect x="98" y="11" width="1" height="1" />
    <rect x="99" y="11" width="1" height="1" />
    <rect x="100" y="11" width="1" height="1" />
    <rect x="101" y="11" width="1" height="1" />
    <rect x="102" y="11" width="1" height="1" />
    <rect x="103" y="11" width="1" height="1" />
    <rect x="104" y="11" width="1" height="1" />
    <rect x="105" y="11" width="1" height="1" />
    <rect x="106" y="11" width="1" height="1" />
    <rect x="107" y="11" width="1" height="1" />
    <rect x="108" y="11" width="1" height="1" />
    <rect x="109" y="11" width="1" height="1" />
    <rect x="110" y="11" width="1" height="1" />
    <rect x="111" y="11" width="1" height="1" />
    <rect x="112" y="11" width="1" height="1" />
    <rect x="113" y="11" width="1" height="1" />
    <rect x="114" y="11" width="1" height="1" />
    <rect x="115" y="11" width="1" height="1" />
    <rect x="116" y="11" width="1" height="1" />
    <rect x="117" y="11" width="1" height="1" />
    <rect x="118" y="11" width="1" height="1" />
    <rect x="119" y="11" width="1" height="1" />
    <rect x="120" y="11" width="1" height="1" />
    <rect x="121" y="11" width="1" height="1" />
    <rect x="122" y="11" width="1" height="1" />
    <rect x="123" y="11" width="1" height="1" />
    <rect x="124" y="11" width="1" height="1" />
    <rect x="125" y="11" width="1" height="1" />
    <rect x="126" y="11" width="1" height="1" />
    <rect x="127" y="11" width="1" height="1" />
    <rect x="128" y="11" width="1" height="1" />
    <rect x="129" y="11" width="1" height="1" />
    <rect x="130" y="11" width="1" height="1" />
    <rect x="131" y="11" width="1" height="1" />
    <rect x="132" y="11" width="1" height="1" />
    <rect x="133" y="11" width="1" height="1" />
    <rect x="134" y="11" width="1" height="1" />
    <rect x="135" y="11" width="1" height="1" />
    <rect x="136" y="11" width="1" height="1" />
    <rect x="137" y="11" width="1" height="1" />
    <rect x="48" y="12" width="1" height="1" />
    <rect x="49" y="12" width="1" height="1" />
    <rect x="50" y="12" width="1" height="1" />
    <rect x="84" y="12" width="1" height="1" />
    <rect x="85" y="12" width="1" height="1" />
    <rect x="86" y="12" width="1" height="1" />
    <rect x="93" y="12" width="1" height="1" />
    <rect x="94" y="12" width="1" height="1" />
    <rect x="95" y="12" width="1" height="1" />
    <rect x="138" y="12" width="1" height="1" />
    <rect x="139" y="12" width="1" height="1" />
    <rect x="140" y="12" width="1" height="1" />
    <rect x="48" y="13" width="1" height="1" />
    <rect x="49" y="13" width="1" height="1" />
    <rect x="50" y="13" width="1" height="1" />
    <rect x="84" y="13" width="1" height="1" />
    <rect x="85" y="13" width="1" height="1" />
    <rect x="86" y="13" width="1" height="1" />
    <rect x="93" y="13" width="1" height="1" />
    <rect x="94" y="13" width="1" height="1" />
    <rect x="95" y="13" width="1" height="1" />
    <rect x="138" y="13" width="1" height="1" />
    <rect x="139" y="13" width="1" height="1" />
    <rect x="140" y="13" width="1" height="1" />
    <rect x="48" y="14" width="1" height="1" />
    <rect x="49" y="14" width="1" height="1" />
    <rect x="50" y="14" width="1" height="1" />
    <rect x="84" y="14" width="1" height="1" />
    <rect x="85" y="14" width="1" height="1" />
    <rect x="86" y="14" width="1" height="1" />
    <rect x="93" y="14" width="1" height="1" />
    <rect x="94" y="14" width="1" height="1" />
    <rect x="95" y="14" width="1" height="1" />
    <rect x="138" y="14" width="1" height="1" />
    <rect x="139" y="14" width="1" height="1" />
    <rect x="140" y="14" width="1" height="1" />
    <rect x="48" y="15" width="1" height="1" />
    <rect x="49" y="15" width="1" height="1" />
    <rect x="50" y="15" width="1" height="1" />
    <rect x="84" y="15" width="1" height="1" />
    <rect x="85" y="15" width="1" height="1" />
    <rect x="86" y="15" width="1" height="1" />
    <rect x="93" y="15" width="1" height="1" />
    <rect x="94" y="15" width="1" height="1" />
    <rect x="95" y="15" width="1" height="1" />
    <rect x="138" y="15" width="1" height="1" />
    <rect x="139" y="15" width="1" height="1" />
    <rect x="140" y="15" width="1" height="1" />
    <rect x="48" y="16" width="1" height="1" />
    <rect x="49" y="16" width="1" height="1" />
    <rect x="50" y="16" width="1" height="1" />
    <rect x="84" y="16" width="1" height="1" />
    <rect x="85" y="16" width="1" height="1" />
    <rect x="86" y="16" width="1" height="1" />
    <rect x="93" y="16" width="1" height="1" />
    <rect x="94" y="16" width="1" height="1" />
    <rect x="95" y="16" width="1" height="1" />
    <rect x="138" y="16" width="1" height="1" />
    <rect x="139" y="16" width="1" height="1" />
    <rect x="140" y="16" width="1" height="1" />
    <rect x="48" y="17" width="1" height="1" />
    <rect x="49" y="17" width="1" height="1" />
    <rect x="50" y="17" width="1" height="1" />
    <rect x="84" y="17" width="1" height="1" />
    <rect x="85" y="17" width="1" height="1" />
    <rect x="86" y="17" width="1" height="1" />
    <rect x="93" y="17" width="1" height="1" />
    <rect x="94" y="17" width="1" height="1" />
    <rect x="95" y="17" width="1" height="1" />
    <rect x="138" y="17" width="1" height="1" />
    <rect x="139" y="17" width="1" height="1" />
    <rect x="140" y="17" width="1" height="1" />
    <rect x="48" y="18" width="1" height="1" />
    <rect x="49" y="18" width="1" height="1" />
    <rect x="50" y="18" width="1" height="1" />
    <rect x="84" y="18" width="1" height="1" />
    <rect x="85" y="18" width="1" height="1" />
    <rect x="86" y="18" width="1" height="1" />
    <rect x="93" y="18" width="1" height="1" />
    <rect x="94" y="18" width="1" height="1" />
    <rect x="95" y="18" width="1" height="1" />
    <rect x="138" y="18" width="1" height="1" />
    <rect x="139" y="18" width="1" height="1" />
    <rect x="140" y="18" width="1" height="1" />
    <rect x="48" y="19" width="1" height="1" />
    <rect x="49" y="19" width="1" height="1" />
    <rect x="50" y="19" width="1" height="1" />
    <rect x="84" y="19" width="1" height="1" />
    <rect x="85" y="19" width="1" height="1" />
    <rect x="86" y="19" width="1" height="1" />
    <rect x="93" y="19" width="1" height="1" />
    <rect x="94" y="19" width="1" height="1" />
    <rect x="95" y="19" width="1" height="1" />
    <rect x="138" y="19" width="1" height="1" />
    <rect x="139" y="19" width="1" height="1" />
    <rect x="140" y="19" width="1" height="1" />
    <rect x="48" y="20" width="1" height="1" />
    <rect x="49" y="20" width="1" height="1" />
    <rect x="50" y="20" width="1" height="1" />
    <rect x="84" y="20" width="1" height="1" />
    <rect x="85" y="20" width="1" height="1" />
    <rect x="86" y="20" width="1" height="1" />
    <rect x="93" y="20" width="1" height="1" />
    <rect x="94" y="20" width="1" height="1" />
    <rect x="95" y="20" width="1" height="1" />
    <rect x="138" y="20" width="1" height="1" />
    <rect x="139" y="20" width="1" height="1" />
    <rect x="140" y="20" width="1" height="1" />
    <rect x="48" y="21" width="1" height="1" />
    <rect x="49" y="21" width="1" height="1" />
    <rect x="50" y="21" width="1" height="1" />
    <rect x="84" y="21" width="1" height="1" />
    <rect x="85" y="21" width="1" height="1" />
    <rect x="86" y="21" width="1" height="1" />
    <rect x="93" y="21" width="1" height="1" />
    <rect x="94" y="21" width="1" height="1" />
    <rect x="95" y="21" width="1" height="1" />
    <rect x="138" y="21" width="1" height="1" />
    <rect x="139" y="21" width="1" height="1" />
    <rect x="140" y="21" width="1" height="1" />
    <rect x="48" y="22" width="1" height="1" />
    <rect x="49" y="22" width="1" height="1" />
    <rect x="50" y="22" width="1" height="1" />
    <rect x="84" y="22" width="1" height="1" />
    <rect x="85" y="22" width="1" height="1" />
    <rect x="86" y="22" width="1" height="1" />
    <rect x="93" y="22" width="1" height="1" />
    <rect x="94" y="22" width="1" height="1" />
    <rect x="95" y="22" width="1" height="1" />
    <rect x="138" y="22" width="1" height="1" />
    <rect x="139" y="22" width="1" height="1" />
    <rect x="140" y="22" width="1" height="1" />
    <rect x="48" y="23" width="1" height="1" />
    <rect x="49" y="23" width="1" height="1" />
    <rect x="50" y="23" width="1" height="1" />
    <rect x="84" y="23" width="1" height="1" />
    <rect x="85" y="23" width="1" height="1" />
    <rect x="86" y="23" width="1" height="1" />
    <rect x="93" y="23" width="1" height="1" />
    <rect x="94" y="23" width="1" height="1" />
    <rect x="95" y="23" width="1" height="1" />
    <rect x="138" y="23" width="1" height="1" />
    <rect x="139" y="23" width="1" height="1" />
    <rect x="140" y="23" width="1" height="1" />
    <rect x="48" y="24" width="1" height="1" />
    <rect x="49" y="24" width="1" height="1" />
    <rect x="50" y="24" width="1" height="1" />
    <rect x="84" y="24" width="1" height="1" />
    <rect x="85" y="24" width="1" height="1" />
    <rect x="86" y="24" width="1" height="1" />
    <rect x="93" y="24" width="1" height="1" />
    <rect x="94" y="24" width="1" height="1" />
    <rect x="95" y="24" width="1" height="1" />
    <rect x="138" y="24" width="1" height="1" />
    <rect x="139" y="24" width="1" height="1" />
    <rect x="140" y="24" width="1" height="1" />
    <rect x="48" y="25" width="1" height="1" />
    <rect x="49" y="25" width="1" height="1" />
    <rect x="50" y="25" width="1" height="1" />
    <rect x="84" y="25" width="1" height="1" />
    <rect x="85" y="25" width="1" height="1" />
    <rect x="86" y="25" width="1" height="1" />
    <rect x="93" y="25" width="1" height="1" />
    <rect x="94" y="25" width="1" height="1" />
    <rect x="95" y="25" width="1" height="1" />
    <rect x="138" y="25" width="1" height="1" />
    <rect x="139" y="25" width="1" height="1" />
    <rect x="140" y="25" width="1" height="1" />
    <rect x="48" y="26" width="1" height="1" />
    <rect x="49" y="26" width="1" height="1" />
    <rect x="50" y="26" width="1" height="1" />
    <rect x="84" y="26" width="1" height="1" />
    <rect x="85" y="26" width="1" height="1" />
    <rect x="86" y="26" width="1" height="1" />
    <rect x="93" y="26" width="1" height="1" />
    <rect x="94" y="26" width="1" height="1" />
    <rect x="95" y="26" width="1" height="1" />
    <rect x="138" y="26" width="1" height="1" />
    <rect x="139" y="26" width="1" height="1" />
    <rect x="140" y="26" width="1" height="1" />
    <rect x="48" y="27" width="1" height="1" />
    <rect x="49" y="27" width="1" height="1" />
    <rect x="50" y="27" width="1" height="1" />
    <rect x="84" y="27" width="1" height="1" />
    <rect x="85" y="27" width="1" height="1" />
    <rect x="86" y="27" width="1" height="1" />
    <rect x="93" y="27" width="1" height="1" />
    <rect x="94" y="27" width="1" height="1" />
    <rect x="95" y="27" width="1" height="1" />
    <rect x="138" y="27" width="1" height="1" />
    <rect x="139" y="27" width="1" height="1" />
    <rect x="140" y="27" width="1" height="1" />
    <rect x="48" y="28" width="1" height="1" />
    <rect x="49" y="28" width="1" height="1" />
    <rect x="50" y="28" width="1" height="1" />
    <rect x="84" y="28" width="1" height="1" />
    <rect x="85" y="28" width="1" height="1" />
    <rect x="86" y="28" width="1" height="1" />
    <rect x="93" y="28" width="1" height="1" />
    <rect x="94" y="28" width="1" height="1" />
    <rect x="95" y="28" width="1" height="1" />
    <rect x="138" y="28" width="1" height="1" />
    <rect x="139" y="28" width="1" height="1" />
    <rect x="140" y="28" width="1" height="1" />
    <rect x="48" y="29" width="1" height="1" />
    <rect x="49" y="29" width="1" height="1" />
    <rect x="50" y="29" width="1" height="1" />
    <rect x="84" y="29" width="1" height="1" />
    <rect x="85" y="29" width="1" height="1" />
    <rect x="86" y="29" width="1" height="1" />
    <rect x="93" y="29" width="1" height="1" />
    <rect x="94" y="29" width="1" height="1" />
    <rect x="95" y="29" width="1" height="1" />
    <rect x="138" y="29" width="1" height="1" />
    <rect x="139" y="29" width="1" height="1" />
    <rect x="140" y="29" width="1" height="1" />
    <rect x="48" y="30" width="1" height="1" />
    <rect x="49" y="30" width="1" height="1" />
    <rect x="50" y="30" width="1" height="1" />
    <rect x="84" y="30" width="1" height="1" />
    <rect x="85" y="30" width="1" height="1" />
    <rect x="86" y="30" width="1" height="1" />
    <rect x="93" y="30" width="1" height="1" />
    <rect x="94" y="30" width="1" height="1" />
    <rect x="95" y="30" width="1" height="1" />
    <rect x="138" y="30" width="1" height="1" />
    <rect x="139" y="30" width="1" height="1" />
    <rect x="140" y="30" width="1" height="1" />
    <rect x="48" y="31" width="1" height="1" />
    <rect x="49" y="31" width="1" height="1" />
    <rect x="50" y="31" width="1" height="1" />
    <rect x="84" y="31" width="1" height="1" />
    <rect x="85" y="31" width="1" height="1" />
    <rect x="86" y="31" width="1" height="1" />
    <rect x="93" y="31" width="1" height="1" />
    <rect x="94" y="31" width="1" height="1" />
    <rect x="95" y="31" width="1" height="1" />
    <rect x="138" y="31" width="1" height="1" />
    <rect x="139" y="31" width="1" height="1" />
    <rect x="140" y="31" width="1" height="1" />
    <rect x="48" y="32" width="1" height="1" />
    <rect x="49" y="32" width="1" height="1" />
    <rect x="50" y="32" width="1" height="1" />
    <rect x="84" y="32" width="1" height="1" />
    <rect x="85" y="32" width="1" height="1" />
    <rect x="86" y="32" width="1" height="1" />
    <rect x="93" y="32" width="1" height="1" />
    <rect x="94" y="32" width="1" height="1" />
    <rect x="95" y="32" width="1" height="1" />
    <rect x="138" y="32" width="1" height="1" />
    <rect x="139" y="32" width="1" height="1" />
    <rect x="140" y="32" width="1" height="1" />
    <rect x="48" y="33" width="1" height="1" />
    <rect x="49" y="33" width="1" height="1" />
    <rect x="50" y="33" width="1" height="1" />
    <rect x="84" y="33" width="1" height="1" />
    <rect x="85" y="33" width="1" height="1" />
    <rect x="86" y="33" width="1" height="1" />
    <rect x="93" y="33" width="1" height="1" />
    <rect x="94" y="33" width="1" height="1" />
    <rect x="95" y="33" width="1" height="1" />
    <rect x="138" y="33" width="1" height="1" />
    <rect x="139" y="33" width="1" height="1" />
    <rect x="140" y="33" width="1" height="1" />
    <rect x="48" y="34" width="1" height="1" />
    <rect x="49" y="34" width="1" height="1" />
    <rect x="50" y="34" width="1" height="1" />
    <rect x="84" y="34" width="1" height="1" />
    <rect x="85" y="34" width="1" height="1" />
    <rect x="86" y="34" width="1" height="1" />
    <rect x="87" y="34" width="1" height="1" />
    <rect x="88" y="34" width="1" height="1" />
    <rect x="89" y="34" width="1" height="1" />
    <rect x="90" y="34" width="1" height="1" />
    <rect x="91" y="34" width="1" height="1" />
    <rect x="92" y="34" width="1" height="1" />
    <rect x="93" y="34" width="1" height="1" />
    <rect x="94" y="34" width="1" height="1" />
    <rect x="95" y="34" width="1" height="1" />
    <rect x="138" y="34" width="1" height="1" />
    <rect x="139" y="34" width="1" height="1" />
    <rect x="140" y="34" width="1" height="1" />
    <rect x="48" y="35" width="1" height="1" />
    <rect x="49" y="35" width="1" height="1" />
    <rect x="50" y="35" width="1" height="1" />
    <rect x="84" y="35" width="1" height="1" />
    <rect x="85" y="35" width="1" height="1" />
    <rect x="86" y="35" width="1" height="1" />
    <rect x="87" y="35" width="1" height="1" />
    <rect x="88" y="35" width="1" height="1" />
    <rect x="89" y="35" width="1" height="1" />
    <rect x="90" y="35" width="1" height="1" />
    <rect x="91" y="35" width="1" height="1" />
    <rect x="92" y="35" width="1" height="1" />
    <rect x="93" y="35" width="1" height="1" />
    <rect x="94" y="35" width="1" height="1" />
    <rect x="95" y="35" width="1" height="1" />
    <rect x="138" y="35" width="1" height="1" />
    <rect x="139" y="35" width="1" height="1" />
    <rect x="140" y="35" width="1" height="1" />
    <rect x="48" y="36" width="1" height="1" />
    <rect x="49" y="36" width="1" height="1" />
    <rect x="50" y="36" width="1" height="1" />
    <rect x="84" y="36" width="1" height="1" />
    <rect x="85" y="36" width="1" height="1" />
    <rect x="86" y="36" width="1" height="1" />
    <rect x="93" y="36" width="1" height="1" />
    <rect x="94" y="36" width="1" height="1" />
    <rect x="95" y="36" width="1" height="1" />
    <rect x="138" y="36" width="1" height="1" />
    <rect x="139" y="36" width="1" height="1" />
    <rect x="140" y="36" width="1" height="1" />
    <rect x="48" y="37" width="1" height="1" />
    <rect x="49" y="37" width="1" height="1" />
    <rect x="50" y="37" width="1" height="1" />
    <rect x="84" y="37" width="1" height="1" />
    <rect x="85" y="37" width="1" height="1" />
    <rect x="86" y="37" width="1" height="1" />
    <rect x="93" y="37" width="1" height="1" />
    <rect x="94" y="37" width="1" height="1" />
    <rect x="95" y="37" width="1" height="1" />
    <rect x="138" y="37" width="1" height="1" />
    <rect x="139" y="37" width="1" height="1" />
    <rect x="140" y="37" width="1" height="1" />
    <rect x="48" y="38" width="1" height="1" />
    <rect x="49" y="38" width="1" height="1" />
    <rect x="50" y="38" width="1" height="1" />
    <rect x="84" y="38" width="1" height="1" />
    <rect x="85" y="38" width="1" height="1" />
    <rect x="86" y="38" width="1" height="1" />
    <rect x="93" y="38" width="1" height="1" />
    <rect x="94" y="38" width="1" height="1" />
    <rect x="95" y="38" width="1" height="1" />
    <rect x="138" y="38" width="1" height="1" />
    <rect x="139" y="38" width="1" height="1" />
    <rect x="140" y="38" width="1" height="1" />
    <rect x="48" y="39" width="1" height="1" />
    <rect x="49" y="39" width="1" height="1" />
    <rect x="50" y="39" width="1" height="1" />
    <rect x="84" y="39" width="1" height="1" />
    <rect x="85" y="39" width="1" height="1" />
    <rect x="86" y="39" width="1" height="1" />
    <rect x="93" y="39" width="1" height="1" />
    <rect x="94" y="39" width="1" height="1" />
    <rect x="95" y="39" width="1" height="1" />
    <rect x="138" y="39" width="1" height="1" />
    <rect x="139" y="39" width="1" height="1" />
    <rect x="140" y="39" width="1" height="1" />
    <rect x="48" y="40" width="1" height="1" />
    <rect x="49" y="40" width="1" height="1" />
    <rect x="50" y="40" width="1" height="1" />
    <rect x="84" y="40" width="1" height="1" />
    <rect x="85" y="40" width="1" height="1" />
    <rect x="86" y="40" width="1" height="1" />
    <rect x="93" y="40" width="1" height="1" />
    <rect x="94" y="40" width="1" height="1" />
    <rect x="95" y="40" width="1" height="1" />
    <rect x="138" y="40" width="1" height="1" />
    <rect x="139" y="40" width="1" height="1" />
    <rect x="140" y="40" width="1" height="1" />
    <rect x="48" y="41" width="1" height="1" />
    <rect x="49" y="41" width="1" height="1" />
    <rect x="50" y="41" width="1" height="1" />
    <rect x="84" y="41" width="1" height="1" />
    <rect x="85" y="41" width="1" height="1" />
    <rect x="86" y="41" width="1" height="1" />
    <rect x="93" y="41" width="1" height="1" />
    <rect x="94" y="41" width="1" height="1" />
    <rect x="95" y="41" width="1" height="1" />
    <rect x="138" y="41" width="1" height="1" />
    <rect x="139" y="41" width="1" height="1" />
    <rect x="140" y="41" width="1" height="1" />
    <rect x="51" y="42" width="1" height="1" />
    <rect x="52" y="42" width="1" height="1" />
    <rect x="53" y="42" width="1" height="1" />
    <rect x="84" y="42" width="1" height="1" />
    <rect x="85" y="42" width="1" height="1" />
    <rect x="86" y="42" width="1" height="1" />
    <rect x="93" y="42" width="1" height="1" />
    <rect x="94" y="42" width="1" height="1" />
    <rect x="95" y="42" width="1" height="1" />
    <rect x="135" y="42" width="1" height="1" />
    <rect x="136" y="42" width="1" height="1" />
    <rect x="137" y="42" width="1" height="1" />
    <rect x="51" y="43" width="1" height="1" />
    <rect x="52" y="43" width="1" height="1" />
    <rect x="53" y="43" width="1" height="1" />
    <rect x="84" y="43" width="1" height="1" />
    <rect x="85" y="43" width="1" height="1" />
    <rect x="86" y="43" width="1" height="1" />
    <rect x="93" y="43" width="1" height="1" />
    <rect x="94" y="43" width="1" height="1" />
    <rect x="95" y="43" width="1" height="1" />
    <rect x="135" y="43" width="1" height="1" />
    <rect x="136" y="43" width="1" height="1" />
    <rect x="137" y="43" width="1" height="1" />
    <rect x="51" y="44" width="1" height="1" />
    <rect x="52" y="44" width="1" height="1" />
    <rect x="53" y="44" width="1" height="1" />
    <rect x="84" y="44" width="1" height="1" />
    <rect x="85" y="44" width="1" height="1" />
    <rect x="86" y="44" width="1" height="1" />
    <rect x="93" y="44" width="1" height="1" />
    <rect x="94" y="44" width="1" height="1" />
    <rect x="95" y="44" width="1" height="1" />
    <rect x="135" y="44" width="1" height="1" />
    <rect x="136" y="44" width="1" height="1" />
    <rect x="137" y="44" width="1" height="1" />
    <rect x="54" y="45" width="1" height="1" />
    <rect x="55" y="45" width="1" height="1" />
    <rect x="56" y="45" width="1" height="1" />
    <rect x="57" y="45" width="1" height="1" />
    <rect x="58" y="45" width="1" height="1" />
    <rect x="59" y="45" width="1" height="1" />
    <rect x="60" y="45" width="1" height="1" />
    <rect x="61" y="45" width="1" height="1" />
    <rect x="62" y="45" width="1" height="1" />
    <rect x="63" y="45" width="1" height="1" />
    <rect x="64" y="45" width="1" height="1" />
    <rect x="65" y="45" width="1" height="1" />
    <rect x="66" y="45" width="1" height="1" />
    <rect x="67" y="45" width="1" height="1" />
    <rect x="68" y="45" width="1" height="1" />
    <rect x="69" y="45" width="1" height="1" />
    <rect x="70" y="45" width="1" height="1" />
    <rect x="71" y="45" width="1" height="1" />
    <rect x="72" y="45" width="1" height="1" />
    <rect x="73" y="45" width="1" height="1" />
    <rect x="74" y="45" width="1" height="1" />
    <rect x="75" y="45" width="1" height="1" />
    <rect x="76" y="45" width="1" height="1" />
    <rect x="77" y="45" width="1" height="1" />
    <rect x="78" y="45" width="1" height="1" />
    <rect x="79" y="45" width="1" height="1" />
    <rect x="80" y="45" width="1" height="1" />
    <rect x="81" y="45" width="1" height="1" />
    <rect x="82" y="45" width="1" height="1" />
    <rect x="83" y="45" width="1" height="1" />
    <rect x="96" y="45" width="1" height="1" />
    <rect x="97" y="45" width="1" height="1" />
    <rect x="98" y="45" width="1" height="1" />
    <rect x="99" y="45" width="1" height="1" />
    <rect x="100" y="45" width="1" height="1" />
    <rect x="101" y="45" width="1" height="1" />
    <rect x="102" y="45" width="1" height="1" />
    <rect x="103" y="45" width="1" height="1" />
    <rect x="104" y="45" width="1" height="1" />
    <rect x="105" y="45" width="1" height="1" />
    <rect x="106" y="45" width="1" height="1" />
    <rect x="107" y="45" width="1" height="1" />
    <rect x="108" y="45" width="1" height="1" />
    <rect x="109" y="45" width="1" height="1" />
    <rect x="110" y="45" width="1" height="1" />
    <rect x="111" y="45" width="1" height="1" />
    <rect x="112" y="45" width="1" height="1" />
    <rect x="113" y="45" width="1" height="1" />
    <rect x="114" y="45" width="1" height="1" />
    <rect x="115" y="45" width="1" height="1" />
    <rect x="116" y="45" width="1" height="1" />
    <rect x="117" y="45" width="1" height="1" />
    <rect x="118" y="45" width="1" height="1" />
    <rect x="119" y="45" width="1" height="1" />
    <rect x="120" y="45" width="1" height="1" />
    <rect x="121" y="45" width="1" height="1" />
    <rect x="122" y="45" width="1" height="1" />
    <rect x="123" y="45" width="1" height="1" />
    <rect x="124" y="45" width="1" height="1" />
    <rect x="125" y="45" width="1" height="1" />
    <rect x="126" y="45" width="1" height="1" />
    <rect x="127" y="45" width="1" height="1" />
    <rect x="128" y="45" width="1" height="1" />
    <rect x="129" y="45" width="1" height="1" />
    <rect x="130" y="45" width="1" height="1" />
    <rect x="131" y="45" width="1" height="1" />
    <rect x="132" y="45" width="1" height="1" />
    <rect x="133" y="45" width="1" height="1" />
    <rect x="134" y="45" width="1" height="1" />
    <rect x="54" y="46" width="1" height="1" />
    <rect x="55" y="46" width="1" height="1" />
    <rect x="56" y="46" width="1" height="1" />
    <rect x="57" y="46" width="1" height="1" />
    <rect x="58" y="46" width="1" height="1" />
    <rect x="59" y="46" width="1" height="1" />
    <rect x="60" y="46" width="1" height="1" />
    <rect x="61" y="46" width="1" height="1" />
    <rect x="62" y="46" width="1" height="1" />
    <rect x="63" y="46" width="1" height="1" />
    <rect x="64" y="46" width="1" height="1" />
    <rect x="65" y="46" width="1" height="1" />
    <rect x="66" y="46" width="1" height="1" />
    <rect x="67" y="46" width="1" height="1" />
    <rect x="68" y="46" width="1" height="1" />
    <rect x="69" y="46" width="1" height="1" />
    <rect x="70" y="46" width="1" height="1" />
    <rect x="71" y="46" width="1" height="1" />
    <rect x="72" y="46" width="1" height="1" />
    <rect x="73" y="46" width="1" height="1" />
    <rect x="74" y="46" width="1" height="1" />
    <rect x="75" y="46" width="1" height="1" />
    <rect x="76" y="46" width="1" height="1" />
    <rect x="77" y="46" width="1" height="1" />
    <rect x="78" y="46" width="1" height="1" />
    <rect x="79" y="46" width="1" height="1" />
    <rect x="80" y="46" width="1" height="1" />
    <rect x="81" y="46" width="1" height="1" />
    <rect x="82" y="46" width="1" height="1" />
    <rect x="83" y="46" width="1" height="1" />
    <rect x="96" y="46" width="1" height="1" />
    <rect x="97" y="46" width="1" height="1" />
    <rect x="98" y="46" width="1" height="1" />
    <rect x="99" y="46" width="1" height="1" />
    <rect x="100" y="46" width="1" height="1" />
    <rect x="101" y="46" width="1" height="1" />
    <rect x="102" y="46" width="1" height="1" />
    <rect x="103" y="46" width="1" height="1" />
    <rect x="104" y="46" width="1" height="1" />
    <rect x="105" y="46" width="1" height="1" />
    <rect x="106" y="46" width="1" height="1" />
    <rect x="107" y="46" width="1" height="1" />
    <rect x="108" y="46" width="1" height="1" />
    <rect x="109" y="46" width="1" height="1" />
    <rect x="110" y="46" width="1" height="1" />
    <rect x="111" y="46" width="1" height="1" />
    <rect x="112" y="46" width="1" height="1" />
    <rect x="113" y="46" width="1" height="1" />
    <rect x="114" y="46" width="1" height="1" />
    <rect x="115" y="46" width="1" height="1" />
    <rect x="116" y="46" width="1" height="1" />
    <rect x="117" y="46" width="1" height="1" />
    <rect x="118" y="46" width="1" height="1" />
    <rect x="119" y="46" width="1" height="1" />
    <rect x="120" y="46" width="1" height="1" />
    <rect x="121" y="46" width="1" height="1" />
    <rect x="122" y="46" width="1" height="1" />
    <rect x="123" y="46" width="1" height="1" />
    <rect x="124" y="46" width="1" height="1" />
    <rect x="125" y="46" width="1" height="1" />
    <rect x="126" y="46" width="1" height="1" />
    <rect x="127" y="46" width="1" height="1" />
    <rect x="128" y="46" width="1" height="1" />
    <rect x="129" y="46" width="1" height="1" />
    <rect x="130" y="46" width="1" height="1" />
    <rect x="131" y="46" width="1" height="1" />
    <rect x="132" y="46" width="1" height="1" />
    <rect x="133" y="46" width="1" height="1" />
    <rect x="134" y="46" width="1" height="1" />
    <rect x="54" y="47" width="1" height="1" />
    <rect x="55" y="47" width="1" height="1" />
    <rect x="56" y="47" width="1" height="1" />
    <rect x="57" y="47" width="1" height="1" />
    <rect x="58" y="47" width="1" height="1" />
    <rect x="59" y="47" width="1" height="1" />
    <rect x="60" y="47" width="1" height="1" />
    <rect x="61" y="47" width="1" height="1" />
    <rect x="62" y="47" width="1" height="1" />
    <rect x="63" y="47" width="1" height="1" />
    <rect x="64" y="47" width="1" height="1" />
    <rect x="65" y="47" width="1" height="1" />
    <rect x="66" y="47" width="1" height="1" />
    <rect x="67" y="47" width="1" height="1" />
    <rect x="68" y="47" width="1" height="1" />
    <rect x="69" y="47" width="1" height="1" />
    <rect x="70" y="47" width="1" height="1" />
    <rect x="71" y="47" width="1" height="1" />
    <rect x="72" y="47" width="1" height="1" />
    <rect x="73" y="47" width="1" height="1" />
    <rect x="74" y="47" width="1" height="1" />
    <rect x="75" y="47" width="1" height="1" />
    <rect x="76" y="47" width="1" height="1" />
    <rect x="77" y="47" width="1" height="1" />
    <rect x="78" y="47" width="1" height="1" />
    <rect x="79" y="47" width="1" height="1" />
    <rect x="80" y="47" width="1" height="1" />
    <rect x="81" y="47" width="1" height="1" />
    <rect x="82" y="47" width="1" height="1" />
    <rect x="83" y="47" width="1" height="1" />
    <rect x="96" y="47" width="1" height="1" />
    <rect x="97" y="47" width="1" height="1" />
    <rect x="98" y="47" width="1" height="1" />
    <rect x="99" y="47" width="1" height="1" />
    <rect x="100" y="47" width="1" height="1" />
    <rect x="101" y="47" width="1" height="1" />
    <rect x="102" y="47" width="1" height="1" />
    <rect x="103" y="47" width="1" height="1" />
    <rect x="104" y="47" width="1" height="1" />
    <rect x="105" y="47" width="1" height="1" />
    <rect x="106" y="47" width="1" height="1" />
    <rect x="107" y="47" width="1" height="1" />
    <rect x="108" y="47" width="1" height="1" />
    <rect x="109" y="47" width="1" height="1" />
    <rect x="110" y="47" width="1" height="1" />
    <rect x="111" y="47" width="1" height="1" />
    <rect x="112" y="47" width="1" height="1" />
    <rect x="113" y="47" width="1" height="1" />
    <rect x="114" y="47" width="1" height="1" />
    <rect x="115" y="47" width="1" height="1" />
    <rect x="116" y="47" width="1" height="1" />
    <rect x="117" y="47" width="1" height="1" />
    <rect x="118" y="47" width="1" height="1" />
    <rect x="119" y="47" width="1" height="1" />
    <rect x="120" y="47" width="1" height="1" />
    <rect x="121" y="47" width="1" height="1" />
    <rect x="122" y="47" width="1" height="1" />
    <rect x="123" y="47" width="1" height="1" />
    <rect x="124" y="47" width="1" height="1" />
    <rect x="125" y="47" width="1" height="1" />
    <rect x="126" y="47" width="1" height="1" />
    <rect x="127" y="47" width="1" height="1" />
    <rect x="128" y="47" width="1" height="1" />
    <rect x="129" y="47" width="1" height="1" />
    <rect x="130" y="47" width="1" height="1" />
    <rect x="131" y="47" width="1" height="1" />
    <rect x="132" y="47" width="1" height="1" />
    <rect x="133" y="47" width="1" height="1" />
    <rect x="134" y="47" width="1" height="1" />
</svg>