<svg xmlns="http://www.w3.org/2000/svg" width="39" height="51" viewBox="0 0 39 51" fill="none">
  <g clip-path="url(#clip0_107_395)">
    <mask id="mask0_107_395" style="mask-type:luminance" maskUnits="userSpaceOnUse" x="0" y="0" width="39" height="51">
      <path d="M9.58333 40.4203H0V30.4203H9.58333V20.4203H0V10.4203H9.58333V0.420349H28.75V10.4203H38.3333V20.4203H28.75V30.4203H38.3333V40.4203H28.75V50.4203H9.58333V40.4203ZM28.75 40.4203V30.4203H9.58333V40.4203H28.75ZM28.75 20.4203V10.4203H9.58333V20.4203H28.75Z" fill="white"/>
    </mask>
    <g mask="url(#mask0_107_395)">
      <path d="M38.3333 10.4568H0V20.4329H38.3333V10.4568Z" fill="#67DFD4"/>
      <path d="M38.3333 20.4329H0V30.4089H38.3333V20.4329Z" fill="#F4BC76"/>
      <path d="M0 30.4683V40.4443H38.3333V30.4683H0ZM32.203 35.3964C31.2269 35.3964 30.4367 34.5995 30.4367 33.6151C30.4367 32.6308 31.2269 31.8339 32.203 31.8339C33.1791 31.8339 33.9693 32.6318 33.9693 33.6151C33.9693 34.5985 33.1781 35.3964 32.203 35.3964Z" fill="#EF8BB8"/>
      <path d="M38.3333 40.4443H0V50.4203H38.3333V40.4443Z" fill="#EB5152"/>
      <path d="M38.3333 0.420349H0V10.3964H38.3333V0.420349Z" fill="#6767EF"/>
    </g>
    <path d="M10.6338 35.1891V27.2683L7.6001 30.4464H7.28196L4.32164 27.3422V35.1891H0.137329V18.5172H0.748811L7.47718 25.313L14.2056 18.5172H14.817V35.1891H10.6327H10.6338Z" fill="black"/>
    <path d="M25.6255 35.336H21.0497L16.6454 18.713H20.9764L23.3738 29.4933L25.8445 18.713H30.0288L25.6245 35.336H25.6255Z" fill="black"/>
  </g>
  <defs>
    <clipPath id="clip0_107_395">
      <rect width="38.3333" height="50" fill="white" transform="translate(0 0.420349)"/>
    </clipPath>
  </defs>
</svg>